<svg id="Grupo_115188" data-name="Grupo 115188" xmlns="http://www.w3.org/2000/svg" xmlns:xlink="http://www.w3.org/1999/xlink" width="157.363" height="154.837" viewBox="0 0 157.363 154.837">
  <defs>
    <clipPath id="clip-path">
      <rect id="Rectángulo_37505" data-name="Rectángulo 37505" width="157.363" height="154.837" fill="none"/>
    </clipPath>
  </defs>
  <g id="Grupo_115188-2" data-name="Grupo 115188" clip-path="url(#clip-path)">
    <path id="Trazado_148915" data-name="Trazado 148915" d="M117.743,128.038q.013,3.841.025,7.681c-2,.464-2.583,1.172-2.587,3.223-.009,4.729,0,9.459-.005,14.189,0,2.47-.836,3.319-3.26,3.319q-48.291,0-96.583,0c-2.473,0-3.342-.832-3.342-3.235q-.006-69.011,0-138.022c0-2.352.86-3.225,3.189-3.225q39.021-.008,78.041-.033c1.21,0,1.365.413,1.348,1.461-.061,3.654-.034,7.309-.022,10.964.017,4.994,3.266,8.229,8.3,8.252,3.709.017,7.418.043,11.125-.022,1.009-.018,1.276.256,1.235,1.248-.082,1.985-.031,3.976-.022,5.965.01,2.051.584,2.756,2.587,3.224q0,3.822-.008,7.644c-.462-.263-.93-.518-1.387-.79-13.041-7.762-26.8-9.261-40.947-3.849C53.3,54.494,41.5,77.236,46.834,100.376c5.434,23.571,29.937,39.4,53.588,34.682a51.555,51.555,0,0,0,17.32-7.02M62.306,27.457q-9.344,0-18.69,0c-2.185,0-3.316.915-3.281,2.629.034,1.639,1.145,2.526,3.238,2.527q18.69.009,37.38,0c2.174,0,3.319-.94,3.284-2.646C84.2,28.324,83.1,27.46,81,27.458q-9.345-.007-18.69,0M40.525,42.936q-7.493,0-14.985,0c-2.112,0-3.215.856-3.26,2.493-.047,1.711,1.1,2.661,3.261,2.663q14.824.008,29.649,0c2.169,0,3.306-.947,3.259-2.664-.045-1.639-1.146-2.49-3.26-2.493q-7.332-.008-14.663,0m17.924,92.877q-6.124,0-12.248,0c-2.21,0-3.321.89-3.3,2.614.022,1.651,1.128,2.541,3.212,2.542q12.328.009,24.657,0c2.043,0,3.168-.957,3.146-2.614s-1.131-2.536-3.221-2.54c-4.083-.009-8.165,0-12.248,0M36.66,120.333c-3.757,0-7.515-.008-11.273,0-2.032.006-3.148.971-3.108,2.642.038,1.589,1.135,2.508,3.086,2.511q11.111.016,22.223,0c2.024,0,3.149-.987,3.11-2.65-.038-1.588-1.137-2.5-3.088-2.5-3.65-.012-7.3,0-10.95,0M32.451,63.574c2.575,0,5.15.025,7.725-.009a2.576,2.576,0,1,0,0-5.138q-7.563-.044-15.128,0c-1.8.01-2.822,1-2.825,2.591,0,1.616.987,2.536,2.822,2.552,2.467.022,4.935.006,7.4,0m-1.122,41.28c-2.092,0-4.185-.023-6.277.008a2.577,2.577,0,1,0,0,5.138q6.277.054,12.555,0a2.577,2.577,0,1,0,0-5.138c-2.092-.031-4.185-.008-6.277-.008m-1.464-25.8v-.007c1.823,0,3.648.05,5.469-.016a2.555,2.555,0,0,0,.016-5.105q-5.306-.1-10.616,0a2.436,2.436,0,0,0-2.5,2.729,2.4,2.4,0,0,0,2.647,2.395c1.662.033,3.325.007,4.987.007m.052,61.918c1.666,0,3.332.021,5-.006,1.8-.028,2.874-1,2.892-2.542s-1.049-2.586-2.828-2.6c-3.277-.03-6.555-.025-9.833,0-1.805.012-2.868.98-2.885,2.539s1.045,2.574,2.82,2.608c1.611.031,3.224.007,4.836.007m-1.066-51.6v-.01h-3.7c-.107,0-.215,0-.322.009a2.523,2.523,0,0,0-2.551,2.549A2.474,2.474,0,0,0,24.783,94.5q3.941.1,7.886,0a2.561,2.561,0,0,0,.044-5.121c-1.284-.063-2.575-.013-3.862-.013" transform="translate(-6.82 -6.792)" fill="#fff3c9"/>
    <path id="Trazado_148916" data-name="Trazado 148916" d="M110.947,36.237c-2-.468-2.577-1.173-2.587-3.224-.009-1.989-.06-3.979.022-5.965.041-.992-.227-1.266-1.235-1.248-3.707.066-7.417.039-11.125.022-5.03-.023-8.279-3.258-8.3-8.252-.013-3.655-.041-7.31.021-10.964.018-1.048-.137-1.463-1.348-1.461Q47.379,5.2,8.359,5.178c-2.329,0-3.189.873-3.189,3.225q-.006,69.011,0,138.022c0,2.4.87,3.235,3.343,3.235q48.291,0,96.583,0c2.424,0,3.255-.848,3.26-3.319.008-4.73,0-9.46.005-14.189,0-2.052.586-2.759,2.587-3.223,1.939.47,2.56,1.182,2.565,3.087.015,5,.04,9.994-.008,14.991a7.709,7.709,0,0,1-7.907,7.809q-48.841.019-97.682,0c-4.61,0-7.9-3.405-7.908-8.138Q-.012,117.581,0,88.486,0,48.672,0,8.858C0,3.071,3.048.027,8.842.027Q48.979.024,89.116,0a4.955,4.955,0,0,1,3.846,1.56q9.516,9.632,19.143,19.154a4.328,4.328,0,0,1,1.436,3.409c-.076,2.953-.014,5.909-.026,8.865-.008,2.061-.576,2.763-2.568,3.248M92.894,9.061c0,3.136-.019,6.077.008,9.019a2.236,2.236,0,0,0,2.07,2.47c3.122.145,6.255.047,9.5.047L92.894,9.061" transform="translate(0 -0.001)" fill="#010101"/>
    <path id="Trazado_148917" data-name="Trazado 148917" d="M162.069,168.8a51.55,51.55,0,0,1-17.32,7.02c-23.651,4.721-48.154-11.112-53.588-34.682C85.827,118,97.628,95.259,119.752,86.8c14.152-5.412,27.907-3.913,40.947,3.849.457.272.924.527,1.386.79a48.967,48.967,0,0,1,14.37,15.424,46.265,46.265,0,0,1-3.144,51.2c-.256.339-.465.712-.7,1.069-1.585,1.658-3.11,3.381-4.781,4.947-.8.753-.593,1.107.059,1.736,2,1.932,4.027,3.852,5.885,5.919,1,1.112,1.593.994,2.448-.056.8-.987,2.39-1.814,2.463-2.8.087-1.161-1.6-1.946-2.507-2.9-1.692-1.778-1.751-2.7-.156-4.519a2.784,2.784,0,0,1,3.734.741c.42.487.922.9,1.356,1.377.873.955,1.518,1.864,3,.488,1.159-1.073,2.483-.2,3.515.839q8.588,8.62,17.207,17.209a11.954,11.954,0,0,1,3.342,5.77,11.7,11.7,0,0,1-5.282,12.789,11.513,11.513,0,0,1-14-1.453c-3.29-3.085-6.418-6.344-9.613-9.53q-4.108-4.1-8.2-8.207c-1.594-1.6-1.686-2.539-.311-4.311.386-.5.413-.747-.025-1.18-2.447-2.415-4.89-4.834-7.288-7.3-.6-.618-.966-.42-1.393.106M136.363,88.864a41.276,41.276,0,1,0,41.2,41.337,41.241,41.241,0,0,0-41.2-41.337m60.915,108.37a6.35,6.35,0,0,0,5.526-3.978,6.044,6.044,0,0,0-1.33-7.117c-5.081-5.169-10.24-10.26-15.351-15.4-.543-.546-.915-.744-1.557-.087q-3.827,3.916-7.749,7.739c-.627.612-.536.988.04,1.56,5.221,5.181,10.4,10.4,15.629,15.578a6.28,6.28,0,0,0,4.793,1.705" transform="translate(-51.147 -47.557)" fill="#030404"/>
    <path id="Trazado_148918" data-name="Trazado 148918" d="M278.241,261.207c-1.6,1.817-1.536,2.741.156,4.519.907.954,2.594,1.739,2.508,2.9-.073.985-1.659,1.811-2.463,2.8-.856,1.05-1.449,1.168-2.449.056-1.858-2.067-3.882-3.987-5.885-5.919-.653-.629-.864-.983-.059-1.736,1.672-1.566,3.2-3.288,4.781-4.947.923.013,1.29.824,1.874,1.318.473.4.817.988,1.537,1.009" transform="translate(-153.362 -147.303)" fill="#dae8ed"/>
    <path id="Trazado_148919" data-name="Trazado 148919" d="M99.731,47.945q9.345,0,18.69,0c2.1,0,3.207.865,3.241,2.51.035,1.706-1.11,2.645-3.284,2.646q-18.69.008-37.38,0c-2.093,0-3.2-.888-3.239-2.527-.035-1.714,1.1-2.627,3.281-2.629q9.345-.006,18.69,0" transform="translate(-44.245 -27.28)" fill="#010101"/>
    <path id="Trazado_148920" data-name="Trazado 148920" d="M54.112,83.86q7.331,0,14.663,0c2.113,0,3.214.854,3.26,2.493.047,1.717-1.09,2.662-3.259,2.663q-14.824.009-29.648,0c-2.164,0-3.309-.951-3.261-2.662.045-1.638,1.148-2.491,3.26-2.494q7.492-.008,14.985,0" transform="translate(-20.407 -47.716)" fill="#010101"/>
    <path id="Trazado_148921" data-name="Trazado 148921" d="M99.265,299.352c4.082,0,8.165-.006,12.248,0,2.091,0,3.2.892,3.222,2.54s-1.1,2.612-3.147,2.614q-12.328.012-24.656,0c-2.083,0-3.19-.892-3.212-2.542-.023-1.724,1.087-2.611,3.3-2.614q6.124-.007,12.248,0" transform="translate(-47.636 -170.331)" fill="#010101"/>
    <path id="Trazado_148922" data-name="Trazado 148922" d="M50.247,263.436c3.65,0,7.3-.009,10.95,0,1.951.006,3.051.914,3.088,2.5.039,1.662-1.087,2.647-3.111,2.65q-11.112.016-22.223,0c-1.951,0-3.047-.921-3.086-2.511-.04-1.671,1.076-2.636,3.108-2.642,3.758-.011,7.515,0,11.273,0" transform="translate(-20.408 -149.894)" fill="#010101"/>
    <path id="Trazado_148923" data-name="Trazado 148923" d="M45.97,124.924c-2.467,0-4.935.018-7.4,0-1.835-.017-2.825-.937-2.822-2.553,0-1.589,1.025-2.581,2.825-2.592q7.564-.041,15.128,0a2.576,2.576,0,1,1,0,5.138c-2.575.034-5.15.008-7.725.009" transform="translate(-20.339 -68.141)" fill="#010101"/>
    <path id="Trazado_148924" data-name="Trazado 148924" d="M44.914,227.514c2.092,0,4.185-.024,6.277.007a2.577,2.577,0,1,1,0,5.138q-6.277.054-12.555,0a2.577,2.577,0,1,1,0-5.138c2.092-.031,4.185-.007,6.277-.007" transform="translate(-20.406 -129.451)" fill="#010101"/>
    <path id="Trazado_148925" data-name="Trazado 148925" d="M43.384,160.829c-1.662,0-3.325.025-4.987-.007a2.4,2.4,0,0,1-2.647-2.394,2.436,2.436,0,0,1,2.5-2.73q5.307-.1,10.616,0a2.555,2.555,0,0,1-.016,5.105c-1.821.066-3.646.016-5.469.016v.007" transform="translate(-20.34 -88.566)" fill="#010101"/>
    <path id="Trazado_148926" data-name="Trazado 148926" d="M43.48,304.5c-1.612,0-3.224.024-4.836-.007-1.775-.034-2.836-1.04-2.82-2.608s1.079-2.527,2.885-2.539c3.277-.022,6.555-.027,9.833,0,1.779.016,2.846,1.042,2.828,2.6s-1.1,2.514-2.893,2.542c-1.665.026-3.331.006-5,.005" transform="translate(-20.384 -170.319)" fill="#010101"/>
    <path id="Trazado_148927" data-name="Trazado 148927" d="M42.433,191.577c1.287,0,2.578-.05,3.862.013a2.561,2.561,0,0,1-.044,5.121q-3.941.085-7.886,0a2.474,2.474,0,0,1-2.507-2.583,2.523,2.523,0,0,1,2.551-2.549c.107-.008.215-.009.322-.009h3.7v.01" transform="translate(-20.404 -108.997)" fill="#030404"/>
    <path id="Trazado_148928" data-name="Trazado 148928" d="M215.524,21.023,227.1,32.559c-3.241,0-6.374.1-9.5-.047a2.236,2.236,0,0,1-2.07-2.47c-.027-2.942-.008-5.883-.008-9.019" transform="translate(-122.63 -11.962)" fill="#dae8ed"/>
    <path id="Trazado_148929" data-name="Trazado 148929" d="M143.133,95.841a41.276,41.276,0,1,1-41.345,41.194,41.233,41.233,0,0,1,41.345-41.194m-25.883,59.35c0,1.558-.015,3.117,0,4.675.025,2.092.955,3.029,3.067,3.046,2.848.023,5.7.007,8.545.006a6.481,6.481,0,0,0,6.407-6.335c-.057-1.531.684-1.43,1.715-1.418,2.664.031,3.483-.8,3.495-3.41a5.107,5.107,0,0,0,0-.645c-.1-.78.112-1.252,1.021-1.092,2.043.359,3.482-.605,4.745-2.083.8-.937,1.765-1.732,2.592-2.648a1.971,1.971,0,0,1,1.976-.673A18.05,18.05,0,1,0,135.56,129.3a2.181,2.181,0,0,1-.748,2.1c-4.392,4.348-8.607,8.888-13.171,13.045-3.28,2.987-5.58,6.071-4.391,10.743" transform="translate(-57.918 -54.534)" fill="#dae8ed"/>
    <path id="Trazado_148930" data-name="Trazado 148930" d="M311.467,311.641a6.28,6.28,0,0,1-4.793-1.705c-5.225-5.178-10.408-10.4-15.629-15.578-.576-.572-.667-.948-.04-1.56q3.917-3.826,7.749-7.739c.642-.657,1.014-.459,1.557.087,5.111,5.14,10.271,10.23,15.351,15.4a6.044,6.044,0,0,1,1.33,7.117,6.35,6.35,0,0,1-5.526,3.978" transform="translate(-165.337 -161.964)" fill="#d919d9"/>
    <path id="Trazado_148931" data-name="Trazado 148931" d="M137.244,172.2c-1.19-4.672,1.11-7.756,4.391-10.743,4.564-4.157,8.779-8.7,13.171-13.045a2.182,2.182,0,0,0,.748-2.1,18.015,18.015,0,1,1,15.254,15.314,1.97,1.97,0,0,0-1.976.673c-.828.916-1.792,1.711-2.592,2.648-1.263,1.477-2.7,2.442-4.745,2.083-.909-.16-1.118.312-1.021,1.092a5.091,5.091,0,0,1,0,.644c-.011,2.611-.831,3.442-3.494,3.411-1.031-.012-1.773-.113-1.716,1.418a6.48,6.48,0,0,1-6.407,6.335c-2.848,0-5.7.017-8.545-.006-2.113-.017-3.043-.954-3.067-3.046-.018-1.559,0-3.117,0-4.676m5.169-1.409c0,1.3.025,2.217-.009,3.129-.022.6.166.866.813.855,1.772-.032,3.547.037,5.317-.031a1.578,1.578,0,0,0,1.605-1.65c.043-.965,0-1.933.012-2.9.025-2.227.926-3.256,3.111-3.127,1.657.1,2.208-.355,2.089-2.063-.145-2.073.9-3.321,2.768-3.077a6.87,6.87,0,0,0,6.855-3.068c.192-.255.483-.436.672-.693,1.418-1.911,3.134-2.251,5.5-1.749a12.674,12.674,0,0,0,15.084-11.988c.153-5.353-2.116-9.518-6.885-12.01a12.135,12.135,0,0,0-13.9,1.266c-4.282,3.351-5.748,7.919-4.551,13.211a3.731,3.731,0,0,1-1.131,3.888c-5.081,5.022-10.071,10.137-15.2,15.113-1.561,1.516-2.722,3-2.148,4.9" transform="translate(-77.911 -71.541)" fill="#030404"/>
    <path id="Trazado_148932" data-name="Trazado 148932" d="M149.459,177.483c-.574-1.9.587-3.38,2.148-4.9,5.126-4.975,10.116-10.091,15.2-15.113a3.731,3.731,0,0,0,1.131-3.888c-1.2-5.292.269-9.86,4.551-13.211a12.135,12.135,0,0,1,13.9-1.266c4.769,2.492,7.038,6.657,6.885,12.01a12.674,12.674,0,0,1-15.084,11.988c-2.362-.5-4.079-.162-5.5,1.75-.19.256-.481.437-.673.692a6.87,6.87,0,0,1-6.855,3.068c-1.866-.244-2.913,1-2.768,3.077.119,1.707-.432,2.16-2.089,2.062-2.185-.128-3.086.9-3.111,3.128-.011.967.031,1.935-.012,2.9a1.578,1.578,0,0,1-1.605,1.65c-1.77.068-3.545,0-5.317.031-.647.012-.835-.252-.813-.855.033-.912.009-1.826.009-3.129m30.96-34.722a7.735,7.735,0,1,0,7.728,7.817,7.795,7.795,0,0,0-7.728-7.817" transform="translate(-84.958 -78.236)" fill="#ffce26"/>
    <path id="Trazado_148933" data-name="Trazado 148933" d="M211.282,149.712a7.735,7.735,0,1,1-7.732,7.651,7.794,7.794,0,0,1,7.732-7.651m2.56,7.814a2.57,2.57,0,1,0-2.61,2.492,2.557,2.557,0,0,0,2.61-2.492" transform="translate(-115.821 -85.187)" fill="#010101"/>
    <path id="Trazado_148934" data-name="Trazado 148934" d="M220.646,164.338a2.57,2.57,0,1,1-2.452-2.651,2.548,2.548,0,0,1,2.452,2.651" transform="translate(-122.624 -91.999)" fill="#dae8ed"/>
  </g>
</svg>
