<svg xmlns="http://www.w3.org/2000/svg" width="63.354" height="100" viewBox="0 0 63.354 100">
  <g id="Grupo_113307" data-name="Grupo 113307" transform="translate(398.187 -869.353)">
    <path id="Trazado_102884" data-name="Trazado 102884" d="M-379.442,955.508a16.225,16.225,0,0,1-2.563-6.257c-.069-.424-.2-.64-.723-.683a6.655,6.655,0,0,1-6.006-4.415,6.713,6.713,0,0,1,1.3-7.264,1.858,1.858,0,0,0,.46-1.308c.048-2.5-.131-5.006.143-7.507A15.984,15.984,0,0,1-372.018,914.2c1.721-.068,3.447-.034,5.171-.042a9.161,9.161,0,0,1,7.133,3.229c.273.305.456.529.953.325a9.263,9.263,0,0,1,12.683,8.956c-.039,3.057,0,6.116-.013,9.173a2.557,2.557,0,0,0,.491,1.617,6.66,6.66,0,0,1,.729,7.008,6.7,6.7,0,0,1-5.832,4.1c-.526.047-.689.21-.783.727a15.035,15.035,0,0,1-6.158,9.807c-.671.486-.565.771-.081,1.224a8.515,8.515,0,0,0,1.435.988c3.163,1.94,6.767,2.552,10.275,3.457,1.539.4,3.089.756,4.622,1.176a6.681,6.681,0,0,1,4.956,6.179q.761,13.1,1.528,26.2c.015.26.006.522.039.779a2.892,2.892,0,0,1-1.949,3.357h-59.555a3.231,3.231,0,0,1-1.8-3.505c.573-9.053,1.064-18.112,1.6-27.167a6.56,6.56,0,0,1,4.857-5.828c2.128-.579,4.278-1.077,6.416-1.619a1.05,1.05,0,0,0,.5-1.816,4.307,4.307,0,0,1-.577-5.6c1.218-1.751,3.319-2.253,5.555-1.327a1.18,1.18,0,0,0,.189.044l.179.106Zm12.836,45c6.115,0,12.229-.013,18.344.018.723,0,.914-.165.911-.9-.031-6.9-.018-13.79-.021-20.686a2.219,2.219,0,0,0-.116-.954,16.623,16.623,0,0,0-2.123-3.708,14,14,0,0,0-7.716-4.625,1.84,1.84,0,0,0-1.542.171,15.441,15.441,0,0,1-14.847.524,4.868,4.868,0,0,0-3.4-.229,12.254,12.254,0,0,0-8,6.9,4.47,4.47,0,0,0-.56,1.936q.034,10.342-.005,20.684c0,.76.225.893.926.89C-378.705,1000.5-372.656,1000.51-366.606,1000.51Zm-3.846-44.726a3.148,3.148,0,0,1-.781,2.568c-.513.752-.279.954.5,1.194a13.544,13.544,0,0,0,17.517-12.671c.059-4.131-.008-8.263.034-12.394.007-.746-.231-.9-.927-.945a15.638,15.638,0,0,1-9.195-3.3c-.554-.45-.784-.35-1.206.131a14.387,14.387,0,0,1-5.709,3.962,17.873,17.873,0,0,1-9.2.945c-.635-.094-.918-.051-.909.721.04,3.545-.012,7.092.028,10.637a13.426,13.426,0,0,0,3.4,8.911c.378.435.615.474,1.105.137,1.116-.768,2.083-1.882,3.654-1.7-.508-1.971-.026-3.359,1.656-4.332a7.414,7.414,0,0,1,7.958.024c2.525,1.521,2.475,4.445-.023,6.018a6.6,6.6,0,0,1-1.5.685A8.168,8.168,0,0,1-370.453,955.784Zm-14.572-20.777a13.61,13.61,0,0,1,2.541-.5.394.394,0,0,0,.362-.272c.544-1.127,1.462-1.163,2.558-.981,5.472.9,10.246-.344,14.009-4.645,1.068-1.22,1.841-1.265,3.085-.228a12.028,12.028,0,0,0,2.95,1.872,16.5,16.5,0,0,0,6.14,1.358c1.227.032,2.122.573,2.062,1.488-.082,1.241.488,1.553,1.522,1.6a2.262,2.262,0,0,1,.842.227c.753.361.869.014.863-.66-.023-2.7.021-5.4-.02-8.1a7.248,7.248,0,0,0-10.6-6.363c-1.111.558-1.28.508-2-.5a7.094,7.094,0,0,0-6.038-3.18c-1.561,0-3.123-.015-4.684.006a14.092,14.092,0,0,0-12.483,8.545C-385.308,928.025-384.99,931.494-385.025,935.007Zm-2.594,47.063c0-1.1.009-2.208,0-3.312a6.489,6.489,0,0,0-2.438-5.19c-.978-.8-1.952-1.613-2.945-2.4-.37-.293-.766-.934-1.138-.748s-.441.9-.472,1.42c-.274,4.634-.532,9.269-.819,13.9-.034.548.1.728.667.72,2.143-.032,4.287-.039,6.429,0,.648.013.745-.237.729-.793C-387.643,984.474-387.618,983.272-387.618,982.07Zm42.2-.158c0,1.268.035,2.537-.015,3.8-.025.616.169.76.762.75,2.08-.036,4.162-.045,6.242,0,.694.016.871-.174.826-.862-.245-3.7-.42-7.4-.675-11.1a15.631,15.631,0,0,0-.352-3.581c-.166-.543-.365-.672-.849-.257-1.234,1.057-2.52,2.052-3.75,3.113a6.138,6.138,0,0,0-2.186,4.81C-345.42,979.7-345.414,980.806-345.415,981.912Zm-37.178-18.15a2.812,2.812,0,0,0,3.311,3.015,2.586,2.586,0,0,1,2.433.58,2.331,2.331,0,0,0,3.522-.041,2.315,2.315,0,0,0-.423-3.427,2.847,2.847,0,0,1-.65-3.919c.611-1.106,1.25-2.2,1.882-3.291.116-.2.268-.406.052-.609s-.415-.063-.609.073c-.77.541-1.546,1.075-2.316,1.616-2.2,1.547-2.885,1.526-4.956-.159a2.353,2.353,0,0,0-3.114.1,2.224,2.224,0,0,0-.161,3.158A2.73,2.73,0,0,1-382.592,963.762Zm35.93,11.391a9.721,9.721,0,0,1,2.885-3.48c.743-.581,1.485-1.167,2.184-1.8.436-.395,1.339-.654,1.186-1.226s-1.029-.707-1.656-.867q-5.474-1.4-10.957-2.762c-.239-.06-.543-.228-.727.037a20.418,20.418,0,0,1-2.521,2.916A14.883,14.883,0,0,1-346.662,975.153Zm-45.124,25.358c1.136,0,2.272-.028,3.406.012.568.02.792-.1.779-.736-.043-2.108-.037-4.218,0-6.326.009-.581-.119-.784-.743-.773-2.238.039-4.478.044-6.716,0-.658-.014-.806.222-.831.81-.085,2.009-.2,4.017-.331,6.024-.045.7.2,1.02.933,1C-394.123,1000.487-392.954,1000.51-391.786,1000.51Zm50.473,0c1.168,0,2.337-.024,3.5.009.766.022,1.05-.293,1-1.048-.145-2.071-.274-4.143-.366-6.217-.022-.506-.234-.562-.654-.559q-3.456.023-6.911,0c-.463,0-.692.055-.684.615.033,2.206.027,4.413,0,6.619-.005.477.149.6.607.592C-343.65,1000.491-342.482,1000.51-341.314,1000.51Zm-45.067-25.351a15.769,15.769,0,0,1,6.588-6.257c-1.31-.164-2.619-.467-3.307-1.533-.867-1.344-1.86-1.265-3.078-.807-.241.09-.5.117-.752.194a39.406,39.406,0,0,0-5.313,1.522c-.544.255-.638.455-.1.918C-390.248,971-387.738,972.391-386.381,975.159Zm19.676-9.111a9.614,9.614,0,0,0,7.219-3.3c.225-.253.884-.516.385-.989-.45-.427-.539-1.393-1.679-.9a15.109,15.109,0,0,1-11.039.392c-.314-.1-.692-.576-1-.052s-.011.92.4,1.255a3,3,0,0,1,1.219,1.6c.238,1.2,1.113,1.456,2.08,1.694A12.062,12.062,0,0,0-366.7,966.048Zm15.461-24.493c0,1.4.056,2.8-.021,4.194-.047.859.284.98,1,.83a5.144,5.144,0,0,0,4.069-5.139,5.142,5.142,0,0,0-4.344-4.91c-.585-.095-.73.071-.717.635C-351.223,938.628-351.244,940.092-351.244,941.555Zm-31.024.092c0-1.524,0-3.048,0-4.573,0-.357-.006-.6-.513-.571a5.152,5.152,0,0,0-4.506,5.046,5.117,5.117,0,0,0,4.349,5.074c.495.048.692-.054.679-.6C-382.291,944.566-382.269,943.106-382.269,941.647Zm15.707,28.4a13.677,13.677,0,0,0,10.685-5.413c.154-.2.5-.505.347-.633a7.732,7.732,0,0,0-1.413-.8c-.341-.175-.447.14-.605.324-3.464,4.032-7.749,5.361-12.866,3.878-.485-.141-.714-.06-.888.394a2.079,2.079,0,0,1-.419.652c-.356.382-.269.544.207.717A15.244,15.244,0,0,0-366.562,970.045Zm.045-15.227a5.11,5.11,0,0,0,3.274-1.065,1.27,1.27,0,0,0,.019-2.155,5.7,5.7,0,0,0-6.554-.045,1.306,1.306,0,0,0,.062,2.281A5.251,5.251,0,0,0-366.516,954.818Zm-25.257,35.93c1.106,0,2.213-.044,3.316.016.7.037.95-.189.847-.868a2.414,2.414,0,0,1,0-.681c.086-.624-.135-.84-.793-.824-1.82.045-3.641.016-5.462.016-1.73,0-1.7,0-1.834,1.7-.042.54.1.668.61.654C-393.985,990.726-392.879,990.747-391.773,990.748Zm50.386-2.342h-2.432c-1.64,0-1.6,0-1.615,1.635-.006.656.248.725.793.717,1.913-.027,3.826-.01,5.74-.01,1.58,0,1.551,0,1.506-1.593-.016-.588-.179-.79-.782-.762C-339.246,988.44-340.317,988.406-341.388,988.406Z" transform="translate(0 -33.11)" fill="#040403"/>
    <path id="Trazado_102885" data-name="Trazado 102885" d="M-267.221,870.568a2.786,2.786,0,0,1-1.1,1.568c-.913.789-.913.873-.053,1.621,1.675,1.457,1.683,2.985.01,4.423a4.778,4.778,0,0,0-.769.865.887.887,0,0,1-1.287.24.9.9,0,0,1-.364-1.186,3.212,3.212,0,0,1,1.163-1.4c.6-.457.663-.856.052-1.4-1.912-1.7-1.9-2.968-.005-4.657a6.111,6.111,0,0,0,.658-.833.892.892,0,0,1,1.046-.309A1.009,1.009,0,0,1-267.221,870.568Z" transform="translate(-94 -0.062)" fill="#040403"/>
    <path id="Trazado_102886" data-name="Trazado 102886" d="M-293.9,870.464a2.7,2.7,0,0,1-1.15,1.658c-.832.737-.831.83-.007,1.56,1.694,1.5,1.682,2.976-.025,4.495a4.491,4.491,0,0,0-.64.72.946.946,0,0,1-1.353.338.965.965,0,0,1-.311-1.37,3.5,3.5,0,0,1,1.01-1.169c.824-.694.817-.851.008-1.563-1.189-1.045-1.548-2.036-1.078-3.145.443-1.044,1.491-1.585,2.147-2.463.2-.263.6-.188.907-.017A.948.948,0,0,1-293.9,870.464Z" transform="translate(-74.305 0)" fill="#040403"/>
    <path id="Trazado_102887" data-name="Trazado 102887" d="M-241.577,869.473a1,1,0,0,1,1.02,1.354,3.01,3.01,0,0,1-1.148,1.414c-.644.473-.7.894-.056,1.466,1.88,1.656,1.862,2.927.022,4.6a9.685,9.685,0,0,0-.681.813.928.928,0,0,1-1.231.216.894.894,0,0,1-.426-1.167,3.1,3.1,0,0,1,1.149-1.417c.634-.478.721-.88.062-1.461-1.877-1.653-1.864-2.953-.017-4.6a2.809,2.809,0,0,0,.614-.742A.921.921,0,0,1-241.577,869.473Z" transform="translate(-113.751 -0.088)" fill="#040403"/>
    <path id="Trazado_102888" data-name="Trazado 102888" d="M-324.25,878.228a2.94,2.94,0,0,1,1.083-1.45c.9-.786.9-.856.036-1.629-1.67-1.495-1.669-2.933,0-4.423a3.369,3.369,0,0,0,.7-.8.885.885,0,0,1,1.327-.364.962.962,0,0,1,.355,1.353,3.433,3.433,0,0,1-1.137,1.308c-.6.463-.634.857-.036,1.4,1.9,1.726,1.881,2.926,0,4.673-.257.239-.439.555-.68.813a.934.934,0,0,1-1.161.192A.941.941,0,0,1-324.25,878.228Z" transform="translate(-54.545 -0.035)" fill="#040403"/>
    <path id="Trazado_102889" data-name="Trazado 102889" d="M-364.074,1072.322a7.625,7.625,0,0,1,1.849-5c.439-.506.945-.743,1.507-.273s.425,1.021-.007,1.53a5.364,5.364,0,0,0-1.309,4.406c.1.674-.156,1.19-.865,1.266-.653.07-1.006-.332-1.068-.984C-364,1072.91-364.047,1072.558-364.074,1072.322Z" transform="translate(-25.211 -145.917)" fill="#040403"/>
    <path id="Trazado_102890" data-name="Trazado 102890" d="M-331.187,1157.422c-6.049,0-12.1-.012-18.149.016-.7,0-.929-.129-.926-.89q.05-10.341.005-20.684a4.47,4.47,0,0,1,.56-1.936,12.254,12.254,0,0,1,8-6.9,4.868,4.868,0,0,1,3.4.229,15.442,15.442,0,0,0,14.847-.524,1.84,1.84,0,0,1,1.542-.171,14,14,0,0,1,7.716,4.625,16.62,16.62,0,0,1,2.123,3.708,2.219,2.219,0,0,1,.116.953c0,6.9-.01,13.79.021,20.686,0,.737-.188.906-.911.9C-318.957,1157.408-325.072,1157.422-331.187,1157.422Z" transform="translate(-35.419 -190.022)" fill="#ffce26"/>
    <path id="Trazado_102891" data-name="Trazado 102891" d="M-319.88,1000.515a8.169,8.169,0,0,0,6.4.6,6.6,6.6,0,0,0,1.5-.685c2.5-1.573,2.548-4.5.023-6.018a7.414,7.414,0,0,0-7.958-.024c-1.683.973-2.165,2.36-1.656,4.332-1.57-.187-2.537.927-3.654,1.7-.49.337-.727.3-1.105-.137a13.427,13.427,0,0,1-3.4-8.911c-.04-3.545.012-7.092-.028-10.637-.009-.771.274-.815.909-.721a17.872,17.872,0,0,0,9.2-.945,14.389,14.389,0,0,0,5.709-3.962c.423-.481.653-.581,1.206-.131a15.638,15.638,0,0,0,9.195,3.3c.7.043.934.2.927.945-.042,4.131.025,8.264-.034,12.394a13.544,13.544,0,0,1-17.517,12.671c-.781-.241-1.015-.442-.5-1.194A3.148,3.148,0,0,0-319.88,1000.515Zm8.665-12.14Z" transform="translate(-50.572 -77.841)" fill="#f6ceb2"/>
    <path id="Trazado_102892" data-name="Trazado 102892" d="M-347.772,940.6c.034-3.513-.283-6.982,1.108-10.319a14.092,14.092,0,0,1,12.483-8.545c1.561-.021,3.123-.009,4.684-.006a7.094,7.094,0,0,1,6.038,3.18c.719,1,.887,1.054,2,.5a7.248,7.248,0,0,1,10.6,6.363c.041,2.7,0,5.4.02,8.1.006.674-.11,1.021-.863.66a2.262,2.262,0,0,0-.842-.227c-1.034-.05-1.6-.363-1.522-1.6.061-.916-.834-1.456-2.062-1.489a16.5,16.5,0,0,1-6.14-1.358,12.028,12.028,0,0,1-2.95-1.872c-1.244-1.037-2.017-.992-3.085.228-3.764,4.3-8.537,5.549-14.009,4.645-1.1-.181-2.014-.146-2.558.982a.394.394,0,0,1-.362.272A13.61,13.61,0,0,0-347.772,940.6Z" transform="translate(-37.253 -38.706)" fill="#5a5c5f"/>
    <path id="Trazado_102893" data-name="Trazado 102893" d="M-379.83,1141.33c0,1.2-.024,2.4.011,3.6.016.556-.08.806-.729.793-2.142-.043-4.286-.035-6.429,0-.572.008-.7-.172-.667-.72.287-4.633.545-9.269.819-13.9.031-.522.088-1.228.472-1.42s.768.456,1.138.748c.993.785,1.968,1.593,2.945,2.4a6.489,6.489,0,0,1,2.438,5.19C-379.822,1139.121-379.83,1140.225-379.83,1141.33Z" transform="translate(-7.788 -192.37)" fill="#f3c64b"/>
    <path id="Trazado_102894" data-name="Trazado 102894" d="M-196.007,1141.282c0-1.106-.006-2.211,0-3.316a6.138,6.138,0,0,1,2.186-4.81c1.23-1.061,2.517-2.056,3.75-3.113.484-.415.683-.286.849.257a15.629,15.629,0,0,1,.352,3.58c.255,3.7.429,7.4.675,11.1.046.688-.131.878-.826.862-2.08-.047-4.162-.039-6.242,0-.593.01-.787-.134-.762-.75C-195.972,1143.819-196.008,1142.55-196.007,1141.282Z" transform="translate(-149.407 -192.48)" fill="#f3c64b"/>
    <path id="Trazado_102895" data-name="Trazado 102895" d="M-343,1082.189a2.73,2.73,0,0,0-1.029-2.9,2.224,2.224,0,0,1,.161-3.158,2.354,2.354,0,0,1,3.114-.1c2.071,1.685,2.751,1.706,4.956.159.771-.54,1.546-1.075,2.316-1.615.195-.136.4-.27.609-.073s.064.408-.052.609c-.632,1.094-1.271,2.185-1.882,3.291a2.847,2.847,0,0,0,.65,3.919,2.315,2.315,0,0,1,.423,3.427,2.331,2.331,0,0,1-3.522.041,2.586,2.586,0,0,0-2.433-.58A2.812,2.812,0,0,1-343,1082.189Z" transform="translate(-39.595 -151.538)" fill="#fefefe"/>
    <path id="Trazado_102896" data-name="Trazado 102896" d="M-227.944,1118.9a14.884,14.884,0,0,0-9.606-7.181,20.416,20.416,0,0,0,2.521-2.916c.184-.265.488-.1.727-.037q5.481,1.37,10.957,2.762c.627.16,1.505.306,1.656.867s-.75.831-1.186,1.226c-.7.633-1.441,1.218-2.184,1.8A9.722,9.722,0,0,0-227.944,1118.9Z" transform="translate(-118.718 -176.855)" fill="#ffe489"/>
    <path id="Trazado_102897" data-name="Trazado 102897" d="M-386.24,1222.91c-1.168,0-2.337-.023-3.5.008-.733.02-.979-.3-.933-1,.13-2.007.246-4.015.331-6.024.025-.588.173-.824.831-.81,2.238.047,4.478.042,6.716,0,.623-.011.752.192.743.773-.034,2.108-.04,4.218,0,6.326.013.635-.211.756-.779.736C-383.968,1222.882-385.1,1222.91-386.24,1222.91Z" transform="translate(-5.546 -255.51)" fill="#f6ceb2"/>
    <path id="Trazado_102898" data-name="Trazado 102898" d="M-191.9,1222.938c-1.168,0-2.337-.019-3.5.01-.458.011-.612-.115-.607-.592.023-2.206.03-4.413,0-6.619-.008-.56.221-.619.684-.615q3.456.028,6.911,0c.42,0,.631.053.654.559.092,2.073.222,4.146.366,6.217.053.755-.231,1.07-1,1.048C-189.559,1222.914-190.728,1222.938-191.9,1222.938Z" transform="translate(-149.417 -255.538)" fill="#f6ceb2"/>
    <path id="Trazado_102899" data-name="Trazado 102899" d="M-370.847,1122.733c-1.357-2.768-3.867-4.155-5.963-5.962-.537-.463-.443-.662.1-.918a39.406,39.406,0,0,1,5.313-1.522c.247-.077.511-.1.752-.194,1.218-.458,2.211-.537,3.078.807.688,1.065,2,1.368,3.307,1.533A15.768,15.768,0,0,0-370.847,1122.733Z" transform="translate(-15.534 -180.683)" fill="#ffe489"/>
    <path id="Trazado_102900" data-name="Trazado 102900" d="M-295.234,1097.94a12.067,12.067,0,0,1-2.418-.29c-.967-.238-1.842-.5-2.08-1.694a3,3,0,0,0-1.219-1.6c-.413-.335-.711-.736-.4-1.255s.69-.05,1,.052a15.109,15.109,0,0,0,11.039-.392c1.14-.5,1.229.468,1.679.9.5.473-.16.735-.385.989A9.614,9.614,0,0,1-295.234,1097.94Z" transform="translate(-71.471 -165.002)" fill="#f6ceb2"/>
    <path id="Trazado_102901" data-name="Trazado 102901" d="M-218.369,1004.854c0-1.464.021-2.927-.011-4.39-.012-.564.133-.729.717-.635a5.142,5.142,0,0,1,4.344,4.91,5.144,5.144,0,0,1-4.069,5.139c-.718.15-1.049.03-1-.83C-218.313,1007.654-218.369,1006.253-218.369,1004.854Z" transform="translate(-132.875 -96.409)" fill="#f6ceb2"/>
    <path id="Trazado_102902" data-name="Trazado 102902" d="M-351.394,1004.931c0,1.459-.022,2.919.012,4.378.013.545-.184.646-.679.6a5.117,5.117,0,0,1-4.349-5.074,5.152,5.152,0,0,1,4.506-5.046c.507-.034.514.214.513.571C-351.4,1001.883-351.394,1003.407-351.394,1004.931Z" transform="translate(-30.874 -96.395)" fill="#f6ceb2"/>
    <path id="Trazado_102903" data-name="Trazado 102903" d="M-292.227,1108.8a15.242,15.242,0,0,1-4.952-.881c-.476-.173-.563-.336-.207-.717a2.078,2.078,0,0,0,.419-.652c.174-.454.4-.534.888-.394,5.118,1.482,9.4.154,12.866-3.878.158-.184.264-.5.605-.324a7.738,7.738,0,0,1,1.413.8c.154.127-.193.436-.347.633A13.677,13.677,0,0,1-292.227,1108.8Z" transform="translate(-74.335 -171.861)" fill="#f6ceb2"/>
    <path id="Trazado_102904" data-name="Trazado 102904" d="M-287.868,1057.863a5.253,5.253,0,0,1-3.2-.983,1.306,1.306,0,0,1-.062-2.281,5.7,5.7,0,0,1,6.554.045,1.27,1.27,0,0,1-.019,2.155A5.111,5.111,0,0,1-287.868,1057.863Z" transform="translate(-78.648 -136.155)" fill="#f79f63"/>
    <path id="Trazado_102905" data-name="Trazado 102905" d="M-384.749,1200.986c-1.106,0-2.212-.021-3.316.009-.507.014-.652-.113-.61-.654.132-1.7.1-1.7,1.834-1.7,1.821,0,3.643.029,5.462-.016.658-.016.878.2.793.823a2.414,2.414,0,0,0,0,.681c.1.679-.151.906-.847.869C-382.536,1200.943-383.644,1200.986-384.749,1200.986Z" transform="translate(-7.024 -243.349)" fill="#ffe489"/>
    <path id="Trazado_102906" data-name="Trazado 102906" d="M-191.988,1198.646c1.07,0,2.142.035,3.21-.014.6-.027.765.174.782.762.045,1.594.074,1.593-1.506,1.593-1.913,0-3.827-.017-5.74.01-.544.008-.8-.062-.793-.717.015-1.635-.025-1.635,1.615-1.635Z" transform="translate(-149.399 -243.35)" fill="#ffe489"/>
    <path id="Trazado_102907" data-name="Trazado 102907" d="M-326.871,1072.626l0,.241-.179-.106Z" transform="translate(-52.571 -150.228)" fill="#fefefe"/>
    <path id="Trazado_102908" data-name="Trazado 102908" d="M-262.321,1018.519a3.5,3.5,0,0,1,3.278,2.259c.178.568.182,1.138-.461,1.4-.6.248-1.027,0-1.331-.595-.587-1.147-1.072-1.313-2.254-.814-.588.248-1.086.229-1.41-.37-.335-.618-.019-1.037.5-1.369A3.735,3.735,0,0,1-262.321,1018.519Z" transform="translate(-111.162 -110.24)" fill="#040403"/>
    <path id="Trazado_102909" data-name="Trazado 102909" d="M-307.571,1018.531a3.561,3.561,0,0,1,1.841.618.936.936,0,0,1,.332,1.281.92.92,0,0,1-1.242.423c-1.545-.537-1.678-.489-2.458.847a.942.942,0,0,1-1.3.484.939.939,0,0,1-.468-1.3A3.465,3.465,0,0,1-307.571,1018.531Z" transform="translate(-51.678 -110.249)" fill="#040403"/>
  </g>
</svg>
