<svg xmlns="http://www.w3.org/2000/svg" xmlns:xlink="http://www.w3.org/1999/xlink" width="295" height="206.559" viewBox="0 0 295 206.559">
  <defs>
    <clipPath id="clip-path">
      <rect id="Rectángulo_37504" data-name="Rectángulo 37504" width="295" height="206.559" rx="20" transform="translate(914.527 2553.998)" fill="#c7beff"/>
    </clipPath>
  </defs>
  <g id="Grupo_115188" data-name="Grupo 115188" transform="translate(-914.527 -2553.998)">
    <path id="Trazado_148914" data-name="Trazado 148914" d="M20,0H275a20,20,0,0,1,20,20V131a20,20,0,0,1-20,20H20A20,20,0,0,1,0,131V20A20,20,0,0,1,20,0Z" transform="translate(914.527 2609.557)" fill="#c7beff"/>
    <g id="Enmascarar_grupo_83" data-name="Enmascarar grupo 83" clip-path="url(#clip-path)">
      <g id="Grupo_111644" data-name="Grupo 111644" transform="translate(978.463 2553.998)">
        <g id="Grupo_111573" data-name="Grupo 111573" transform="translate(54.396)">
          <g id="Grupo_111446" data-name="Grupo 111446" transform="translate(0 38.474)">
            <g id="Grupo_111435" data-name="Grupo 111435">
              <g id="Grupo_111434" data-name="Grupo 111434">
                <g id="Grupo_111433" data-name="Grupo 111433">
                  <g id="Grupo_111432" data-name="Grupo 111432">
                    <g id="Grupo_111431" data-name="Grupo 111431">
                      <g id="Grupo_111430" data-name="Grupo 111430">
                        <g id="Grupo_111429" data-name="Grupo 111429">
                          <g id="Grupo_111428" data-name="Grupo 111428">
                            <g id="Grupo_111427" data-name="Grupo 111427">
                              <path id="Trazado_102180" data-name="Trazado 102180" d="M364.351,162.964c-.275-.111-11.038-2.934-10.387,7.95s11.443,7.985,11.444,7.671S364.351,162.964,364.351,162.964Z" transform="translate(-353.936 -162.554)" fill="#b78876"/>
                            </g>
                          </g>
                        </g>
                      </g>
                    </g>
                  </g>
                </g>
              </g>
            </g>
            <g id="Grupo_111445" data-name="Grupo 111445" transform="translate(2.787 3.615)">
              <g id="Grupo_111444" data-name="Grupo 111444">
                <g id="Grupo_111443" data-name="Grupo 111443">
                  <g id="Grupo_111442" data-name="Grupo 111442">
                    <g id="Grupo_111441" data-name="Grupo 111441">
                      <g id="Grupo_111440" data-name="Grupo 111440">
                        <g id="Grupo_111439" data-name="Grupo 111439">
                          <g id="Grupo_111438" data-name="Grupo 111438">
                            <g id="Grupo_111437" data-name="Grupo 111437">
                              <g id="Grupo_111436" data-name="Grupo 111436">
                                <path id="Trazado_102181" data-name="Trazado 102181" d="M362.662,175.731c-.049-.032-.181.144-.493.31a1.9,1.9,0,0,1-1.415.114c-1.175-.353-2.253-2.121-2.423-4.079a6.263,6.263,0,0,1,.368-2.747,2.192,2.192,0,0,1,1.339-1.54.967.967,0,0,1,1.15.452c.164.3.108.518.167.532.032.025.223-.2.108-.64a1.209,1.209,0,0,0-.469-.657,1.436,1.436,0,0,0-1.065-.214,2.669,2.669,0,0,0-1.88,1.806,6.447,6.447,0,0,0-.476,3.073c.2,2.189,1.447,4.174,3.047,4.534a2.033,2.033,0,0,0,1.717-.392C362.659,176,362.7,175.749,362.662,175.731Z" transform="translate(-357.548 -167.24)" fill="#aa6550"/>
                              </g>
                            </g>
                          </g>
                        </g>
                      </g>
                    </g>
                  </g>
                </g>
              </g>
            </g>
          </g>
          <g id="Grupo_111572" data-name="Grupo 111572" transform="translate(7.686)">
            <g id="Grupo_111560" data-name="Grupo 111560">
              <g id="Grupo_111447" data-name="Grupo 111447" transform="translate(29.907)">
                <path id="Trazado_102182" data-name="Trazado 102182" d="M402.66,112.69c5.531,0,11.161,0,18.084,3.615,4.366,2.28,7.088,5.893,9.364,10.261a23.624,23.624,0,0,1,2.573,11.486c-.2,3.764-.215,6.4-1.718,9.852" transform="translate(-402.66 -112.69)" fill="#263238"/>
              </g>
              <g id="Grupo_111556" data-name="Grupo 111556" transform="translate(0.387 0.782)">
                <g id="Grupo_111555" data-name="Grupo 111555">
                  <g id="Grupo_111554" data-name="Grupo 111554">
                    <g id="Grupo_111553" data-name="Grupo 111553">
                      <g id="Grupo_111552" data-name="Grupo 111552">
                        <g id="Grupo_111468" data-name="Grupo 111468">
                          <g id="Grupo_111467" data-name="Grupo 111467">
                            <g id="Grupo_111466" data-name="Grupo 111466">
                              <g id="Grupo_111456" data-name="Grupo 111456">
                                <g id="Grupo_111455" data-name="Grupo 111455">
                                  <g id="Grupo_111454" data-name="Grupo 111454">
                                    <g id="Grupo_111453" data-name="Grupo 111453">
                                      <g id="Grupo_111452" data-name="Grupo 111452">
                                        <g id="Grupo_111451" data-name="Grupo 111451">
                                          <g id="Grupo_111450" data-name="Grupo 111450">
                                            <g id="Grupo_111449" data-name="Grupo 111449">
                                              <g id="Grupo_111448" data-name="Grupo 111448">
                                                <path id="Trazado_102183" data-name="Trazado 102183" d="M391.709,113.776A29.345,29.345,0,0,1,423.067,141.5c.713,13.635,1.339,28.382,1.189,35.808C423.932,193.25,407.97,195.6,407.97,195.6s.352,4.727.745,10.59a21,21,0,0,1-20.151,22.392h0a20.994,20.994,0,0,1-21.773-20.2L364.42,144.14a29.354,29.354,0,0,1,27.289-30.365Z" transform="translate(-364.4 -113.703)" fill="#b78876"/>
                                              </g>
                                            </g>
                                          </g>
                                        </g>
                                      </g>
                                    </g>
                                  </g>
                                </g>
                              </g>
                              <g id="Grupo_111465" data-name="Grupo 111465" transform="translate(23.122 75.597)">
                                <g id="Grupo_111464" data-name="Grupo 111464">
                                  <g id="Grupo_111463" data-name="Grupo 111463">
                                    <g id="Grupo_111462" data-name="Grupo 111462">
                                      <g id="Grupo_111461" data-name="Grupo 111461">
                                        <g id="Grupo_111460" data-name="Grupo 111460">
                                          <g id="Grupo_111459" data-name="Grupo 111459">
                                            <g id="Grupo_111458" data-name="Grupo 111458">
                                              <g id="Grupo_111457" data-name="Grupo 111457">
                                                <path id="Trazado_102184" data-name="Trazado 102184" d="M414.816,217.983s-9.8.509-20.449-6.3c0,0,4.822,11.6,20.737,10.288Z" transform="translate(-394.367 -211.682)" fill="#aa6550"/>
                                              </g>
                                            </g>
                                          </g>
                                        </g>
                                      </g>
                                    </g>
                                  </g>
                                </g>
                              </g>
                            </g>
                          </g>
                        </g>
                        <g id="Grupo_111551" data-name="Grupo 111551" transform="translate(20.212 22.155)">
                          <g id="Grupo_111550" data-name="Grupo 111550">
                            <g id="Grupo_111531" data-name="Grupo 111531" transform="translate(1.482 8.863)">
                              <g id="Grupo_111530" data-name="Grupo 111530">
                                <g id="Grupo_111529" data-name="Grupo 111529">
                                  <g id="Grupo_111488" data-name="Grupo 111488" transform="translate(24.081)">
                                    <g id="Grupo_111477" data-name="Grupo 111477" transform="translate(2.244 3.576)">
                                      <g id="Grupo_111476" data-name="Grupo 111476">
                                        <g id="Grupo_111475" data-name="Grupo 111475">
                                          <g id="Grupo_111474" data-name="Grupo 111474">
                                            <g id="Grupo_111473" data-name="Grupo 111473">
                                              <g id="Grupo_111472" data-name="Grupo 111472">
                                                <g id="Grupo_111471" data-name="Grupo 111471">
                                                  <g id="Grupo_111470" data-name="Grupo 111470">
                                                    <g id="Grupo_111469" data-name="Grupo 111469">
                                                      <path id="Trazado_102185" data-name="Trazado 102185" d="M431.18,160.614a2.277,2.277,0,0,1-2.214,2.279,2.177,2.177,0,0,1-2.329-2.071,2.277,2.277,0,0,1,2.211-2.281A2.179,2.179,0,0,1,431.18,160.614Z" transform="translate(-426.636 -158.539)" fill="#263238"/>
                                                    </g>
                                                  </g>
                                                </g>
                                              </g>
                                            </g>
                                          </g>
                                        </g>
                                      </g>
                                    </g>
                                    <g id="Grupo_111487" data-name="Grupo 111487">
                                      <g id="Grupo_111486" data-name="Grupo 111486">
                                        <g id="Grupo_111485" data-name="Grupo 111485">
                                          <g id="Grupo_111484" data-name="Grupo 111484">
                                            <g id="Grupo_111483" data-name="Grupo 111483">
                                              <g id="Grupo_111482" data-name="Grupo 111482">
                                                <g id="Grupo_111481" data-name="Grupo 111481">
                                                  <g id="Grupo_111480" data-name="Grupo 111480">
                                                    <g id="Grupo_111479" data-name="Grupo 111479">
                                                      <g id="Grupo_111478" data-name="Grupo 111478">
                                                        <path id="Trazado_102186" data-name="Trazado 102186" d="M432.723,156.334c-.284.294-2-1-4.449-1.009-2.446-.049-4.254,1.2-4.517.9-.129-.133.163-.667.95-1.231a6.246,6.246,0,0,1,3.619-1.084,6,6,0,0,1,3.538,1.174C432.612,155.662,432.863,156.2,432.723,156.334Z" transform="translate(-423.727 -153.904)" fill="#263238"/>
                                                      </g>
                                                    </g>
                                                  </g>
                                                </g>
                                              </g>
                                            </g>
                                          </g>
                                        </g>
                                      </g>
                                    </g>
                                  </g>
                                  <g id="Grupo_111508" data-name="Grupo 111508" transform="translate(0 0.265)">
                                    <g id="Grupo_111497" data-name="Grupo 111497" transform="translate(2.304 3.311)">
                                      <g id="Grupo_111496" data-name="Grupo 111496">
                                        <g id="Grupo_111495" data-name="Grupo 111495">
                                          <g id="Grupo_111494" data-name="Grupo 111494">
                                            <g id="Grupo_111493" data-name="Grupo 111493">
                                              <g id="Grupo_111492" data-name="Grupo 111492">
                                                <g id="Grupo_111491" data-name="Grupo 111491">
                                                  <g id="Grupo_111490" data-name="Grupo 111490">
                                                    <g id="Grupo_111489" data-name="Grupo 111489">
                                                      <path id="Trazado_102187" data-name="Trazado 102187" d="M400.046,160.615a2.276,2.276,0,0,1-2.213,2.278,2.176,2.176,0,0,1-2.33-2.07,2.277,2.277,0,0,1,2.211-2.281A2.179,2.179,0,0,1,400.046,160.615Z" transform="translate(-395.502 -158.54)" fill="#263238"/>
                                                    </g>
                                                  </g>
                                                </g>
                                              </g>
                                            </g>
                                          </g>
                                        </g>
                                      </g>
                                    </g>
                                    <g id="Grupo_111507" data-name="Grupo 111507">
                                      <g id="Grupo_111506" data-name="Grupo 111506">
                                        <g id="Grupo_111505" data-name="Grupo 111505">
                                          <g id="Grupo_111504" data-name="Grupo 111504">
                                            <g id="Grupo_111503" data-name="Grupo 111503">
                                              <g id="Grupo_111502" data-name="Grupo 111502">
                                                <g id="Grupo_111501" data-name="Grupo 111501">
                                                  <g id="Grupo_111500" data-name="Grupo 111500">
                                                    <g id="Grupo_111499" data-name="Grupo 111499">
                                                      <g id="Grupo_111498" data-name="Grupo 111498">
                                                        <path id="Trazado_102188" data-name="Trazado 102188" d="M401.512,156.676c-.285.295-2-1-4.45-1.008-2.446-.048-4.254,1.2-4.517.9-.129-.133.16-.667.951-1.231a6.234,6.234,0,0,1,3.619-1.084,6,6,0,0,1,3.538,1.173C401.4,156.006,401.651,156.545,401.512,156.676Z" transform="translate(-392.516 -154.248)" fill="#263238"/>
                                                      </g>
                                                    </g>
                                                  </g>
                                                </g>
                                              </g>
                                            </g>
                                          </g>
                                        </g>
                                      </g>
                                    </g>
                                  </g>
                                  <g id="Grupo_111518" data-name="Grupo 111518" transform="translate(16.756 0.511)">
                                    <g id="Grupo_111517" data-name="Grupo 111517">
                                      <g id="Grupo_111516" data-name="Grupo 111516">
                                        <g id="Grupo_111515" data-name="Grupo 111515">
                                          <g id="Grupo_111514" data-name="Grupo 111514">
                                            <g id="Grupo_111513" data-name="Grupo 111513">
                                              <g id="Grupo_111512" data-name="Grupo 111512">
                                                <g id="Grupo_111511" data-name="Grupo 111511">
                                                  <g id="Grupo_111510" data-name="Grupo 111510">
                                                    <g id="Grupo_111509" data-name="Grupo 111509">
                                                      <path id="Trazado_102189" data-name="Trazado 102189" d="M415.217,174.986c-.01-.14,1.515-.39,3.984-.686.626-.059,1.219-.179,1.328-.6a3.181,3.181,0,0,0-.4-1.858q-.865-2.277-1.812-4.777c-2.515-6.8-4.329-12.393-4.055-12.492s2.536,5.335,5.051,12.136q.907,2.516,1.734,4.806a3.617,3.617,0,0,1,.306,2.457,1.571,1.571,0,0,1-1.036.907,4.263,4.263,0,0,1-1.063.14C416.766,175.126,415.226,175.124,415.217,174.986Z" transform="translate(-414.233 -154.566)" fill="#263238"/>
                                                    </g>
                                                  </g>
                                                </g>
                                              </g>
                                            </g>
                                          </g>
                                        </g>
                                      </g>
                                    </g>
                                  </g>
                                  <g id="Grupo_111528" data-name="Grupo 111528" transform="translate(10.111 22.566)">
                                    <g id="Grupo_111527" data-name="Grupo 111527">
                                      <g id="Grupo_111526" data-name="Grupo 111526">
                                        <g id="Grupo_111525" data-name="Grupo 111525">
                                          <g id="Grupo_111524" data-name="Grupo 111524">
                                            <g id="Grupo_111523" data-name="Grupo 111523">
                                              <g id="Grupo_111522" data-name="Grupo 111522">
                                                <g id="Grupo_111521" data-name="Grupo 111521">
                                                  <g id="Grupo_111520" data-name="Grupo 111520">
                                                    <g id="Grupo_111519" data-name="Grupo 111519">
                                                      <path id="Trazado_102190" data-name="Trazado 102190" d="M406.028,183.152c.4-.019.383,2.64,2.643,4.545s5.094,1.636,5.112,2.008c.035.167-.636.512-1.832.534a6.619,6.619,0,0,1-4.268-1.525,5.766,5.766,0,0,1-2.045-3.808C405.544,183.792,405.846,183.136,406.028,183.152Z" transform="translate(-405.62 -183.152)" fill="#263238"/>
                                                    </g>
                                                  </g>
                                                </g>
                                              </g>
                                            </g>
                                          </g>
                                        </g>
                                      </g>
                                    </g>
                                  </g>
                                </g>
                              </g>
                            </g>
                            <g id="Grupo_111540" data-name="Grupo 111540" transform="translate(0 0.088)">
                              <g id="Grupo_111539" data-name="Grupo 111539">
                                <g id="Grupo_111538" data-name="Grupo 111538">
                                  <g id="Grupo_111537" data-name="Grupo 111537">
                                    <g id="Grupo_111536" data-name="Grupo 111536">
                                      <g id="Grupo_111535" data-name="Grupo 111535">
                                        <g id="Grupo_111534" data-name="Grupo 111534">
                                          <g id="Grupo_111533" data-name="Grupo 111533">
                                            <g id="Grupo_111532" data-name="Grupo 111532">
                                              <path id="Trazado_102191" data-name="Trazado 102191" d="M401.783,144.406c-.247.664-2.69.329-5.566.652-2.884.265-5.208,1.088-5.585.488-.167-.287.241-.91,1.184-1.548a9.746,9.746,0,0,1,8.495-.869C401.362,143.563,401.889,144.09,401.783,144.406Z" transform="translate(-390.596 -142.531)" fill="#263238"/>
                                            </g>
                                          </g>
                                        </g>
                                      </g>
                                    </g>
                                  </g>
                                </g>
                              </g>
                            </g>
                            <g id="Grupo_111549" data-name="Grupo 111549" transform="translate(25.879)">
                              <g id="Grupo_111548" data-name="Grupo 111548">
                                <g id="Grupo_111547" data-name="Grupo 111547">
                                  <g id="Grupo_111546" data-name="Grupo 111546">
                                    <g id="Grupo_111545" data-name="Grupo 111545">
                                      <g id="Grupo_111544" data-name="Grupo 111544">
                                        <g id="Grupo_111543" data-name="Grupo 111543">
                                          <g id="Grupo_111542" data-name="Grupo 111542">
                                            <g id="Grupo_111541" data-name="Grupo 111541">
                                              <path id="Trazado_102192" data-name="Trazado 102192" d="M432.473,144.989c-.435.553-2.117-.038-4.147-.081-2.027-.115-3.75.343-4.14-.242-.171-.284.1-.839.859-1.359a6,6,0,0,1,6.678.26C432.434,144.144,432.666,144.719,432.473,144.989Z" transform="translate(-424.136 -142.417)" fill="#263238"/>
                                            </g>
                                          </g>
                                        </g>
                                      </g>
                                    </g>
                                  </g>
                                </g>
                              </g>
                            </g>
                          </g>
                        </g>
                      </g>
                    </g>
                  </g>
                </g>
              </g>
              <g id="Grupo_111559" data-name="Grupo 111559" transform="translate(0 0)">
                <g id="Grupo_111558" data-name="Grupo 111558">
                  <g id="Grupo_111557" data-name="Grupo 111557">
                    <path id="Trazado_102193" data-name="Trazado 102193" d="M364.492,148.883s.693,3.685.879,5.349c.068.607-.012,7.361,1.629,7.7,1.411.29,4.215-.995,5.464-3.788s3.624-9.495,3.367-12.543a44.072,44.072,0,0,1,.287-12.469,17.891,17.891,0,0,1,6.071-10.647c3.286-2.57,8.023-3.47,11.752-1.6,2.3,1.155,4.024,3.2,6.168,4.625a9.572,9.572,0,0,0,6.574,1.711,6.186,6.186,0,0,0,5.081-4.166c.683-2.434-.571-5.1-2.518-6.709a15.393,15.393,0,0,0-6.941-2.842,37.34,37.34,0,0,0-20.693,1.445c-6.532,2.538-12.327,7.414-15.12,13.842-3.228,7.433-2.852,11.991-2,20.093" transform="translate(-363.898 -112.69)" fill="#263238"/>
                  </g>
                </g>
              </g>
            </g>
            <g id="Grupo_111567" data-name="Grupo 111567" transform="translate(15.166 26.562)">
              <g id="Grupo_111562" data-name="Grupo 111562">
                <g id="Grupo_111561" data-name="Grupo 111561">
                  <path id="Trazado_102194" data-name="Trazado 102194" d="M405.419,158.108a18.986,18.986,0,0,0-.414-2.626,10.794,10.794,0,0,0-3.95-5.872,10.654,10.654,0,0,0-10.094-1.5,10.665,10.665,0,0,0-4.938,3.714,10.592,10.592,0,0,0,0,12.57,10.674,10.674,0,0,0,4.938,3.714A10.739,10.739,0,0,0,405,160.733a18.988,18.988,0,0,0,.414-2.625.569.569,0,0,1,.012.175l-.006.517a4.927,4.927,0,0,1-.066.839,7.632,7.632,0,0,1-.2,1.132,10.9,10.9,0,0,1-8.539,8.14,11.01,11.01,0,0,1-5.783-.456,11.012,11.012,0,0,1-5.129-3.829,10.953,10.953,0,0,1,0-13.036,11.021,11.021,0,0,1,5.129-3.829,11.008,11.008,0,0,1,5.782-.456,10.9,10.9,0,0,1,8.539,8.139,7.549,7.549,0,0,1,.2,1.133,4.927,4.927,0,0,1,.066.839l.006.517A.577.577,0,0,1,405.419,158.108Z" transform="translate(-383.555 -147.116)" fill="#263238"/>
                </g>
              </g>
              <g id="Grupo_111564" data-name="Grupo 111564" transform="translate(28.056)">
                <g id="Grupo_111563" data-name="Grupo 111563">
                  <path id="Trazado_102195" data-name="Trazado 102195" d="M441.782,158.108a18.986,18.986,0,0,0-.414-2.626,10.8,10.8,0,0,0-3.95-5.872,10.654,10.654,0,0,0-10.094-1.5,10.666,10.666,0,0,0-4.938,3.714,10.594,10.594,0,0,0,0,12.57,10.682,10.682,0,0,0,4.939,3.714,10.739,10.739,0,0,0,14.043-7.374,18.988,18.988,0,0,0,.414-2.625.567.567,0,0,1,.012.175c0,.141,0,.311-.006.517a4.924,4.924,0,0,1-.066.839,7.54,7.54,0,0,1-.2,1.132,10.9,10.9,0,0,1-8.538,8.14,11.01,11.01,0,0,1-5.783-.456,11.012,11.012,0,0,1-5.129-3.829,10.953,10.953,0,0,1,0-13.036,11.011,11.011,0,0,1,5.129-3.829,11.008,11.008,0,0,1,5.782-.456,10.9,10.9,0,0,1,8.539,8.139,7.548,7.548,0,0,1,.2,1.133,4.924,4.924,0,0,1,.066.839c0,.206,0,.376.006.517A.575.575,0,0,1,441.782,158.108Z" transform="translate(-419.918 -147.116)" fill="#263238"/>
                </g>
              </g>
              <g id="Grupo_111566" data-name="Grupo 111566" transform="translate(21.718 8.766)">
                <g id="Grupo_111565" data-name="Grupo 111565">
                  <path id="Trazado_102196" data-name="Trazado 102196" d="M418.5,159.548a5.507,5.507,0,0,1-1-.346,6.442,6.442,0,0,0-4.848.323c-.577.281-.9.525-.946.475-.031-.033.235-.362.809-.724a5.554,5.554,0,0,1,5.088-.339C418.217,159.221,418.526,159.511,418.5,159.548Z" transform="translate(-411.703 -158.477)" fill="#263238"/>
                </g>
              </g>
            </g>
            <g id="Grupo_111568" data-name="Grupo 111568" transform="translate(46.534 5.255)">
              <path id="Trazado_102197" data-name="Trazado 102197" d="M425.7,123.754c.157-.827-.115-1.291.35-1.63.531-.386,1.535.628,1.9,1.032.117.128.492-.375.637-.471a2.773,2.773,0,0,0,.28-1.058c-.069-.576-.974-.731-1.4-1.124a4.284,4.284,0,0,0-1.5-.853,1.431,1.431,0,0,0-1.439.085,1.388,1.388,0,0,0-.32,1.078,2.992,2.992,0,0,0,.218,1.123,1.584,1.584,0,0,0,.767.823" transform="translate(-424.209 -119.501)" fill="#263238"/>
            </g>
            <g id="Grupo_111569" data-name="Grupo 111569" transform="translate(0.002 23.817)">
              <path id="Trazado_102198" data-name="Trazado 102198" d="M363.9,147.464s7.814,2.866,11.882,4.589l-.23-4-11.369-4.5S363.895,146.529,363.9,147.464Z" transform="translate(-363.901 -143.559)" fill="#ebebeb"/>
            </g>
            <g id="Grupo_111571" data-name="Grupo 111571" transform="translate(0.731 21.505)">
              <g id="Grupo_111570" data-name="Grupo 111570">
                <path id="Trazado_102199" data-name="Trazado 102199" d="M364.847,140.57a87.586,87.586,0,0,1,10.908,4.613,87.468,87.468,0,0,1-10.908-4.613Z" transform="translate(-364.846 -140.562)" fill="#ebebeb"/>
              </g>
            </g>
          </g>
        </g>
        <g id="Grupo_111577" data-name="Grupo 111577" transform="translate(61.891 86.792)">
          <g id="Grupo_111574" data-name="Grupo 111574">
            <path id="Trazado_102200" data-name="Trazado 102200" d="M366.929,244.094l-.6-18.916s3.758,17.311,23.439,17.086c18.81-.216,18.466-15.252,18.466-15.252l.671,7.624v30.8l-12.269,50.239-15.667,1.988L363.65,248.984Z" transform="translate(-363.65 -225.178)" fill="#d919d9"/>
          </g>
          <g id="Grupo_111576" data-name="Grupo 111576" transform="translate(3.292 10.778)">
            <g id="Grupo_111575" data-name="Grupo 111575">
              <path id="Trazado_102201" data-name="Trazado 102201" d="M407.455,241.23a2.019,2.019,0,0,1-.227.4,10.708,10.708,0,0,1-.746,1.1,16.134,16.134,0,0,1-3.5,3.391,20.155,20.155,0,0,1-6.544,3.073,23.118,23.118,0,0,1-8.829.611,28.76,28.76,0,0,1-8.48-2.553,36.716,36.716,0,0,1-6.194-3.733,42.81,42.81,0,0,1-3.752-3.107c-.426-.386-.735-.709-.951-.921a2,2,0,0,1-.31-.343,2.03,2.03,0,0,1,.366.284l1,.864c.868.748,2.149,1.8,3.814,2.994a38.493,38.493,0,0,0,6.185,3.628,29.076,29.076,0,0,0,8.375,2.489,23.157,23.157,0,0,0,8.682-.57,20.389,20.389,0,0,0,6.477-2.947,17.193,17.193,0,0,0,3.545-3.256C407.076,241.745,407.42,241.207,407.455,241.23Z" transform="translate(-367.917 -239.147)" fill="#263238"/>
            </g>
          </g>
        </g>
        <g id="Grupo_111643" data-name="Grupo 111643" transform="translate(0 87.074)">
          <g id="Grupo_111580" data-name="Grupo 111580" transform="translate(26.132 0)">
            <path id="Trazado_102202" data-name="Trazado 102202" d="M382.235,399.585l-.284-89.275L356.6,245.154l-.852-19.609L340.3,237.229s-22.493,77.409-22.84,74.724-.008,87.632-.008,87.632Z" transform="translate(-317.304 -225.545)" fill="#ebebeb"/>
            <g id="Grupo_111579" data-name="Grupo 111579" transform="translate(64.121 83.935)">
              <g id="Grupo_111578" data-name="Grupo 111578">
                <path id="Trazado_102203" data-name="Trazado 102203" d="M400.61,424.188c-.111,0-.2-20.117-.2-44.927s.09-44.93.2-44.93.2,20.112.2,44.93S400.721,424.188,400.61,424.188Z" transform="translate(-400.409 -334.331)" fill="#263238"/>
              </g>
            </g>
          </g>
          <g id="Grupo_111581" data-name="Grupo 111581" transform="translate(49.353 24.435)">
            <path id="Trazado_102204" data-name="Trazado 102204" d="M347.4,257.214l3.135,2.374-2.2,14.443,37.007,38.763-33.612-44.137,2.864-11.442Z" transform="translate(-347.4 -257.214)" fill="#e0e0e0"/>
          </g>
          <g id="Grupo_111582" data-name="Grupo 111582" transform="translate(0.143 11.684)">
            <path id="Trazado_102205" data-name="Trazado 102205" d="M375.928,357.311l-56.792-16.652-1.881-43.138,15.576-56.833S295.7,259.212,293.174,271s-8.618,40.444-9.266,61.155c-.581,18.519-.664,30.9,3.564,36.811,12.11,16.93,91.921,19.953,123.807-.023" transform="translate(-283.621 -240.688)" fill="#ebebeb"/>
          </g>
          <g id="Grupo_111584" data-name="Grupo 111584" transform="translate(49.169)">
            <g id="Grupo_111583" data-name="Grupo 111583">
              <path id="Trazado_102206" data-name="Trazado 102206" d="M386,306.5a1.424,1.424,0,0,1-.185-.208l-.509-.637-1.929-2.471-7.035-9.133-23.09-30.222-1.738-2.282-.058-.077.023-.093,2.872-11.44.188.24-7.191-.01h-.184v-.184c.012-4.672.022-8.956.03-12.751v-.076l.059-.046,11.162-8.483,3.064-2.3.805-.59a1.951,1.951,0,0,1,.284-.19,1.923,1.923,0,0,1-.257.225l-.779.626-3.013,2.365-11.08,8.589.06-.121c.009,3.8.019,8.079.03,12.751l-.184-.183,7.191-.01h.248l-.06.241c-.913,3.656-1.87,7.49-2.857,11.444l-.035-.171,1.738,2.282,23,30.294,6.933,9.21,1.869,2.516.478.66A1.486,1.486,0,0,1,386,306.5Z" transform="translate(-347.162 -225.544)" fill="#263238"/>
            </g>
          </g>
          <g id="Grupo_111585" data-name="Grupo 111585" transform="translate(90.779 1.202)">
            <path id="Trazado_102207" data-name="Trazado 102207" d="M423.635,234.224c-4.531-7.922-6.879-7.1-6.879-7.1l.236,2.824.005,5.933-2.147,25.456-13.76,55.315.284,83.286h52.011l6.474-101.666-.588-43.8Z" transform="translate(-401.091 -227.102)" fill="#ebebeb"/>
          </g>
          <g id="Grupo_111586" data-name="Grupo 111586" transform="translate(65.077 28.578)">
            <path id="Trazado_102208" data-name="Trazado 102208" d="M451.663,262.583s13.463,9.939,14.629,25.927c.947,12.988,3.12,48.547,3.514,56.288.612,12.056-8.775,40.286-33.217,32.29-14.656-4.8-68.81-23.2-68.81-23.2l3.6-23,64.276,3.829,1.276-53.61Z" transform="translate(-367.779 -262.583)" fill="#ebebeb"/>
          </g>
          <g id="Grupo_111587" data-name="Grupo 111587" transform="translate(35.727 98.288)">
            <path id="Trazado_102209" data-name="Trazado 102209" d="M361.96,354.174s-18.191-1.967-22.405-.95c-4.048.978-9.815,5.931-9.815,5.931l.083,7.188,29.268,8.18Z" transform="translate(-329.739 -352.933)" fill="#b78876"/>
          </g>
          <g id="Grupo_111589" data-name="Grupo 111589" transform="translate(90.778 1.226)">
            <g id="Grupo_111588" data-name="Grupo 111588">
              <path id="Trazado_102210" data-name="Trazado 102210" d="M401.091,308.347a1.275,1.275,0,0,1,.08-.248l.274-.711,1.088-2.719L406.6,294.7l6.085-14.765c.577-1.383,1.148-2.827,1.863-4.237.686-1.424,1.5-2.819,2.33-4.23a93.216,93.216,0,0,1,5.777-8.337c1.049-1.354,2.107-2.672,3.2-3.936l-.035.205q-1.157-2.943-2.266-5.764l-.076-.191.194-.066,9.481-3.223-.1.265c-4.4-7.344-8.116-13.552-10.749-17.947-1.3-2.177-2.412-3.917-3.591-4.632a4.721,4.721,0,0,0-1.437-.583,5.276,5.276,0,0,1-.526-.128,3.982,3.982,0,0,1,.539.07,4.486,4.486,0,0,1,1.485.541,6.54,6.54,0,0,1,1.823,1.768,32.149,32.149,0,0,1,1.89,2.844c2.665,4.379,6.428,10.563,10.879,17.88l.117.191-.214.073-9.472,3.249.119-.257q1.111,2.815,2.274,5.76l.044.113-.08.093c-1.082,1.252-2.139,2.57-3.183,3.917a94.152,94.152,0,0,0-5.758,8.3c-.832,1.4-1.64,2.787-2.322,4.2-.711,1.395-1.28,2.819-1.864,4.207l-6.166,14.733c-1.761,4.171-3.19,7.554-4.189,9.921l-1.157,2.69-.311.7A1.276,1.276,0,0,1,401.091,308.347Z" transform="translate(-401.09 -227.134)" fill="#263238"/>
            </g>
          </g>
          <g id="Grupo_111591" data-name="Grupo 111591" transform="translate(35.975 111.712)">
            <g id="Grupo_111590" data-name="Grupo 111590">
              <path id="Trazado_102211" data-name="Trazado 102211" d="M450.432,397.227a1.889,1.889,0,0,1-.225.238l-.692.672a20.343,20.343,0,0,1-2.954,2.241,19.986,19.986,0,0,1-5.409,2.267,21.884,21.884,0,0,1-7.745.492,24.691,24.691,0,0,1-4.434-.939c-1.509-.481-3.02-1.071-4.617-1.633-3.177-1.153-6.582-2.352-10.167-3.611-7.172-2.511-15.082-5.2-23.414-7.933-16.669-5.476-31.867-10.091-42.882-13.379l-13.055-3.862-3.548-1.054-.92-.284a2.074,2.074,0,0,1-.309-.11,1.941,1.941,0,0,1,.321.07l.931.245,3.569.981c3.1.863,7.572,2.135,13.092,3.741,11.037,3.219,26.253,7.792,42.927,13.269,8.334,2.734,16.244,5.435,23.412,7.966,3.583,1.268,6.986,2.48,10.158,3.646,1.589.566,3.117,1.171,4.6,1.65a24.468,24.468,0,0,0,4.373.953,21.8,21.8,0,0,0,7.659-.428,20.17,20.17,0,0,0,5.382-2.182,22.167,22.167,0,0,0,2.981-2.167l.717-.641A2.074,2.074,0,0,1,450.432,397.227Z" transform="translate(-330.061 -370.331)" fill="#263238"/>
            </g>
          </g>
          <g id="Grupo_111593" data-name="Grupo 111593" transform="translate(21.473 111.471)">
            <g id="Grupo_111592" data-name="Grupo 111592">
              <path id="Trazado_102212" data-name="Trazado 102212" d="M325.6,370.375c-.013.083-1.022-.136-2.652-.072a12.224,12.224,0,0,0-2.81.464,12.992,12.992,0,0,0-3.164,1.442,14.738,14.738,0,0,0-4.4,4.522c-.863,1.389-1.234,2.345-1.306,2.315a2.5,2.5,0,0,1,.215-.688,12.278,12.278,0,0,1,.847-1.773,13.793,13.793,0,0,1,4.427-4.714,12.525,12.525,0,0,1,3.28-1.461,11.379,11.379,0,0,1,2.9-.392,9.592,9.592,0,0,1,1.961.176A2.441,2.441,0,0,1,325.6,370.375Z" transform="translate(-311.265 -370.019)" fill="#263238"/>
            </g>
          </g>
          <g id="Grupo_111595" data-name="Grupo 111595" transform="translate(17.915 104.349)">
            <g id="Grupo_111594" data-name="Grupo 111594">
              <path id="Trazado_102213" data-name="Trazado 102213" d="M306.657,362.63c-.012-.006.012-.075.073-.2a1.948,1.948,0,0,1,.357-.5,3.64,3.64,0,0,1,2.018-1,10.266,10.266,0,0,1,3.335.008,19.108,19.108,0,0,1,3.957.961,17.352,17.352,0,0,1,6.276,3.841,13.309,13.309,0,0,1,1.454,1.7,3.26,3.26,0,0,1,.422.7c-.065.048-.7-.939-2.072-2.2a18.587,18.587,0,0,0-6.215-3.669,20.308,20.308,0,0,0-3.872-.973,10.691,10.691,0,0,0-3.234-.095,3.715,3.715,0,0,0-1.959.835C306.819,362.38,306.691,362.651,306.657,362.63Z" transform="translate(-306.654 -360.788)" fill="#263238"/>
            </g>
          </g>
          <g id="Grupo_111597" data-name="Grupo 111597" transform="translate(16.105 39.722)">
            <g id="Grupo_111596" data-name="Grupo 111596">
              <path id="Trazado_102214" data-name="Trazado 102214" d="M327.325,293.953a6.9,6.9,0,0,1-.26-1.17c-.114-.366-.282-.806-.457-1.32-.247-.487-.488-1.061-.841-1.649a23.338,23.338,0,0,0-2.9-3.852,31.026,31.026,0,0,0-4.435-3.9,26.692,26.692,0,0,0-9.7-4.455,20.181,20.181,0,0,0-3.229-.41,7.036,7.036,0,0,1-1.2-.1,6.868,6.868,0,0,1,1.2-.059,16.943,16.943,0,0,1,3.281.289,25.512,25.512,0,0,1,9.877,4.407,29.71,29.71,0,0,1,4.474,3.977,22.122,22.122,0,0,1,2.87,3.962c.343.607.572,1.2.8,1.705.159.534.308.989.4,1.367A6.893,6.893,0,0,1,327.325,293.953Z" transform="translate(-304.308 -277.027)" fill="#263238"/>
            </g>
          </g>
          <g id="Grupo_111599" data-name="Grupo 111599" transform="translate(66.678 97.201)">
            <g id="Grupo_111598" data-name="Grupo 111598">
              <path id="Trazado_102215" data-name="Trazado 102215" d="M450.121,376.932a1.355,1.355,0,0,1-.019-.275l-.018-.807c-.022-.708-.049-1.754-.153-3.1a43.056,43.056,0,0,0-2.283-11.118,15.74,15.74,0,0,0-1.558-3.4,6.67,6.67,0,0,0-3.01-2.552c-2.585-1.113-5.695-.966-8.858-1.144l-20.712-.87c-17.114-.745-32.338-1.387-41.9-1.9l.128-.1c-.578,3.514-1.035,6.3-1.353,8.234l-.377,2.182-.1.56a.844.844,0,0,1-.047.188.83.83,0,0,1,.013-.193l.072-.564q.111-.781.312-2.191c.292-1.939.711-4.733,1.241-8.255l.016-.108.112,0,41.906,1.742,20.71.9c1.591.08,3.141.117,4.656.241a13.557,13.557,0,0,1,4.319.969,6.986,6.986,0,0,1,3.136,2.688,15.89,15.89,0,0,1,1.565,3.472,41.815,41.815,0,0,1,2.172,11.2c.079,1.348.082,2.4.077,3.106-.009.339-.017.606-.022.808A1.407,1.407,0,0,1,450.121,376.932Z" transform="translate(-369.854 -351.524)" fill="#263238"/>
            </g>
          </g>
          <g id="Grupo_111601" data-name="Grupo 111601" transform="translate(134.487 72.291)">
            <g id="Grupo_111600" data-name="Grupo 111600">
              <path id="Trazado_102216" data-name="Trazado 102216" d="M457.94,319.238c.11,0,.2,6.226.2,13.9s-.09,13.905-.2,13.905-.2-6.225-.2-13.905S457.829,319.238,457.94,319.238Z" transform="translate(-457.739 -319.238)" fill="#263238"/>
            </g>
          </g>
          <g id="Grupo_111603" data-name="Grupo 111603" transform="translate(0 40.604)">
            <g id="Grupo_111602" data-name="Grupo 111602">
              <path id="Trazado_102217" data-name="Trazado 102217" d="M293.58,278.17s-.048.176-.159.512-.3.829-.465,1.505c-.375,1.336-.849,3.332-1.382,5.933-1.074,5.2-2.4,12.8-3.882,22.328-.737,4.762-1.522,10-2.294,15.667-.394,2.829-.637,5.779-.842,8.831s-.365,6.2-.482,9.449c-.235,6.487-.373,13.339-.185,20.477.055,1.784.12,3.587.269,5.4.046.911.194,1.806.307,2.712a21.757,21.757,0,0,0,.657,2.663,15.16,15.16,0,0,0,2.556,4.886,11.021,11.021,0,0,0,4.387,3.379l.025.01.008,0a66.808,66.808,0,0,0,11.44,4.369c3.987,1.194,8.108,2.159,12.293,3.019a169.266,169.266,0,0,0,27.622,3.364,128.52,128.52,0,0,0,13.186-.344c4.3-.3,8.484-.746,12.536-1.347a132.224,132.224,0,0,0,22.5-5.23,115.329,115.329,0,0,0,18.193-7.807l.02.251-24.959-8.836-6.72-2.4-1.738-.631c-.39-.143-.586-.227-.586-.227s.205.059.6.19l1.751.595,6.744,2.332,25,8.718.294.1-.275.147a114.887,114.887,0,0,1-18.22,7.876,131.954,131.954,0,0,1-22.55,5.282c-4.06.608-8.257,1.063-12.562,1.365a128.488,128.488,0,0,1-13.225.356,169.043,169.043,0,0,1-27.691-3.362c-4.2-.863-8.325-1.83-12.327-3.03a67.059,67.059,0,0,1-11.512-4.4l.032.014a11.37,11.37,0,0,1-4.57-3.509,15.552,15.552,0,0,1-2.619-5.014,22.181,22.181,0,0,1-.668-2.717c-.114-.92-.264-1.836-.309-2.747-.147-1.822-.211-3.629-.264-5.418-.18-7.153-.032-14.009.215-20.5q.184-4.87.5-9.457c.212-3.055.463-6.015.865-8.851.787-5.666,1.589-10.905,2.342-15.667,1.518-9.52,2.883-17.123,4-22.317.553-2.6,1.051-4.592,1.449-5.924.174-.673.385-1.162.5-1.5S293.58,278.17,293.58,278.17Z" transform="translate(-283.435 -278.17)" fill="#263238"/>
            </g>
          </g>
          <g id="Grupo_111604" data-name="Grupo 111604" transform="translate(35.727 64.017)">
            <path id="Trazado_102218" data-name="Trazado 102218" d="M329.739,350.994c9.5-10.515,9.079-29.212,3.629-42.479-.5,14.373-2.2,27.117-3.5,41.083" transform="translate(-329.739 -308.515)" fill="#e0e0e0"/>
          </g>
          <g id="Grupo_111606" data-name="Grupo 111606" transform="translate(35.793 66.71)">
            <g id="Grupo_111605" data-name="Grupo 111605">
              <path id="Trazado_102219" data-name="Trazado 102219" d="M333.408,312.005a1.975,1.975,0,0,1,0,.46c-.022.344-.051.778-.086,1.312-.093,1.192-.222,2.826-.379,4.822-.339,4.118-.8,9.716-1.309,15.9-.485,6.189-.924,11.789-1.247,15.907-.15,2-.273,3.629-.363,4.822l-.114,1.311a1.979,1.979,0,0,1-.066.455,1.961,1.961,0,0,1-.014-.46c.01-.344.022-.779.038-1.315.039-1.142.122-2.792.236-4.832.234-4.078.623-9.708,1.13-15.921s1.022-11.83,1.427-15.893c.21-1.991.381-3.621.506-4.811.066-.531.119-.964.16-1.305A1.962,1.962,0,0,1,333.408,312.005Z" transform="translate(-329.826 -312.005)" fill="#263238"/>
            </g>
          </g>
          <g id="Grupo_111626" data-name="Grupo 111626" transform="translate(53.276 47.711)">
            <g id="Grupo_111608" data-name="Grupo 111608" transform="translate(9.312)">
              <g id="Grupo_111607" data-name="Grupo 111607">
                <path id="Trazado_102220" data-name="Trazado 102220" d="M364.754,287.381c.111,0,.2,3.651.2,8.153s-.089,8.153-.2,8.153-.2-3.65-.2-8.153S364.643,287.381,364.754,287.381Z" transform="translate(-364.553 -287.381)" fill="#263238"/>
              </g>
            </g>
            <g id="Grupo_111625" data-name="Grupo 111625" transform="translate(0 13.782)">
              <g id="Grupo_111612" data-name="Grupo 111612" transform="translate(3.317)">
                <g id="Grupo_111609" data-name="Grupo 111609" transform="translate(0.008 0.153)">
                  <path id="Trazado_102221" data-name="Trazado 102221" d="M356.794,318.6a8.35,8.35,0,0,0,1.748,4.325,5.692,5.692,0,0,0,4.167,2.211,6.353,6.353,0,0,0,5.607-2.813c1.778-2.83,2.216-8.716.791-12.2-.981-2.393-3.183-4.619-5.768-4.68a6.375,6.375,0,0,0-6.247,4.855" transform="translate(-356.794 -305.441)" fill="#e0e0e0"/>
                </g>
                <g id="Grupo_111611" data-name="Grupo 111611">
                  <g id="Grupo_111610" data-name="Grupo 111610">
                    <path id="Trazado_102222" data-name="Trazado 102222" d="M357.089,310.252a5.2,5.2,0,0,1,.628-1.664,6.825,6.825,0,0,1,1.274-1.669,5.914,5.914,0,0,1,2.4-1.411,6.032,6.032,0,0,1,1.614-.258,4.9,4.9,0,0,1,1.766.232,6.959,6.959,0,0,1,3.151,2.26,9.1,9.1,0,0,1,1.853,3.859,16.635,16.635,0,0,1,.344,4.572,12.638,12.638,0,0,1-1.968,6.659,5.971,5.971,0,0,1-2.562,1.931,6.976,6.976,0,0,1-2.9.488h.023a4.373,4.373,0,0,1-2.079-.515,6.85,6.85,0,0,1-1.562-1.09,7.772,7.772,0,0,1-1.7-2.536,7.456,7.456,0,0,1-.539-1.874,4.842,4.842,0,0,1-.049-.508.511.511,0,0,1,.006-.176,10.444,10.444,0,0,0,.753,2.481,7.832,7.832,0,0,0,1.71,2.417,6.686,6.686,0,0,0,1.516,1.018,4.1,4.1,0,0,0,1.927.455h.023a6.172,6.172,0,0,0,5.129-2.322,12.4,12.4,0,0,0,1.872-6.449c.166-3.053-.346-6.129-2.082-8.175a6.66,6.66,0,0,0-2.969-2.177,4.6,4.6,0,0,0-1.654-.239,5.83,5.83,0,0,0-1.542.221,5.771,5.771,0,0,0-2.33,1.3,7,7,0,0,0-1.291,1.582A14.391,14.391,0,0,0,357.089,310.252Z" transform="translate(-356.784 -305.243)" fill="#263238"/>
                  </g>
                </g>
              </g>
              <g id="Grupo_111616" data-name="Grupo 111616" transform="translate(1.511 0.153)">
                <g id="Grupo_111613" data-name="Grupo 111613" transform="translate(0.008 0.153)">
                  <path id="Trazado_102223" data-name="Trazado 102223" d="M354.453,318.793a8.358,8.358,0,0,0,1.748,4.325,5.7,5.7,0,0,0,4.168,2.211,6.352,6.352,0,0,0,5.607-2.814c1.778-2.83,2.216-8.716.79-12.2-.98-2.393-3.182-4.619-5.767-4.68a6.375,6.375,0,0,0-6.247,4.855" transform="translate(-354.453 -305.639)" fill="#e0e0e0"/>
                </g>
                <g id="Grupo_111615" data-name="Grupo 111615">
                  <g id="Grupo_111614" data-name="Grupo 111614">
                    <path id="Trazado_102224" data-name="Trazado 102224" d="M354.748,310.45a5.2,5.2,0,0,1,.628-1.664,6.823,6.823,0,0,1,1.274-1.669,5.914,5.914,0,0,1,2.4-1.411,6.032,6.032,0,0,1,1.614-.258,4.893,4.893,0,0,1,1.765.232,6.957,6.957,0,0,1,3.152,2.26,9.09,9.09,0,0,1,1.853,3.859,16.63,16.63,0,0,1,.345,4.572,12.631,12.631,0,0,1-1.969,6.659,5.964,5.964,0,0,1-2.561,1.931,6.977,6.977,0,0,1-2.9.488h.023a4.373,4.373,0,0,1-2.079-.515,6.871,6.871,0,0,1-1.563-1.09,7.8,7.8,0,0,1-1.7-2.536,7.453,7.453,0,0,1-.539-1.874,4.637,4.637,0,0,1-.049-.508.487.487,0,0,1,.006-.176,10.444,10.444,0,0,0,.753,2.481,7.821,7.821,0,0,0,1.71,2.417,6.652,6.652,0,0,0,1.515,1.017,4.094,4.094,0,0,0,1.928.456h.023a6.173,6.173,0,0,0,5.129-2.322,12.412,12.412,0,0,0,1.872-6.45c.166-3.052-.346-6.128-2.083-8.174A6.648,6.648,0,0,0,362.329,306a4.6,4.6,0,0,0-1.654-.239,5.783,5.783,0,0,0-3.872,1.524,6.975,6.975,0,0,0-1.291,1.583A14.385,14.385,0,0,0,354.748,310.45Z" transform="translate(-354.442 -305.441)" fill="#263238"/>
                  </g>
                </g>
              </g>
              <g id="Grupo_111620" data-name="Grupo 111620" transform="translate(0 4.178)">
                <g id="Grupo_111617" data-name="Grupo 111617" transform="translate(0.174 0.058)">
                  <path id="Trazado_102225" data-name="Trazado 102225" d="M357.33,310.791a3.972,3.972,0,0,0-4.143,2.387,6.85,6.85,0,0,0,.009,5.035,6.239,6.239,0,0,0,1.285,2.268,3.394,3.394,0,0,0,2.3,1.12,4.009,4.009,0,0,0,3.186-1.883,7.185,7.185,0,0,0,1.088-5.919c-.352-1.338-1.336-2.709-2.72-2.746" transform="translate(-352.71 -310.732)" fill="#e0e0e0"/>
                </g>
                <g id="Grupo_111619" data-name="Grupo 111619">
                  <g id="Grupo_111618" data-name="Grupo 111618">
                    <path id="Trazado_102226" data-name="Trazado 102226" d="M358.285,311.037a.756.756,0,0,1,.307-.008,2.131,2.131,0,0,1,.837.283,4.1,4.1,0,0,1,1.765,2.656,7.293,7.293,0,0,1-.476,4.723,6.148,6.148,0,0,1-1.73,2.271,3.344,3.344,0,0,1-2.977.713,4.153,4.153,0,0,1-2.379-1.944,8.685,8.685,0,0,1-.991-2.666,5.934,5.934,0,0,1,.771-4.66,4.142,4.142,0,0,1,2.692-1.712,2.938,2.938,0,0,1,.88,0,.878.878,0,0,1,.3.083,5.79,5.79,0,0,0-1.148.073,4.1,4.1,0,0,0-2.487,1.721,5.715,5.715,0,0,0-.64,4.423,8.484,8.484,0,0,0,.965,2.536,3.78,3.78,0,0,0,2.15,1.761,2.962,2.962,0,0,0,2.628-.637,5.841,5.841,0,0,0,1.636-2.116,7.122,7.122,0,0,0,.535-4.5,4.056,4.056,0,0,0-1.57-2.586A3.252,3.252,0,0,0,358.285,311.037Z" transform="translate(-352.484 -310.658)" fill="#263238"/>
                  </g>
                </g>
              </g>
              <g id="Grupo_111622" data-name="Grupo 111622" transform="translate(4.634 15.021)">
                <g id="Grupo_111621" data-name="Grupo 111621">
                  <path id="Trazado_102227" data-name="Trazado 102227" d="M362.541,326.667c-.061.015-.146-.242-.41-.552a2.873,2.873,0,0,0-1.317-.844,7.236,7.236,0,0,0-1.62-.252c-.431-.032-.7-.066-.7-.123s.263-.12.7-.16a4.545,4.545,0,0,1,1.742.152,2.561,2.561,0,0,1,1.428,1.063C362.6,326.358,362.588,326.662,362.541,326.667Z" transform="translate(-358.49 -324.712)" fill="#263238"/>
                </g>
              </g>
              <g id="Grupo_111624" data-name="Grupo 111624" transform="translate(4.77 3.235)">
                <g id="Grupo_111623" data-name="Grupo 111623">
                  <path id="Trazado_102228" data-name="Trazado 102228" d="M363.188,309.444c.035.034-.119.275-.478.559a3.839,3.839,0,0,1-3.4.614c-.437-.14-.665-.312-.644-.357a5.8,5.8,0,0,0,4.521-.816Z" transform="translate(-358.666 -309.436)" fill="#263238"/>
                </g>
              </g>
            </g>
          </g>
          <g id="Grupo_111634" data-name="Grupo 111634" transform="translate(100.032 9.466)">
            <g id="Grupo_111628" data-name="Grupo 111628" transform="translate(15.551)">
              <g id="Grupo_111627" data-name="Grupo 111627">
                <path id="Trazado_102229" data-name="Trazado 102229" d="M433.24,237.815c.006-.012.093.02.254.094a7.113,7.113,0,0,1,.686.354,13.982,13.982,0,0,1,2.312,1.653,16.6,16.6,0,0,1,4.967,7.858,50.344,50.344,0,0,1,1.891,9.148c.133,1.188.206,2.152.251,2.819a5.147,5.147,0,0,1,.019,1.039,5.284,5.284,0,0,1-.175-1.024c-.1-.739-.226-1.677-.377-2.8a59.029,59.029,0,0,0-2-9.07,17.084,17.084,0,0,0-4.771-7.761A26.363,26.363,0,0,0,433.24,237.815Z" transform="translate(-433.239 -237.813)" fill="#263238"/>
              </g>
            </g>
            <g id="Grupo_111631" data-name="Grupo 111631" transform="translate(0 22.514)">
              <g id="Grupo_111629" data-name="Grupo 111629" transform="translate(5.651 60.219)">
                <path id="Trazado_102230" data-name="Trazado 102230" d="M420.7,347.241c2.236-.086,4.023-2.315,6.257-2.2a3.109,3.109,0,1,1-.525,6.193c-2.347-.272-3.721-3.025-6.024-3.553" transform="translate(-420.407 -345.04)" fill="#263238"/>
              </g>
              <g id="Grupo_111630" data-name="Grupo 111630">
                <path id="Trazado_102231" data-name="Trazado 102231" d="M437.988,331.317a13.391,13.391,0,0,1-2.094-.174l.122-.762a8.881,8.881,0,0,0,6.9-1.346c2.284-1.678,3.755-4.681,4.375-8.924l.024-.162c.252-1.68.6-34.682.6-40.947,0-9.787-8.59-11.122-8.956-11.174-.348-.064-8.156-1.369-12.3,9.32-4.338,11.193-11.273,32.764-11.732,35.293-.056.309-.141.693-.24,1.137-.721,3.237-2.221,9.972,2.271,13.853,5.007,4.324,8.957,2.65,9.122,2.578l.316.7c-.184.082-4.542,1.966-9.943-2.7-4.842-4.18-3.274-11.22-2.52-14.6.1-.433.18-.806.235-1.108.462-2.548,7.422-24.211,11.773-35.434,4.382-11.31,13.056-9.82,13.143-9.8a11.609,11.609,0,0,1,9.6,11.935c0,5.161-.343,39.276-.611,41.062l-.023.159c-.65,4.454-2.225,7.629-4.682,9.433A8.863,8.863,0,0,1,437.988,331.317Z" transform="translate(-413.083 -266.992)" fill="#263238"/>
              </g>
            </g>
            <g id="Grupo_111633" data-name="Grupo 111633" transform="translate(12.445 30.605)">
              <g id="Grupo_111632" data-name="Grupo 111632">
                <path id="Trazado_102232" data-name="Trazado 102232" d="M451.988,287.709a14.418,14.418,0,0,0-1.606-3.846,13.083,13.083,0,0,0-8-5.643,14.509,14.509,0,0,0-9.768,1.274,17.218,17.218,0,0,0-3.4,2.433c-.01-.009.05-.09.176-.237a6.729,6.729,0,0,1,.577-.616,11.675,11.675,0,0,1,2.509-1.831,14.345,14.345,0,0,1,9.993-1.414,13.181,13.181,0,0,1,5.09,2.44,12.816,12.816,0,0,1,3.065,3.446,10.229,10.229,0,0,1,1.19,2.871,6.1,6.1,0,0,1,.156.83A.814.814,0,0,1,451.988,287.709Z" transform="translate(-429.213 -277.479)" fill="#263238"/>
              </g>
            </g>
          </g>
          <g id="Grupo_111636" data-name="Grupo 111636" transform="translate(137.154 100.158)">
            <g id="Grupo_111635" data-name="Grupo 111635">
              <path id="Trazado_102233" data-name="Trazado 102233" d="M478.943,367.182a26.7,26.7,0,0,0-1.059-3.292,14.381,14.381,0,0,0-5.234-6.28,11.3,11.3,0,0,0-4.247-1.532,37.469,37.469,0,0,0-3.737-.387l-2.542-.176a4.187,4.187,0,0,1-.929-.127,4.3,4.3,0,0,1,.937-.029l2.548.049a31.76,31.76,0,0,1,3.783.306,11.3,11.3,0,0,1,4.4,1.559,13.988,13.988,0,0,1,5.28,6.51,12.379,12.379,0,0,1,.7,2.465A3.533,3.533,0,0,1,478.943,367.182Z" transform="translate(-461.196 -355.356)" fill="#263238"/>
            </g>
          </g>
          <g id="Grupo_111642" data-name="Grupo 111642" transform="translate(115.981 78.197)">
            <g id="Grupo_111637" data-name="Grupo 111637">
              <path id="Trazado_102234" data-name="Trazado 102234" d="M433.754,347.8s7.587-11.492,9.527-13,18.5-8.983,20.438-7.78.746,3.811.746,3.811,7.012-2.456,7.757-1.488a3.467,3.467,0,0,1,0,3.952s3.879-.6,3.879.6a4.912,4.912,0,0,1-2.238,4.028c-1.79,1.343-13.431,9.093-14.364,11.233l-3.771-.229Z" transform="translate(-433.754 -326.893)" fill="#b78876"/>
            </g>
            <g id="Grupo_111639" data-name="Grupo 111639" transform="translate(21.833 6.454)">
              <g id="Grupo_111638" data-name="Grupo 111638">
                <path id="Trazado_102235" data-name="Trazado 102235" d="M462.053,346.426a2.754,2.754,0,0,1,.346-.725,13.486,13.486,0,0,1,1.247-1.8,20.862,20.862,0,0,1,5.5-4.632,41.519,41.519,0,0,1,6.509-3.059c.859-.326,1.559-.574,2.046-.737a3.014,3.014,0,0,1,.772-.214,3.153,3.153,0,0,1-.714.36l-2,.855a52.591,52.591,0,0,0-6.408,3.139,23.045,23.045,0,0,0-5.493,4.471C462.661,345.46,462.116,346.464,462.053,346.426Z" transform="translate(-462.051 -335.258)" fill="#aa6550"/>
              </g>
            </g>
            <g id="Grupo_111641" data-name="Grupo 111641" transform="translate(12.208 3.788)">
              <g id="Grupo_111640" data-name="Grupo 111640">
                <path id="Trazado_102236" data-name="Trazado 102236" d="M449.579,345.45a4.024,4.024,0,0,1,.367-.845c.262-.531.647-1.3,1.167-2.221a21.188,21.188,0,0,1,2.091-3.1,9.793,9.793,0,0,1,1.59-1.575c.64-.432,1.314-.837,2.01-1.251a55.361,55.361,0,0,1,7.408-3.694,21.5,21.5,0,0,1,2.383-.8,3.991,3.991,0,0,1,.909-.162c.016.068-1.258.363-3.184,1.223a70.282,70.282,0,0,0-7.312,3.778c-.691.41-1.367.814-1.991,1.229a9.846,9.846,0,0,0-1.529,1.489,23.426,23.426,0,0,0-2.13,3l-1.274,2.15A4.127,4.127,0,0,1,449.579,345.45Z" transform="translate(-449.576 -331.802)" fill="#aa6550"/>
              </g>
            </g>
          </g>
        </g>
      </g>
    </g>
  </g>
</svg>
