<svg xmlns="http://www.w3.org/2000/svg" width="100" height="100" viewBox="0 0 100 100">
  <g id="Grupo_115192" data-name="Grupo 115192" transform="translate(-750.527 -1249.08)">
    <path id="Trazado_148921" data-name="Trazado 148921" d="M50,0A50,50,0,1,1,0,50,50,50,0,0,1,50,0Z" transform="translate(750.527 1249.08)" fill="#d919d9"/>
    <g id="Grupo_113308" data-name="Grupo 113308" transform="translate(1305.471 -714.76)">
      <path id="Trazado_141388" data-name="Trazado 141388" d="M-521.469,2043.839a2.18,2.18,0,0,1-1.356-2.319c.048-2.518.015-5.036.015-7.554v-.8l-1.809,1.813c-.234.235-.465.473-.705.7a.917.917,0,0,1-1.472-.01q-1.373-1.36-2.732-2.734c-.56-.566-.558-.975.015-1.55,2.053-2.06,4.1-4.124,6.177-6.163a1.614,1.614,0,0,0,.538-1.269c-.017-9.35-.008-18.7-.022-28.051a1.987,1.987,0,0,1,.628-1.548q5.016-4.964,9.984-9.975a1.671,1.671,0,0,1,1.286-.542q13.85.019,27.7.01c1.521,0,2.079.555,2.08,2.08q0,16.954,0,33.907c0,.79-.139.979-.838,1.183-.752-.158-.92-.392-.92-1.294q0-16.688,0-33.375a4.056,4.056,0,0,1,0-.41c.025-.246-.056-.35-.321-.338-.526.023-1.053.018-1.579.025a1.562,1.562,0,0,0-.174-.019q-12.5,0-25-.012c-.418,0-.464.156-.462.506.012,2.655.008,5.309.006,7.963,0,1.621-.564,2.188-2.174,2.188-2.655,0-5.309.007-7.963-.007-.362,0-.495.069-.494.47q.019,12.852.013,25.7c0,.12-.07.28.151.367.716-.722,1.44-1.457,2.169-2.186.582-.582.806-.608,1.54-.212a1.136,1.136,0,0,1-.328,1.5c-1.591,1.556-3.154,3.14-4.728,4.714-1.753,1.754-3.5,3.513-5.265,5.254-.254.251-.277.393,0,.628a7.117,7.117,0,0,1,.956.946c.345.428.566.439.978.022,3.293-3.333,6.615-6.638,9.928-9.951,1.67-1.671,3.336-3.345,5.016-5.006.257-.254.326-.4.006-.673a10.652,10.652,0,0,1-1.151-1.165c-.212-.244-.332-.213-.537,0-.636.661-1.306,1.29-1.936,1.956a1.037,1.037,0,0,1-1.455.228c-.379-.7-.35-.917.215-1.486.674-.679,1.341-1.366,2.035-2.024.269-.255.35-.437.1-.771a5.806,5.806,0,0,1-.649-1.173c-.153-.357-.307-.463-.726-.371a2.9,2.9,0,0,1-3.146-1.394,2.878,2.878,0,0,1,.325-3.479q2.245-2.351,4.6-4.6a2.891,2.891,0,0,1,3.482-.3,2.9,2.9,0,0,1,1.378,3.1c-.1.45.062.6.411.775a14.916,14.916,0,0,1,6.584,6.517c.227.433.386.662.971.541a2.841,2.841,0,0,1,3.012,1.445,2.9,2.9,0,0,1-.309,3.387c-1.521,1.6-3.075,3.167-4.685,4.674a2.711,2.711,0,0,1-3.119.428,2.9,2.9,0,0,1-1.758-2.5c-.049-.454.3-.973.006-1.313a4.1,4.1,0,0,0-1.213-.677,1.043,1.043,0,0,1-.248-.153c-.32-.312-.533-.167-.806.107q-5.683,5.708-11.393,11.39a1.3,1.3,0,0,0-.431,1.016q.03,4.715,0,9.431c0,.508.094.674.648.672q17.516-.028,35.032-.015c.195,0,.39-.013.584-.02a11.935,11.935,0,0,1,1.283.03c.525.066.629-.126.627-.63-.02-5.668-.013-11.336-.012-17,0-.828.165-1.047.917-1.248a1,1,0,0,1,.848,1.135q-.018,8.757,0,17.513a2.065,2.065,0,0,1-1.32,1.982Zm19.212-28.549c-.032-.077-.066-.168-.107-.256a13.31,13.31,0,0,0-6.555-6.567.462.462,0,0,0-.61.119q-1.48,1.5-2.986,2.976a.5.5,0,0,0-.11.666,13.246,13.246,0,0,0,6.582,6.536.419.419,0,0,0,.557-.1c1-1.018,2.01-2.02,3.016-3.029C-502.376,2015.542-502.249,2015.466-502.258,2015.29Zm-17.385-20.8c2.337,0,4.656-.009,6.974.008.41,0,.481-.164.479-.521-.012-2.183,0-4.366-.01-6.55,0-.137.087-.312-.012-.368Zm9.872,11.271a1.247,1.247,0,0,0-.758-1.061,1.265,1.265,0,0,0-1.482.375c-1.37,1.36-2.74,2.721-4.094,4.1a1.219,1.219,0,0,0-.083,1.781,1.246,1.246,0,0,0,1.828-.042c1.4-1.384,2.788-2.783,4.181-4.176A1.378,1.378,0,0,0-509.77,2005.76Zm4.56,15.557a1.173,1.173,0,0,0,.758,1.213,1.189,1.189,0,0,0,1.386-.314q2.052-2.042,4.095-4.094a1.258,1.258,0,0,0,.135-1.861,1.258,1.258,0,0,0-1.87.106c-1.375,1.355-2.732,2.727-4.1,4.091A1.191,1.191,0,0,0-505.21,2021.316Z" transform="translate(0 0)" fill="#030303"/>
      <path id="Trazado_141389" data-name="Trazado 141389" d="M-238.812,2032.7c-.752.2-.917.42-.917,1.248,0,5.668-.008,11.336.012,17,0,.5-.1.7-.627.63a11.934,11.934,0,0,0-1.283-.03V1995.12c.526-.007,1.053,0,1.579-.025.265-.012.346.092.321.338a4.06,4.06,0,0,0,0,.41q0,16.688,0,33.375c0,.9.168,1.136.92,1.294Q-238.811,2031.607-238.812,2032.7Z" transform="translate(-243.17 -9.493)" fill="#fff3c9"/>
      <path id="Trazado_141390" data-name="Trazado 141390" d="M-436.956,1995.095v56.432c-.195.007-.39.02-.584.02q-17.516,0-35.032.015c-.555,0-.652-.165-.648-.673q.034-4.715,0-9.431a1.3,1.3,0,0,1,.431-1.016q5.709-5.682,11.393-11.39c.273-.274.486-.419.806-.107a1.051,1.051,0,0,0,.248.153,4.1,4.1,0,0,1,1.213.677c.3.34-.055.859-.006,1.313a2.9,2.9,0,0,0,1.758,2.5,2.711,2.711,0,0,0,3.119-.428c1.61-1.507,3.164-3.077,4.685-4.674a2.9,2.9,0,0,0,.309-3.387,2.841,2.841,0,0,0-3.012-1.445c-.585.121-.744-.109-.971-.541a14.916,14.916,0,0,0-6.584-6.517c-.349-.178-.515-.325-.411-.775a2.9,2.9,0,0,0-1.378-3.1,2.891,2.891,0,0,0-3.482.3q-2.354,2.241-4.6,4.6a2.878,2.878,0,0,0-.325,3.479,2.9,2.9,0,0,0,3.146,1.394c.419-.092.573.014.726.371a5.823,5.823,0,0,0,.649,1.173c.247.333.165.516-.1.77-.694.658-1.361,1.345-2.035,2.024-.565.569-.594.784-.215,1.486a10.352,10.352,0,0,0-1.488,1.545c-.734-.4-.957-.37-1.54.212-.73.729-1.454,1.464-2.17,2.186-.221-.087-.151-.247-.151-.367q-.006-12.852-.013-25.7c0-.4.132-.472.494-.47,2.654.014,5.309.009,7.963.007,1.61,0,2.173-.567,2.174-2.188,0-2.654.006-5.309-.006-7.963,0-.349.044-.506.462-.506q12.5.021,25,.012A1.56,1.56,0,0,1-436.956,1995.095Zm-5.792,15.164a.96.96,0,0,0,1.359-.18c.485-.508,1-.987,1.469-1.511a5.587,5.587,0,0,0,1.432-3.563,5.812,5.812,0,0,0-3.391-5.6,5.815,5.815,0,0,0-6.5,1.1c-.346.329-.512.331-.86,0a5.572,5.572,0,0,0-5.286-1.49,5.533,5.533,0,0,0-4.376,4.1,5.679,5.679,0,0,0,1.561,5.856q3.86,3.884,7.744,7.745c.587.586,1,.582,1.6-.015q1.744-1.735,3.476-3.481c.524-.528.55-.776.192-1.447Zm-13.983,33.474c.767,1.858,1.489,3.6,2.2,5.345.166.4.387.723.875.734a.962.962,0,0,0,.918-.682c.311-.649.664-1.279.955-1.937a.642.642,0,0,1,.712-.427c1.288.021,2.576.015,3.864,0a.887.887,0,0,0,.977-.86.892.892,0,0,0-.962-.888c-1.6-.016-3.2-.007-4.8-.005a1.006,1.006,0,0,0-.973.621c-.177.371-.368.735-.594,1.185-.778-1.874-1.519-3.648-2.249-5.428a.905.905,0,0,0-.8-.663.9.9,0,0,0-.913.6q-.852,1.759-1.713,3.514c-.207.423-.421.842-.654,1.308a3.053,3.053,0,0,1-.351-.4,1.514,1.514,0,0,0-1.529-.741c-1.4.036-2.81.007-4.215.013-.735,0-1.122.325-1.113.9s.363.849,1.087.854a23.565,23.565,0,0,0,2.749-.019,2.474,2.474,0,0,1,2.608,1.247c.687,1.053,1.365.941,1.916-.182C-458.084,2046.5-457.436,2045.172-456.731,2043.733Zm4.544-5.3h13.643a4.019,4.019,0,0,0,.585-.013.822.822,0,0,0,.764-.822.814.814,0,0,0-.629-.875,1.975,1.975,0,0,0-.579-.046q-13.73,0-27.461,0a2.125,2.125,0,0,0-.524.024.825.825,0,0,0-.7.934.807.807,0,0,0,.789.79,4.583,4.583,0,0,0,.526.009Zm7.314-3.984h6.264c.117,0,.234,0,.351,0,.676-.01,1.078-.341,1.072-.882s-.41-.874-1.09-.874q-6.557,0-13.113,0c-.717,0-1.139.339-1.134.893s.418.863,1.152.864Q-448.122,2034.454-444.873,2034.452Zm2.177-3.978c1.464,0,2.927,0,4.391,0,.724,0,1.131-.334,1.118-.9-.013-.541-.41-.86-1.1-.861q-4.362-.005-8.724,0c-.726,0-1.123.33-1.11.9.012.554.384.851,1.093.853C-445.585,2030.477-444.141,2030.474-442.7,2030.474Zm.358-3.984c1.345,0,2.689,0,4.034,0,.725,0,1.131-.331,1.117-.891-.013-.541-.411-.864-1.1-.865q-4.063-.006-8.127,0c-.681,0-1.079.331-1.087.874s.389.879,1.067.881C-445.067,2026.493-443.7,2026.49-442.339,2026.49Z" transform="translate(-47.842 -9.467)" fill="#fff3c9"/>
      <path id="Trazado_141391" data-name="Trazado 141391" d="M-409.4,2147.582c.009.176-.119.252-.212.346-1.006,1.009-2.019,2.011-3.016,3.029a.419.419,0,0,1-.557.1,13.245,13.245,0,0,1-6.582-6.536.5.5,0,0,1,.11-.666q1.51-1.471,2.986-2.976a.462.462,0,0,1,.61-.119,13.307,13.307,0,0,1,6.555,6.567C-409.471,2147.414-409.437,2147.505-409.4,2147.582Z" transform="translate(-92.853 -132.292)" fill="#e0b318"/>
      <path id="Trazado_141392" data-name="Trazado 141392" d="M-505.135,2196.248a10.348,10.348,0,0,1,1.488-1.545,1.037,1.037,0,0,0,1.455-.229c.63-.667,1.3-1.295,1.936-1.956.2-.213.325-.244.537,0a10.674,10.674,0,0,0,1.151,1.165c.319.269.25.419-.006.673-1.68,1.661-3.346,3.336-5.016,5.006-3.313,3.313-6.635,6.617-9.928,9.951-.412.417-.633.406-.978-.022a7.113,7.113,0,0,0-.956-.946c-.28-.236-.256-.378,0-.628,1.764-1.742,3.512-3.5,5.265-5.254,1.574-1.574,3.137-3.158,4.728-4.715A1.136,1.136,0,0,0-505.135,2196.248Z" transform="translate(-12.052 -175.858)" fill="#e0b318"/>
      <path id="Trazado_141393" data-name="Trazado 141393" d="M-464.153,2011.831l7.431-7.43c.1.056.012.231.012.368.006,2.183,0,4.366.01,6.549,0,.357-.069.524-.479.521C-459.5,2011.822-461.816,2011.831-464.153,2011.831Z" transform="translate(-55.489 -17.342)" fill="#ffe489"/>
      <path id="Trazado_141394" data-name="Trazado 141394" d="M-437.548,2117.532a1.377,1.377,0,0,1-.409.974c-1.393,1.393-2.779,2.792-4.181,4.176a1.246,1.246,0,0,1-1.828.043,1.219,1.219,0,0,1,.083-1.782c1.354-1.376,2.724-2.737,4.094-4.1a1.265,1.265,0,0,1,1.482-.375A1.248,1.248,0,0,1-437.548,2117.532Z" transform="translate(-72.222 -111.773)" fill="#e0b318"/>
      <path id="Trazado_141395" data-name="Trazado 141395" d="M-371.992,2193.963a1.19,1.19,0,0,1,.407-.858c1.365-1.364,2.722-2.737,4.1-4.092a1.259,1.259,0,0,1,1.87-.106,1.258,1.258,0,0,1-.135,1.861q-2.041,2.053-4.095,4.093a1.189,1.189,0,0,1-1.386.315A1.173,1.173,0,0,1-371.992,2193.963Z" transform="translate(-133.219 -172.647)" fill="#e0b318"/>
      <path id="Trazado_141396" data-name="Trazado 141396" d="M-357.491,2040.173l-1.586,1.5c-.674-.347-.924-.316-1.453.207-.735.728-1.464,1.463-2.194,2.2-.824.826-.833.835-1.665.007-2.173-2.162-4.349-4.32-6.5-6.5a4.112,4.112,0,0,1-.055-5.84,4.107,4.107,0,0,1,5.838.014c.3.284.573.587.874.865a.866.866,0,0,0,1.342.006c.373-.344.712-.726,1.092-1.061a4.107,4.107,0,0,1,5.665.214,4.1,4.1,0,0,1,.062,5.625c-.422.46-.879.888-1.314,1.336A.909.909,0,0,0-357.491,2040.173Zm-3.193-2.826c0-.525-.353-.856-.951-.881-1.018-.043-1.018-.043-1.053-1.024-.022-.616-.329-.967-.852-.975a.881.881,0,0,0-.9.94c-.021.328.094.758-.072.962-.206.251-.658.071-1,.1a.9.9,0,0,0-.926.862.9.9,0,0,0,.9.9c.346.029.784-.144,1.016.078s.055.665.087,1.009a.9.9,0,0,0,.94.91.884.884,0,0,0,.816-.959c.042-.99.042-.99,1.04-1.036A.888.888,0,0,0-360.684,2037.347Z" transform="translate(-133.098 -39.381)" fill="#d919d9"/>
      <path id="Trazado_141397" data-name="Trazado 141397" d="M-367,2030.661a.909.909,0,0,1,.106-1.431c.435-.449.891-.876,1.314-1.336a4.1,4.1,0,0,0-.062-5.626,4.107,4.107,0,0,0-5.665-.214c-.38.335-.719.717-1.092,1.061a.866.866,0,0,1-1.342-.006c-.3-.278-.579-.581-.874-.865a4.107,4.107,0,0,0-5.838-.014,4.112,4.112,0,0,0,.055,5.84c2.152,2.182,4.328,4.341,6.5,6.5.832.828.841.819,1.665-.007.731-.732,1.459-1.467,2.194-2.2.528-.523.778-.554,1.453-.207.358.671.331.919-.192,1.447q-1.733,1.746-3.476,3.481c-.6.6-1.011.6-1.6.015q-3.876-3.868-7.744-7.745a5.68,5.68,0,0,1-1.561-5.856,5.533,5.533,0,0,1,4.376-4.1,5.572,5.572,0,0,1,5.286,1.49c.348.331.515.328.861,0a5.815,5.815,0,0,1,6.5-1.1,5.812,5.812,0,0,1,3.391,5.6,5.587,5.587,0,0,1-1.432,3.563c-.467.524-.984,1-1.469,1.511A.96.96,0,0,1-367,2030.661Z" transform="translate(-123.587 -29.869)" fill="#030303"/>
      <path id="Trazado_141398" data-name="Trazado 141398" d="M-423.723,2289.693c-.7,1.439-1.353,2.763-2,4.087-.55,1.123-1.228,1.234-1.916.182a2.474,2.474,0,0,0-2.608-1.247,23.674,23.674,0,0,1-2.749.019c-.724,0-1.078-.289-1.087-.854s.378-.9,1.113-.9c1.4-.006,2.811.023,4.215-.013a1.515,1.515,0,0,1,1.529.741,3.016,3.016,0,0,0,.351.4c.233-.466.447-.885.654-1.308q.859-1.756,1.713-3.514a.9.9,0,0,1,.913-.6.906.906,0,0,1,.8.663c.729,1.78,1.471,3.555,2.249,5.428.226-.449.417-.814.594-1.185a1.006,1.006,0,0,1,.973-.622c1.6,0,3.2-.011,4.8.005a.892.892,0,0,1,.962.888.887.887,0,0,1-.977.86c-1.288.011-2.576.018-3.864,0a.643.643,0,0,0-.712.427c-.29.658-.644,1.288-.955,1.938a.961.961,0,0,1-.918.682c-.489-.012-.71-.33-.875-.734C-422.234,2293.293-422.956,2291.551-423.723,2289.693Z" transform="translate(-80.849 -255.427)" fill="#030303"/>
      <path id="Trazado_141399" data-name="Trazado 141399" d="M-419.173,2262.55h-13.584a4.67,4.67,0,0,1-.527-.009.807.807,0,0,1-.789-.79.825.825,0,0,1,.7-.934,2.125,2.125,0,0,1,.524-.024q13.73,0,27.461,0a1.983,1.983,0,0,1,.579.046.815.815,0,0,1,.629.876.822.822,0,0,1-.764.821,4.018,4.018,0,0,1-.585.013Z" transform="translate(-80.856 -233.582)" fill="#030303"/>
      <path id="Trazado_141400" data-name="Trazado 141400" d="M-333.4,2237.124q-3.249,0-6.5,0c-.735,0-1.148-.314-1.152-.864s.417-.893,1.134-.893q6.557,0,13.113,0c.68,0,1.083.334,1.09.874s-.4.873-1.072.883c-.117,0-.234,0-.351,0Z" transform="translate(-159.317 -212.139)" fill="#030303"/>
      <path id="Trazado_141401" data-name="Trazado 141401" d="M-307.516,2211.716c-1.444,0-2.888,0-4.332,0-.709,0-1.081-.3-1.093-.853-.013-.573.384-.9,1.11-.9q4.362,0,8.724,0c.69,0,1.088.32,1.1.861.013.561-.393.893-1.118.9C-304.589,2211.719-306.052,2211.716-307.516,2211.716Z" transform="translate(-183.022 -190.71)" fill="#030303"/>
      <path id="Trazado_141402" data-name="Trazado 141402" d="M-303.8,2186.274c-1.364,0-2.728,0-4.092,0-.678,0-1.075-.338-1.067-.881s.405-.873,1.087-.874q4.063-.006,8.127,0c.686,0,1.084.324,1.1.865.014.56-.392.889-1.117.892C-301.106,2186.277-302.45,2186.274-303.8,2186.274Z" transform="translate(-186.385 -169.252)" fill="#030303"/>
      <path id="Trazado_141403" data-name="Trazado 141403" d="M-330.031,2058.544a.888.888,0,0,1-.965.877c-1,.045-1,.045-1.04,1.036a.884.884,0,0,1-.816.958.9.9,0,0,1-.94-.91c-.033-.344.148-.785-.087-1.009s-.67-.048-1.016-.077a.9.9,0,0,1-.9-.9.9.9,0,0,1,.926-.862c.344-.024.8.156,1-.095.167-.2.051-.633.072-.962a.881.881,0,0,1,.9-.94c.523.008.83.358.852.974.035.981.035.981,1.053,1.024C-330.384,2057.688-330.027,2058.019-330.031,2058.544Z" transform="translate(-163.751 -60.578)" fill="#030303"/>
    </g>
  </g>
</svg>
