<svg xmlns="http://www.w3.org/2000/svg" width="100" height="100" viewBox="0 0 100 100">
  <g id="Grupo_115189" data-name="Grupo 115189" transform="translate(-369.527 -2843.115)">
    <rect id="Rectángulo_31023" data-name="Rectángulo 31023" width="100" height="100" rx="25" transform="translate(369.527 2843.115)" fill="#bcfff7"/>
    <g id="Grupo_111645" data-name="Grupo 111645" transform="translate(1023.09 3000.619)">
      <path id="Trazado_102237" data-name="Trazado 102237" d="M-604.76-47.245a10.17,10.17,0,0,0-2.09-.442,7.941,7.941,0,0,1-2.76-1.168,2.382,2.382,0,0,1-.766-3.32,7.7,7.7,0,0,1,3.031-2.979c.172-.1.511-.133.413-.44-.073-.228-.352-.119-.537-.147a30.3,30.3,0,0,1-14.35-6.1c-.392-.3-.632-.312-.907.077a1.343,1.343,0,0,1-.159.161,9.52,9.52,0,0,0-1.671,1.734c-.408.709.214,1.515.228,2.3a8,8,0,0,1-.233,2.468,2.461,2.461,0,0,1-3.245,1.872,10.1,10.1,0,0,1-4.172-2.346,13.821,13.821,0,0,1-4.015-5.217c-.057-.14-.11-.281-.158-.424-.711-2.153.239-3.641,2.5-3.9a8.239,8.239,0,0,1,3.3.231.9.9,0,0,0,1.051-.3c.551-.589,1.127-1.155,1.708-1.714.226-.217.335-.372.1-.681a30.123,30.123,0,0,1-6.036-15.083c-.387-.046-.392.288-.508.474a8.276,8.276,0,0,1-2.561,2.733,2.552,2.552,0,0,1-3.967-.939,9.849,9.849,0,0,1-1.111-3.424c-.024-.137.033-.314-.167-.374V-88.42c.366-.453.27-1.035.425-1.548a9.608,9.608,0,0,1,.823-2.1,2.572,2.572,0,0,1,4.017-.977,8.25,8.25,0,0,1,2.59,2.809c.1.161.123.455.364.418.29-.045.212-.355.241-.558a29.709,29.709,0,0,1,6.023-14.219c.361-.466.37-.752-.089-1.076a.262.262,0,0,1-.054-.053c-1.018-1.3-2.131-2.218-3.974-1.52a4.012,4.012,0,0,1-2.169-.07c-2-.431-2.793-1.726-2.184-3.677a12.688,12.688,0,0,1,3.865-5.495,11.435,11.435,0,0,1,3.793-2.427c2.431-.883,4.029.167,4.188,2.759a8.151,8.151,0,0,1-.291,2.992.772.772,0,0,0,.25.922c.616.558,1.205,1.149,1.766,1.763.292.319.49.283.81.046.707-.525,1.437-1.021,2.178-1.5.885-.568,1.161-.521,1.888.231a1.274,1.274,0,0,1-.682,1.7,25,25,0,0,0-2.957,2.1c-.8.632-1.246.607-1.972-.109-1.1-1.08-2.163-2.188-3.276-3.25a1.46,1.46,0,0,1-.412-1.825,6.054,6.054,0,0,0,.418-3.039c-.079-.835-.279-.959-1.071-.669a10.038,10.038,0,0,0-3.427,2.3,11.518,11.518,0,0,0-2.633,3.473c-.6,1.29-.444,1.531.947,1.569a5.8,5.8,0,0,0,2.513-.429,1.549,1.549,0,0,1,1.953.452c1,1.065,2.064,2.072,3.1,3.109.821.824.84,1.252.1,2.142a27.729,27.729,0,0,0-6.476,15.269,1.486,1.486,0,0,1-.32.909,2.806,2.806,0,0,1-4.1-.584,6.6,6.6,0,0,0-2.024-2.5c-.427-.316-.707-.257-.951.22a8.767,8.767,0,0,0-.838,3.272,11.729,11.729,0,0,0,.692,5.643c.389.934.566.967,1.339.349a5.277,5.277,0,0,0,1.822-2.46c.431-1.343,3.433-1.307,4.1-.335a1.179,1.179,0,0,1,.187.565c.059.526.107,1.053.178,1.578A28.063,28.063,0,0,0-625.044-68.1c.643.793.608,1.246-.107,1.966-1.066,1.074-2.162,2.119-3.2,3.216a1.535,1.535,0,0,1-1.947.443,5.815,5.815,0,0,0-3.043-.372c-.824.1-.916.222-.623,1.015a10.747,10.747,0,0,0,2.883,4.016,9.815,9.815,0,0,0,3.582,2.329c.482.163.735.067.835-.492a6.175,6.175,0,0,0-.389-3.334,1.412,1.412,0,0,1,.357-1.7c1.126-1.084,2.216-2.206,3.327-3.306a1.223,1.223,0,0,1,1.971-.085A27.882,27.882,0,0,0-606.217-57.9a1.737,1.737,0,0,1,1.609,1.118c.029.2.056.4.087.6a2.353,2.353,0,0,1-1.445,2.87,6.314,6.314,0,0,0-2.091,1.705c-.535.68-.5.849.3,1.215a10.671,10.671,0,0,0,4.724.785,10.019,10.019,0,0,0,4.258-.847c.539-.257.617-.558.24-1.038a5.957,5.957,0,0,0-2.4-1.909,1.952,1.952,0,0,1-1.254-1.876,3.654,3.654,0,0,1,.437-2.109c.54-.607,1.336-.33,1.981-.573.375-.033.753-.044,1.124-.1a28.211,28.211,0,0,0,13.481-6.019c.8-.643,1.253-.616,1.971.091,1.112,1.1,2.2,2.22,3.323,3.3a1.425,1.425,0,0,1,.374,1.766,6.348,6.348,0,0,0-.411,3.185c.057.574.347.818.908.6a7.054,7.054,0,0,0,1.294-.6,1.344,1.344,0,0,1,1.845.092c.348,1.052.241,1.343-.728,1.9a6.581,6.581,0,0,1-2.45.935,2.44,2.44,0,0,1-3-2.063,7.247,7.247,0,0,1,.084-3.738,1.1,1.1,0,0,0-.374-1.3,18.7,18.7,0,0,1-1.552-1.549c-.3-.331-.5-.352-.867-.077a30.056,30.056,0,0,1-12.806,5.615c-.371.069-.744.133-1.117.19a3.91,3.91,0,0,0-1.1.184c.076.343.369.368.569.495a7.944,7.944,0,0,1,2.824,2.782,2.429,2.429,0,0,1-.85,3.535,9.836,9.836,0,0,1-4.432,1.361c-.177.022-.414-.117-.527.148Z" transform="translate(0 -21.49)" fill="#090a09"/>
      <path id="Trazado_102238" data-name="Trazado 102238" d="M-590.826-48.961c-.645.243-1.441-.034-1.981.573l-2.856.609a1.737,1.737,0,0,0-1.609-1.118A27.881,27.881,0,0,1-612.453-55.4a1.223,1.223,0,0,0-1.971.085c-1.112,1.1-2.2,2.221-3.327,3.306a1.412,1.412,0,0,0-.357,1.7,6.175,6.175,0,0,1,.389,3.334c-.1.559-.353.655-.835.492a9.814,9.814,0,0,1-3.582-2.329,10.745,10.745,0,0,1-2.883-4.016c-.293-.794-.2-.92.623-1.015a5.815,5.815,0,0,1,3.043.372,1.535,1.535,0,0,0,1.947-.443c1.04-1.1,2.136-2.143,3.2-3.216.714-.72.75-1.172.107-1.966a28.062,28.062,0,0,1-6.144-14.157c-.071-.524-.119-1.052-.178-1.578a1.18,1.18,0,0,0-.187-.565c-.672-.972-3.674-1.008-4.1.335a5.277,5.277,0,0,1-1.822,2.46c-.773.619-.95.585-1.339-.349a11.73,11.73,0,0,1-.692-5.643,8.765,8.765,0,0,1,.838-3.272c.243-.477.523-.536.951-.22a6.6,6.6,0,0,1,2.024,2.5,2.806,2.806,0,0,0,4.1.584,1.487,1.487,0,0,0,.32-.909,27.729,27.729,0,0,1,6.476-15.269c.743-.889.724-1.318-.1-2.142-1.032-1.036-2.094-2.044-3.1-3.109a1.549,1.549,0,0,0-1.953-.452,5.8,5.8,0,0,1-2.513.429c-1.391-.037-1.543-.278-.947-1.569a11.52,11.52,0,0,1,2.633-3.473,10.038,10.038,0,0,1,3.427-2.3c.792-.29.992-.166,1.072.669a6.055,6.055,0,0,1-.418,3.039,1.46,1.46,0,0,0,.412,1.825c1.113,1.062,2.181,2.17,3.276,3.25.726.716,1.168.741,1.972.109a25,25,0,0,1,2.957-2.1,1.274,1.274,0,0,0,.682-1.7,15.563,15.563,0,0,1,3.367-1.577,1.283,1.283,0,0,0,1.749.518,25.842,25.842,0,0,1,6.756-1.4,1.461,1.461,0,0,0,1.274-.79,28.09,28.09,0,0,0,3.444.772l0-.005c.135.263.419.247.644.326a29.516,29.516,0,0,1,7.691,3.942,29.547,29.547,0,0,1,7.928,8.472,29.969,29.969,0,0,1,3.005,6.475,30.187,30.187,0,0,1,1.316,6.538,23.944,23.944,0,0,1-.132,6.063c-.13-.215-.25-.438-.393-.644a4.436,4.436,0,0,0-6.452-.912,4.419,4.419,0,0,0-.435,6.444c1.528,1.643,3.684,1.826,5.982.508a1.318,1.318,0,0,1-.107.88,29.862,29.862,0,0,1-2.19,4.787,29.212,29.212,0,0,1-11.76,11.444C-588.075-50.146-589.476-49.609-590.826-48.961Zm-14.869-31.748a7.759,7.759,0,0,0,7.734-7.763,7.758,7.758,0,0,0-7.757-7.664,7.729,7.729,0,0,0-7.719,7.763A7.728,7.728,0,0,0-605.695-80.709Zm13.321,20.154a5.99,5.99,0,0,0,6.039,5.976,5.992,5.992,0,0,0,5.982-6.035,5.972,5.972,0,0,0-6.041-5.967A5.972,5.972,0,0,0-592.373-60.555Z" transform="translate(-8.946 -30.494)" fill="#d919d9"/>
      <path id="Trazado_102239" data-name="Trazado 102239" d="M-418.474-72a23.944,23.944,0,0,0,.132-6.063,30.191,30.191,0,0,0-1.316-6.538,29.97,29.97,0,0,0-3.005-6.475,29.548,29.548,0,0,0-7.928-8.472,29.515,29.515,0,0,0-7.691-3.942c-.225-.079-.508-.063-.644-.326a28.021,28.021,0,0,1,15.839,6.458c1,.822,1.38.807,2.311-.12,1.018-1.015,2.012-2.056,3.061-3.039a1.527,1.527,0,0,0,.417-1.895,5.912,5.912,0,0,1-.424-2.815c.1-1.062.309-1.189,1.283-.781a11.291,11.291,0,0,1,3.76,2.746,10.162,10.162,0,0,1,2.312,3.423c.309.829.213.969-.65,1.059a5.9,5.9,0,0,1-3.042-.388,1.487,1.487,0,0,0-1.883.432c-1.025,1.079-2.1,2.111-3.15,3.165-.825.827-.856,1.224-.117,2.136a28.222,28.222,0,0,1,3.423,5.333,27.547,27.547,0,0,1,2.757,9.758,1.874,1.874,0,0,0,.339,1.213,2.812,2.812,0,0,0,4.051-.561,6.529,6.529,0,0,1,1.777-2.322c.773-.623.972-.586,1.35.326a11.725,11.725,0,0,1,.7,5.644,8.814,8.814,0,0,1-.834,3.274c-.239.47-.514.553-.949.232a6.53,6.53,0,0,1-2.026-2.5,1.556,1.556,0,0,0-.491-.747,3.369,3.369,0,0,0-3.05-.209c-.881.313-.889,1.062-.926,1.8-.005.1-.026.2-.04.3a28.127,28.127,0,0,1-6.5,14.568,1.183,1.183,0,0,0,.095,1.913c1.064,1.076,2.164,2.119,3.2,3.22a1.561,1.561,0,0,0,1.957.442,6.015,6.015,0,0,1,3.192-.367c.513.069.688.327.529.828a4.881,4.881,0,0,1-.669,1.432,1.358,1.358,0,0,0,.081,1.909A12.873,12.873,0,0,1-414-45.289a1.345,1.345,0,0,0-1.845-.092,7.056,7.056,0,0,1-1.294.6c-.561.222-.85-.023-.908-.6a6.349,6.349,0,0,1,.411-3.185A1.425,1.425,0,0,0-418-50.323c-1.126-1.082-2.211-2.205-3.323-3.3-.717-.707-1.172-.735-1.971-.091A28.211,28.211,0,0,1-436.779-47.7c-.371.059-.749.07-1.124.1,1.35-.649,2.75-1.185,4.073-1.9a29.213,29.213,0,0,0,11.76-11.444,29.875,29.875,0,0,0,2.19-4.787,1.319,1.319,0,0,0,.107-.879l.015.048.165-.2A4.531,4.531,0,0,0-418.474-72Z" transform="translate(-161.869 -31.86)" fill="#d919d9"/>
      <path id="Trazado_102240" data-name="Trazado 102240" d="M-463.548-79.8a1.359,1.359,0,0,1-.081-1.909,4.881,4.881,0,0,0,.669-1.432c.159-.5-.016-.759-.529-.828a6.015,6.015,0,0,0-3.192.367,1.561,1.561,0,0,1-1.957-.442c-1.037-1.1-2.137-2.144-3.2-3.22a1.183,1.183,0,0,1-.095-1.913,28.128,28.128,0,0,0,6.5-14.568c.014-.1.035-.2.04-.3.037-.741.045-1.49.926-1.8a3.369,3.369,0,0,1,3.05.209,1.556,1.556,0,0,1,.491.747,6.53,6.53,0,0,0,2.026,2.5c.435.321.709.237.949-.232a8.813,8.813,0,0,0,.833-3.274,11.725,11.725,0,0,0-.7-5.644c-.379-.912-.577-.948-1.35-.326a6.529,6.529,0,0,0-1.777,2.322,2.812,2.812,0,0,1-4.051.561,1.874,1.874,0,0,1-.339-1.213,27.547,27.547,0,0,0-2.757-9.758,28.223,28.223,0,0,0-3.423-5.333c-.739-.912-.708-1.309.117-2.136,1.051-1.054,2.125-2.086,3.15-3.164a1.487,1.487,0,0,1,1.883-.432,5.9,5.9,0,0,0,3.042.388c.864-.09.96-.23.65-1.059a10.162,10.162,0,0,0-2.312-3.423,11.291,11.291,0,0,0-3.76-2.746c-.974-.408-1.181-.281-1.283.781a5.912,5.912,0,0,0,.424,2.815,1.527,1.527,0,0,1-.417,1.895c-1.048.983-2.042,2.024-3.061,3.039-.931.928-1.315.943-2.311.12a28.021,28.021,0,0,0-15.84-6.458l0,.005a2.709,2.709,0,0,1,.554-4.491,6.366,6.366,0,0,0,2.049-1.64c.614-.751.584-.916-.282-1.315a10.105,10.105,0,0,0-4.2-.763,10.748,10.748,0,0,0-4.508.749c-.865.379-.914.581-.333,1.3a5.785,5.785,0,0,0,2.315,1.774,1.881,1.881,0,0,1,1.2,1.757,4.217,4.217,0,0,1-.233,1.858,1.461,1.461,0,0,1-1.274.79,25.843,25.843,0,0,0-6.756,1.4,1.283,1.283,0,0,1-1.749-.518c-.138-1.007.047-1.312.993-1.631a29.274,29.274,0,0,1,6.095-1.4,4.378,4.378,0,0,0,.5-.115c-.02-.329-.294-.351-.472-.458a8.332,8.332,0,0,1-2.665-2.422c-1.159-1.7-.822-3.163.974-4.165a10.852,10.852,0,0,1,4.949-1.184,13.18,13.18,0,0,1,6.136.965c2.278,1.039,2.682,2.762,1.137,4.733a8.7,8.7,0,0,1-2.588,2.174c-.145.083-.368.126-.312.36.047.2.245.127.381.146a30.171,30.171,0,0,1,14.628,6.2c.282.22.464.236.684-.037a1.724,1.724,0,0,1,.32-.32c1.392-1,2.072-2.206,1.445-4a4.145,4.145,0,0,1,.2-2.53,2.436,2.436,0,0,1,3.069-1.85,4.578,4.578,0,0,1,1.081.326,14.562,14.562,0,0,1,7.294,7.332,3.55,3.55,0,0,1,.126.356c.716,2.157-.222,3.641-2.487,3.9a8.2,8.2,0,0,1-3.3-.228.9.9,0,0,0-1.052.3,22.382,22.382,0,0,1-1.606,1.6c-.384.339-.382.571-.073.977a29.606,29.606,0,0,1,4.893,9.8,35.516,35.516,0,0,1,1.019,5.1c.38.041.384-.293.5-.479a8.144,8.144,0,0,1,2.692-2.811,2.492,2.492,0,0,1,3.754.9,9.8,9.8,0,0,1,1.277,4.379,14.323,14.323,0,0,1-.669,6.334c-1.088,3.023-3.194,3.5-5.52,1.266a8.987,8.987,0,0,1-1.62-2.079c-.078-.137-.1-.381-.335-.352s-.195.267-.216.422A29.868,29.868,0,0,1-469.4-88.7c-.2.262-.285.456.021.679a1.432,1.432,0,0,1,.269.265c1.027,1.283,2.127,2.224,3.977,1.513a4.056,4.056,0,0,1,2.243.084,2.539,2.539,0,0,1,2.185,3.382,7.616,7.616,0,0,1-1.235,2.653A1.139,1.139,0,0,1-463.548-79.8Z" transform="translate(-109.56 0)" fill="#090a09"/>
      <path id="Trazado_102241" data-name="Trazado 102241" d="M-472.785,187l2.856-.609a3.653,3.653,0,0,0-.437,2.109,1.952,1.952,0,0,0,1.254,1.876,5.956,5.956,0,0,1,2.4,1.909c.378.48.3.781-.24,1.038a10.019,10.019,0,0,1-4.258.847,10.671,10.671,0,0,1-4.724-.785c-.792-.366-.831-.536-.3-1.215a6.313,6.313,0,0,1,2.091-1.705,2.354,2.354,0,0,0,1.445-2.87C-472.729,187.4-472.755,187.2-472.785,187Z" transform="translate(-131.824 -265.277)" fill="#d919d9"/>
      <path id="Trazado_102242" data-name="Trazado 102242" d="M-537.892-34.194a7.729,7.729,0,0,1-7.742-7.664,7.729,7.729,0,0,1,7.719-7.763,7.758,7.758,0,0,1,7.757,7.664A7.759,7.759,0,0,1-537.892-34.194Zm-.415-13.084a4.58,4.58,0,0,0-2.918,1.063,5.426,5.426,0,0,0-1.869,6.017,5.336,5.336,0,0,0,4.787,3.66A5.052,5.052,0,0,0-533.32-39a5.075,5.075,0,0,0,0-5.823A5.049,5.049,0,0,0-538.307-47.278Z" transform="translate(-76.749 -77.008)" fill="#090a09"/>
      <path id="Trazado_102243" data-name="Trazado 102243" d="M-441.519,102.493a5.972,5.972,0,0,1,5.98-6.026,5.972,5.972,0,0,1,6.041,5.967,5.992,5.992,0,0,1-5.982,6.035A5.99,5.99,0,0,1-441.519,102.493Zm5.034,3.528a3.616,3.616,0,0,0,4-1.345,3.759,3.759,0,0,0,.041-4.367,3.6,3.6,0,0,0-4.037-1.4,3.554,3.554,0,0,0-2.754,3.476A3.576,3.576,0,0,0-436.485,106.021Z" transform="translate(-159.8 -193.542)" fill="#090a09"/>
      <path id="Trazado_102244" data-name="Trazado 102244" d="M-371.232,52.871a4.53,4.53,0,0,1-1.117,5.243c-.09.038-.175.08-.165.2l-.015-.048c-2.3,1.318-4.455,1.135-5.982-.508a4.419,4.419,0,0,1,.435-6.444,4.436,4.436,0,0,1,6.452.912C-371.482,52.433-371.362,52.656-371.232,52.871Zm-4.284,3.941a1.919,1.919,0,0,0,2.126-1.054,1.939,1.939,0,0,0-.135-2.258,1.9,1.9,0,0,0-2.155-.822,2.11,2.11,0,0,0-1.752,2.186A2.068,2.068,0,0,0-375.516,56.812Z" transform="translate(-209.111 -156.728)" fill="#090a09"/>
      <path id="Trazado_102245" data-name="Trazado 102245" d="M-470.41-127.445a4.217,4.217,0,0,0,.233-1.858,1.881,1.881,0,0,0-1.2-1.757,5.785,5.785,0,0,1-2.315-1.774c-.582-.718-.532-.92.333-1.3a10.748,10.748,0,0,1,4.508-.749,10.1,10.1,0,0,1,4.2.763c.866.4.9.563.282,1.315a6.367,6.367,0,0,1-2.049,1.64,2.709,2.709,0,0,0-.554,4.491A28.127,28.127,0,0,1-470.41-127.445Z" transform="translate(-133.832 -8.996)" fill="#d919d9"/>
      <path id="Trazado_102246" data-name="Trazado 102246" d="M-344.171,89.06c-.01-.12.076-.162.165-.2Z" transform="translate(-237.454 -187.474)" fill="#80eeae"/>
      <path id="Trazado_102247" data-name="Trazado 102247" d="M-529.356-27.3a5.336,5.336,0,0,1-4.787-3.66,5.426,5.426,0,0,1,1.869-6.017,4.58,4.58,0,0,1,2.918-1.063c.019.377.334.547.557.771a6.5,6.5,0,0,1,0,9.2C-529.023-27.852-529.338-27.682-529.356-27.3Z" transform="translate(-85.7 -86.241)" fill="#c7beff"/>
      <path id="Trazado_102248" data-name="Trazado 102248" d="M-509.414-27.408c.018-.377.333-.547.556-.772a6.5,6.5,0,0,0,0-9.2c-.223-.224-.538-.395-.557-.771a5.049,5.049,0,0,1,4.988,2.459,5.075,5.075,0,0,1,0,5.823A5.052,5.052,0,0,1-509.414-27.408Z" transform="translate(-105.642 -86.138)" fill="#c7beff"/>
      <path id="Trazado_102249" data-name="Trazado 102249" d="M-416.637,107.882a3.6,3.6,0,0,1,4.037,1.4,3.759,3.759,0,0,1-.041,4.367,3.616,3.616,0,0,1-4,1.345c.013-.3.241-.5.39-.718a4.834,4.834,0,0,0,.492-4.921C-415.988,108.818-416.48,108.453-416.637,107.882Z" transform="translate(-179.649 -202.51)" fill="#c7beff"/>
      <path id="Trazado_102250" data-name="Trazado 102250" d="M-427.5,108.563c.157.571.649.936.883,1.469a4.833,4.833,0,0,1-.492,4.921c-.149.223-.377.417-.39.718a3.576,3.576,0,0,1-2.755-3.631A3.554,3.554,0,0,1-427.5,108.563Z" transform="translate(-168.787 -203.191)" fill="#c7beff"/>
      <path id="Trazado_102251" data-name="Trazado 102251" d="M-366.589,66.121a2.068,2.068,0,0,1-1.916-1.949,2.11,2.11,0,0,1,1.752-2.186,3.907,3.907,0,0,1,.65,2.188C-366.052,64.913-366.572,65.441-366.589,66.121Z" transform="translate(-218.038 -166.037)" fill="#c7beff"/>
      <path id="Trazado_102252" data-name="Trazado 102252" d="M-359.657,65.8c.018-.68.537-1.207.486-1.947a3.907,3.907,0,0,0-.65-2.188,1.9,1.9,0,0,1,2.155.822,1.939,1.939,0,0,1,.135,2.258A1.919,1.919,0,0,1-359.657,65.8Z" transform="translate(-224.971 -165.715)" fill="#c7beff"/>
    </g>
  </g>
</svg>
