<svg xmlns="http://www.w3.org/2000/svg" width="90.28" height="100" viewBox="0 0 90.28 100">
  <g id="Grupo_113301" data-name="Grupo 113301" transform="translate(671.134 -1569.059)">
    <path id="Trazado_102785" data-name="Trazado 102785" d="M-608.862,1648.216c.285,1.5.062,2-1.254,2.813a31.619,31.619,0,0,1-13.058,4.979,3.354,3.354,0,0,0-2.939,2.087c-1.66,3.153-3.469,6.227-5.189,9.349a3.53,3.53,0,0,1-1.545,1.615h-1.172c-1.233-.822-1.8-2.166-2.577-3.335-2.01-3.031-1.705-2.945-5.39-2.9-.911.011-1.823.018-2.734.006a6.209,6.209,0,0,1-5.283-2.81c-.889-1.281-1.73-2.6-2.573-3.907a2.66,2.66,0,0,0-2.441-1.317q-2.343.037-4.686.009a1.938,1.938,0,0,1-1.771-3.043,41.84,41.84,0,0,1,7.8-9.937c.537-.511.659-.8.142-1.457a37.661,37.661,0,0,1-7.217-14.326c-.1-.427-.245-.615-.7-.591-7.289.391-10.4-6.927-9.555-12.134a11.322,11.322,0,0,1,.611-2.349,6.8,6.8,0,0,1,6.733-4.657c2.145-.023,2.158-.023,2.158-2.189a87,87,0,0,1,1.1-14.969,13.157,13.157,0,0,1,10.288-10.822,10.787,10.787,0,0,1,4.649.11,1.471,1.471,0,0,0,1.4-.32,54.248,54.248,0,0,1,9.247-6.125c7.448-3.656,15.055-3.764,22.805-1.064a56.142,56.142,0,0,1,10.8,5.327c.139.085.285.158.42.247a11.331,11.331,0,0,0,10.224,1.462c1.481-.475,3.007-.814,4.514-1.209,1.925-.5,2.968.364,2.844,2.347a15.606,15.606,0,0,1-5.445,11.262c-.687.6-1.336,1.242-2.04,1.818a3.123,3.123,0,0,0-1.19,2.927q.544,5.289,1.067,10.579c.049.5.277.632.757.629a18.062,18.062,0,0,1,3.213.108,6.49,6.49,0,0,1,5.115,4.336,11.421,11.421,0,0,1-1.567,11.441,7.953,7.953,0,0,1-6.968,3.23c-.687-.017-.937.188-1.1.851a36.338,36.338,0,0,1-5.059,11.214,2.085,2.085,0,0,1-2.8,1.058c-1.233-1.1-1.332-1.86-.406-3.295a30.128,30.128,0,0,0,4.937-12.179c.586-4.206.165-8.451.271-12.676.012-.488-.338-.476-.66-.513-1.2-.137-2.391-.271-3.586-.41-5.65-.661-11.306-1.291-16.914-2.265a233.053,233.053,0,0,1-23.712-5.5,7.745,7.745,0,0,0-3.658-.317,27.694,27.694,0,0,0-14.2,7.249,1.481,1.481,0,0,0-.46,1.2c.015,2.636.009,5.272.007,7.909a32.913,32.913,0,0,0,.265,5.355c.918,5.634,3.551,10.468,6.934,14.961.386.512.621.306.989.02a53.216,53.216,0,0,1,16.394-8.8,22.755,22.755,0,0,1,10.648-1.27,6.432,6.432,0,0,1,5.842,5.647,12.361,12.361,0,0,1-.436,5.018,58.323,58.323,0,0,1-5.014,11.907,3.145,3.145,0,0,0-.566,1.37c.4-.08.746-.135,1.086-.219a32.3,32.3,0,0,0,9.329-4.075C-610.692,1646.78-609.888,1646.928-608.862,1648.216Zm-48.692-44.435c.245-.151.383-.219.5-.312a31.33,31.33,0,0,1,9.834-5.028,15.874,15.874,0,0,1,9.846-.279,197.189,197.189,0,0,0,21.713,5.075c6.694,1.194,13.458,1.868,20.2,2.71.649.081.776-.108.705-.712-.294-2.52-.4-5.072-.857-7.559-.759-4.121.41-7.339,3.837-9.788a10.986,10.986,0,0,0,3.008-3.3,8.225,8.225,0,0,0,1.263-3.371c-.4.1-.678.162-.956.234a27.889,27.889,0,0,1-5.545,1.055c-3.368.175-6.279-1.164-9.074-2.826a60.794,60.794,0,0,0-9.1-4.644c-7.823-3.022-15.424-2.88-22.768,1.466a71.594,71.594,0,0,0-7.635,5.412,2.79,2.79,0,0,1-2.968.548,6.932,6.932,0,0,0-4.229-.195,8.819,8.819,0,0,0-6.673,7.262A64.974,64.974,0,0,0-657.554,1603.781Zm1.2,47.112c.427,0,.678.009.929,0a6.645,6.645,0,0,1,6.342,3.413c.713,1.163,1.494,2.285,2.241,3.427a2.444,2.444,0,0,0,2.2,1.189c1.562-.016,3.125-.027,4.687-.008a6.356,6.356,0,0,1,5.444,2.9c.322.47.631.948,1,1.507.952-1.686,1.854-3.262,2.735-4.849,3.1-5.589,6.354-11.105,8.78-17.041a17.039,17.039,0,0,0,1.644-6.572,2.613,2.613,0,0,0-2.409-2.914,13.225,13.225,0,0,0-5.138.119,40.534,40.534,0,0,0-12.928,4.981A47.636,47.636,0,0,0-656.351,1650.893Zm-5.13-34.915h-.028v-3.8c0-1.969,0-1.969-1.958-1.962a3.019,3.019,0,0,0-3.376,2.442,7.865,7.865,0,0,0,.859,6.722,4.469,4.469,0,0,0,3.809,2.165c.559.032.724-.13.709-.7C-661.508,1619.224-661.481,1617.6-661.481,1615.977Zm70.975-.152h-.026c0,1.655.028,3.31-.015,4.964-.016.6.121.8.745.756a4.555,4.555,0,0,0,3.843-2.28,7.725,7.725,0,0,0,1.09-5.228c-.409-2.651-1.3-4.1-4.407-3.822a2.617,2.617,0,0,1-.583,0c-.51-.068-.668.13-.658.646C-590.487,1612.514-590.506,1614.17-590.506,1615.825Z" fill="#030303"/>
    <path id="Trazado_102786" data-name="Trazado 102786" d="M-570.574,1739.494c-1.026-1.288-1.83-1.436-3.269-.536a32.294,32.294,0,0,1-9.329,4.075c-.34.085-.687.14-1.086.219a3.145,3.145,0,0,1,.566-1.37,58.318,58.318,0,0,0,5.014-11.906,12.361,12.361,0,0,0,.436-5.018,6.433,6.433,0,0,0-5.842-5.647,22.755,22.755,0,0,0-10.648,1.27,53.221,53.221,0,0,0-16.394,8.8c-.368.286-.6.492-.989-.02-3.383-4.494-6.016-9.327-6.934-14.961a32.91,32.91,0,0,1-.265-5.355c0-2.636.009-5.273-.007-7.909a1.481,1.481,0,0,1,.46-1.2,27.694,27.694,0,0,1,14.2-7.249A7.742,7.742,0,0,1-601,1693a232.986,232.986,0,0,0,23.712,5.5c5.608.974,11.264,1.6,16.914,2.265,1.2.14,2.391.273,3.586.41.323.037.673.026.66.513-.106,4.226.315,8.47-.271,12.676a30.129,30.129,0,0,1-4.937,12.179c-.926,1.434-.827,2.2.406,3.295-.123.038-.3.036-.362.119a25.15,25.15,0,0,0-2.824,3.651c-1.077-.813-2.084-.865-2.856-.146-.807.751-.827,1.682-.062,2.85q-1.553,1.229-3.106,2.457A1.034,1.034,0,0,0-570.574,1739.494Zm-32.589-27.855c-1.579.833-3.062,1.609-4.54,2.4-1.264.672-1.682,1.734-1.117,2.8a1.967,1.967,0,0,0,2.856.7c2.592-1.34,5.167-2.713,7.757-4.058a2,2,0,0,0,1.22-1.844,2.015,2.015,0,0,0-1.239-1.836c-2.587-1.351-5.165-2.72-7.758-4.06a1.959,1.959,0,0,0-2.846.74,1.944,1.944,0,0,0,1.072,2.727C-606.274,1710-604.782,1710.78-603.163,1711.639Zm30.876,0c1.763-.934,3.357-1.735,4.907-2.613a1.863,1.863,0,0,0,.78-2.524,1.829,1.829,0,0,0-2.462-.932c-2.867,1.442-5.722,2.912-8.526,4.472a1.846,1.846,0,0,0-.009,3.183c2.8,1.562,5.659,3.027,8.517,4.485a1.753,1.753,0,0,0,2-.315,1.883,1.883,0,0,0,.623-1.937,2.1,2.1,0,0,0-1.24-1.411C-569.186,1713.274-570.671,1712.489-572.286,1711.642Z" transform="translate(-38.288 -91.279)" fill="#fddad3"/>
    <path id="Trazado_102787" data-name="Trazado 102787" d="M-420.592,1850.608c-.765-1.168-.745-2.1.062-2.85.772-.719,1.779-.667,2.856.146.6,1.22.53,2.048-.248,2.736C-418.671,1851.3-419.479,1851.294-420.592,1850.608Z" transform="translate(-184.727 -205.575)" fill="#030303"/>
    <path id="Trazado_102788" data-name="Trazado 102788" d="M-619.137,1614.853a64.973,64.973,0,0,1,1.1-14.255,8.819,8.819,0,0,1,6.673-7.262,6.93,6.93,0,0,1,4.229.195,2.791,2.791,0,0,0,2.968-.548,71.6,71.6,0,0,1,7.635-5.412c7.343-4.346,14.945-4.488,22.768-1.466a60.789,60.789,0,0,1,9.1,4.644c2.795,1.662,5.706,3,9.074,2.825a27.89,27.89,0,0,0,5.545-1.055c.279-.072.559-.137.956-.234a8.225,8.225,0,0,1-1.263,3.371,10.988,10.988,0,0,1-3.007,3.3c-3.427,2.448-4.6,5.667-3.837,9.788.458,2.488.564,5.04.857,7.559.07.6-.056.793-.705.712-6.742-.842-13.505-1.516-20.2-2.71a197.217,197.217,0,0,1-21.713-5.075,15.872,15.872,0,0,0-9.846.279,31.327,31.327,0,0,0-9.834,5.028C-618.753,1614.634-618.892,1614.7-619.137,1614.853Z" transform="translate(-38.417 -11.072)" fill="#e0b318"/>
    <path id="Trazado_102789" data-name="Trazado 102789" d="M-614.5,1828.32a47.634,47.634,0,0,1,15.529-13.852,40.534,40.534,0,0,1,12.928-4.981,13.225,13.225,0,0,1,5.138-.119,2.613,2.613,0,0,1,2.409,2.914,17.04,17.04,0,0,1-1.644,6.572c-2.426,5.936-5.676,11.452-8.78,17.041-.881,1.587-1.783,3.163-2.735,4.849-.37-.558-.679-1.037-1-1.507a6.356,6.356,0,0,0-5.444-2.9c-1.562-.019-3.125-.008-4.687.008a2.444,2.444,0,0,1-2.2-1.189c-.747-1.142-1.528-2.264-2.241-3.427a6.645,6.645,0,0,0-6.342-3.413C-613.825,1828.33-614.076,1828.32-614.5,1828.32Zm30.565-12.128a1.963,1.963,0,0,0-2.543-2.087,41.126,41.126,0,0,0-11.884,5.2,1.926,1.926,0,0,0-.65,2.64,1.883,1.883,0,0,0,2.627.682,42.418,42.418,0,0,1,11.1-4.826A1.718,1.718,0,0,0-583.938,1816.192Z" transform="translate(-41.848 -177.428)" fill="#f8f5f3"/>
    <path id="Trazado_102790" data-name="Trazado 102790" d="M-650.457,1732.488c0,1.623-.027,3.247.015,4.869.014.571-.151.732-.71.7a4.469,4.469,0,0,1-3.809-2.165,7.865,7.865,0,0,1-.859-6.722,3.019,3.019,0,0,1,3.376-2.442c1.958-.007,1.958-.007,1.958,1.962v3.8Z" transform="translate(-11.024 -116.51)" fill="#fcd9d2"/>
    <path id="Trazado_102791" data-name="Trazado 102791" d="M-362.382,1732.232c0-1.655.02-3.311-.012-4.965-.01-.517.149-.715.658-.646a2.624,2.624,0,0,0,.583,0c3.1-.283,4,1.171,4.407,3.822a7.725,7.725,0,0,1-1.09,5.228,4.555,4.555,0,0,1-3.843,2.28c-.624.043-.761-.16-.745-.756.044-1.654.015-3.31.015-4.964Z" transform="translate(-228.125 -116.407)" fill="#fcd9d2"/>
    <path id="Trazado_102792" data-name="Trazado 102792" d="M-574.139,1747.975c-1.62-.859-3.111-1.643-4.6-2.441a1.944,1.944,0,0,1-1.072-2.727,1.959,1.959,0,0,1,2.846-.741c2.593,1.34,5.171,2.708,7.758,4.06a2.015,2.015,0,0,1,1.239,1.836,2,2,0,0,1-1.22,1.844c-2.59,1.345-5.165,2.717-7.757,4.058a1.967,1.967,0,0,1-2.856-.7c-.565-1.063-.146-2.125,1.117-2.8C-577.2,1749.584-575.718,1748.807-574.139,1747.975Z" transform="translate(-67.312 -127.614)" fill="#030303"/>
    <path id="Trazado_102793" data-name="Trazado 102793" d="M-456.739,1747.884c1.615.847,3.1,1.633,4.592,2.407a2.1,2.1,0,0,1,1.24,1.411,1.884,1.884,0,0,1-.623,1.937,1.753,1.753,0,0,1-2,.315c-2.858-1.458-5.715-2.923-8.517-4.485a1.846,1.846,0,0,1,.009-3.183c2.8-1.56,5.659-3.03,8.526-4.472a1.829,1.829,0,0,1,2.462.932,1.863,1.863,0,0,1-.78,2.524C-453.382,1746.149-454.976,1746.95-456.739,1747.884Z" transform="translate(-153.836 -127.521)" fill="#030303"/>
    <path id="Trazado_102794" data-name="Trazado 102794" d="M-540.872,1829.958a1.719,1.719,0,0,1-1.347,1.608,42.406,42.406,0,0,0-11.1,4.826,1.883,1.883,0,0,1-2.627-.682,1.927,1.927,0,0,1,.65-2.64,41.129,41.129,0,0,1,11.884-5.2A1.962,1.962,0,0,1-540.872,1829.958Z" transform="translate(-84.914 -191.194)" fill="#030303"/>
  </g>
</svg>
