<svg xmlns="http://www.w3.org/2000/svg" width="100" height="73.671" viewBox="0 0 100 73.671">
  <g id="Grupo_113305" data-name="Grupo 113305" transform="translate(658.505 -1688.031)">
    <path id="Trazado_102850" data-name="Trazado 102850" d="M-560.476,1715.325a27.417,27.417,0,0,0,1.971,3.483v1.172a31.469,31.469,0,0,0-1.964,3.5.425.425,0,0,0-.225.388l.011-.014a4.819,4.819,0,0,0-.353.446,56.362,56.362,0,0,1-12.506,14.168,68.678,68.678,0,0,1-9.219,6.106l.015-.01a.429.429,0,0,0-.422.215,65.366,65.366,0,0,1-10.905,4.124,56.659,56.659,0,0,1-14.079,1.887c-.693.006-.9.176-.988.9a11.638,11.638,0,0,1-11.354,10,11.731,11.731,0,0,1-11.675-9.3,11.577,11.577,0,0,1,.283-5.879c.2-.62.083-.881-.483-1.086-.516-.187-1.01-.433-1.514-.653a.422.422,0,0,0-.413-.217l.015.01c-.074-.179-.234-.2-.4-.216l.014.011c-.268-.172-.528-.359-.806-.514-.975-.545-1.325-1.347-.922-2.141s1.28-.962,2.272-.462c1.1.555,2.2,1.114,3.3,1.665.246.123.5.354.761.011,1.088-1.456,2.541-2.574,3.8-4.048a68.309,68.309,0,0,1-21.833-8.993,50.02,50.02,0,0,0,8.678,8.011c.978.711,1.126,1.7.389,2.386a1.5,1.5,0,0,1-2.114-.014,57.979,57.979,0,0,1-9.363-8.528,72.979,72.979,0,0,1-5.856-7.892l.011.014a.427.427,0,0,0-.225-.392c-.545-1.025-1.067-2.063-1.642-3.071a1.854,1.854,0,0,1,.011-2.008c.576-1.007,1.093-2.047,1.636-3.073a.446.446,0,0,0,.233-.389l-.011.012c.132-.178.277-.349.4-.536a56.811,56.811,0,0,1,12.313-13.945,67.3,67.3,0,0,1,9.379-6.217l-.01.008a.507.507,0,0,0,.426-.232.074.074,0,0,0,.106-.048.238.238,0,0,0,.28-.144,60.658,60.658,0,0,1,13.313-4.579,55.8,55.8,0,0,1,36.8,4.75c.171.085.354.145.532.217.187.121.367.255.562.36a56.693,56.693,0,0,1,16.149,13,77.574,77.574,0,0,1,5.4,7.368l-.01-.012A.45.45,0,0,0-560.476,1715.325Zm-8.653-6.408c.074.086.148.195.256.049.008-.011-.095-.1-.146-.159l-.172-.219a2.433,2.433,0,0,0-.216-.318c-9.575-10.316-21.371-16.162-35.41-17.157a51.731,51.731,0,0,0-34.844,10.01,44.01,44.01,0,0,0-8.184,7.473l-.169.223c-.053.049-.155.138-.152.142.115.141.175.035.237-.059l.233-.117c21.674-14.364,56.695-14.348,78.349.01Zm-58.729-5.5c-1.7.347-1.638.264-1.171,1.323.15.6.271,1.2.457,1.783a1.557,1.557,0,0,1-.56,2.057c-.824.495-1.485.125-2.049-.52-.264-.9-.552-1.8-.781-2.711-.141-.561-.325-.69-.928-.481a58.807,58.807,0,0,0-12.132,5.721,41.158,41.158,0,0,0-9.637,8.18c-.217.255-.711.476-.3.956a34.556,34.556,0,0,0,4.779,4.716c.7-1.115,1.349-2.161,2-3.207.844-1.351,1.666-2.716,2.544-4.044a1.4,1.4,0,0,1,1.97-.451,1.463,1.463,0,0,1,.509,1.961,6.056,6.056,0,0,1-.613.995c-.327.423-.335.662.219.917,1,.461,1.963,1.01,2.94,1.525,1.166.614,1.548,1.366,1.13,2.22s-1.3.988-2.448.4c-1.067-.552-2.146-1.084-3.192-1.675-.446-.252-.671-.191-.92.247a23.769,23.769,0,0,1-1.448,2.313c-.4.54-.242.775.252,1.121a55.813,55.813,0,0,0,12.495,6.516,31.088,31.088,0,0,0,4.459,1.438c-.252-.412-.411-.689-.586-.956-1.555-2.363-3.1-4.73-4.676-7.081-.478-.715-.709-1.422-.074-2.129a1.511,1.511,0,0,1,2.043-.18l2.431,3.613c.8-1.1,1.537-2.12,2.292-3.127a1.491,1.491,0,0,1,2.185-.506,1.5,1.5,0,0,1,.166,2.241c-.829,1.165-1.669,2.324-2.532,3.464a.777.777,0,0,0-.066,1.091c.988,1.41,1.918,2.86,2.864,4.3a1.43,1.43,0,0,0,.814.606c1.15.39,2.127.382,2.851-.764a3.707,3.707,0,0,1,.614-.626,1.516,1.516,0,0,1,2.517.026c.769.75,1.538,1.5,2.273,2.283a1.737,1.737,0,0,0,1.277.586c1.723.074,3.443.218,5.166.273a78.2,78.2,0,0,0,18.8-1.706,1.816,1.816,0,0,0,1.277-.9c.822-1.325,1.674-2.634,2.584-3.9a.992.992,0,0,0-.068-1.418c-.806-1.02-1.548-2.09-2.308-3.145-.719-1-.7-1.841.04-2.4s1.581-.338,2.305.643c.71.963,1.413,1.932,2.184,2.987.671-1.007,1.3-1.948,1.925-2.886.691-1.031,1.475-1.307,2.261-.8s.861,1.376.2,2.383c-1.6,2.445-3.219,4.884-4.823,7.329-.125.19-.352.359-.248.754,1.3-.445,2.564-.851,3.807-1.3a56.748,56.748,0,0,0,12.953-6.664c.554-.385.626-.663.232-1.2a20.959,20.959,0,0,1-1.393-2.23c-.27-.492-.525-.52-.992-.259-1.1.619-2.232,1.2-3.362,1.767a1.524,1.524,0,0,1-2.205-.468c-.428-.8-.1-1.606.892-2.138,1.227-.658,2.462-1.3,3.715-1.964-.354-.6-.719-1.141-1-1.721a1.314,1.314,0,0,1,.511-1.789,1.343,1.343,0,0,1,1.917.275,7.86,7.86,0,0,1,.7,1.055c1.319,2.107,2.636,4.216,3.986,6.374.814-.753,1.573-1.417,2.288-2.127.692-.687,1.292-1.471,2.017-2.12s.552-1.065-.027-1.716c-5.937-6.677-13.458-10.819-21.764-13.731-.509-.178-.624.052-.731.436-.208.75-.413,1.5-.642,2.246-.317,1.029-1.031,1.5-1.867,1.249-.909-.269-1.248-1.02-.939-2.116.193-.687.363-1.386.622-2.048s.041-.892-.609-1.021c-1.018-.2-2.012-.52-3.027-.74a52.412,52.412,0,0,0-6.061-1.058,27.072,27.072,0,0,1,2.364,2.229,1.608,1.608,0,0,1,.158,2.347c-1.094.592-1.519.507-2.441-.486a14.878,14.878,0,0,0-16.6-3.8,14.881,14.881,0,0,0-9.3,14.364,14.9,14.9,0,0,0,18.114,13.993,14.869,14.869,0,0,0,10.938-19.081,1.881,1.881,0,0,1,.5-2.354c1.354-.263,1.844.007,2.264,1.305a12.375,12.375,0,0,1,.669,2.937c.048.694.315.839.986.681,3.222-.759,6.455-1.474,9.684-2.2,1.03-.232,1.809.168,2,1.012.2.891-.272,1.57-1.3,1.825-.812.2-1.629.385-2.588.612.824.863,1.567,1.625,2.292,2.405.772.831.808,1.681.121,2.307a1.511,1.511,0,0,1-2.23-.281c-1.02-1.05-2.037-2.1-3.023-3.186a.993.993,0,0,0-1.171-.371c-.963.282-1.96.449-2.944.661-1.6.344-1.6.343-1.833,1.956a17.856,17.856,0,0,1-21.951,14.534,17.905,17.905,0,0,1-13.414-15.4c-.035-.287.13-.679-.354-.785-1.616-.354-3.246-1.041-4.837-.958-.985.051-1.636,1.542-2.478,2.345a4.605,4.605,0,0,0-.366.445c-.348.335-.682.686-1.047,1a1.447,1.447,0,0,1-2.016-.01,1.389,1.389,0,0,1-.054-2.011c.774-.887,1.607-1.723,2.5-2.676-.99-.226-1.812-.4-2.627-.6a1.472,1.472,0,0,1-1.244-1.858,1.5,1.5,0,0,1,1.935-.991l3.515.729c2.077.493,4.161.962,6.229,1.491.679.174.886-.014.984-.684a17.469,17.469,0,0,1,5.971-10.849c.161-.142.484-.205.408-.613-1.356.232-2.705.425-4.037.7A31.829,31.829,0,0,0-627.857,1703.416Zm-1.6,46.8a11.331,11.331,0,0,0,.09,1.175,8.855,8.855,0,0,0,7.1,7.251,8.806,8.806,0,0,0,9.282-4.479,8.712,8.712,0,0,0-1.353-10.2c-1.932-2.021-3.945-3.963-5.908-5.953-.322-.327-.525-.42-.9-.032-1.973,2.026-4.005,4-5.963,6.036A8.457,8.457,0,0,0-629.458,1750.212Zm16.054-9.512a16.077,16.077,0,0,1,3.38,4.418c.441.9.239,2.316,1.2,2.673a8.428,8.428,0,0,0,3.187-.034,52.219,52.219,0,0,0,33.2-14.133,26.894,26.894,0,0,0,3.428-3.677C-582.553,1738.508-597.463,1741.352-613.4,1740.7Z" transform="translate(0 0)" fill="#040303"/>
    <path id="Trazado_102851" data-name="Trazado 102851" d="M-618.631,1848.337a50.021,50.021,0,0,0,8.678,8.011c.978.711,1.126,1.7.389,2.386a1.915,1.915,0,0,1-.214.173q1.344.8,2.744,1.514a1.6,1.6,0,0,1,.1-.258c.4-.781,1.281-.962,2.272-.462,1.1.555,2.2,1.114,3.3,1.665.246.123.5.354.761.011,1.088-1.455,2.541-2.574,3.8-4.048A68.308,68.308,0,0,1-618.631,1848.337Z" transform="translate(-29.462 -118.449)" fill="#fbdacb"/>
    <path id="Trazado_102852" data-name="Trazado 102852" d="M-649.959,1829.263" transform="translate(-6.314 -104.355)" fill="#fbdacb"/>
    <path id="Trazado_102853" data-name="Trazado 102853" d="M-526.648,1745.141a1.608,1.608,0,0,0-.158-2.347,27.1,27.1,0,0,0-2.364-2.229,52.407,52.407,0,0,1,6.061,1.058c1.015.22,2.009.538,3.027.74.65.129.869.357.609,1.021s-.429,1.361-.622,2.048c-.308,1.1.03,1.847.939,2.116.835.248,1.549-.22,1.867-1.25.229-.744.434-1.5.642-2.246.107-.384.222-.614.731-.436,8.307,2.912,15.828,7.054,21.764,13.731.579.651.744,1.074.027,1.716s-1.325,1.432-2.017,2.12c-.715.709-1.474,1.374-2.288,2.127-1.349-2.158-2.666-4.267-3.986-6.374a7.851,7.851,0,0,0-.7-1.055,1.343,1.343,0,0,0-1.917-.275,1.314,1.314,0,0,0-.511,1.789c.284.58.649,1.12,1,1.721-1.253.661-2.488,1.305-3.715,1.964-.992.532-1.32,1.336-.892,2.138a1.524,1.524,0,0,0,2.205.468c1.129-.572,2.258-1.148,3.362-1.766.466-.261.721-.234.991.259a20.928,20.928,0,0,0,1.393,2.23c.393.542.322.82-.232,1.2a56.749,56.749,0,0,1-12.953,6.664c-1.243.454-2.5.859-3.807,1.3-.1-.395.124-.564.248-.754,1.6-2.445,3.218-4.884,4.823-7.329.66-1.007.577-1.885-.2-2.383s-1.57-.226-2.261.8c-.629.938-1.254,1.88-1.925,2.886-.771-1.056-1.473-2.024-2.184-2.987-.724-.981-1.556-1.21-2.305-.643s-.759,1.4-.04,2.4c.76,1.055,1.5,2.125,2.308,3.145a.993.993,0,0,1,.068,1.418c-.91,1.265-1.763,2.574-2.584,3.9a1.816,1.816,0,0,1-1.277.9,78.225,78.225,0,0,1-18.8,1.706c-1.723-.055-3.443-.2-5.166-.273a1.736,1.736,0,0,1-1.277-.586c-.736-.782-1.5-1.533-2.273-2.283a1.516,1.516,0,0,0-2.517-.026,3.7,3.7,0,0,0-.614.625c-.723,1.146-1.7,1.154-2.851.765a1.431,1.431,0,0,1-.814-.606c-.945-1.44-1.876-2.89-2.864-4.3a.777.777,0,0,1,.066-1.091c.863-1.141,1.7-2.3,2.532-3.464a1.5,1.5,0,0,0-.166-2.241,1.491,1.491,0,0,0-2.185.506c-.755,1.007-1.489,2.029-2.292,3.127l-2.431-3.613a21.183,21.183,0,0,1-.744-5.56,4.585,4.585,0,0,1,.366-.445c.842-.8,1.493-2.294,2.478-2.345,1.591-.083,3.222.6,4.837.958.485.106.319.5.354.785a17.9,17.9,0,0,0,13.414,15.4,17.856,17.856,0,0,0,21.951-14.534c.236-1.614.237-1.612,1.833-1.956.984-.212,1.981-.379,2.944-.661a.994.994,0,0,1,1.171.371c.987,1.081,2,2.135,3.023,3.185a1.51,1.51,0,0,0,2.23.281c.687-.626.651-1.477-.121-2.308-.725-.78-1.468-1.542-2.292-2.405.959-.226,1.776-.409,2.588-.612,1.026-.255,1.5-.934,1.3-1.825-.192-.844-.972-1.244-2-1.012-3.23.726-6.462,1.441-9.684,2.2-.671.158-.938.013-.986-.681a12.376,12.376,0,0,0-.669-2.937c-.42-1.3-.91-1.568-2.265-1.305C-525.54,1746.758-526.407,1746.093-526.648,1745.141Z" transform="translate(-68.4 -38.817)" fill="#faf" opacity="0.328"/>
    <path id="Trazado_102854" data-name="Trazado 102854" d="M-495.7,1742.863c.241.952,1.108,1.616,1.206,2.633a1.881,1.881,0,0,0-.5,2.354,14.869,14.869,0,0,1-10.938,19.081,14.9,14.9,0,0,1-18.114-13.994,14.881,14.881,0,0,1,9.3-14.364,14.878,14.878,0,0,1,16.6,3.8C-497.22,1743.37-496.795,1743.455-495.7,1742.863Zm-13.449.776a8.809,8.809,0,0,0-8.794,8.726,8.832,8.832,0,0,0,8.738,8.793,8.831,8.831,0,0,0,8.794-8.738A8.807,8.807,0,0,0-509.15,1743.639Z" transform="translate(-99.348 -36.54)" fill="#a195e6"/>
    <path id="Trazado_102855" data-name="Trazado 102855" d="M-617.677,1716.911a44.009,44.009,0,0,1,8.184-7.473,51.731,51.731,0,0,1,34.844-10.01c14.039.995,25.834,6.841,35.41,17.157a2.443,2.443,0,0,1,.216.318l-.155.207c-21.654-14.359-56.675-14.374-78.349-.011Z" transform="translate(-30.167 -8.316)" fill="#fbdacb"/>
    <path id="Trazado_102856" data-name="Trazado 102856" d="M-624.722,1766.183a21.183,21.183,0,0,0,.744,5.56,1.511,1.511,0,0,0-2.043.181c-.635.707-.4,1.414.074,2.129,1.572,2.351,3.121,4.719,4.676,7.081.176.266.335.543.586.955a31.06,31.06,0,0,1-4.459-1.437,55.794,55.794,0,0,1-12.495-6.517c-.494-.346-.647-.58-.252-1.121a23.769,23.769,0,0,0,1.448-2.313c.249-.438.474-.5.92-.247,1.046.59,2.125,1.123,3.192,1.675,1.146.593,2.036.447,2.448-.4s.036-1.606-1.13-2.22c-.977-.514-1.938-1.064-2.94-1.525-.554-.255-.546-.493-.219-.917a6.043,6.043,0,0,0,.613-.995,1.462,1.462,0,0,0-.509-1.961,1.4,1.4,0,0,0-1.97.45c-.878,1.328-1.7,2.694-2.544,4.044-.654,1.045-1.307,2.092-2,3.206a34.541,34.541,0,0,1-4.779-4.716c-.415-.48.08-.7.3-.957a41.152,41.152,0,0,1,9.637-8.18,58.794,58.794,0,0,1,12.132-5.721c.6-.208.787-.08.928.481.229.912.518,1.808.781,2.711-.342.129-.426.463-.57.741a23.036,23.036,0,0,0-1.6,3.589l-3.515-.729a1.5,1.5,0,0,0-1.935.991,1.472,1.472,0,0,0,1.244,1.857c.815.2,1.637.378,2.627.6-.9.952-1.729,1.789-2.5,2.676a1.388,1.388,0,0,0,.054,2.011,1.447,1.447,0,0,0,2.016.01C-625.4,1766.869-625.07,1766.519-624.722,1766.183Z" transform="translate(-9.59 -47.377)" fill="#faf" opacity="0.328"/>
    <path id="Trazado_102857" data-name="Trazado 102857" d="M-547.261,1890.828a8.458,8.458,0,0,1,2.347-6.2c1.958-2.04,3.99-4.01,5.963-6.035.377-.387.58-.295.9.032,1.963,1.99,3.977,3.933,5.908,5.953a8.712,8.712,0,0,1,1.353,10.2,8.806,8.806,0,0,1-9.282,4.479,8.855,8.855,0,0,1-7.1-7.251A11.328,11.328,0,0,1-547.261,1890.828Z" transform="translate(-82.196 -140.616)" fill="#9cefe5"/>
    <path id="Trazado_102858" data-name="Trazado 102858" d="M-485.776,1859.31c15.941.652,30.851-2.192,44.391-10.754a26.9,26.9,0,0,1-3.428,3.677,52.219,52.219,0,0,1-33.2,14.133,8.428,8.428,0,0,1-3.187.034c-.961-.356-.76-1.769-1.2-2.672A16.072,16.072,0,0,0-485.776,1859.31Z" transform="translate(-127.628 -118.61)" fill="#fbdacb"/>
    <path id="Trazado_102859" data-name="Trazado 102859" d="M-562.156,1751.164a23.05,23.05,0,0,1,1.6-3.589c.144-.278.228-.611.57-.741.564.645,1.225,1.014,2.049.52a1.557,1.557,0,0,0,.56-2.057c-.186-.583-.307-1.188-.457-1.783a2.861,2.861,0,0,0,1.171-1.323,31.782,31.782,0,0,1,4.065-.981c1.332-.275,2.681-.469,4.037-.7.076.408-.247.471-.408.613a17.47,17.47,0,0,0-5.971,10.849c-.1.67-.305.858-.984.684C-558,1752.127-560.079,1751.657-562.156,1751.164Z" transform="translate(-71.191 -38.775)" fill="#faf" opacity="0.328"/>
    <path id="Trazado_102860" data-name="Trazado 102860" d="M-545.246,1746.952a2.861,2.861,0,0,1-1.171,1.323C-546.884,1747.217-546.946,1747.3-545.246,1746.952Z" transform="translate(-82.611 -43.536)" fill="#dad7e9"/>
    <path id="Trazado_102861" data-name="Trazado 102861" d="M-618.325,1767.01l.169-.223.149.189-.233.117Z" transform="translate(-29.688 -58.192)" fill="#fbdacb"/>
    <path id="Trazado_102862" data-name="Trazado 102862" d="M-316.827,1767.089l-.217-.123.155-.207.172.219Z" transform="translate(-252.302 -58.171)" fill="#fbdacb"/>
    <path id="Trazado_102863" data-name="Trazado 102863" d="M-618.669,1767.725c-.062.094-.122.2-.237.059,0,0,.1-.093.152-.142Z" transform="translate(-29.259 -58.824)" fill="#fbdacb"/>
    <path id="Trazado_102864" data-name="Trazado 102864" d="M-316.1,1767.6c.051.055.154.148.146.159-.109.146-.182.037-.256-.049Z" transform="translate(-252.917 -58.793)" fill="#fbdacb"/>
    <path id="Trazado_102865" data-name="Trazado 102865" d="M-491.874,1761.06a8.806,8.806,0,0,1,8.738,8.781,8.831,8.831,0,0,1-8.794,8.738,8.832,8.832,0,0,1-8.738-8.793A8.809,8.809,0,0,1-491.874,1761.06Z" transform="translate(-116.624 -53.961)" fill="#040303"/>
  </g>
</svg>
