<svg xmlns="http://www.w3.org/2000/svg" xmlns:xlink="http://www.w3.org/1999/xlink" width="295" height="283" viewBox="0 0 295 283">
  <defs>
    <clipPath id="clip-path">
      <path id="Rect치ngulo_37279" data-name="Rect치ngulo 37279" d="M0,0H295a0,0,0,0,1,0,0V263a20,20,0,0,1-20,20H20A20,20,0,0,1,0,263V0A0,0,0,0,1,0,0Z" transform="translate(1019.527 3606.998)" fill="#d919d9"/>
    </clipPath>
  </defs>
  <g id="Grupo_115191" data-name="Grupo 115191" transform="translate(-1019.527 -3650.115)">
    <rect id="Rect치ngulo_37196" data-name="Rect치ngulo 37196" width="295" height="191" rx="20" transform="translate(1019.527 3742.115)" fill="#c7beff"/>
    <g id="Enmascarar_grupo_78" data-name="Enmascarar grupo 78" transform="translate(0 43.117)" clip-path="url(#clip-path)">
      <g id="Grupo_111666" data-name="Grupo 111666" transform="translate(1367.252 3578.131)">
        <g id="Grupo_111648" data-name="Grupo 111648" transform="translate(-264.932 210.688)">
          <path id="Trazado_102253" data-name="Trazado 102253" d="M-203.071,338.665c4.441.759,8.309,3.605,11.18,7.077s4.877,7.562,6.853,11.611c3.783,7.746,8.7,13.829,12.481,21.575,4.846-8.1,14.828-9.927,23.442-6.064s13.445,14.61,10.618,23.617-12.934,15.065-22.211,13.312a38.984,38.984,0,0,1-26.143,9.372c-4.745-.19-9.711-1.444-13.038-4.833-2.994-3.049-4.241-7.356-5.382-11.474-4.639-16.745-9.322-34.022-7.194-51.267a28.361,28.361,0,0,1,2.549-9.451C-208.427,339.217-206.149,339.8-203.071,338.665Z" transform="translate(212.993 -338.665)" fill="#eceff1"/>
          <path id="Trazado_102254" data-name="Trazado 102254" d="M-116.136,406.239l-8.315,5.053a6.386,6.386,0,0,0-1.173.841c-1.371,1.339-1.258,3.6-.612,5.4,1.558,4.346,5.976,7.657,10.587,7.414s8.821-4.411,8.637-9.024" transform="translate(177.345 -366.58)" fill="#67cbc0"/>
          <g id="Grupo_111647" data-name="Grupo 111647" transform="translate(55.723 12.748)">
            <path id="Trazado_102255" data-name="Trazado 102255" d="M-104.268,402.822a11.864,11.864,0,0,0,10.766,6.06A11.864,11.864,0,0,0-83.381,401.8a20.725,20.725,0,0,0,1.126-8.659c-.1-3.537-.579-7.444-3.226-9.792a8.481,8.481,0,0,0-9.139-.919,13.237,13.237,0,0,0-6.208,7.21,31.442,31.442,0,0,0-1.774,9.534" transform="translate(112.356 -369.114)" fill="#449a90"/>
            <path id="Trazado_102256" data-name="Trazado 102256" d="M-118.047,386.294a8.457,8.457,0,0,1,1.95-5.931c1.564-1.685,3.938-2.615,6.134-3.646s4.438-2.368,5.28-4.389c1.037-2.487.764-4.377,1.116-6.987,3.419,1,5.9,4.667,6.317,7.767a8.5,8.5,0,0,1-4.406,8.173,20.528,20.528,0,0,1,.39,8.539,8.326,8.326,0,0,1-5.363,6.765C-113.509,398.927-117.954,392.211-118.047,386.294Z" transform="translate(118.049 -362.432)" fill="#9cefe5"/>
            <path id="Trazado_102257" data-name="Trazado 102257" d="M-85.4,399.356h0a4.482,4.482,0,0,1-4.067-4.862l3.038-34.108,8.929.8-3.038,34.108A4.482,4.482,0,0,1-85.4,399.356Z" transform="translate(106.251 -360.386)" fill="#fff"/>
            <g id="Grupo_111646" data-name="Grupo 111646" transform="translate(22.346 0.119)">
              <path id="Trazado_102258" data-name="Trazado 102258" d="M-72.509,367.441a90.133,90.133,0,0,0-6.307,10.067c-.491.825-.973,1.866-.488,2.7a1.883,1.883,0,0,0,2.06.705,5.518,5.518,0,0,0,2.01-1.148A48.278,48.278,0,0,0-68.79,374.1C-69.025,371.225-69.568,368.269-72.509,367.441Z" transform="translate(79.78 -363.419)" fill="#9cefe5"/>
              <path id="Trazado_102259" data-name="Trazado 102259" d="M-59.92,362.667c-.7-2.441-2.619-2.517-4.333-1.339a16.118,16.118,0,0,0-3.332,3.281c2.941.828,3.484,3.784,3.719,6.658a21.048,21.048,0,0,0,1.535-1.9C-61.207,367.772-59.326,364.727-59.92,362.667Z" transform="translate(74.856 -360.588)" fill="#67cbc0"/>
              <path id="Trazado_102260" data-name="Trazado 102260" d="M-68.871,396.868a6.629,6.629,0,0,0-1.166-.852,2.386,2.386,0,0,1-.639.418,2.386,2.386,0,0,0,.639-.418,1.3,1.3,0,0,0-.689-.166,1.3,1.3,0,0,1,.689.166,3.012,3.012,0,0,0-.107-4.606,3.638,3.638,0,0,1-.885.931,3.638,3.638,0,0,0,.885-.931,3.88,3.88,0,0,0-.4-.288,3.88,3.88,0,0,1,.4.288c1.282-1.9.783-4.84-.819-5.753a83.178,83.178,0,0,0-7.356,5.818c-.619.508-1.291,1.186-1.131,1.968A1.6,1.6,0,0,0-78,394.568a4.718,4.718,0,0,0,1.92-.337q.708-.23,1.416-.465c-1.533,1.245-2.966,2.526-4.165,3.523-.616.511-1.284,1.194-1.119,1.974a1.6,1.6,0,0,0,1.456,1.115,4.705,4.705,0,0,0,1.918-.348q.668-.221,1.338-.448c-.592.507-1.148.991-1.645,1.4-.427.355-.89.828-.776,1.369a1.113,1.113,0,0,0,1.009.773,3.269,3.269,0,0,0,1.33-.241,21.872,21.872,0,0,0,5.842-2.59c.254-.179.56-.408.872-.67A26.865,26.865,0,0,0-68.871,396.868Z" transform="translate(79.974 -370.944)" fill="#9cefe5"/>
              <path id="Trazado_102261" data-name="Trazado 102261" d="M-57.522,384.543c.11-2.1-1.4-2.693-3.089-2.251a14.424,14.424,0,0,0-4.011,1.919c1.6.913,2.1,3.848.819,5.753a3.012,3.012,0,0,1,.107,4.606,6.628,6.628,0,0,1,1.166.852,26.868,26.868,0,0,1,.266,2.759,4.193,4.193,0,0,0,1.722-2.5,1.5,1.5,0,0,0-.532-1.371c1.311-1.016,2.939-2.557,3.008-4.036s-.668-2.21-1.7-2.348C-58.662,386.961-57.584,385.734-57.522,384.543Z" transform="translate(73.632 -369.497)" fill="#67cbc0"/>
            </g>
          </g>
          <path id="Trazado_102262" data-name="Trazado 102262" d="M-147.931,407.35a23.233,23.233,0,0,0-2.726,18.751c.2.725,1.348.468,1.144-.262a22.079,22.079,0,0,1,2.568-17.853A.587.587,0,0,0-147.931,407.35Z" transform="translate(187.604 -366.929)" fill="#bdbdbd"/>
          <path id="Trazado_102263" data-name="Trazado 102263" d="M-159.442,430.586a17.625,17.625,0,0,0-1.419,7.725c.029.749,1.2.807,1.173.051a16.887,16.887,0,0,1,1.364-7.415C-158.028,430.252-159.148,429.9-159.442,430.586Z" transform="translate(191.464 -376.484)" fill="#bdbdbd"/>
          <path id="Trazado_102264" data-name="Trazado 102264" d="M-125.795,451.578a14.185,14.185,0,0,1-16.144-8.346c-.305-.691-1.343-.142-1.038.548a15.36,15.36,0,0,0,17.445,8.943A.587.587,0,0,0-125.795,451.578Z" transform="translate(184.092 -381.73)" fill="#bdbdbd"/>
          <path id="Trazado_102265" data-name="Trazado 102265" d="M-115.607,434.55a13.827,13.827,0,0,1-13.259-6.107c-.414-.623-1.458-.083-1.038.548a15.083,15.083,0,0,0,14.559,6.7C-114.6,435.6-114.862,434.46-115.607,434.55Z" transform="translate(178.709 -375.638)" fill="#bdbdbd"/>
        </g>
        <g id="Grupo_111649" data-name="Grupo 111649" transform="translate(-168.656 28.867)">
          <path id="Trazado_102266" data-name="Trazado 102266" d="M-34.221,57.254a.852.852,0,0,0-.99-.681l-.207.038-.352-1.912a7.635,7.635,0,0,0,4.092-2.665l1.6,1.1-.143.207A.852.852,0,0,0-30,54.523a.853.853,0,0,0,1.182-.217l.86-1.248a.852.852,0,0,0-.217-1.181.852.852,0,0,0-1.182.217l-.119.173-1.6-1.1a7.632,7.632,0,0,0,1.007-4.779l1.91-.351.046.247a.852.852,0,0,0,.99.682.851.851,0,0,0,.681-.989l-.274-1.491a.851.851,0,0,0-.989-.681.852.852,0,0,0-.682.989l.038.207-1.913.352a7.633,7.633,0,0,0-2.665-4.092l1.1-1.6.207.143a.852.852,0,0,0,1.181-.217.852.852,0,0,0-.217-1.182l-1.248-.86a.852.852,0,0,0-1.181.218.852.852,0,0,0,.217,1.181l.173.119-1.1,1.6a7.631,7.631,0,0,0-4.779-1.007l-.352-1.91.248-.046A.852.852,0,0,0-38,36.709a.853.853,0,0,0-.99-.682l-1.49.274a.852.852,0,0,0-.682.989.852.852,0,0,0,.989.682l.207-.038.352,1.913a7.633,7.633,0,0,0-4.092,2.665l-1.6-1.1.143-.207a.851.851,0,0,0-.217-1.181.852.852,0,0,0-1.181.217l-.86,1.248a.851.851,0,0,0,.217,1.181.852.852,0,0,0,1.181-.217l.119-.173,1.6,1.1a7.635,7.635,0,0,0-1.007,4.779l-1.91.352-.046-.248a.851.851,0,0,0-.989-.681.852.852,0,0,0-.682.989l.274,1.49a.853.853,0,0,0,.99.682.852.852,0,0,0,.682-.989l-.038-.207,1.912-.352a7.64,7.64,0,0,0,2.665,4.092l-1.1,1.6-.207-.143a.852.852,0,0,0-1.181.217.852.852,0,0,0,.217,1.181l1.248.86a.852.852,0,0,0,1.181-.218.851.851,0,0,0-.217-1.181l-.173-.119,1.1-1.6A7.636,7.636,0,0,0-36.8,54.89l.352,1.91-.248.046a.852.852,0,0,0-.682.989.852.852,0,0,0,.989.682l1.491-.274A.852.852,0,0,0-34.221,57.254Z" transform="translate(48.951 -31.819)" fill="#d919d9" opacity="0.47"/>
          <path id="Trazado_102267" data-name="Trazado 102267" d="M78.573,38.834a.4.4,0,0,0-.464-.32l-.1.018-.166-.9a3.584,3.584,0,0,0,1.92-1.251l.75.517-.067.1a.4.4,0,0,0,.657.453l.4-.585a.4.4,0,1,0-.656-.453l-.056.081-.751-.518a3.579,3.579,0,0,0,.472-2.242l.9-.165.022.116a.4.4,0,0,0,.784-.144l-.129-.7a.4.4,0,0,0-.784.144l.018.1-.9.165a3.585,3.585,0,0,0-1.251-1.92l.517-.749.1.067a.4.4,0,0,0,.453-.657l-.585-.4a.4.4,0,1,0-.453.656l.081.056-.517.751a3.582,3.582,0,0,0-2.243-.472l-.165-.9.116-.021a.4.4,0,1,0-.144-.784l-.7.129a.4.4,0,0,0,.144.784l.1-.018.166.9a3.584,3.584,0,0,0-1.921,1.251l-.749-.517.067-.1a.4.4,0,0,0-.657-.453l-.4.586a.4.4,0,1,0,.656.453l.056-.081.751.517a3.58,3.58,0,0,0-.472,2.243l-.9.165-.021-.116a.4.4,0,0,0-.784.144l.129.7a.4.4,0,1,0,.784-.144l-.018-.1.9-.166a3.58,3.58,0,0,0,1.251,1.92l-.517.75-.1-.067a.4.4,0,0,0-.452.656l.586.4a.4.4,0,0,0,.452-.657L74.6,38l.517-.751a3.585,3.585,0,0,0,2.243.472l.165.9-.116.022a.4.4,0,0,0,.144.784l.7-.129A.4.4,0,0,0,78.573,38.834Z" transform="translate(-0.873 -28.867)" fill="#d919d9" opacity="0.47"/>
          <path id="Trazado_102268" data-name="Trazado 102268" d="M-41.863,188.668a.4.4,0,0,0-.464-.32l-.1.018-.166-.9a3.584,3.584,0,0,0,1.92-1.251l.75.517-.067.1a.4.4,0,0,0,.1.555.4.4,0,0,0,.554-.1l.4-.585a.4.4,0,0,0-.1-.555.4.4,0,0,0-.555.1l-.056.081-.751-.517a3.582,3.582,0,0,0,.472-2.243l.9-.165.022.116a.4.4,0,0,0,.464.32.4.4,0,0,0,.32-.464l-.129-.7a.4.4,0,0,0-.464-.32.4.4,0,0,0-.32.464l.018.1-.9.165a3.588,3.588,0,0,0-1.251-1.92l.517-.749.1.067a.4.4,0,0,0,.555-.1.4.4,0,0,0-.1-.555l-.585-.4a.4.4,0,0,0-.555.1.4.4,0,0,0,.1.554l.081.056-.518.751a3.579,3.579,0,0,0-2.242-.472l-.165-.9.116-.021a.4.4,0,0,0,.32-.464.4.4,0,0,0-.464-.32l-.7.129a.4.4,0,0,0-.32.464.4.4,0,0,0,.464.32l.1-.018.165.9a3.585,3.585,0,0,0-1.92,1.251l-.749-.517.067-.1a.4.4,0,0,0-.1-.554.4.4,0,0,0-.555.1l-.4.586a.4.4,0,0,0,.1.555.4.4,0,0,0,.554-.1l.056-.081.751.517a3.581,3.581,0,0,0-.472,2.243l-.9.165-.021-.116a.4.4,0,0,0-.464-.32.4.4,0,0,0-.32.464l.129.7a.4.4,0,0,0,.464.32.4.4,0,0,0,.32-.464l-.018-.1.9-.165a3.58,3.58,0,0,0,1.251,1.92l-.517.75-.1-.067a.4.4,0,0,0-.554.1.4.4,0,0,0,.1.554l.586.4a.4.4,0,0,0,.555-.1.4.4,0,0,0-.1-.555l-.081-.056.517-.751a3.58,3.58,0,0,0,2.243.472l.165.9-.116.022a.4.4,0,0,0-.32.464.4.4,0,0,0,.464.32l.7-.129A.4.4,0,0,0-41.863,188.668Z" transform="translate(48.878 -90.763)" fill="#d919d9" opacity="0.47"/>
          <path id="Trazado_102269" data-name="Trazado 102269" d="M122.125,197.005a.669.669,0,0,0-.776-.535l-.162.03-.276-1.5a5.993,5.993,0,0,0,3.212-2.092l1.254.865-.112.163a.667.667,0,0,0,1.1.757l.675-.98a.666.666,0,1,0-1.1-.757l-.094.136-1.255-.865a5.992,5.992,0,0,0,.79-3.75l1.5-.276.036.194a.667.667,0,0,0,1.312-.241l-.215-1.17a.667.667,0,1,0-1.311.241l.03.162-1.5.276a5.99,5.99,0,0,0-2.091-3.212L124,183.2l.163.112a.667.667,0,1,0,.757-1.1l-.979-.675a.667.667,0,0,0-.757,1.1l.136.093-.866,1.256a5.991,5.991,0,0,0-3.75-.79l-.276-1.5.194-.036a.667.667,0,1,0-.241-1.311l-1.169.215a.667.667,0,0,0,.241,1.312l.162-.03.276,1.5a5.993,5.993,0,0,0-3.212,2.092l-1.254-.865.112-.163a.667.667,0,1,0-1.1-.757l-.675.98a.666.666,0,1,0,1.1.757l.094-.136,1.255.865a5.992,5.992,0,0,0-.79,3.75l-1.5.276-.036-.194a.667.667,0,0,0-1.312.241l.215,1.17a.667.667,0,1,0,1.311-.241l-.03-.162,1.5-.276a5.99,5.99,0,0,0,2.091,3.212l-.865,1.254-.163-.112a.667.667,0,0,0-.757,1.1l.979.675a.667.667,0,0,0,.757-1.1l-.136-.093.866-1.255a6,6,0,0,0,3.75.79l.276,1.5-.195.036A.667.667,0,0,0,120.42,198l1.169-.215A.669.669,0,0,0,122.125,197.005Z" transform="translate(-16.945 -91.438)" fill="#d919d9" opacity="0.47"/>
        </g>
        <g id="Grupo_111658" data-name="Grupo 111658" transform="translate(-338.725 86.481)">
          <path id="Trazado_102270" data-name="Trazado 102270" d="M-249.277,227.8q-1.983,11.933-3.966,23.867a19.282,19.282,0,0,0,9.658,8.919,19.828,19.828,0,0,0,13.3,1.045,65.756,65.756,0,0,1,5.858-23.341Z" transform="translate(303.413 -168.659)" fill="#ffab91"/>
          <g id="Grupo_111652" data-name="Grupo 111652" transform="translate(38.852)">
            <g id="Grupo_111650" data-name="Grupo 111650">
              <path id="Trazado_102271" data-name="Trazado 102271" d="M-217.613,165.8a30.281,30.281,0,0,0,.141-18.088c3.65-3.682,3.4-10.387.485-14.677s-8.419-6.445-13.577-5.924a20.341,20.341,0,0,0-13.216,7.442c.795-1.19-.06-2.773-1.04-3.815a4.919,4.919,0,0,0-3.922-1.366,10.045,10.045,0,0,0-4.04,1.349,21.663,21.663,0,0,0-10.39,13.082c.2-1.387-1.664-1.524-3.056-1.365a4.674,4.674,0,0,0-3.233,2.446,9.374,9.374,0,0,0,.485,10.169c-3.559,2.452-4.135,7.9-3.075,12.093s3.755,7.747,6.4,11.162q7.094,9.145,14.354,18.16Z" transform="translate(272.527 -127.033)" fill="#4e342e"/>
              <path id="Trazado_102272" data-name="Trazado 102272" d="M-219.864,162c5.446,3.026,7.318,9.864,8.205,16.031a123.99,123.99,0,0,1,1.219,20.994c-.118,4.38-.5,8.885-2.473,12.8-3.847,7.641-13.463,11.376-21.838,9.629s-15.284-8.187-19.022-15.882a13.869,13.869,0,0,1-6.635-4.453c-1.48-2.048-1.7-5.176.089-6.962a5.632,5.632,0,0,1,4.037-1.455,15.679,15.679,0,0,1,4.311.832,33.8,33.8,0,0,1,5.091-15.055c-2.1-3.661-4.19-7.484-4.858-11.652C-242.493,161.891-229.024,156.911-219.864,162Z" transform="translate(268.009 -140.596)" fill="#ffccbc"/>
              <path id="Trazado_102273" data-name="Trazado 102273" d="M-251.28,221.994a4.686,4.686,0,0,0-6.616-1.344c-1.025.711.136,2.258,1.158,1.549a2.755,2.755,0,0,1,3.908.953C-252.195,224.223-250.651,223.056-251.28,221.994Z" transform="translate(266.647 -165.367)" fill="#ffab91"/>
              <path id="Trazado_102274" data-name="Trazado 102274" d="M-218.442,174.447a14.369,14.369,0,0,0-13.3,1.2c-1.053.668.111,2.213,1.158,1.549a12.332,12.332,0,0,1,11.367-.976C-218.065,176.692-217.289,174.92-218.442,174.447Z" transform="translate(255.85 -146.166)" fill="#263238"/>
              <path id="Trazado_102275" data-name="Trazado 102275" d="M-186.123,175.39a8.29,8.29,0,0,0-9.985-1.017c-1.073.631.094,2.175,1.158,1.549a6.346,6.346,0,0,1,7.622.982C-186.423,177.761-185.225,176.24-186.123,175.39Z" transform="translate(241.134 -146.089)" fill="#263238"/>
              <path id="Trazado_102276" data-name="Trazado 102276" d="M-215.642,188.33l-.438-4.936c-.2-2.231-3.653-1.8-3.455.435l.438,4.936C-218.9,191-215.444,190.563-215.642,188.33Z" transform="translate(250.64 -149.708)" fill="#263238"/>
              <path id="Trazado_102277" data-name="Trazado 102277" d="M-184.275,188.713l-.438-4.936c-.2-2.231-3.653-1.8-3.455.435l.438,4.936C-187.532,191.379-184.077,190.946-184.275,188.713Z" transform="translate(237.682 -149.866)" fill="#263238"/>
            </g>
            <g id="Grupo_111651" data-name="Grupo 111651" transform="translate(14.284 23.811)">
              <path id="Trazado_102278" data-name="Trazado 102278" d="M-201.241,208.078q-.014-1.748-.068-3.494a57.555,57.555,0,0,0-45.182,3.732l.04,2.019C-231.852,206.409-215.6,203.9-201.241,208.078Z" transform="translate(247.487 -181.657)"/>
              <path id="Trazado_102279" data-name="Trazado 102279" d="M-246.423,213.358q.139,7.016.278,14.033c.093,4.71,5.1,7.979,8.285,11.452s7.363,6.214,12.027,6.88c5.712.815,11.6-1.633,15.7-5.688s6.562-9.552,7.771-15.194a63.1,63.1,0,0,0,1.145-13.739C-215.568,206.922-231.824,209.434-246.423,213.358Z" transform="translate(247.459 -184.681)" fill="#67cbc0"/>
              <path id="Trazado_102280" data-name="Trazado 102280" d="M-246.107,232.413l.093,4.673c.093,4.71,5.1,7.979,8.285,11.452s7.363,6.214,12.027,6.88c5.641.805,11.45-1.576,15.547-5.54.052-.051.106-.1.157-.148a24.136,24.136,0,0,0,2.76-3.27,19.421,19.421,0,0,1-9.493,2.514C-228.208,248.866-240.7,243.35-246.107,232.413Z" transform="translate(247.329 -194.377)" fill="#67cbc0" opacity="0.6" style="mix-blend-mode: multiply;isolation: isolate"/>
              <path id="Trazado_102281" data-name="Trazado 102281" d="M-240.037,206.322a6.78,6.78,0,0,1-8.15-6.758l.289-18.921c.075-4.861,2.8-9.079,6.515-10.042a87.127,87.127,0,0,1,38.022-1.6c3.59.683,6.255,4.53,6.458,9.216.336,7.771.64,14.619.979,22.489a5.055,5.055,0,0,1-6.011,5.172A97.235,97.235,0,0,0-240.037,206.322Z" transform="translate(248.188 -167.605)" fill="#fff" opacity="0.47"/>
            </g>
          </g>
          <g id="Grupo_111655" data-name="Grupo 111655" transform="translate(126.834 37.807)">
            <path id="Trazado_102282" data-name="Trazado 102282" d="M-106.268,251.96a98.483,98.483,0,0,1-16.349,14.333A21.349,21.349,0,0,0-110.884,282.7a123.588,123.588,0,0,0,19.919-25.362Z" transform="translate(122.617 -216.447)" fill="#67cbc0"/>
            <g id="Grupo_111654" data-name="Grupo 111654" transform="translate(9.917)">
              <path id="Trazado_102283" data-name="Trazado 102283" d="M-80.688,220.812a20.024,20.024,0,0,0-1.271-10.669l-.191.4c.913-1.814,2.007-3.69,2.92-5.5-.007.136-.014.272-.021.407a12.307,12.307,0,0,0,5.168,2.568c2.042.524,4.533-.062,5.564-1.9-4.709-3-10.166-5.79-15.63-6.948l-.244.632c-1.864,4.822-6.574,7-8.238,11.9,1.9,6.094,5.472,11.372,9.711,16.143A17.846,17.846,0,0,0-80.688,220.812Z" transform="translate(100.313 -194.639)" fill="#67cbc0"/>
              <path id="Trazado_102284" data-name="Trazado 102284" d="M-80.135,244.9c3.9.68,7.893-1.714,9.948-5.1s2.448-7.548,2.063-11.488c1.988-3.9,3.413-7.689,5.4-11.593a2.79,2.79,0,0,0,.408-2.339,1.825,1.825,0,0,0-1.906-.9,4.425,4.425,0,0,0-2.007.972,16.994,16.994,0,0,0-5.985,8.512,16.084,16.084,0,0,0-8.622,5.076Z" transform="translate(95.439 -200.545)" fill="#67cbc0"/>
              <path id="Trazado_102285" data-name="Trazado 102285" d="M-98.174,201.131l5.375-9.68c5.136.951,10.592,1.568,15.727,2.519,1.92,1.972,4.311,4.144,6.231,6.115.771.792,1.591,1.727,1.392,2.71-.3,1.465-2.78,1.878-4.318,1.075a7.5,7.5,0,0,1-3.007-3.7c-2.8-.547-6.3-.791-9.1-1.337-1.613,2.861-3.8,5.646-5.415,8.507a3.018,3.018,0,0,1-2,1.781c-1.431.224-2.561-1.1-3.044-2.275C-97.217,204.7-99.291,203.142-98.174,201.131Z" transform="translate(102.736 -191.451)" fill="#9cefe5"/>
              <path id="Trazado_102286" data-name="Trazado 102286" d="M-99.913,234.982q-2.9-12.022-5.807-24.043a66.222,66.222,0,0,1,8.35-15.554c4.5.045,10.216-.265,14.716-.22,1.666,1.551,3.6,3.676,5.269,5.226a4.133,4.133,0,0,1,1.309,1.752c.587,2.037-1.332,3.007-3.085,2.935-2.049-.085-3.793-3.521-4.833-3.51-2.249.025-5.506.046-7.755.071-.7,1.338-1.675,2.622-2.373,3.96,1.765,3.751,3.079,8.187,4.844,11.937a39.84,39.84,0,0,1,3.032,7.832,13.366,13.366,0,0,1-.443,8.261,8.123,8.123,0,0,1-6.285,4.994C-95.761,238.92-99.254,237.708-99.913,234.982Z" transform="translate(105.72 -192.983)" fill="#bcfff7"/>
              <g id="Grupo_111653" data-name="Grupo 111653" transform="translate(16.534 2.75)">
                <path id="Trazado_102287" data-name="Trazado 102287" d="M-77.313,212.61c-.467.174-.176.891.291.717a409.14,409.14,0,0,1,40.811-12.848l-.139-.758A410.371,410.371,0,0,0-77.313,212.61Z" transform="translate(77.549 -197.617)"/>
                <path id="Trazado_102288" data-name="Trazado 102288" d="M-1.127,196.156Q-5.422,197.2-9.7,198.3a.6.6,0,0,0-.44.688h0a.6.6,0,0,0,.736.471q4.207-1.082,8.429-2.106C-.232,197.17-.372,195.973-1.127,196.156Z" transform="translate(49.707 -196.137)" fill="#fff"/>
              </g>
            </g>
          </g>
          <path id="Trazado_102289" data-name="Trazado 102289" d="M-261.889,270.126a260.56,260.56,0,0,0-28.26-21.211,22.46,22.46,0,0,0-6.66-3.3,8.086,8.086,0,0,0-7.087,1.232c-1.858,1.58-2.319,4.655-.555,6.365-2.366-1.329-6.109-.339-7.29,2a4.877,4.877,0,0,0,2.7,6.481A41.761,41.761,0,0,0-330.9,280.5c-4.506,8.448-6.529,17.924-7.59,27.372-1.909,16.987,8.193,76.858,12.178,93.575.816.17,77.721.39,77.721.39,7.36-15.583,3.592-66.907,3.771-84.051S-248.466,281.711-261.889,270.126Z" transform="translate(338.725 -175.895)" fill="#fff"/>
          <path id="Trazado_102290" data-name="Trazado 102290" d="M-226.49,354.432c-4.759.06-9.473-.013-14.342-.363-19.567-1.078-40.259-3.455-57.785-12.332-2.783-1.466-3.376-3.9-3.969-6.329-1.919,14.928,1.934,30.733,19.254,41.666A92.775,92.775,0,0,0-259.757,387.3h0c13.439,1.35,25.76-4.194,29.234-13.287A57.792,57.792,0,0,0-226.49,354.432Z" transform="translate(323.981 -213.112)" fill="#eceff1"/>
          <g id="Grupo_111657" data-name="Grupo 111657" transform="translate(15.529 79.795)">
            <g id="Grupo_111656" data-name="Grupo 111656" transform="translate(0.33)">
              <path id="Trazado_102291" data-name="Trazado 102291" d="M-222.195,274.312c2.009-3.357,4.1-6.808,7.273-9.1s7.73-3.133,10.977-.953c3.2,2.151,4.138,6.333,5.764,9.831a22.81,22.81,0,0,0,10.94,10.95c3.44,1.6,4.27,6.585,4.041,10.374a13.95,13.95,0,0,1-5.051,9.846,15.162,15.162,0,0,1-9.743,3.266,214.752,214.752,0,0,1-20.63,25.688c-2.689,2.93-5.533,5.84-9.087,7.625s-7.986,2.28-11.455.335c-8.552-4.8-20.384-2.775-30.119-3.943-8.719-1.046-17.7-2.175-25.35-6.479a33.88,33.88,0,0,1-15.279-18.346,33.882,33.882,0,0,1,.8-23.862c2.089-4.975,5.524-9.538,10.26-12.122,7.337-4,16.358-2.692,24.464-.66a166.586,166.586,0,0,1,25.576,8.667,8.45,8.45,0,0,1,5.48-4.043,8.2,8.2,0,0,1,6.616,1.1C-231.361,279.38-225.375,279.625-222.195,274.312Z" transform="translate(311.704 -262.993)" fill="#fff"/>
            </g>
            <path id="Trazado_102292" data-name="Trazado 102292" d="M-208.4,301.2a77.575,77.575,0,0,0-4.382,27.32c.015.745,1.167.6,1.152-.145a75.932,75.932,0,0,1,4.293-26.709C-207.088,300.962-208.15,300.493-208.4,301.2Z" transform="translate(271.175 -278.631)" fill="#b0bec5"/>
            <path id="Trazado_102293" data-name="Trazado 102293" d="M-131.007,323a32.657,32.657,0,0,1-25.446-21.1c-.251-.7-1.326-.268-1.075.436a33.831,33.831,0,0,0,26.355,21.815A.581.581,0,0,0-131.007,323Z" transform="translate(248.36 -278.915)" fill="#b0bec5"/>
            <path id="Trazado_102294" data-name="Trazado 102294" d="M-137.028,333.442a9.656,9.656,0,0,1-5.094-2.787c-.523-.533-1.24.381-.724.908a10.734,10.734,0,0,0,5.652,3.027C-136.461,334.737-136.3,333.588-137.028,333.442Z" transform="translate(242.353 -290.878)" fill="#b0bec5"/>
            <path id="Trazado_102295" data-name="Trazado 102295" d="M-253.52,368.2c-13.012.521-26.836-.026-38.595-6.258-9.668-5.124-17.667-14.251-19-25.388a.581.581,0,0,0-1.151.145c1.332,11.171,9.115,20.357,18.682,25.759,12.115,6.843,26.635,7.437,40.206,6.893C-252.629,369.317-252.777,368.165-253.52,368.2Z" transform="translate(312.266 -293.177)" fill="#b0bec5"/>
            <path id="Trazado_102296" data-name="Trazado 102296" d="M-192.259,295.96a41.781,41.781,0,0,0-8.373,24.439.53.53,0,0,0,1.058.046,40.813,40.813,0,0,1,8.205-23.91C-190.959,295.987-191.853,295.417-192.259,295.96Z" transform="translate(266.151 -276.521)" fill="#b0bec5"/>
            <path id="Trazado_102297" data-name="Trazado 102297" d="M-252.566,289.344a42.06,42.06,0,0,0-30.126,26.846c-.227.644.782.968,1.008.326a40.973,40.973,0,0,1,29.356-26.139A.53.53,0,0,0-252.566,289.344Z" transform="translate(300.063 -273.873)" fill="#b0bec5"/>
            <path id="Trazado_102298" data-name="Trazado 102298" d="M-104.326,300.489a.53.53,0,0,0-.937.495,10.157,10.157,0,0,1-.909,11.138c-.414.543.479,1.113.89.573A11.217,11.217,0,0,0-104.326,300.489Z" transform="translate(227.173 -278.37)" fill="#b0bec5"/>
            <path id="Trazado_102299" data-name="Trazado 102299" d="M-132.024,278.991a13.731,13.731,0,0,0-13.623-.911c-.616.292-.122,1.23.494.937a12.635,12.635,0,0,1,12.554.864A.53.53,0,0,0-132.024,278.991Z" transform="translate(243.553 -268.653)" fill="#b0bec5"/>
          </g>
        </g>
        <g id="Grupo_111665" data-name="Grupo 111665" transform="translate(-251.774 55.558)">
          <g id="Grupo_111661" data-name="Grupo 111661" transform="translate(108.44)">
            <path id="Trazado_102300" data-name="Trazado 102300" d="M58.985,188.577q1.983,11.934,3.966,23.868a19.289,19.289,0,0,1-9.659,8.919A19.829,19.829,0,0,1,40,222.408a65.747,65.747,0,0,0-5.859-23.341Z" transform="translate(-10.694 -121.534)" fill="#ffab91"/>
            <g id="Grupo_111660" data-name="Grupo 111660" transform="translate(0)">
              <g id="Grupo_111659" data-name="Grupo 111659">
                <path id="Trazado_102301" data-name="Trazado 102301" d="M3.664,122.779c-5.446,3.026-7.318,9.864-8.205,16.031A123.987,123.987,0,0,0-5.761,159.8c.118,4.38.5,8.885,2.473,12.8,3.847,7.642,18.641,6.92,27.016,5.173s9.889-33.869,6.951-38.518c2.1-3.661,4.19-7.484,4.859-11.652C26.293,122.669,12.825,117.689,3.664,122.779Z" transform="translate(5.805 -93.471)" fill="#ffccbc"/>
                <path id="Trazado_102302" data-name="Trazado 102302" d="M10.033,204.773c6.15,1.952,14.631,1.247,20.238.076C36.155,203.622,45,187.4,24.831,186.185,23.7,194.129,21.41,198.587,10.033,204.773Z" transform="translate(-0.737 -120.546)" fill="#ffab91"/>
                <path id="Trazado_102303" data-name="Trazado 102303" d="M1.174,117.352C-1.8,113.7-1.8,108.828-1.516,104.366c.395-6.2-1.363-12.923.315-19.136,1.986-7.351,9.337-11.547,16.746-10.8A19.671,19.671,0,0,1,23.442,77c3.5,2.041,3.861,3.987,7.772,1.831,4.424-2.438,8.9-1.361,12.522,1.917a27.469,27.469,0,0,1,4.5,5.569c1.029,1.6,1.182,4.15,3,5.157,2.3,1.275,5.59.568,7.448,2.651,2.075,2.326.741,4.681.476,7.347-.593,5.972,3.933,11.4,2.421,17.381-1.176,4.649-4.166,8.6-7.105,12.384-2.584,3.331-4.812,16.841-7.425,20.148-1.709,2.162-5.9,2.146-9.439,2.707a10.1,10.1,0,0,1-9.449-3.57Z" transform="translate(4.209 -74.345)" fill="#263238"/>
              </g>
            </g>
            <path id="Trazado_102304" data-name="Trazado 102304" d="M21.18,168.1a6.424,6.424,0,0,1,7.953-4.019,6.425,6.425,0,0,1,3.685,8.113,8.32,8.32,0,0,1-3.954,4.068,24.717,24.717,0,0,1-5.465,1.877" transform="translate(-5.342 -111.288)" fill="#ffccbc"/>
            <path id="Trazado_102305" data-name="Trazado 102305" d="M29.387,171.862a4.408,4.408,0,0,0-6.33.045c-.683.752.384,1.929,1.073,1.171a2.813,2.813,0,0,1,4.085-.143C28.93,173.667,30.1,172.595,29.387,171.862Z" transform="translate(-6.027 -114.085)" fill="#ffab91"/>
          </g>
          <g id="Grupo_111664" data-name="Grupo 111664" transform="translate(0 83.179)">
            <path id="Trazado_102306" data-name="Trazado 102306" d="M60.047,221.575c.421,5.023.893,10.6-.335,15.487,19.021,22,16.575,49.442,16.3,75.092s-6.553,52.238-9.984,77.658c-27.708.354-55,.032-82.712.386a200.189,200.189,0,0,0,2.109-73.159c-1.515-9.663-3.742-19.226-4.636-28.966s-.391-19.826,3.369-28.856,11.778-17.513,21.209-20.1c.167-2.831.537-5.856-.822-8.344a51.633,51.633,0,0,1,47.8-13.315C55.444,218.213,59.781,218.4,60.047,221.575Z" transform="translate(119.939 -216.07)" fill="#ffce26"/>
            <path id="Trazado_102307" data-name="Trazado 102307" d="M26.823,320.11c-7.1-14.751-28.951-10.688-45.667-11.949a73.216,73.216,0,0,0-.36,17.956c.894,9.74,3.121,19.3,4.636,28.966a200.189,200.189,0,0,1-2.109,73.159c16.2-.207,32.26-.184,48.343-.2a69.71,69.71,0,0,0,3.961-15.2C39.735,381.734,40.322,348.281,26.823,320.11Z" transform="translate(119.938 -254.113)" fill="#b59216"/>
            <g id="Grupo_111663" data-name="Grupo 111663" transform="translate(0 141.715)">
              <path id="Trazado_102308" data-name="Trazado 102308" d="M-98.209,457.533a346.056,346.056,0,0,1-43.207,9.334c-1.976,3.58-2.451,8.192.35,11.432a144.43,144.43,0,0,0,47.262.774C-89.7,471.531-91.842,464.085-98.209,457.533Z" transform="translate(170.934 -457.533)" fill="#ffccbc"/>
              <g id="Grupo_111662" data-name="Grupo 111662" transform="translate(0 5.65)">
                <path id="Trazado_102309" data-name="Trazado 102309" d="M-156.823,484.49c-2.586,3.248-7.622,4.615-12.012,3.726A15.732,15.732,0,0,1-179,480.939a12.959,12.959,0,0,0-7.188,1.829c-.5,1.679-1.224,3.349-1.721,5.029a1.439,1.439,0,0,1-1.811.563,1.933,1.933,0,0,1-.535-1.529q-.157-4.09-.314-8.18c3.463-1.811,6.835-3.087,10.3-4.9,5.553-2.9,12.779-2.688,19.23-2.979a9.66,9.66,0,0,1,4.027.417,5.228,5.228,0,0,1,2.969,5.73C-154.4,479.15-155.355,482.647-156.823,484.49Z" transform="translate(190.573 -468.639)" fill="#ffccbc"/>
                <path id="Trazado_102310" data-name="Trazado 102310" d="M-174.311,474.164l-6.162-.92a4.631,4.631,0,0,0-3.017.23c-1.262.734-1.524,2.424-1.549,3.885a32.091,32.091,0,0,0,1,8.515c.169.659.586,1.468,1.257,1.356.6-.1.793-.845.861-1.445q.352-3.082.7-6.164c1.895-.038,3.909-.092,5.8-.248a3.16,3.16,0,0,0,2.451-.978,2.155,2.155,0,0,0-.116-2.329C-173.532,475.371-173.5,474.286-174.311,474.164Z" transform="translate(188.29 -469.616)" fill="#ffccbc"/>
                <path id="Trazado_102311" data-name="Trazado 102311" d="M-166.307,470.307l-5.709-2.5a4.632,4.632,0,0,0-2.973-.566c-1.41.38-2.1,1.943-2.51,3.346a32.13,32.13,0,0,0-1.258,8.481c-.009.681.183,1.57.86,1.637.6.059.986-.608,1.208-1.17l2.287-5.766c1.839.457,3.8.931,5.662,1.273a3.159,3.159,0,0,0,2.622-.3,2.154,2.154,0,0,0,.5-2.278C-165.871,471.676-165.552,470.637-166.307,470.307Z" transform="translate(185.692 -467.16)" fill="#ffccbc"/>
              </g>
            </g>
            <path id="Trazado_102312" data-name="Trazado 102312" d="M-29.632,283.04c-5.922.151-11.26,4.037-14.59,8.937s-4.965,10.73-6.36,16.487A275.145,275.145,0,0,0-58.27,368.3c-5.19,4.821-14.039,4.107-20.008,7.921-4.828,3.085-7.061,9.02-7.774,14.705a41.16,41.16,0,0,0,1.528,17.2,8.541,8.541,0,0,0,7.424,5.989c20.283,1.723,41.131,1.117,60.517-4.833,10.049-27.033,14.238-54.637,14.9-83.47.228-9.875-.194-20.127-4.593-28.971A25.11,25.11,0,0,0-29.632,283.04Z" transform="translate(147.524 -243.732)" fill="#ffce26"/>
          </g>
          <path id="Trazado_102313" data-name="Trazado 102313" d="M-27.846,446.786a41.8,41.8,0,0,1-10.671-18.094c-.208-.722-1.354-.466-1.144.263a43.033,43.033,0,0,0,10.95,18.624C-28.179,448.113-27.311,447.323-27.846,446.786Z" transform="translate(128.243 -220.548)" fill="#4a5f4d"/>
          <path id="Trazado_102314" data-name="Trazado 102314" d="M-33.529,450.818A49.669,49.669,0,0,1-40.692,437.9c-.265-.705-1.3-.153-1.038.548a50.678,50.678,0,0,0,7.337,13.163C-33.933,452.211-33.07,451.414-33.529,450.818Z" transform="translate(129.104 -224.394)" fill="#4a5f4d"/>
          <path id="Trazado_102315" data-name="Trazado 102315" d="M65.982,250.874a53.479,53.479,0,0,0-33.754,1.014c-.7.256-.447,1.4.262,1.144a52.394,52.394,0,0,1,33.131-1.04A.588.588,0,0,0,65.982,250.874Z" transform="translate(98.706 -146.339)" fill="#4a5f4d"/>
          <path id="Trazado_102316" data-name="Trazado 102316" d="M58.492,231.29a43.094,43.094,0,0,0-22.314,5.261.587.587,0,0,0,.548,1.038,41.842,41.842,0,0,1,21.715-5.126A.588.588,0,0,0,58.492,231.29Z" transform="translate(97.027 -139.167)" fill="#4a5f4d"/>
          <path id="Trazado_102317" data-name="Trazado 102317" d="M104.109,235.858a15.119,15.119,0,0,0-9.875-3.449c-.752.009-.808,1.182-.051,1.173a14.091,14.091,0,0,1,9.29,3.263C104.058,237.323,104.688,236.331,104.109,235.858Z" transform="translate(73.164 -139.641)" fill="#4a5f4d"/>
        </g>
      </g>
    </g>
  </g>
</svg>
