<svg xmlns="http://www.w3.org/2000/svg" width="147.984" height="154.5" viewBox="0 0 147.984 154.5">
  <g id="Grupo_113325" data-name="Grupo 113325" transform="translate(547.581 -1728.896)">
    <path id="Trazado_148193" data-name="Trazado 148193" d="M-435.625,1902.036c1.807.422,2.333,1.046,2.335,2.909q.012,16.71,0,33.421c-.008,4.436-2.416,7.408-6.765,8.5-.057.015-.083.156-.123.238H-540.954c-.26-.462-.788-.373-1.182-.539a8.337,8.337,0,0,1-5.429-7.632c-.025-.35-.009-.7-.009-1.055q0-49.455,0-98.909c0-2.312.43-2.905,2.382-3.311,1.822.558,2.145,1.036,2.145,3.219q0,49.3,0,98.6c0,3.787,1.287,5.095,5.015,5.1q45.452,0,90.9,0c.5,0,1-.033,1.5-.051.952.018,1.9.051,2.856.051,3.625,0,4.952-1.34,4.953-5.007q0-16.259,0-32.52C-437.811,1903.044-437.438,1902.546-435.625,1902.036Z" transform="translate(-0.001 -63.71)" fill="#020303"/>
    <path id="Trazado_148194" data-name="Trazado 148194" d="M-442.091,1885.521c-.5.018-1,.051-1.5.051q-45.452,0-90.9,0c-3.728,0-5.015-1.308-5.015-5.1q0-49.3,0-98.6c0-2.182-.323-2.66-2.145-3.219q0-2.961.008-5.922c1.626-.411,2.172-1.467,2.162-3.114-.052-8.14-.024-16.279-.023-24.419,0-3.76,1.3-5.067,5.038-5.068q45.365,0,90.731,0c.552,0,1.1.033,1.654.05a14.621,14.621,0,0,1,1.231,7q-.037,53.493-.019,106.986c0,.753-.024,1.506-.037,2.259a22.436,22.436,0,0,0-4.062-.122c-4.374-.019-8.749-.026-13.123.006a2.228,2.228,0,0,0-2.393,2.182,2.133,2.133,0,0,0,2.095,2.3c5.83,0,11.66.167,17.489-.079a18.508,18.508,0,0,1,.016,2.218c-.111,1.037.433,2.17-.415,3.107q-3.01-.006-6.02-.011c-3.563,0-7.126-.031-10.689.016a2.241,2.241,0,0,0-2.476,2.263,2.146,2.146,0,0,0,2.305,2.23c5.77.009,11.54-.034,17.31-.058q0,2.718,0,5.436c-1.2-.027-2.407-.075-3.61-.077-4.517-.009-9.033-.02-13.55.008a2.2,2.2,0,0,0-2.454,2.245,2.269,2.269,0,0,0,2.329,2.263c.249.023.5.01.753.01l16.109-.008c.647.5.385,1.146.326,1.782A14.618,14.618,0,0,1-442.091,1885.521Zm-62.806-86.246c7.541,0,15.082.021,22.622-.024,1.02-.006,1.373.189,1.343,1.29q-.126,4.6,0,9.2c.03,1.156-.256,1.5-1.466,1.5-9.451-.054-18.9-.033-28.353-.027-2.42,0-3.114.711-3.116,3.156q0,7.391,0,14.781c0,2.306.74,3.027,3.085,3.028,9.5,0,19,.018,28.5-.023,1.024,0,1.365.2,1.346,1.3-.071,4.071-.036,8.145-.025,12.217.006,2.208.784,2.988,3.006,2.994q7.466.018,14.931,0c2.331,0,3.087-.755,3.092-3.061.009-4.073.038-8.146-.022-12.217-.015-1.012.3-1.239,1.259-1.227,4.071.052,8.144.026,12.216.02,2.24,0,2.953-.716,2.957-2.976q.013-7.467,0-14.933c0-2.383-.663-3.05-3.031-3.056-4.072-.01-8.144-.029-12.216.018-.913.01-1.2-.221-1.183-1.165q.089-4.825,0-9.652c-.018-.938.239-1.171,1.166-1.159,4.122.053,8.244.03,12.367.02,2.137-.005,2.891-.756,2.9-2.9q.017-7.542,0-15.083c0-2.331-.708-3.027-3.084-3.035-3.871-.012-7.743-.055-11.612.026-1.3.027-1.794-.215-1.751-1.67.118-3.918.048-7.842.038-11.764-.005-2.253-.747-3.007-2.958-3.01q-7.541-.011-15.081,0c-2.239,0-2.984.742-2.989,2.975-.01,4.123-.025,8.246.016,12.368.008.851-.234,1.1-1.09,1.09-3.116-.048-6.235-.074-9.349.009-1.169.031-1.5-.273-1.49-1.472.053-9.4.031-18.8.028-28.206,0-2.553-.7-3.262-3.2-3.265q-7.314-.009-14.629,0c-2.5,0-3.2.709-3.2,3.252,0,9.453-.018,18.905.023,28.357,0,1.038-.233,1.35-1.309,1.332-4.021-.069-8.043-.037-12.065-.024-2.373.008-3.069.7-3.074,3.054q-.016,7.466,0,14.932c.005,2.33.725,3.033,3.075,3.034Q-516.057,1799.28-504.9,1799.275Zm-2.978,76.568c-2.614,0-5.229-.014-7.843.005-1.695.012-2.659.816-2.694,2.176-.035,1.419.976,2.332,2.722,2.339q7.767.032,15.536,0c1.667-.007,2.656-.867,2.691-2.218.037-1.43-.948-2.285-2.719-2.3C-502.746,1875.828-505.311,1875.842-507.875,1875.843Zm.017-5.279c2.564,0,5.128.013,7.692,0,1.7-.011,2.654-.793,2.7-2.16.044-1.419-.964-2.347-2.7-2.356q-7.767-.037-15.535,0c-1.743.009-2.752.94-2.7,2.359.046,1.363,1,2.145,2.71,2.156C-513.086,1870.576-510.472,1870.564-507.858,1870.564Zm.015-9.731c2.507,0,5.013.006,7.52,0,1.861-.006,2.893-.849,2.857-2.313-.034-1.393-1.049-2.207-2.821-2.21q-7.67-.014-15.34,0c-1.754,0-2.775.849-2.786,2.248s1.009,2.266,2.75,2.274C-513.056,1860.841-510.449,1860.832-507.843,1860.832Zm-21.081,0c1,0,2.01.039,3.011-.01a2.254,2.254,0,0,0,2.261-2.172,2.238,2.238,0,0,0-2.261-2.322c-2.056-.058-4.117-.061-6.172.006a2.215,2.215,0,0,0-2.183,2.241,2.232,2.232,0,0,0,2.183,2.24C-531.034,1860.874-529.977,1860.826-528.923,1860.83Zm57.8,0c1.054,0,2.11.044,3.162-.011a2.231,2.231,0,0,0,2.214-2.211,2.2,2.2,0,0,0-2.151-2.269c-2.106-.071-4.217-.072-6.323,0a2.213,2.213,0,0,0-2.144,2.28,2.253,2.253,0,0,0,2.231,2.2C-473.136,1860.871-472.13,1860.828-471.126,1860.827Zm-57.99,9.731v-.009c1.1,0,2.208.036,3.309-.01a2.054,2.054,0,0,0,2.123-2.1,2,2,0,0,0-1.9-2.3,57.167,57.167,0,0,0-6.756,0,2.031,2.031,0,0,0-1.908,2.3,2.156,2.156,0,0,0,2.271,2.113C-531.023,1870.593-530.069,1870.558-529.116,1870.558Zm58.088-.007v.007c1,0,2.008.037,3.009-.009a2.153,2.153,0,0,0,2.249-2.136,2.042,2.042,0,0,0-1.936-2.28,57.22,57.22,0,0,0-6.756.014,1.993,1.993,0,0,0-1.872,2.319,2.06,2.06,0,0,0,2.147,2.078C-473.135,1870.583-472.081,1870.551-471.028,1870.551Zm-57.946,5.311c-1.053,0-2.108-.041-3.159.011a2.041,2.041,0,0,0-2.1,2.112,2,2,0,0,0,1.906,2.292,56.269,56.269,0,0,0,6.758-.006,2,2,0,0,0,1.887-2.31,2.058,2.058,0,0,0-2.131-2.092C-526.866,1875.825-527.921,1875.86-528.974,1875.862Zm57.957,0v.005c-1.1,0-2.209-.052-3.308.014a2.028,2.028,0,0,0-2.01,2.05,1.982,1.982,0,0,0,1.72,2.3,31.05,31.05,0,0,0,7.046.025,1.981,1.981,0,0,0,1.789-2.244,2.04,2.04,0,0,0-2.078-2.135C-468.908,1875.818-469.964,1875.864-471.017,1875.864Z" transform="translate(-3.534 -6.704)" fill="#fff3c9"/>
    <path id="Trazado_148195" data-name="Trazado 148195" d="M-228.837,1808.779c1.891.69,2.26,1.2,2.26,3.193q0,28.652.009,57.3a9.313,9.313,0,0,1-2.1,6.129c-1.938,2.374-3.7,4.907-5.81,7.116-1.234,1.294-2.121,2.412-1.97,4.314.1,1.277-.915,2.016-2.164,2.022a1.933,1.933,0,0,1-2.182-2.007c.121-1.881-.713-3.017-1.951-4.323-2.239-2.362-4.155-5.032-6.174-7.6a8.972,8.972,0,0,1-1.746-5.79q.021-38.379.025-76.757a2.9,2.9,0,0,0-1-2.446c-2.26-2.057-2.151-9.609.148-11.608a2.347,2.347,0,0,0,.846-2.061q-.044-4.976-.008-9.953a8.4,8.4,0,0,1,8.556-8.766q3.466-.077,6.935,0a8.4,8.4,0,0,1,8.577,8.75q.039,5.127-.01,10.254a1.643,1.643,0,0,0,.752,1.649,1.728,1.728,0,0,1,.335.3c2.209,2.275,1.992,9.688-.407,11.751a1.743,1.743,0,0,0-.672,1.524c.023,2.664.014,5.328.008,7.992,0,2-.371,2.505-2.259,3.195-1.985-.644-2.281-1.042-2.289-3.13-.006-1.709,0-3.418,0-5.128,0-3.341,0-3.341-3.337-3.4-1.9-.031-1.9-.031-1.9,1.954q0,35.517,0,71.035a10.7,10.7,0,0,1-.1,1.952,1.992,1.992,0,0,1-2.14,1.727,1.989,1.989,0,0,1-2.155-1.708,10.333,10.333,0,0,1-.106-1.951q-.007-34.538,0-69.075c0-4,0-3.975-3.987-3.958-.942,0-1.292.2-1.291,1.234q.045,38.459.019,76.917a4.325,4.325,0,0,0,.87,2.818c1.882,2.354,3.794,4.686,5.657,7.056.735.935,1.307.867,2.01-.036,1.6-2.062,3.214-4.124,4.911-6.108a6.561,6.561,0,0,0,1.578-4.553q-.054-28.354-.021-56.708C-231.125,1809.821-230.82,1809.42-228.837,1808.779Zm-19.451-22.09c5.545.155,11.09.136,16.635.01,2.97.237,2.97.237,2.97-2.363,0-2.848,0-2.848-2.975-2.68-4.115-.019-8.23-.067-12.345-.042-1.484.009-3.576-.67-4.292.3-.745,1.007-.191,2.975-.2,4.522C-248.545,1786.615-248.5,1786.724-248.288,1786.69Zm14.319-9.715c.649.022,1.3.028,1.948.071.612.041.908-.143.9-.83-.029-3.46.053-6.922-.049-10.38-.068-2.3-1.727-3.667-4.061-3.608-2.357-.026-4.717-.144-7.069-.053a3.709,3.709,0,0,0-3.77,4.023c-.047,3.264.007,6.529-.027,9.794-.008.746.142,1.065.982,1.052C-241.4,1776.985-237.684,1776.992-233.97,1776.975Z" transform="translate(-175.625 -17.076)" fill="#020303"/>
    <path id="Trazado_148196" data-name="Trazado 148196" d="M-445.624,1733.48c-.551-.017-1.1-.05-1.654-.05q-45.365,0-90.731,0c-3.737,0-5.038,1.308-5.038,5.068,0,8.139-.028,16.279.023,24.419.01,1.648-.536,2.7-2.162,3.114-1.963-.555-2.387-1.08-2.388-3.051q-.008-12.668,0-25.337a8.353,8.353,0,0,1,8.714-8.738q48.4-.014,96.81,0c5.2,0,8.752,3.588,8.754,8.859q.017,45.772,0,91.544c0,1.976-.414,2.5-2.349,3.106-1.966-.73-2.176-1.049-2.176-3.378q0-45.143,0-90.286c0-.553.029-1.109-.025-1.657a3.83,3.83,0,0,0-3.87-3.651C-443.013,1733.4-444.319,1733.463-445.624,1733.48Z" fill="#020303"/>
    <path id="Trazado_148197" data-name="Trazado 148197" d="M-218.3,1858.759c-1.983.641-2.287,1.042-2.288,3.13q0,28.354.021,56.708a6.561,6.561,0,0,1-1.578,4.553c-1.7,1.984-3.307,4.046-4.911,6.108-.7.9-1.275.971-2.01.037-1.863-2.37-3.774-4.7-5.657-7.056a4.325,4.325,0,0,1-.87-2.818q.008-38.459-.019-76.917c0-1.038.349-1.23,1.291-1.234,3.987-.017,3.987-.047,3.987,3.958q0,34.538,0,69.075a10.336,10.336,0,0,0,.106,1.951,1.989,1.989,0,0,0,2.155,1.707,1.992,1.992,0,0,0,2.14-1.727,10.7,10.7,0,0,0,.1-1.952q.007-35.518,0-71.035c0-1.986,0-1.986,1.9-1.954,3.337.055,3.337.055,3.337,3.4,0,1.709-.005,3.419,0,5.128.008,2.089.3,2.487,2.289,3.13Q-218.3,1855.852-218.3,1858.759Z" transform="translate(-186.165 -67.056)" fill="#ffce26"/>
    <path id="Trazado_148198" data-name="Trazado 148198" d="M-294.751,1740.185c1.3-.017,2.611-.078,3.914-.04a3.83,3.83,0,0,1,3.87,3.651c.054.548.025,1.1.025,1.657q0,45.143,0,90.286c0,2.329.21,2.648,2.176,3.378q.006,2.957.013,5.914c-1.813.51-2.186,1.008-2.187,3.015q-.006,16.259,0,32.519c0,3.668-1.328,5.011-4.953,5.007-.952,0-1.9-.033-2.856-.051a14.62,14.62,0,0,0,1.114-3.375c.059-.636.321-1.285-.326-1.782,2.218-1.219,2.37-2.807.424-4.44q0-2.718,0-5.436c1.949-1.648,1.8-3.224-.431-4.441.848-.937.3-2.07.415-3.107a18.51,18.51,0,0,0-.016-2.218c1.837-1.478,1.835-2.825-.006-4.289.013-.753.037-1.506.037-2.259q0-53.493.019-106.986A14.62,14.62,0,0,0-294.751,1740.185Z" transform="translate(-150.873 -6.705)" fill="#fff3c9"/>
    <path id="Trazado_148199" data-name="Trazado 148199" d="M-488.088,1806.969q-11.16,0-22.321,0c-2.351,0-3.07-.7-3.075-3.034q-.016-7.466,0-14.932c0-2.354.7-3.046,3.074-3.054,4.022-.013,8.044-.045,12.065.024,1.076.018,1.313-.295,1.309-1.332-.041-9.452-.025-18.9-.023-28.357,0-2.542.692-3.249,3.2-3.252q7.315-.008,14.629,0c2.5,0,3.2.712,3.2,3.265,0,9.4.025,18.8-.028,28.206-.007,1.2.321,1.5,1.49,1.472,3.114-.083,6.233-.058,9.349-.01.855.013,1.1-.239,1.09-1.09-.041-4.123-.025-8.246-.016-12.368.006-2.233.75-2.972,2.989-2.975q7.541-.01,15.081,0c2.211,0,2.952.757,2.958,3.01.01,3.922.081,7.845-.038,11.763-.044,1.455.451,1.7,1.751,1.67,3.869-.081,7.741-.038,11.612-.025,2.376.008,3.081.7,3.084,3.035q.013,7.541,0,15.083c-.005,2.145-.759,2.9-2.9,2.9-4.123.01-8.245.033-12.367-.02-.928-.012-1.184.22-1.166,1.159q.093,4.825,0,9.652c-.017.945.269,1.176,1.183,1.165,4.072-.048,8.144-.028,12.216-.018,2.368.006,3.028.673,3.031,3.056q.01,7.466,0,14.933c0,2.26-.717,2.972-2.957,2.976-4.072.006-8.144.031-12.216-.02-.962-.012-1.274.215-1.259,1.227.06,4.072.031,8.145.022,12.217,0,2.306-.761,3.057-3.092,3.061q-7.466.014-14.931,0c-2.221-.006-3-.786-3.006-2.994-.01-4.072-.046-8.146.025-12.217.019-1.1-.322-1.3-1.346-1.3-9.5.04-19,.025-28.5.023-2.345,0-3.083-.722-3.085-3.028q-.01-7.391,0-14.781c0-2.445.7-3.155,3.116-3.156,9.451-.006,18.9-.027,28.353.028,1.209.007,1.5-.341,1.466-1.5q-.119-4.6,0-9.2c.03-1.1-.323-1.3-1.343-1.291C-473.006,1806.99-480.547,1806.969-488.088,1806.969Zm1.57-49.417c-1.656,0-3.312.028-4.967-.013-.75-.018-1.073.177-1.064,1,.04,3.311.046,6.623,0,9.934-.013.9.336,1.075,1.144,1.066,3.261-.037,6.522-.043,9.783,0,.89.013,1.094-.319,1.084-1.138-.037-3.211-.054-6.423.007-9.633.02-1.04-.377-1.277-1.319-1.239C-483.406,1757.6-484.964,1757.552-486.519,1757.553Zm5.962,38.895c0-1.556-.044-3.114.017-4.668.036-.929-.173-1.357-1.226-1.337-3.211.06-6.424.042-9.636.008-.8-.009-1.163.168-1.15,1.074q.073,4.969,0,9.939c-.011.83.3,1,1.053.991q4.969-.047,9.938,0c.8.01,1.041-.261,1.019-1.04C-480.59,1799.762-480.557,1798.1-480.556,1796.448Zm32.913,49.413c0-1.655-.033-3.311.015-4.965.023-.777-.217-1.049-1.018-1.04-3.309.037-6.62.032-9.929,0-.737-.007-1.077.152-1.067.988.041,3.31.033,6.62,0,9.93-.006.756.208,1.079,1.014,1.072,3.31-.03,6.62-.038,9.929,0,.911.012,1.087-.383,1.065-1.177C-447.674,1849.071-447.643,1847.465-447.644,1845.86Zm0-32.855c0-1.655-.023-3.31.011-4.963.014-.709-.092-1.1-.959-1.089-3.358.043-6.718.032-10.076.006-.69-.005-.978.173-.971.922q.049,5.038,0,10.078c-.006.721.255.974.958.97,3.359-.019,6.718-.026,10.077,0,.845.008.986-.4.97-1.114C-447.668,1816.214-447.643,1814.609-447.643,1813Zm-11.983-16.6c0,1.656.025,3.313-.011,4.969-.016.717.106,1.094.966,1.083,3.362-.044,6.725-.033,10.087-.005.712.006.96-.217.953-.942q-.045-5.044,0-10.088c.006-.723-.265-.969-.967-.965q-5.044.029-10.087,0c-.718,0-.965.273-.95.981C-459.6,1793.094-459.625,1794.75-459.626,1796.407Zm-37.436.128c0-1.706-.026-3.413.013-5.119.016-.713-.221-.969-.947-.963q-4.968.042-9.936,0c-.8-.008-1.034.3-1.027,1.063.029,3.312.035,6.625,0,9.937-.01.813.287,1.01,1.048,1q4.967-.05,9.936,0c.734.007.947-.245.93-.952C-497.089,1799.848-497.061,1798.191-497.061,1796.535Zm32.907-.129c0-1.605-.035-3.212.015-4.816.025-.818-.19-1.157-1.083-1.144-3.26.047-6.521.037-9.781.005-.786-.008-1.044.262-1.037,1.042q.047,4.966,0,9.933c-.008.776.219,1.039,1.016,1.03q4.891-.059,9.782,0c.84.011,1.143-.214,1.109-1.086C-464.2,1799.719-464.154,1798.062-464.154,1796.406Zm26.886,6.035c1.6,0,3.211-.038,4.815.015.846.028,1.257-.107,1.236-1.119-.067-3.26-.05-6.521-.008-9.782.011-.869-.289-1.116-1.13-1.105q-4.814.058-9.63,0c-.811-.009-1.161.181-1.148,1.079q.07,4.965,0,9.933c-.01.826.293,1.015,1.049.993C-440.48,1802.408-438.873,1802.441-437.268,1802.441Zm-16.251-28.385c-1.655,0-3.311.029-4.965-.013-.781-.02-1.178.113-1.162,1.048.054,3.26.038,6.52.009,9.781-.007.744.173,1.085,1,1.076,3.36-.035,6.721-.029,10.081,0,.744.006.932-.307.927-.992-.023-3.31-.035-6.621.007-9.931.011-.849-.355-.993-1.078-.977C-450.309,1774.082-451.915,1774.056-453.52,1774.056Zm-32.933,49.395c-1.6,0-3.212.05-4.815-.019-.964-.041-1.309.23-1.288,1.249.063,3.16.054,6.322,0,9.482-.015.9.192,1.22,1.155,1.2,3.21-.061,6.421-.048,9.631-.006.864.011,1.251-.149,1.232-1.139q-.091-4.815,0-9.632c.017-.987-.392-1.177-1.251-1.15C-483.341,1823.487-484.9,1823.451-486.453,1823.451Zm26.827,6c0,1.606.023,3.212-.01,4.817-.015.707.089,1.1.958,1.093,3.361-.043,6.723-.032,10.084-.006.7.005.971-.2.964-.934q-.047-4.967,0-9.935c.008-.782-.256-1.052-1.038-1.045q-4.966.044-9.934,0c-.779-.007-1.059.256-1.038,1.043C-459.594,1826.137-459.625,1827.793-459.626,1829.449Zm-26.891-43.514c1.555,0,3.111-.042,4.663.016.926.035,1.344-.169,1.322-1.228-.068-3.158-.053-6.319-.006-9.478.013-.9-.213-1.226-1.165-1.21q-4.888.082-9.778,0c-.9-.013-1.078.321-1.068,1.134.039,3.209.053,6.42-.006,9.629-.018.977.35,1.181,1.225,1.151C-489.728,1785.9-488.122,1785.935-486.517,1785.935Zm22.362,43.515c0-1.655-.031-3.311.014-4.965.021-.769-.213-1.057-1.015-1.048-3.31.036-6.62.03-9.93,0-.717-.005-.957.256-.951.963q.036,5.04,0,10.081c0,.648.22.871.869.866q5.039-.035,10.08,0c.715.006.965-.217.946-.94C-464.183,1832.761-464.155,1831.1-464.155,1829.45Zm32.913.026c0-1.605-.039-3.211.015-4.814.03-.871-.17-1.25-1.151-1.232-3.208.058-6.419.045-9.628.007-.83-.01-1.138.222-1.127,1.094.044,3.259.035,6.52,0,9.78-.007.749.167,1.061.992,1.05q4.964-.063,9.929,0c.844.011.994-.34.977-1.069C-431.269,1832.686-431.243,1831.081-431.242,1829.476Z" transform="translate(-20.343 -14.399)" fill="#020303"/>
    <path id="Trazado_148200" data-name="Trazado 148200" d="M-473.474,2076.656c2.564,0,5.128-.015,7.692,0,1.772.013,2.756.869,2.719,2.3-.035,1.351-1.025,2.211-2.691,2.218q-7.767.032-15.536,0c-1.746-.007-2.757-.919-2.722-2.339.034-1.361,1-2.164,2.694-2.177C-478.7,2076.642-476.088,2076.656-473.474,2076.656Z" transform="translate(-37.934 -207.518)" fill="#020303"/>
    <path id="Trazado_148201" data-name="Trazado 148201" d="M-473.457,2056.858c-2.614,0-5.229.013-7.843,0-1.706-.011-2.664-.794-2.71-2.156-.048-1.419.961-2.351,2.7-2.359q7.767-.038,15.535,0c1.739.008,2.746.937,2.7,2.356-.042,1.367-.992,2.148-2.7,2.16C-468.329,2056.87-470.893,2056.858-473.457,2056.858Z" transform="translate(-37.934 -192.999)" fill="#020303"/>
    <path id="Trazado_148202" data-name="Trazado 148202" d="M-321.2,2052.34c2.227,1.217,2.38,2.792.431,4.441-5.77.024-11.54.066-17.31.058a2.146,2.146,0,0,1-2.305-2.23,2.241,2.241,0,0,1,2.476-2.263c3.562-.047,7.126-.018,10.689-.017Q-324.211,2052.329-321.2,2052.34Z" transform="translate(-123.642 -192.998)" fill="#020303"/>
    <path id="Trazado_148203" data-name="Trazado 148203" d="M-320.772,2076.735c1.946,1.633,1.794,3.222-.424,4.44l-16.109.008c-.251,0-.5.013-.752-.01a2.269,2.269,0,0,1-2.329-2.263,2.2,2.2,0,0,1,2.454-2.245c4.517-.028,9.033-.017,13.55-.009C-323.178,2076.66-321.975,2076.708-320.772,2076.735Z" transform="translate(-123.641 -207.517)" fill="#020303"/>
    <path id="Trazado_148204" data-name="Trazado 148204" d="M-473.443,2032.735c-2.607,0-5.213.009-7.82,0-1.741-.008-2.76-.866-2.75-2.274s1.032-2.244,2.786-2.247q7.67-.016,15.34,0c1.772,0,2.787.817,2.821,2.21.036,1.464-1,2.308-2.857,2.313C-468.429,2032.741-470.936,2032.735-473.443,2032.735Z" transform="translate(-37.934 -178.608)" fill="#020303"/>
    <path id="Trazado_148205" data-name="Trazado 148205" d="M-320.809,2028.305c1.841,1.464,1.842,2.811.006,4.289-5.829.247-11.66.081-17.489.079a2.134,2.134,0,0,1-2.095-2.3,2.229,2.229,0,0,1,2.393-2.182c4.374-.031,8.749-.024,13.123-.006A22.436,22.436,0,0,1-320.809,2028.305Z" transform="translate(-123.64 -178.577)" fill="#020303"/>
    <path id="Trazado_148206" data-name="Trazado 148206" d="M-517.985,2032.705c-1.054,0-2.111.046-3.162-.014a2.231,2.231,0,0,1-2.183-2.24,2.215,2.215,0,0,1,2.183-2.241c2.056-.067,4.116-.064,6.172-.006a2.238,2.238,0,0,1,2.261,2.322,2.254,2.254,0,0,1-2.261,2.172C-515.976,2032.747-516.981,2032.707-517.985,2032.705Z" transform="translate(-14.472 -178.582)" fill="#020303"/>
    <path id="Trazado_148207" data-name="Trazado 148207" d="M-374.51,2032.7c-1,0-2.01.044-3.011-.01a2.254,2.254,0,0,1-2.231-2.2,2.213,2.213,0,0,1,2.144-2.28c2.105-.073,4.217-.072,6.323,0a2.2,2.2,0,0,1,2.151,2.269,2.232,2.232,0,0,1-2.214,2.211C-372.4,2032.749-373.456,2032.7-374.51,2032.7Z" transform="translate(-100.149 -178.582)" fill="#020303"/>
    <path id="Trazado_148208" data-name="Trazado 148208" d="M-518.144,2056.874c-.953,0-1.907.035-2.858-.009a2.156,2.156,0,0,1-2.271-2.113,2.031,2.031,0,0,1,1.908-2.3,57.168,57.168,0,0,1,6.756,0,2,2,0,0,1,1.9,2.3,2.054,2.054,0,0,1-2.123,2.1c-1.1.046-2.206.01-3.309.01Z" transform="translate(-14.505 -193.02)" fill="#020303"/>
    <path id="Trazado_148209" data-name="Trazado 148209" d="M-374.37,2056.867c-1.053,0-2.107.031-3.159-.008a2.061,2.061,0,0,1-2.147-2.078,1.992,1.992,0,0,1,1.872-2.319,57.22,57.22,0,0,1,6.756-.014,2.042,2.042,0,0,1,1.936,2.28,2.154,2.154,0,0,1-2.249,2.137c-1,.046-2.005.009-3.009.009Z" transform="translate(-100.192 -193.021)" fill="#020303"/>
    <path id="Trazado_148210" data-name="Trazado 148210" d="M-517.992,2076.689c1.053,0,2.107-.036,3.159.008a2.058,2.058,0,0,1,2.131,2.092,2,2,0,0,1-1.887,2.31,56.219,56.219,0,0,1-6.758.006,2,2,0,0,1-1.906-2.292,2.041,2.041,0,0,1,2.1-2.112C-520.1,2076.648-519.045,2076.69-517.992,2076.689Z" transform="translate(-14.516 -207.532)" fill="#020303"/>
    <path id="Trazado_148211" data-name="Trazado 148211" d="M-374.363,2076.693c1.053,0,2.109-.046,3.158.012a2.041,2.041,0,0,1,2.078,2.135,1.982,1.982,0,0,1-1.789,2.244,31.05,31.05,0,0,1-7.046-.025,1.982,1.982,0,0,1-1.72-2.3,2.028,2.028,0,0,1,2.01-2.05c1.1-.065,2.205-.014,3.308-.014Z" transform="translate(-100.187 -207.533)" fill="#020303"/>
    <path id="Trazado_148212" data-name="Trazado 148212" d="M-223.349,1783.824c-3.715.017-7.43.011-11.145.07-.84.013-.989-.305-.982-1.052.034-3.264-.02-6.53.027-9.794a3.709,3.709,0,0,1,3.77-4.023c2.352-.091,4.712.026,7.067.053a7.259,7.259,0,0,1,1.19,4.378C-223.469,1776.911-223.381,1780.368-223.349,1783.824Z" transform="translate(-186.245 -23.926)" fill="#faf"/>
    <path id="Trazado_148213" data-name="Trazado 148213" d="M-224.863,1822.035c-5.545.126-11.09.145-16.635-.01l-.212-.256c.014-1.547-.54-3.516.2-4.522.716-.967,2.808-.287,4.292-.3,4.115-.026,8.23.023,12.345.042Q-224.866,1819.514-224.863,1822.035Z" transform="translate(-182.415 -52.412)" fill="#d1edfb"/>
    <path id="Trazado_148214" data-name="Trazado 148214" d="M-207.272,1783.95c-.032-3.456-.119-6.913-.071-10.368a7.259,7.259,0,0,0-1.19-4.378c2.335-.058,3.994,1.307,4.062,3.608.1,3.457.021,6.92.049,10.38.006.686-.29.871-.9.83C-205.972,1783.978-206.623,1783.973-207.272,1783.95Z" transform="translate(-202.322 -24.052)" fill="#faf"/>
    <path id="Trazado_148215" data-name="Trazado 148215" d="M-199.668,1822.339q0-2.521-.005-5.042c2.975-.169,2.975-.169,2.975,2.68C-196.7,1822.577-196.7,1822.577-199.668,1822.339Z" transform="translate(-207.61 -52.716)" fill="#afe2f7"/>
    <path id="Trazado_148216" data-name="Trazado 148216" d="M-241.461,1829.231l.212.256C-241.465,1829.521-241.507,1829.412-241.461,1829.231Z" transform="translate(-182.664 -59.873)" fill="#afe2f7"/>
    <path id="Trazado_148217" data-name="Trazado 148217" d="M-455.533,1764.22c1.555,0,3.112.046,4.665-.017.942-.038,1.339.2,1.319,1.239-.061,3.21-.044,6.422-.007,9.633.009.819-.195,1.151-1.084,1.138-3.26-.046-6.522-.04-9.783,0-.807.009-1.157-.161-1.144-1.066.049-3.311.043-6.623,0-9.934-.01-.826.313-1.021,1.064-1C-458.845,1764.249-457.189,1764.221-455.533,1764.22Z" transform="translate(-51.328 -21.067)" fill="#fff3c9"/>
    <path id="Trazado_148218" data-name="Trazado 148218" d="M-449.571,1851.816c0,1.656-.034,3.314.015,4.969.023.778-.219,1.049-1.019,1.04q-4.968-.056-9.938,0c-.748.007-1.063-.161-1.053-.991q.065-4.968,0-9.939c-.013-.905.346-1.082,1.15-1.074,3.212.034,6.425.052,9.636-.008,1.053-.02,1.262.408,1.226,1.337C-449.615,1848.7-449.571,1850.259-449.571,1851.816Z" transform="translate(-51.328 -69.767)" fill="#1c5c54"/>
    <path id="Trazado_148219" data-name="Trazado 148219" d="M-367.959,1974.348c0,1.6-.03,3.211.013,4.814.022.795-.154,1.189-1.065,1.177-3.309-.042-6.62-.034-9.929,0-.806.007-1.02-.315-1.014-1.072.029-3.31.037-6.62,0-9.93-.01-.836.329-.994,1.067-.988,3.31.029,6.62.034,9.929,0,.8-.009,1.04.262,1.018,1.04C-367.992,1971.036-367.959,1972.693-367.959,1974.348Z" transform="translate(-100.028 -142.887)" fill="#fff3c9"/>
    <path id="Trazado_148220" data-name="Trazado 148220" d="M-367.954,1892.8c0,1.6-.025,3.21.011,4.813.016.717-.125,1.121-.97,1.114-3.358-.03-6.718-.023-10.077,0-.7,0-.964-.249-.958-.97q.042-5.039,0-10.078c-.007-.748.281-.927.971-.922,3.359.026,6.718.037,10.076-.006.867-.011.974.38.959,1.089C-367.977,1889.494-367.954,1891.149-367.954,1892.8Z" transform="translate(-100.032 -94.198)" fill="#fff3c9"/>
    <path id="Trazado_148221" data-name="Trazado 148221" d="M-379.934,1851.8c0-1.657.025-3.313-.011-4.969-.015-.708.232-.985.95-.981q5.044.031,10.087,0c.7,0,.972.242.967.965q-.039,5.043,0,10.088c.006.726-.242.948-.953.942-3.362-.028-6.725-.038-10.087.005-.861.011-.982-.365-.966-1.083C-379.91,1855.109-379.935,1853.453-379.934,1851.8Z" transform="translate(-100.034 -69.789)" fill="#fff3c9"/>
    <path id="Trazado_148222" data-name="Trazado 148222" d="M-490.358,1851.917c0,1.656-.028,3.313.013,4.969.017.707-.2.959-.929.952q-4.967-.05-9.936,0c-.761.008-1.058-.19-1.048-1,.038-3.312.032-6.625,0-9.937-.007-.764.225-1.071,1.027-1.063q4.967.048,9.936,0c.725-.006.963.249.947.963C-490.384,1848.5-490.358,1850.21-490.358,1851.917Z" transform="translate(-27.046 -69.781)" fill="#fff3c9"/>
    <path id="Trazado_148223" data-name="Trazado 148223" d="M-408.737,1851.78c0,1.655-.046,3.313.018,4.966.034.872-.269,1.1-1.109,1.086q-4.89-.065-9.782,0c-.8.01-1.024-.253-1.016-1.03q.053-4.966,0-9.933c-.007-.78.251-1.051,1.037-1.042,3.26.032,6.522.042,9.781-.005.894-.013,1.108.325,1.083,1.144C-408.772,1848.568-408.737,1850.174-408.737,1851.78Z" transform="translate(-75.759 -69.773)" fill="#1c5c54"/>
    <path id="Trazado_148224" data-name="Trazado 148224" d="M-333.153,1857.818c-1.605,0-3.212-.033-4.815.015-.756.022-1.059-.167-1.049-.993q.065-4.965,0-9.933c-.013-.9.337-1.088,1.148-1.079q4.815.052,9.63,0c.841-.01,1.141.236,1.13,1.106-.042,3.26-.059,6.522.008,9.782.021,1.012-.39,1.147-1.236,1.12C-329.942,1857.781-331.548,1857.818-333.153,1857.818Z" transform="translate(-124.457 -69.777)" fill="#fff3c9"/>
    <path id="Trazado_148225" data-name="Trazado 148225" d="M-373.841,1805.155c1.6,0,3.21.025,4.815-.011.723-.016,1.089.128,1.078.977-.042,3.31-.03,6.621-.007,9.931,0,.684-.183,1-.927.992-3.36-.026-6.721-.031-10.081,0-.824.009-1-.332-1-1.076.029-3.261.046-6.521-.008-9.781-.016-.935.381-1.068,1.162-1.048C-377.152,1805.184-375.5,1805.155-373.841,1805.155Z" transform="translate(-100.021 -45.498)" fill="#fff3c9"/>
    <path id="Trazado_148226" data-name="Trazado 148226" d="M-455.473,1927.631c1.555,0,3.112.035,4.665-.014.859-.027,1.268.163,1.251,1.15q-.082,4.816,0,9.632c.019.99-.368,1.15-1.232,1.139-3.21-.042-6.422-.054-9.631.006-.963.018-1.17-.3-1.155-1.2.05-3.16.06-6.323,0-9.482-.021-1.018.324-1.29,1.288-1.249C-458.686,1927.681-457.078,1927.631-455.473,1927.631Z" transform="translate(-51.322 -118.579)" fill="#fff3c9"/>
    <path id="Trazado_148227" data-name="Trazado 148227" d="M-379.937,1933.646c0-1.656.031-3.312-.014-4.967-.021-.786.259-1.05,1.038-1.043q4.967.044,9.934,0c.781-.007,1.045.262,1.038,1.045q-.049,4.967,0,9.935c.007.737-.264.939-.964.934-3.361-.027-6.723-.038-10.084.006-.869.011-.973-.386-.958-1.093C-379.914,1936.858-379.937,1935.251-379.937,1933.646Z" transform="translate(-100.031 -118.595)" fill="#fff3c9"/>
    <path id="Trazado_148228" data-name="Trazado 148228" d="M-455.537,1817.024c-1.6,0-3.211-.04-4.814.016-.874.031-1.243-.173-1.225-1.151.06-3.209.046-6.42.006-9.629-.01-.814.173-1.148,1.068-1.134q4.888.074,9.778,0c.952-.016,1.178.314,1.165,1.21-.048,3.159-.062,6.32.006,9.478.023,1.059-.4,1.263-1.322,1.228C-452.426,1816.982-453.982,1817.024-455.537,1817.024Z" transform="translate(-51.323 -45.488)" fill="#fff3c9"/>
    <path id="Trazado_148229" data-name="Trazado 148229" d="M-408.731,1933.643c0,1.655-.029,3.311.013,4.965.019.723-.232.946-.946.94q-5.039-.045-10.08,0c-.649,0-.873-.218-.869-.866q.033-5.041,0-10.081c-.005-.707.234-.968.951-.963,3.31.025,6.62.031,9.93,0,.8-.009,1.036.279,1.015,1.048C-408.761,1930.332-408.731,1931.988-408.731,1933.643Z" transform="translate(-75.767 -118.592)" fill="#1c5c54"/>
    <path id="Trazado_148230" data-name="Trazado 148230" d="M-327.126,1933.657c0,1.6-.027,3.21.012,4.815.018.728-.133,1.079-.977,1.069q-4.964-.064-9.929,0c-.825.01-1-.3-.992-1.05.032-3.26.04-6.52,0-9.78-.011-.871.3-1.1,1.127-1.094,3.209.038,6.42.052,9.628-.007.98-.018,1.18.361,1.151,1.233C-327.165,1930.445-327.126,1932.052-327.126,1933.657Z" transform="translate(-124.459 -118.58)" fill="#fff3c9"/>
  </g>
</svg>
