<svg xmlns="http://www.w3.org/2000/svg" width="99.942" height="100" viewBox="0 0 99.942 100">
  <g id="Grupo_113302" data-name="Grupo 113302" transform="translate(744.175 -1618.579)">
    <path id="Trazado_102795" data-name="Trazado 102795" d="M-634.905,1672.782a1.587,1.587,0,0,1,.54,2.277,23.719,23.719,0,0,1-11.388,11.651c-.6.293-.836.588-.73,1.259a26.929,26.929,0,0,1,.274,2.829c.035.677.323.861.983.841a26.839,26.839,0,0,1,8.85.978,21.738,21.738,0,0,1,15.236,20.112q.041,2.107.01,4.215a1.467,1.467,0,0,1-1.625,1.63c-.211.008-.422,0-.632,0h-65.555c-1.891,0-2.26-.363-2.248-2.276a41.155,41.155,0,0,1,.248-6.415c.214-1.311.557-1.659,1.889-1.8a1.716,1.716,0,0,1,1.062,2.136,31.409,31.409,0,0,0-.266,4.093c-.067,1.035.2,1.335,1.3,1.333q30.307-.059,60.613-.028c2.287,0,2.287,0,2.266-2.311a18.8,18.8,0,0,0-15.867-18.514c-.648-.1-1.077-.087-1.064.769a7.025,7.025,0,0,1-.292,1.653,15.334,15.334,0,0,1-16.13,11.69,15.326,15.326,0,0,1-13.844-13.276c-.115-.835-.387-.965-1.108-.838a18.517,18.517,0,0,0-10.1,5.056,1.835,1.835,0,0,1-2.44.469c-.687-1.25-.654-1.608.35-2.573a21.474,21.474,0,0,1,14.808-6.117q1.475-.04,2.951.005c.449.014.631-.156.668-.584.1-1.154.191-2.311.346-3.459.081-.606-.346-.678-.709-.859a23.7,23.7,0,0,1-12.687-15.2,28.624,28.624,0,0,1-.916-6.66.866.866,0,0,0-.725-.94,7.632,7.632,0,0,1-3.071-12.8,1.267,1.267,0,0,0,.352-1.536c-3.319-10.335,1.026-22.436,10.121-27.47,8.794-4.867,21.812-5.342,30.926,2.491a1.123,1.123,0,0,0,.817.377c5-.151,8.447,2.446,10.955,6.446,2.781,4.436,3.272,9.406,2.952,14.5a19.367,19.367,0,0,1-.294,2.615,4.983,4.983,0,0,0,.783,4.064,7.472,7.472,0,0,1-4.251,11.335c-.455.143-.637.324-.639.784,0,.491-.071.981-.1,1.472-.083,1.383-.308,1.643-1.7,1.954-1.119-.414-1.339-1.26-1.247-2.355a71.384,71.384,0,0,0-.788-15.417.942.942,0,0,0-.859-.952,22.256,22.256,0,0,1-10.508-5.451,1.207,1.207,0,0,0-1.571-.213c-1.107.523-2.257.952-3.382,1.438a1.638,1.638,0,0,1-2.348-.649c-.281-1.1.249-1.709,1.22-2.1,1.493-.609,2.983-1.231,4.452-1.9,1.44-.653,1.609-.638,2.759.482a20.038,20.038,0,0,0,10.83,5.665c1.113.187,1.963.507,2.178,1.85.135.847,1.08.577,1.695.656s.462-.476.518-.818a27.46,27.46,0,0,0-.018-9.521c-.646-3.472-1.971-6.609-4.785-8.891-1.817-1.473-3.845-2.457-6.312-1.892a1.745,1.745,0,0,1-1.685-.652,15.6,15.6,0,0,0-2.967-2.346c-5.813-3.6-12.067-4.218-18.64-2.8a19.125,19.125,0,0,0-9.795,4.789c-6.078,6.016-7.509,13.288-5.552,21.41.077.321.123.76.625.682.46-.072.968-.023,1.182-.657.5-1.487.7-1.594,2.253-1.62a68.881,68.881,0,0,0,14.475-1.8,2.122,2.122,0,0,1,2.579.787c-.153,1.527-.355,1.73-1.847,2.086a78.366,78.366,0,0,1-12.48,1.822c-2.153.158-2.22.147-2.489,2.278a62.174,62.174,0,0,0-.336,16.374,20.967,20.967,0,0,0,24.571,17.336,20.7,20.7,0,0,0,15.158-11.84C-636.52,1672.724-636.1,1672.5-634.905,1672.782Zm-14.048,19.943c-.1-.918-.283-2.417-.413-3.92-.045-.522-.184-.631-.707-.5a23.334,23.334,0,0,1-12.174-.027c-.527-.143-.659.025-.7.53-.117,1.469-.344,2.931-.421,4.4a7.159,7.159,0,0,0,7.16,7.683C-652,1700.919-648.782,1697.56-648.953,1692.725Zm-7.287,13.219a12.194,12.194,0,0,0,12.205-10.257c.068-.366.449-1.059-.294-1.062-.6,0-1.54-.638-1.766.729a9.865,9.865,0,0,1-4.378,6.795c-6.162,4.152-14.29.646-15.756-6.839-.253-1.292-1.112-.641-1.7-.7-.737-.075-.441.577-.389.917A12.241,12.241,0,0,0-656.24,1705.944Zm27.158-49.89a4.345,4.345,0,0,0-2.759-3.77c-.759-.291-1.016-.115-.9.7a71.483,71.483,0,0,1,.585,7.417c.026.716.3.642.746.379C-629.9,1659.893-629.118,1658.579-629.082,1656.054Zm-51.136,4.958c.164-2.759.277-5.448.651-8.113.12-.851-.257-.85-.888-.619a4.522,4.522,0,0,0-2.764,4.312A4.3,4.3,0,0,0-680.218,1661.012Z" transform="translate(-38.05)" fill="#091922"/>
    <path id="Trazado_102796" data-name="Trazado 102796" d="M-599.349,1736.519c-1.2-.28-1.615-.058-2.2,1.161a20.7,20.7,0,0,1-15.158,11.84,20.967,20.967,0,0,1-24.571-17.336,62.173,62.173,0,0,1,.336-16.373c.269-2.13.336-2.12,2.489-2.278a78.336,78.336,0,0,0,12.48-1.822c1.492-.355,1.694-.558,1.847-2.086a11.264,11.264,0,0,0,1.114-.2c1.3-.361,2.583-.745,3.874-1.121a1.638,1.638,0,0,0,2.348.649c1.125-.486,2.275-.915,3.382-1.438a1.208,1.208,0,0,1,1.571.213,22.256,22.256,0,0,0,10.508,5.451.942.942,0,0,1,.859.952,71.389,71.389,0,0,1,.788,15.417c-.091,1.095.128,1.941,1.247,2.355C-598.427,1733.5-599.154,1734.959-599.349,1736.519Zm-11.756,3.313c0-.7-.349-1.148-1.231-1.519a22.014,22.014,0,0,0-10.721-1.456,19.249,19.249,0,0,0-6.072,1.586,1.436,1.436,0,0,0-.895,1.88,1.468,1.468,0,0,0,1.989.85c.2-.062.393-.149.587-.228a19.032,19.032,0,0,1,9.5-1.08,18.269,18.269,0,0,1,4.649,1.25A1.47,1.47,0,0,0-611.1,1739.831Zm.062-18.719c.639-.455,1.19-.81,1.7-1.218a1.394,1.394,0,0,0,.341-2.043,1.343,1.343,0,0,0-2.025-.356c-1.34.894-2.678,1.8-3.972,2.753a1.452,1.452,0,0,0,.378,2.693c1.722.683,3.465,1.315,5.211,1.935a1.5,1.5,0,0,0,2.042-.744,1.483,1.483,0,0,0-.992-2.008C-609.2,1721.779-610.055,1721.483-611.043,1721.112Zm-19.082,0c-1.006.375-1.863.672-2.7,1.013a1.486,1.486,0,0,0-1.006,2.006,1.5,1.5,0,0,0,2.042.754c1.749-.619,3.494-1.253,5.217-1.939a1.456,1.456,0,0,0,.382-2.7c-1.269-.937-2.577-1.823-3.894-2.692a1.44,1.44,0,0,0-2.118.356,1.482,1.482,0,0,0,.507,2.1C-631.227,1720.361-630.734,1720.683-630.125,1721.107Z" transform="translate(-73.607 -63.736)" fill="#f6af97"/>
    <path id="Trazado_102797" data-name="Trazado 102797" d="M-679.462,1894.474a1.834,1.834,0,0,0,2.44-.469,18.517,18.517,0,0,1,10.1-5.056c.721-.127.993,0,1.108.838a15.325,15.325,0,0,0,13.844,13.275,15.334,15.334,0,0,0,16.13-11.69,7.021,7.021,0,0,0,.292-1.653c-.013-.856.416-.872,1.064-.769a18.8,18.8,0,0,1,15.867,18.514c.021,2.311.021,2.311-2.266,2.311q-30.307,0-60.613.028c-1.1,0-1.363-.3-1.3-1.333a31.425,31.425,0,0,1,.266-4.093,1.716,1.716,0,0,0-1.062-2.135l.485-1.564a1.751,1.751,0,0,0,2.141-1.2,11.275,11.275,0,0,1,.95-1.738,1.74,1.74,0,0,0-.171-2.448Zm51.742-.068a1.42,1.42,0,0,0-1.228.893,1.427,1.427,0,0,0,.4,1.712,20.559,20.559,0,0,1,2.474,2.7,1.445,1.445,0,0,0,2.117.332,1.41,1.41,0,0,0,.247-2.054,16.04,16.04,0,0,0-2.881-3.171A1.576,1.576,0,0,0-627.72,1894.406Z" transform="translate(-43.514 -194.153)" fill="#fa5dfa"/>
    <path id="Trazado_102798" data-name="Trazado 102798" d="M-744.175,1668.459a1.49,1.49,0,0,1,2.285-1.342c1.994,1.019,3.986,2.045,5.926,3.161.716.411,1.051.248,1.526-.322,1.911-2.293,1.929-2.276,4.543-.839,1.472.809,2.952,1.6,4.421,2.418,1.021.567,1.337,1.324.923,2.13-.442.861-1.282,1.038-2.347.463-1.447-.782-2.893-1.567-4.317-2.388-.443-.255-.757-.29-1.033.179a1.351,1.351,0,0,1-.136.16c-2.134,2.576-2.01,2.36-4.822.864q-2.965-1.578-5.933-3.149A1.617,1.617,0,0,1-744.175,1668.459Z" transform="translate(0 -34.709)" fill="#091922"/>
    <path id="Trazado_102799" data-name="Trazado 102799" d="M-449.435,1674.02c-.8.03-1.183-.56-1.616-1.057-1.339-1.537-1.338-1.54-3.115-.565-1.105.606-2.2,1.234-3.315,1.819a1.471,1.471,0,0,1-2.174-.509c-.422-.785-.151-1.545.8-2.077,1.954-1.1,3.923-2.168,5.881-3.258a1.612,1.612,0,0,1,2.238.414c.548.627.97,1.681,1.707,1.745.708.062,1.488-.649,2.228-1.037,1.457-.765,2.9-1.552,4.364-2.308,1-.517,1.82-.312,2.242.516.4.779.112,1.558-.844,2.073-2.5,1.346-5.007,2.663-7.514,3.988A1.494,1.494,0,0,1-449.435,1674.02Z" transform="translate(-204.208 -34.708)" fill="#091922"/>
    <path id="Trazado_102800" data-name="Trazado 102800" d="M-713.827,1645.037a1.663,1.663,0,0,1-.966-.365c-1.357-.872-2.721-1.734-4.072-2.617-.931-.608-1.186-1.46-.7-2.215.5-.772,1.318-.875,2.3-.263.922.575,1.853,1.141,2.737,1.771.445.317.736.277,1.04-.131a2.125,2.125,0,0,1,.222-.224c2.143-2.114,2.143-2.115,4.617-.469.613.408,1.237.8,1.832,1.235a1.418,1.418,0,0,1,.451,2.029,1.464,1.464,0,0,1-2.122.388c-.779-.453-1.5-1.444-2.284-1.316-.714.116-1.282,1.111-1.922,1.711A1.458,1.458,0,0,1-713.827,1645.037Z" transform="translate(-17.502 -14.797)" fill="#091922"/>
    <path id="Trazado_102801" data-name="Trazado 102801" d="M-448.761,1640.676a1.423,1.423,0,0,1-.7,1.222c-1.471.951-2.937,1.909-4.414,2.851a1.542,1.542,0,0,1-2.09-.287c-.6-.587-1.178-1.56-1.838-1.624s-1.4.8-2.113,1.239a1.516,1.516,0,0,1-2.229-.263c-.509-.74-.271-1.6.643-2.224.955-.651,1.931-1.271,2.885-1.924a1.558,1.558,0,0,1,2.18.176c.076.073.148.15.223.223,1.658,1.61,1.656,1.608,3.651.326a15.294,15.294,0,0,1,1.791-1.091A1.415,1.415,0,0,1-448.761,1640.676Z" transform="translate(-202.368 -14.784)" fill="#091922"/>
    <path id="Trazado_102802" data-name="Trazado 102802" d="M-681.23,1911.029a1.74,1.74,0,0,1,.171,2.448,11.275,11.275,0,0,0-.95,1.738,1.751,1.751,0,0,1-2.141,1.2c-1.037-.905-1.125-1.274-.516-2.519.336-.686.73-1.344,1.089-2.02A1.636,1.636,0,0,1-681.23,1911.029Z" transform="translate(-42.467 -209.893)" fill="#091922"/>
    <path id="Trazado_102803" data-name="Trazado 102803" d="M-630.285,1652.259c-1.291.376-2.579.76-3.874,1.121a11.264,11.264,0,0,1-1.114.2,2.123,2.123,0,0,0-2.579-.786,68.881,68.881,0,0,1-14.475,1.8c-1.557.026-1.751.133-2.253,1.62-.214.633-.721.585-1.182.657-.5.078-.548-.362-.625-.682-1.957-8.122-.526-15.394,5.552-21.41a19.125,19.125,0,0,1,9.795-4.789c6.573-1.419,12.827-.8,18.64,2.8a15.6,15.6,0,0,1,2.967,2.346,1.745,1.745,0,0,0,1.685.652c2.467-.565,4.5.419,6.312,1.892,2.814,2.282,4.139,5.419,4.785,8.891a27.463,27.463,0,0,1,.018,9.521c-.056.342.108.9-.518.818s-1.56.192-1.695-.656c-.215-1.343-1.065-1.664-2.178-1.85a20.038,20.038,0,0,1-10.83-5.665c-1.151-1.12-1.319-1.135-2.759-.482-1.469.666-2.958,1.287-4.452,1.9C-630.036,1650.549-630.566,1651.158-630.285,1652.259Z" transform="translate(-62.463 -7.69)" fill="#52787f"/>
    <path id="Trazado_102804" data-name="Trazado 102804" d="M-578.051,1870.263c.171,4.835-3.049,8.193-7.253,8.173a7.159,7.159,0,0,1-7.16-7.683c.077-1.471.3-2.933.421-4.4.04-.505.172-.673.7-.53a23.332,23.332,0,0,0,12.174.027c.522-.136.661-.027.707.5C-578.335,1867.846-578.151,1869.345-578.051,1870.263Z" transform="translate(-108.952 -177.538)" fill="#de8a86"/>
    <path id="Trazado_102805" data-name="Trazado 102805" d="M-598.186,1899.392a12.241,12.241,0,0,1-12.076-10.418c-.052-.34-.349-.991.389-.917.587.06,1.446-.591,1.7.7,1.466,7.485,9.594,10.992,15.756,6.839a9.865,9.865,0,0,0,4.378-6.8c.226-1.368,1.171-.731,1.766-.729.743,0,.362.7.294,1.061A12.2,12.2,0,0,1-598.186,1899.392Z" transform="translate(-96.104 -193.447)" fill="#fa5dfa"/>
    <path id="Trazado_102806" data-name="Trazado 102806" d="M-480.161,1741.629c-.036,2.525-.817,3.839-2.328,4.727-.448.263-.719.337-.746-.379a71.474,71.474,0,0,0-.585-7.417c-.116-.816.141-.992.9-.7A4.345,4.345,0,0,1-480.161,1741.629Z" transform="translate(-186.972 -85.574)" fill="#de8a86"/>
    <path id="Trazado_102807" data-name="Trazado 102807" d="M-659.887,1746.575a4.3,4.3,0,0,1-3-4.42,4.521,4.521,0,0,1,2.764-4.312c.631-.231,1.007-.231.888.619C-659.61,1741.128-659.723,1743.816-659.887,1746.575Z" transform="translate(-58.382 -85.563)" fill="#de8a86"/>
    <path id="Trazado_102808" data-name="Trazado 102808" d="M-581.588,1814.806a1.47,1.47,0,0,1-2.192,1.282,18.273,18.273,0,0,0-4.649-1.249,19.031,19.031,0,0,0-9.5,1.08c-.194.079-.387.166-.587.228a1.469,1.469,0,0,1-1.989-.849,1.437,1.437,0,0,1,.895-1.88,19.246,19.246,0,0,1,6.072-1.586,22.013,22.013,0,0,1,10.721,1.456C-581.937,1813.658-581.585,1814.1-581.588,1814.806Z" transform="translate(-103.124 -138.711)" fill="#091922"/>
    <path id="Trazado_102809" data-name="Trazado 102809" d="M-544.957,1746.256c.987.371,1.844.667,2.68,1.013a1.483,1.483,0,0,1,.992,2.008,1.5,1.5,0,0,1-2.042.744c-1.746-.62-3.489-1.253-5.211-1.935a1.452,1.452,0,0,1-.378-2.693c1.295-.958,2.632-1.859,3.972-2.753a1.343,1.343,0,0,1,2.025.356,1.394,1.394,0,0,1-.341,2.043C-543.768,1745.446-544.318,1745.8-544.957,1746.256Z" transform="translate(-139.693 -88.88)" fill="#091922"/>
    <path id="Trazado_102810" data-name="Trazado 102810" d="M-610.41,1746.4c-.609-.424-1.1-.746-1.572-1.1a1.482,1.482,0,0,1-.507-2.1,1.44,1.44,0,0,1,2.118-.356c1.317.868,2.625,1.755,3.894,2.692a1.456,1.456,0,0,1-.382,2.7c-1.723.686-3.469,1.32-5.217,1.939a1.5,1.5,0,0,1-2.042-.754,1.486,1.486,0,0,1,1.006-2.006C-612.273,1747.068-611.416,1746.771-610.41,1746.4Z" transform="translate(-93.322 -89.025)" fill="#091922"/>
    <path id="Trazado_102811" data-name="Trazado 102811" d="M-488.786,1908.422a1.576,1.576,0,0,1,1.129.41,16.039,16.039,0,0,1,2.881,3.171,1.41,1.41,0,0,1-.247,2.054,1.445,1.445,0,0,1-2.117-.332,20.563,20.563,0,0,0-2.474-2.7,1.427,1.427,0,0,1-.4-1.712A1.42,1.42,0,0,1-488.786,1908.422Z" transform="translate(-182.448 -208.169)" fill="#091922"/>
  </g>
</svg>
