<svg xmlns="http://www.w3.org/2000/svg" width="99.956" height="100" viewBox="0 0 99.956 100">
  <g id="Grupo_113300" data-name="Grupo 113300" transform="translate(615.401 -1491.094)">
    <path id="Trazado_102760" data-name="Trazado 102760" d="M-531.006,1591.076c-5.608,0-11.215-.015-16.823.018-.711,0-.886-.174-.874-.878.045-2.686,0-5.373.035-8.058.009-.634-.165-.783-.779-.767-2.28.058-4.569.137-6.686-.976a9.325,9.325,0,0,1-5.412-8.439c-.111-4.732-.1-9.47-.005-14.2a18.154,18.154,0,0,1,16.106-17.284c1.935-.188,3.857-.5,5.789-.72.494-.055.611-.215.665-.719.209-1.941-.147-3.378-2.081-4.507a11.37,11.37,0,0,1-4.481-5.56,1.036,1.036,0,0,0-1.163-.78,6.4,6.4,0,0,1-5.671-9.994c.344-.5.123-.907.015-1.326a27.876,27.876,0,0,1-1.151-6.823,18.826,18.826,0,0,1,18.635-18.9,84.774,84.774,0,0,1,10.364.18c7.968.93,14.991,8.035,15.965,16a23.666,23.666,0,0,1-.931,9.339,2.262,2.262,0,0,0,.221,1.953,6.353,6.353,0,0,1-5.415,9.547,1.776,1.776,0,0,0-1.9,1.246,14.112,14.112,0,0,1-5.71,6.2,1.059,1.059,0,0,0-.614,1.1,19.883,19.883,0,0,1,0,2.316c-.032.521.158.642.652.714,2.685.4,5.407.541,8.061,1.149a18.092,18.092,0,0,1,13.844,17.07c.066,4.6.051,9.2.009,13.8a9.652,9.652,0,0,1-9.606,9.624c-.839.014-1.682.046-2.517-.011-.622-.042-.785.141-.776.769.038,2.686-.011,5.373.035,8.058.012.709-.171.879-.877.875C-519.723,1591.062-525.364,1591.076-531.006,1591.076Zm-6.973-37.847c-1.324-2.651-2.6-5.195-3.866-7.739-1.017-2.036-1.025-2.1-3.318-1.763a14.672,14.672,0,0,0-12.39,9.982c-.959,2.545-.8,5.212-.811,7.861,0,.629.4.489.739.49,2.719.005,5.439-.026,8.158.022.715.012.818-.255.794-.862-.041-1.073-.012-2.148-.012-3.223,0-2.4,0-2.37,2.365-2.4.714-.009.884.186.876.886-.037,3.692.011,7.386-.039,11.078-.011.82.242.983,1,.967,2.282-.048,4.566-.037,6.848,0a1.435,1.435,0,0,0,1.31-.667,6.092,6.092,0,0,1,6.489-2.389,6.906,6.906,0,0,1,3.737,2.409,1.869,1.869,0,0,0,1.576.647q3.625-.052,7.251,0c.644.01.845-.147.837-.82-.037-3.223-.016-6.446-.016-9.668,0-2.5,0-2.478,2.528-2.437.589.01.719.195.708.744-.032,1.678,0,3.357-.022,5.035-.008.5.085.7.649.7,2.82-.029,5.64-.015,8.46-.011.322,0,.581.015.578-.452-.016-2.58.156-5.179-.74-7.671a14.644,14.644,0,0,0-12.517-10.222c-2.232-.318-2.24-.269-3.241,1.733-1.287,2.572-2.572,5.145-3.885,7.773-2.16-1.62-4.262-3.169-6.328-4.765a.917.917,0,0,0-1.361-.022C-533.683,1550.046-535.795,1551.592-537.979,1553.228Zm7.418-58.855c-1.74,0-3.118-.037-4.492.007a14.978,14.978,0,0,0-10.346,4.285c-4.581,4.494-5.855,9.913-4.171,16.058.09.329-.139.978.625.91,1.6-.144,1.856-.31,1.872-1.262a7.066,7.066,0,0,1,5.094-6.839,8.047,8.047,0,0,1,5.294.506,36.813,36.813,0,0,0,13.974,2.436,4.85,4.85,0,0,0,4.647-4.768,4.886,4.886,0,0,0-4.649-4.883,4.929,4.929,0,0,0-5.014,4.41c-.057.655.321,1.565-.2,1.9s-1.359.11-2.059.129c-.168,0-.336-.01-.5,0-.351.019-.445-.161-.472-.487a8.138,8.138,0,0,1,10.351-8.84,8.021,8.021,0,0,1,4.743,11.591,1.381,1.381,0,0,0-.031,1.551,8.664,8.664,0,0,1,1.02,3.549c.044.478.149.664.676.743,1.65.247,1.644.284,2.051-1.363.008-.032.024-.063.032-.1a15.617,15.617,0,0,0-11.109-19.016C-525.761,1494.187-528.349,1494.409-530.561,1494.373Zm-13.285,24.266c0,1.309-.031,2.619.006,3.928a12.069,12.069,0,0,0,4.708,9.491c2.809,2.252,6.086,2.782,9.569,2.594a12.217,12.217,0,0,0,11.308-10.249,67.448,67.448,0,0,0,.146-9.653,6.375,6.375,0,0,0-.4-1.654c-.112-.389-.306-.514-.73-.274a6.259,6.259,0,0,1-2.078.721,25.408,25.408,0,0,1-6.919-.139,42.66,42.66,0,0,1-10.395-2.624,3.763,3.763,0,0,0-5.215,3.631C-543.862,1515.82-543.848,1517.23-543.846,1518.64Zm5.492,59.54c4.6,0,9.2.013,13.8-.006a3.231,3.231,0,0,0,3.264-2.94,3.232,3.232,0,0,0-2.613-3.437,7.205,7.205,0,0,0-1.806-.051,1.958,1.958,0,0,1-1.835-.752,16.009,16.009,0,0,0-1.343-1.36c-1.852-1.8-4.157-1.455-5.257.871a1.874,1.874,0,0,1-2.023,1.257c-4.464-.069-8.929-.029-13.393-.029-2.373,0-2.349,0-2.359-2.4,0-.639.141-.843.817-.84,2.567.009,2.55-.018,2.437-2.606-.022-.493-.167-.611-.635-.608-2.786.019-5.572.027-8.358-.005-.6-.007-.713.2-.7.744.031,1.778.008,3.558.012,5.337a6.457,6.457,0,0,0,6.808,6.827Q-544.95,1578.189-538.354,1578.18Zm7.293,9.671c4.6,0,9.193-.012,13.789.014.638,0,.862-.136.84-.816-.052-1.642-.04-3.288,0-4.931.012-.568-.152-.726-.723-.725q-13.789.026-27.579,0c-.552,0-.75.125-.736.712.04,1.61.058,3.222-.006,4.83-.029.754.175.941.931.935C-540.053,1587.831-535.557,1587.851-531.061,1587.851Zm12.188-9.67h.88c2.786,0,5.574.059,8.357-.028a6.377,6.377,0,0,0,6.068-6.22c.047-1.979-.009-3.961.027-5.94.011-.576-.164-.728-.728-.72-2.181.031-4.363.013-6.545.013-2.449,0-2.418,0-2.431,2.433,0,.7.232.807.852.8,2.479-.007,2.463.013,2.405,2.54-.012.513-.12.7-.665.682-1.509-.037-3.02-.013-4.531-.013h-3.7C-517.794,1574.445-517.793,1575.411-518.873,1578.181Zm-16.917-40.867c0,.853.028,1.655-.011,2.454a.98.98,0,0,0,.488.906c1.318.975,2.638,1.947,3.935,2.949a.585.585,0,0,0,.861-.011c1.324-1.022,2.665-2.022,4.013-3.013a.814.814,0,0,0,.392-.745c-.02-.832-.006-1.665-.006-2.545A20,20,0,0,1-535.789,1537.314Zm-11.283-15.961c0-.737-.024-1.475.009-2.211.022-.489-.113-.65-.622-.551a3.307,3.307,0,0,0-2.609,3.256,3.309,3.309,0,0,0,2.758,3.127c.519.07.768-.041.633-.618A13.821,13.821,0,0,1-547.072,1521.353Zm35.456.411a3.308,3.308,0,0,0-2.493-3.142c-.6-.155-.736.011-.741.6a29.06,29.06,0,0,1-.166,5.212c-.112.588.209.585.625.536A3.283,3.283,0,0,0-511.616,1521.765Zm-27.809,21.3c.8,1.607,1.616,3.209,2.4,4.823.232.475.458.224.7.046.725-.539,1.43-1.107,2.175-1.618.5-.341.3-.525-.058-.786-.868-.627-1.762-1.229-2.563-1.935A2.446,2.446,0,0,0-539.425,1543.067Zm16.994-.1c-.75.064-1.362-.361-1.967.1q-1.68,1.275-3.377,2.527c-.278.206-.474.362-.061.654.793.56,1.561,1.154,2.336,1.739.247.187.429.281.614-.1C-524.1,1546.278-523.285,1544.676-522.431,1542.97Z" transform="translate(-39.296 0)" fill="#020202"/>
    <path id="Trazado_102761" data-name="Trazado 102761" d="M-351.954,1555.384c0-3.692-.006-7.385,0-11.077a4.84,4.84,0,0,1,5.179-5.143q9.315-.008,18.629,0a4.844,4.844,0,0,1,5.2,5.223q.009,7.7,0,15.407a4.845,4.845,0,0,1-5.169,5.156c-3.827.007-7.654.044-11.479-.022a2.3,2.3,0,0,0-2.487,1.567,21.965,21.965,0,0,1-1.253,2.515,4.511,4.511,0,0,1-5.13,2.234,4.537,4.537,0,0,1-3.487-4.481C-351.968,1562.97-351.954,1559.177-351.954,1555.384Zm3.224-.071c0,3.76.006,7.52,0,11.279a1.4,1.4,0,0,0,1.046,1.525,1.342,1.342,0,0,0,1.63-.85c.42-.838.857-1.667,1.263-2.512a4.976,4.976,0,0,1,4.891-3.035c3.894.025,7.788.01,11.682.005,1.507,0,2.054-.552,2.055-2.068q.006-7.6,0-15.207c0-1.514-.548-2.061-2.059-2.062q-9.215-.006-18.43,0c-1.522,0-2.07.542-2.072,2.048Q-348.736,1549.874-348.73,1555.313Z" transform="translate(-192.508 -35.124)" fill="#020202"/>
    <path id="Trazado_102762" data-name="Trazado 102762" d="M-613.05,1740.351c-2.352,0-2.317,0-2.351-2.395-.01-.744.235-.887.9-.844.9.057,1.807.021,2.711.013a1.746,1.746,0,0,0,2-1.552c.156-.58.262-1.178.464-1.741a4.853,4.853,0,0,1,4.665-3.165c.42.015.612.1.571.553-.036.4-.011.8-.007,1.2.009.791.266,1.7-1.125,1.56-.442-.045-.826.4-1.037.852a3.6,3.6,0,0,0-.189.57C-607.6,1739.548-608.675,1740.351-613.05,1740.351Z" transform="translate(0 -175.064)" fill="#020202"/>
    <path id="Trazado_102763" data-name="Trazado 102763" d="M-313.237,1740.2c-.6,0-1.211.031-1.813-.005a4.851,4.851,0,0,1-4.35-3.611c-.155-.548-.264-1.109-.427-1.653a1.425,1.425,0,0,0-1.473-1.139c-.74.042-.818-.29-.768-.87.034-.4.006-.805.006-1.208,0-1.329.005-1.36,1.341-1.136a4.807,4.807,0,0,1,4.053,3.58c.127.415.189.85.3,1.271a1.738,1.738,0,0,0,2,1.556c1.007.008,2.015.02,3.022-.007.424-.011.644.093.569.552a.5.5,0,0,0,0,.1C-310.684,1740.209-310.684,1740.209-313.237,1740.2Z" transform="translate(-214.341 -174.922)" fill="#020202"/>
    <path id="Trazado_102764" data-name="Trazado 102764" d="M-613,1788.24c-2.384,0-2.355,0-2.386-2.355-.009-.683.13-.943.86-.886.9.07,1.807.022,2.711.016a1.774,1.774,0,0,0,2.053-1.611c.143-.549.248-1.111.437-1.644a4.845,4.845,0,0,1,4.637-3.2c.483.008.652.132.611.616a11.368,11.368,0,0,0,0,1.406c.028.707.157,1.374-.991,1.275a1.317,1.317,0,0,0-1.255,1.122c-.132.483-.253.969-.379,1.454a4.842,4.842,0,0,1-4.887,3.811C-612.065,1788.244-612.534,1788.24-613,1788.24Z" transform="translate(-0.009 -210.059)" fill="#020202"/>
    <path id="Trazado_102765" data-name="Trazado 102765" d="M-313.293,1788.218c-.5,0-1.008.008-1.511,0a4.846,4.846,0,0,1-4.674-3.594c-.138-.482-.239-.975-.362-1.463a1.593,1.593,0,0,0-1.718-1.373c-.512.022-.634-.153-.6-.624a6.663,6.663,0,0,0-.007-1.608c-.178-1.015.36-1.1,1.127-1a4.78,4.78,0,0,1,4.1,3.106,10.841,10.841,0,0,1,.413,1.448c.4,1.616.741,1.882,2.437,1.883.873,0,1.747.029,2.619-.011.5-.023.674.152.6.625a.566.566,0,0,0,0,.1C-310.8,1788.218-310.8,1788.218-313.293,1788.218Z" transform="translate(-214.255 -210.037)" fill="#020202"/>
    <path id="Trazado_102766" data-name="Trazado 102766" d="M-598.258,1828a18.573,18.573,0,0,1-1.318-2.459c-.323-.57.253-.585.52-.731a22.141,22.141,0,0,1,2.328-1.164,3.59,3.59,0,0,0,2.619-3.468c.117-2.177,1.59-3.591,3.558-4.474.349-.157.531-.153.68.22.123.309.3.6.444.9.227.48.643.977.612,1.442-.033.482-.785.5-1.174.8a2.372,2.372,0,0,0-1,1.876,5.572,5.572,0,0,1-3.4,5.137c-1.11.539-2.207,1.106-3.311,1.659C-597.848,1827.81-598,1827.88-598.258,1828Z" transform="translate(-11.494 -237.136)" fill="#020202"/>
    <path id="Trazado_102767" data-name="Trazado 102767" d="M-334.627,1815.452c.34.178.7.354,1.049.552a5.29,5.29,0,0,1,2.841,4.552,2.649,2.649,0,0,0,1.648,2.514c1.09.505,2.144,1.088,3.234,1.593.516.239.69.437.4,1.033-1.1,2.244-1.077,2.259-3.286,1.151-.806-.4-1.626-.786-2.4-1.238a5.239,5.239,0,0,1-2.756-4.5,2.511,2.511,0,0,0-1.658-2.493c-.666-.255-.669-.581-.344-1.122s.571-1.133.868-1.694C-334.956,1815.646-334.937,1815.381-334.627,1815.452Z" transform="translate(-204.083 -237.013)" fill="#020202"/>
    <path id="Trazado_102768" data-name="Trazado 102768" d="M-529.134,1695.651c2.184-1.636,4.3-3.183,6.359-4.79a.917.917,0,0,1,1.361.022c2.066,1.6,4.168,3.145,6.328,4.765,1.313-2.628,2.6-5.2,3.885-7.773,1-2,1.009-2.05,3.241-1.733a14.644,14.644,0,0,1,12.517,10.222c.9,2.492.724,5.09.74,7.671,0,.467-.257.453-.578.452-2.82,0-5.64-.018-8.46.012-.564.006-.656-.2-.649-.7.026-1.678-.011-3.358.022-5.035.011-.549-.119-.734-.708-.744-2.528-.041-2.528-.063-2.528,2.437,0,3.223-.02,6.446.016,9.668.008.673-.194.829-.837.82q-3.625-.056-7.251,0a1.869,1.869,0,0,1-1.576-.647,6.907,6.907,0,0,0-3.737-2.409,6.092,6.092,0,0,0-6.489,2.389,1.435,1.435,0,0,1-1.31.667c-2.282-.033-4.566-.044-6.848,0-.758.016-1.012-.147-1-.967.05-3.692,0-7.386.039-11.078.007-.7-.162-.9-.876-.886-2.365.03-2.365,0-2.365,2.4,0,1.074-.03,2.15.012,3.223.023.607-.079.874-.794.862-2.718-.047-5.438-.017-8.157-.022-.34,0-.742.139-.739-.49.012-2.649-.148-5.316.811-7.861a14.673,14.673,0,0,1,12.39-9.982c2.293-.333,2.3-.274,3.318,1.763C-531.729,1690.456-530.458,1693-529.134,1695.651Z" transform="translate(-48.141 -142.423)" fill="#ffce26"/>
    <path id="Trazado_102769" data-name="Trazado 102769" d="M-499.772,1503.234c2.211.036,4.8-.187,7.336.52a15.617,15.617,0,0,1,11.109,19.016c-.008.032-.024.063-.032.1-.407,1.646-.4,1.609-2.051,1.363-.527-.079-.631-.265-.676-.743a8.666,8.666,0,0,0-1.021-3.549,1.381,1.381,0,0,1,.032-1.55,8.021,8.021,0,0,0-4.743-11.592,8.138,8.138,0,0,0-10.351,8.84c.027.326.121.506.472.487.167-.009.335.006.5,0,.7-.019,1.555.2,2.059-.129s.141-1.245.2-1.9a4.929,4.929,0,0,1,5.014-4.41,4.886,4.886,0,0,1,4.649,4.883,4.85,4.85,0,0,1-4.647,4.768,36.806,36.806,0,0,1-13.974-2.436,8.048,8.048,0,0,0-5.294-.506,7.066,7.066,0,0,0-5.094,6.839c-.016.952-.277,1.118-1.872,1.262-.764.069-.535-.58-.625-.909-1.683-6.145-.41-11.564,4.171-16.058a14.977,14.977,0,0,1,10.346-4.285C-502.889,1503.2-501.512,1503.234-499.772,1503.234Z" transform="translate(-70.085 -8.861)" fill="#646c77"/>
    <path id="Trazado_102770" data-name="Trazado 102770" d="M-495.627,1571.3c0-1.41-.015-2.82,0-4.23a3.763,3.763,0,0,1,5.215-3.631,42.659,42.659,0,0,0,10.395,2.624,25.408,25.408,0,0,0,6.919.139,6.261,6.261,0,0,0,2.078-.721c.425-.24.618-.115.731.274a6.375,6.375,0,0,1,.4,1.655,67.436,67.436,0,0,1-.146,9.653,12.218,12.218,0,0,1-11.308,10.249c-3.483.189-6.76-.342-9.569-2.594a12.069,12.069,0,0,1-4.708-9.491C-495.656,1573.921-495.626,1572.611-495.627,1571.3Zm15.644,12.8a6.493,6.493,0,0,0,3.349-.9c1.658-.972,1.651-1,.341-2.335-.629-.643-1.088-1.308-2.145-.423a2.724,2.724,0,0,1-2.964.1c-.483-.228-.956-.481-1.449-.686a6.541,6.541,0,0,0-6.731.841c-.189.136-.513.319-.5.46.076.992,1.06,1.317,1.567,2,.185.251.386.539.8.189a3.49,3.49,0,0,1,4.289-.208A7.048,7.048,0,0,0-479.983,1584.1Zm-4.675-11.279c-2.23-1.487-4.32-2.872-6.4-4.275-.312-.211-.476-.2-.732.1-1.739,2.068-1.739,2.117.482,3.609a.673.673,0,0,0,.082.058c.735.343.633.606,0,1.022-2.224,1.465-2.2,1.479-.611,3.573.25.329.41.43.791.172C-488.971,1575.679-486.879,1574.3-484.659,1572.824Zm9.7,0c.326-.228.537-.38.753-.526,2.126-1.434,2.126-1.434.616-3.5a.619.619,0,0,1-.053-.085c-.2-.389-.416-.406-.784-.156q-2.9,1.975-5.839,3.9c-.481.315-.38.48.036.75,1.4.908,2.787,1.846,4.177,2.774,2.2,1.468,2.188,1.46,3.562-.77.249-.4.247-.607-.169-.862C-473.4,1573.9-474.111,1573.4-474.962,1572.827Z" transform="translate(-87.516 -52.661)" fill="#edcdb2"/>
    <path id="Trazado_102771" data-name="Trazado 102771" d="M-529.508,1779.491q-6.6,0-13.192,0a6.457,6.457,0,0,1-6.808-6.827c0-1.779.018-3.559-.012-5.337-.009-.543.106-.751.7-.744,2.786.032,5.572.024,8.358,0,.468,0,.614.115.635.608.113,2.589.13,2.615-2.437,2.607-.676,0-.819.2-.817.84.01,2.4-.014,2.4,2.359,2.4,4.464,0,8.93-.04,13.393.029a1.875,1.875,0,0,0,2.023-1.258c1.1-2.326,3.405-2.668,5.257-.871a16.044,16.044,0,0,1,1.343,1.36,1.958,1.958,0,0,0,1.835.752,7.205,7.205,0,0,1,1.806.051,3.232,3.232,0,0,1,2.613,3.437,3.231,3.231,0,0,1-3.264,2.94C-520.311,1779.5-524.91,1779.491-529.508,1779.491Z" transform="translate(-48.141 -201.31)" fill="#edcdb2"/>
    <path id="Trazado_102772" data-name="Trazado 102772" d="M-487.247,1832.91c-4.5,0-8.992-.02-13.487.02-.756.007-.96-.181-.931-.935.063-1.608.045-3.221.006-4.83-.014-.586.184-.713.736-.712q13.789.023,27.579,0c.57,0,.735.158.723.726-.036,1.643-.048,3.289,0,4.931.022.68-.2.82-.84.816C-478.054,1832.9-482.651,1832.91-487.247,1832.91Z" transform="translate(-83.109 -245.059)" fill="#ffce26"/>
    <path id="Trazado_102773" data-name="Trazado 102773" d="M-402.867,1779.5c1.079-2.77,1.079-3.736-.008-6.448h3.7c1.51,0,3.021-.024,4.531.013.546.013.653-.168.665-.682.057-2.527.074-2.547-2.405-2.54-.62,0-.856-.109-.852-.805.013-2.433-.018-2.433,2.431-2.433,2.182,0,4.364.018,6.545-.013.564-.008.739.144.728.72-.036,1.979.02,3.961-.027,5.94a6.377,6.377,0,0,1-6.068,6.22c-2.783.086-5.571.024-8.357.027Z" transform="translate(-155.301 -201.314)" fill="#edcdb2"/>
    <path id="Trazado_102774" data-name="Trazado 102774" d="M-465.706,1662.737a20,20,0,0,0,9.671-.005c0,.88-.013,1.713.006,2.546a.814.814,0,0,1-.392.744c-1.348.991-2.689,1.991-4.013,3.013a.586.586,0,0,1-.861.011c-1.3-1-2.617-1.974-3.935-2.949a.981.981,0,0,1-.488-.907C-465.678,1664.391-465.706,1663.59-465.706,1662.737Z" transform="translate(-109.379 -125.423)" fill="#edcdb2"/>
    <path id="Trazado_102775" data-name="Trazado 102775" d="M-516.32,1595.9a13.856,13.856,0,0,0,.169,3c.136.577-.114.688-.633.618a3.309,3.309,0,0,1-2.758-3.127,3.307,3.307,0,0,1,2.609-3.256c.509-.1.644.062.622.551C-516.344,1594.429-516.32,1595.167-516.32,1595.9Z" transform="translate(-70.048 -74.551)" fill="#edcdb2"/>
    <path id="Trazado_102776" data-name="Trazado 102776" d="M-385.183,1596.325a3.283,3.283,0,0,1-2.775,3.208c-.416.05-.737.052-.625-.535a29.066,29.066,0,0,0,.166-5.212c.005-.592.143-.758.741-.6A3.308,3.308,0,0,1-385.183,1596.325Z" transform="translate(-165.728 -74.56)" fill="#edcdb2"/>
    <path id="Trazado_102777" data-name="Trazado 102777" d="M-479.175,1683.629a2.446,2.446,0,0,1,2.656.53c.8.706,1.695,1.309,2.563,1.936.361.261.555.445.058.786-.745.51-1.45,1.078-2.175,1.618-.239.178-.464.428-.7-.046C-477.559,1686.839-478.372,1685.237-479.175,1683.629Z" transform="translate(-99.546 -140.562)" fill="#fad66f"/>
    <path id="Trazado_102778" data-name="Trazado 102778" d="M-431.374,1683.436c-.854,1.706-1.666,3.308-2.455,4.921-.185.38-.367.286-.614.1-.774-.585-1.543-1.179-2.336-1.739-.413-.292-.216-.448.061-.654q1.694-1.256,3.377-2.527C-432.736,1683.076-432.124,1683.5-431.374,1683.436Z" transform="translate(-130.353 -140.466)" fill="#fad66f"/>
    <path id="Trazado_102779" data-name="Trazado 102779" d="M-339.978,1564.067q0-5.438,0-10.877c0-1.505.55-2.047,2.072-2.048q9.215,0,18.43,0c1.511,0,2.058.549,2.059,2.062q.006,7.6,0,15.207c0,1.516-.548,2.066-2.055,2.068-3.894,0-7.788.02-11.682-.005a4.975,4.975,0,0,0-4.891,3.035c-.406.845-.843,1.674-1.263,2.512a1.341,1.341,0,0,1-1.63.85,1.4,1.4,0,0,1-1.046-1.525C-339.973,1571.586-339.978,1567.827-339.978,1564.067Zm11.258-11.019c-1,1.572-1.942,2.986-2.805,4.448a31.455,31.455,0,0,0-1.535,3.039,4.4,4.4,0,0,0-.381,2.833,4.844,4.844,0,0,0,6.116,3.686,4.722,4.722,0,0,0,3.041-6.4A40.878,40.878,0,0,0-328.72,1553.048Z" transform="translate(-201.259 -43.878)" fill="#bcfff7"/>
    <path id="Trazado_102780" data-name="Trazado 102780" d="M-464.911,1627.855a7.05,7.05,0,0,1-3.441-.965,3.49,3.49,0,0,0-4.289.208c-.417.35-.618.062-.8-.189-.508-.687-1.492-1.012-1.567-2-.011-.141.313-.324.5-.46a6.541,6.541,0,0,1,6.731-.841c.493.2.966.458,1.449.686a2.724,2.724,0,0,0,2.964-.1c1.057-.884,1.516-.22,2.145.424,1.309,1.339,1.317,1.363-.341,2.335A6.492,6.492,0,0,1-464.911,1627.855Z" transform="translate(-102.588 -96.414)" fill="#020202"/>
    <path id="Trazado_102781" data-name="Trazado 102781" d="M-477.6,1587.057c-2.22,1.477-4.312,2.855-6.386,4.26-.381.258-.541.158-.791-.172-1.591-2.094-1.613-2.108.611-3.573.632-.416.735-.679,0-1.022a.672.672,0,0,1-.082-.058c-2.221-1.492-2.22-1.54-.482-3.609.256-.3.419-.313.732-.1C-481.92,1584.185-479.83,1585.57-477.6,1587.057Z" transform="translate(-94.574 -66.894)" fill="#020202"/>
    <path id="Trazado_102782" data-name="Trazado 102782" d="M-434.125,1587.041c.851.57,1.559,1.075,2.3,1.527.416.254.418.457.169.862-1.374,2.23-1.362,2.237-3.562.77-1.39-.928-2.774-1.866-4.177-2.774-.416-.27-.518-.435-.036-.75q2.936-1.924,5.839-3.9c.368-.25.589-.233.784.156a.621.621,0,0,0,.053.085c1.511,2.063,1.51,2.063-.616,3.5C-433.588,1586.66-433.8,1586.813-434.125,1587.041Z" transform="translate(-128.353 -66.875)" fill="#020202"/>
    <path id="Trazado_102783" data-name="Trazado 102783" d="M-311.219,1558.225a40.879,40.879,0,0,1,4.436,7.6,4.722,4.722,0,0,1-3.041,6.4,4.843,4.843,0,0,1-6.116-3.686,4.4,4.4,0,0,1,.381-2.833,31.429,31.429,0,0,1,1.535-3.038C-313.162,1561.211-312.217,1559.8-311.219,1558.225Zm0,6.072a22.64,22.64,0,0,0-1.428,2.827,1.372,1.372,0,0,0,.545,1.756,1.42,1.42,0,0,0,1.857-.039,1.353,1.353,0,0,0,.505-1.684A16.036,16.036,0,0,0-311.216,1564.3Z" transform="translate(-218.76 -49.055)" fill="#020202"/>
    <path id="Trazado_102784" data-name="Trazado 102784" d="M-302.362,1580.777a16.042,16.042,0,0,1,1.479,2.86,1.353,1.353,0,0,1-.505,1.684,1.42,1.42,0,0,1-1.857.039,1.372,1.372,0,0,1-.545-1.756A22.653,22.653,0,0,1-302.362,1580.777Z" transform="translate(-227.615 -65.535)" fill="#449a90"/>
  </g>
</svg>
