<svg xmlns="http://www.w3.org/2000/svg" width="319.31" height="379.001" viewBox="0 0 319.31 379.001">
  <g id="Grupo_115198" data-name="Grupo 115198" transform="translate(-1007.372 -5839.114)">
    <g id="Grupo_115197" data-name="Grupo 115197">
      <g id="Grupo_115196" data-name="Grupo 115196">
        <rect id="Rectángulo_37155" data-name="Rectángulo 37155" width="295" height="283" rx="20" transform="translate(1019.527 5935.115)" fill="#c7beff"/>
        <g id="Grupo_112075" data-name="Grupo 112075" transform="translate(907.215 5733.383)">
          <g id="Grupo_111677" data-name="Grupo 111677" transform="translate(100.779 164.029)">
            <g id="Grupo_111668" data-name="Grupo 111668">
              <g id="Grupo_111667" data-name="Grupo 111667">
                <path id="Trazado_102318" data-name="Trazado 102318" d="M411.495,411.647c-7.566-2.159-10.526,1.894-10.526,1.894s2.418-14.512-5.322-50.309-44.041-67.475-49.341-77.282c-5.1-9.437-10.907-48.57-13.667-68.981a31.659,31.659,0,0,0-15.968-23.5,197.088,197.088,0,0,0-20.854-9.734c1.055-.636-7.72-14.274-15.588-14.287-7.135-.011-44.044-13.781-65.411,7.867-2.963,3-7.4,17.088-7.4,17.088s-7.41,7.8-13.763,13.661-29.644,66.66-38.9,82.54-7.151,49.759-7.151,49.759c-21.7,5.293-39.1,15.4-45.579,40.28s14.755,42.728,14.755,42.728l302.7-.15C418.932,417.334,415.3,412.733,411.495,411.647Z" transform="translate(-100.791 -165.127)" fill="#ffce26"/>
              </g>
            </g>
            <g id="Grupo_111670" data-name="Grupo 111670" transform="translate(172.137 11.754)" opacity="0.5">
              <g id="Grupo_111669" data-name="Grupo 111669">
                <path id="Trazado_102319" data-name="Trazado 102319" d="M276.169,177.152c1.063-.314,15.284.292,19.175,19.843l-14.893.762Z" transform="translate(-276.169 -177.103)"/>
              </g>
            </g>
            <g id="Grupo_111672" data-name="Grupo 111672" transform="translate(217.297 186.457)" opacity="0.5">
              <g id="Grupo_111671" data-name="Grupo 111671">
                <path id="Trazado_102320" data-name="Trazado 102320" d="M389.579,380.165c-9.929-21.6-46.328-11.468-54.215-16.606-3.432-2.236-8.529-3.761-13.185-8.464l.986,12.2L327.3,427.19l69.918-.3S399.509,401.762,389.579,380.165Z" transform="translate(-322.179 -355.095)"/>
              </g>
            </g>
            <g id="Grupo_111674" data-name="Grupo 111674" transform="translate(2.791 138.676)" opacity="0.5">
              <g id="Grupo_111673" data-name="Grupo 111673">
                <path id="Trazado_102321" data-name="Trazado 102321" d="M208.56,306.414c-1.242.931-27.007,11.176-27.007,12.107s-3.415,35.39-3.415,35.39l-44.082,6.208-18.626,9.943-7.276,14.414-4.52,15.069,10.85,19.338,5.984,7.164,107.65.31V345.529s-16.6-39.115-18.078-39.115" transform="translate(-103.634 -306.414)"/>
              </g>
            </g>
            <g id="Grupo_111676" data-name="Grupo 111676" transform="translate(107.399 10.021)" opacity="0.5">
              <g id="Grupo_111675" data-name="Grupo 111675">
                <path id="Trazado_102322" data-name="Trazado 102322" d="M210.212,204.042s4.56-10.163,5.3-10.826c.348-.314,1.048-3.47,1.688-6.7a17.73,17.73,0,0,1,2.868-6.974,16.342,16.342,0,0,1,5.018-4.2h0l8.663,19.8-6.807,9.719Z" transform="translate(-210.212 -175.337)"/>
              </g>
            </g>
          </g>
          <g id="Grupo_111880" data-name="Grupo 111880" transform="translate(171.98 112.071)">
            <g id="Grupo_111679" data-name="Grupo 111679" transform="translate(25.497 81.179)">
              <g id="Grupo_111678" data-name="Grupo 111678">
                <path id="Trazado_102323" data-name="Trazado 102323" d="M300.548,198.086,280.01,194.9l-60.351,5.138s-21.583,49.6-20.294,50.979c.653.7,17.784,55.3,17.784,55.3l-1.2,44.94s-6.121,7.56-7.165,12.96c-3.292,17.019,109.611,21.1,112.382,10.981v-164.9Z" transform="translate(-199.309 -194.897)" fill="#d919d9"/>
              </g>
            </g>
            <g id="Grupo_111681" data-name="Grupo 111681" transform="translate(0 86.317)">
              <g id="Grupo_111680" data-name="Grupo 111680">
                <path id="Trazado_102324" data-name="Trazado 102324" d="M219.179,200.132s-19.029,1.929-24.232,14.676-21.2,85.561-21.2,85.561-2.376,15.824,4.272,24.321c5.663,7.239,22.977,5.687,33.366.96,17.282-7.864,30.979-60.3,30.979-60.3l7.473-18.154-28.055-9.187-12.747,27.575Z" transform="translate(-173.332 -200.132)" fill="#d919d9"/>
              </g>
            </g>
            <g id="Grupo_111683" data-name="Grupo 111683" transform="translate(78.719 82.623)">
              <g id="Grupo_111682" data-name="Grupo 111682">
                <path id="Trazado_102325" data-name="Trazado 102325" d="M289.108,196.369c1.04.259,33.981,4.877,39.964,10.338s5.27,54.124,5.27,54.124-5.256,61.351-10.2,65.338-26.587,18.7-38.731-9.124c-3.541-8.112-11.321-18.038-16.175-28.311a383.473,383.473,0,0,1-15.7-39.21L281.2,236.568l21.461,36.344-3.886-52.154Z" transform="translate(-253.533 -196.369)" fill="#d919d9"/>
              </g>
            </g>
            <g id="Grupo_111827" data-name="Grupo 111827" transform="translate(24.082)">
              <g id="Grupo_111803" data-name="Grupo 111803" transform="translate(18.413 8.671)">
                <g id="Grupo_111802" data-name="Grupo 111802">
                  <g id="Grupo_111801" data-name="Grupo 111801">
                    <g id="Grupo_111774" data-name="Grupo 111774">
                      <g id="Grupo_111773" data-name="Grupo 111773">
                        <g id="Grupo_111772" data-name="Grupo 111772">
                          <g id="Grupo_111701" data-name="Grupo 111701">
                            <g id="Grupo_111700" data-name="Grupo 111700">
                              <g id="Grupo_111699" data-name="Grupo 111699">
                                <g id="Grupo_111686" data-name="Grupo 111686">
                                  <g id="Grupo_111685" data-name="Grupo 111685">
                                    <g id="Grupo_111684" data-name="Grupo 111684">
                                      <path id="Trazado_102326" data-name="Trazado 102326" d="M217.054,155.444A29.481,29.481,0,0,1,238.819,121.9l1.479-.378c16.188-3.142,27.9,8.851,30.592,25.12L284.307,211.2a2.975,2.975,0,0,1-1.027,2.9l-31.562,25.879-7.379-33.795s-15.942,1.532-20.047-13.75C222.311,185.06,219.466,169.53,217.054,155.444Z" transform="translate(-216.627 -121.025)" fill="#ffbe9d"/>
                                    </g>
                                  </g>
                                </g>
                                <g id="Grupo_111698" data-name="Grupo 111698" transform="translate(27.579 74.167)">
                                  <g id="Grupo_111697" data-name="Grupo 111697">
                                    <g id="Grupo_111696" data-name="Grupo 111696">
                                      <g id="Grupo_111695" data-name="Grupo 111695">
                                        <g id="Grupo_111694" data-name="Grupo 111694">
                                          <g id="Grupo_111693" data-name="Grupo 111693">
                                            <g id="Grupo_111692" data-name="Grupo 111692">
                                              <g id="Grupo_111691" data-name="Grupo 111691">
                                                <g id="Grupo_111690" data-name="Grupo 111690">
                                                  <g id="Grupo_111689" data-name="Grupo 111689">
                                                    <g id="Grupo_111688" data-name="Grupo 111688">
                                                      <g id="Grupo_111687" data-name="Grupo 111687">
                                                        <path id="Trazado_102327" data-name="Trazado 102327" d="M244.726,207.6a38.374,38.374,0,0,0,18.586-11.01s-1.907,12.24-17.556,14.766Z" transform="translate(-244.726 -196.588)" fill="#eb996e"/>
                                                      </g>
                                                    </g>
                                                  </g>
                                                </g>
                                              </g>
                                            </g>
                                          </g>
                                        </g>
                                      </g>
                                    </g>
                                  </g>
                                </g>
                              </g>
                            </g>
                          </g>
                          <g id="Grupo_111771" data-name="Grupo 111771" transform="translate(4.36 31.88)">
                            <g id="Grupo_111770" data-name="Grupo 111770">
                              <g id="Grupo_111745" data-name="Grupo 111745" transform="translate(1.923 5.908)">
                                <g id="Grupo_111744" data-name="Grupo 111744">
                                  <g id="Grupo_111743" data-name="Grupo 111743">
                                    <g id="Grupo_111715" data-name="Grupo 111715" transform="translate(0 5.67)">
                                      <g id="Grupo_111714" data-name="Grupo 111714">
                                        <g id="Grupo_111713" data-name="Grupo 111713">
                                          <g id="Grupo_111712" data-name="Grupo 111712">
                                            <g id="Grupo_111711" data-name="Grupo 111711">
                                              <g id="Grupo_111710" data-name="Grupo 111710">
                                                <g id="Grupo_111709" data-name="Grupo 111709">
                                                  <g id="Grupo_111708" data-name="Grupo 111708">
                                                    <g id="Grupo_111707" data-name="Grupo 111707">
                                                      <g id="Grupo_111706" data-name="Grupo 111706">
                                                        <g id="Grupo_111705" data-name="Grupo 111705">
                                                          <g id="Grupo_111704" data-name="Grupo 111704">
                                                            <g id="Grupo_111703" data-name="Grupo 111703">
                                                              <g id="Grupo_111702" data-name="Grupo 111702">
                                                                <path id="Trazado_102328" data-name="Trazado 102328" d="M231.9,165.333c-.307-.265-1.885,1.164-4.306,1.4-2.415.268-4.314-.8-4.546-.478-.116.143.221.645,1.049,1.131a6.2,6.2,0,0,0,3.676.746,5.955,5.955,0,0,0,3.391-1.478C231.856,166.007,232.055,165.451,231.9,165.333Z" transform="translate(-223.029 -165.301)" fill="#263238"/>
                                                              </g>
                                                            </g>
                                                          </g>
                                                        </g>
                                                      </g>
                                                    </g>
                                                  </g>
                                                </g>
                                              </g>
                                            </g>
                                          </g>
                                        </g>
                                      </g>
                                    </g>
                                    <g id="Grupo_111729" data-name="Grupo 111729" transform="translate(23.487 3.042)">
                                      <g id="Grupo_111728" data-name="Grupo 111728">
                                        <g id="Grupo_111727" data-name="Grupo 111727">
                                          <g id="Grupo_111726" data-name="Grupo 111726">
                                            <g id="Grupo_111725" data-name="Grupo 111725">
                                              <g id="Grupo_111724" data-name="Grupo 111724">
                                                <g id="Grupo_111723" data-name="Grupo 111723">
                                                  <g id="Grupo_111722" data-name="Grupo 111722">
                                                    <g id="Grupo_111721" data-name="Grupo 111721">
                                                      <g id="Grupo_111720" data-name="Grupo 111720">
                                                        <g id="Grupo_111719" data-name="Grupo 111719">
                                                          <g id="Grupo_111718" data-name="Grupo 111718">
                                                            <g id="Grupo_111717" data-name="Grupo 111717">
                                                              <g id="Grupo_111716" data-name="Grupo 111716">
                                                                <path id="Trazado_102329" data-name="Trazado 102329" d="M255.468,162.639c-.355-.2-1.622,1.514-3.947,2.22-2.313.74-4.386.068-4.551.43-.085.164.342.589,1.252.9a6.206,6.206,0,0,0,3.75.006,5.961,5.961,0,0,0,3.033-2.12C255.55,163.308,255.638,162.724,255.468,162.639Z" transform="translate(-246.959 -162.623)" fill="#263238"/>
                                                              </g>
                                                            </g>
                                                          </g>
                                                        </g>
                                                      </g>
                                                    </g>
                                                  </g>
                                                </g>
                                              </g>
                                            </g>
                                          </g>
                                        </g>
                                      </g>
                                    </g>
                                    <g id="Grupo_111742" data-name="Grupo 111742" transform="translate(12.597)">
                                      <g id="Grupo_111741" data-name="Grupo 111741">
                                        <g id="Grupo_111740" data-name="Grupo 111740">
                                          <g id="Grupo_111739" data-name="Grupo 111739">
                                            <g id="Grupo_111738" data-name="Grupo 111738">
                                              <g id="Grupo_111737" data-name="Grupo 111737">
                                                <g id="Grupo_111736" data-name="Grupo 111736">
                                                  <g id="Grupo_111735" data-name="Grupo 111735">
                                                    <g id="Grupo_111734" data-name="Grupo 111734">
                                                      <g id="Grupo_111733" data-name="Grupo 111733">
                                                        <g id="Grupo_111732" data-name="Grupo 111732">
                                                          <g id="Grupo_111731" data-name="Grupo 111731">
                                                            <g id="Grupo_111730" data-name="Grupo 111730">
                                                              <path id="Trazado_102330" data-name="Trazado 102330" d="M242.383,179.427c-.023-.136-1.552-.016-4,.287-.617.092-1.217.118-1.423-.267a3.163,3.163,0,0,1-.054-1.885q.292-2.4.61-5.035c.8-7.153,1.223-12.973.935-13s-1.175,5.744-1.98,12.9q-.277,2.64-.527,5.044a3.59,3.59,0,0,0,.291,2.44,1.557,1.557,0,0,0,1.213.627,4.2,4.2,0,0,0,1.058-.119C240.925,179.931,242.409,179.564,242.383,179.427Z" transform="translate(-235.864 -159.524)" fill="#263238"/>
                                                            </g>
                                                          </g>
                                                        </g>
                                                      </g>
                                                    </g>
                                                  </g>
                                                </g>
                                              </g>
                                            </g>
                                          </g>
                                        </g>
                                      </g>
                                    </g>
                                  </g>
                                </g>
                              </g>
                              <g id="Grupo_111757" data-name="Grupo 111757" transform="translate(22.115)">
                                <g id="Grupo_111756" data-name="Grupo 111756">
                                  <g id="Grupo_111755" data-name="Grupo 111755">
                                    <g id="Grupo_111754" data-name="Grupo 111754">
                                      <g id="Grupo_111753" data-name="Grupo 111753">
                                        <g id="Grupo_111752" data-name="Grupo 111752">
                                          <g id="Grupo_111751" data-name="Grupo 111751">
                                            <g id="Grupo_111750" data-name="Grupo 111750">
                                              <g id="Grupo_111749" data-name="Grupo 111749">
                                                <g id="Grupo_111748" data-name="Grupo 111748">
                                                  <g id="Grupo_111747" data-name="Grupo 111747">
                                                    <g id="Grupo_111746" data-name="Grupo 111746">
                                                      <path id="Trazado_102331" data-name="Trazado 102331" d="M254,153.6c-.515-.478-2.532.909-5.227,1.906-2.676,1.051-5.1,1.358-5.169,2.059-.021.33.62.7,1.74.844a9.671,9.671,0,0,0,7.919-3.021C254,154.538,254.232,153.835,254,153.6Z" transform="translate(-243.602 -153.505)" fill="#263238"/>
                                                    </g>
                                                  </g>
                                                </g>
                                              </g>
                                            </g>
                                          </g>
                                        </g>
                                      </g>
                                    </g>
                                  </g>
                                </g>
                              </g>
                              <g id="Grupo_111769" data-name="Grupo 111769" transform="translate(0 4.452)">
                                <g id="Grupo_111768" data-name="Grupo 111768">
                                  <g id="Grupo_111767" data-name="Grupo 111767">
                                    <g id="Grupo_111766" data-name="Grupo 111766">
                                      <g id="Grupo_111765" data-name="Grupo 111765">
                                        <g id="Grupo_111764" data-name="Grupo 111764">
                                          <g id="Grupo_111763" data-name="Grupo 111763">
                                            <g id="Grupo_111762" data-name="Grupo 111762">
                                              <g id="Grupo_111761" data-name="Grupo 111761">
                                                <g id="Grupo_111760" data-name="Grupo 111760">
                                                  <g id="Grupo_111759" data-name="Grupo 111759">
                                                    <g id="Grupo_111758" data-name="Grupo 111758">
                                                      <path id="Trazado_102332" data-name="Trazado 102332" d="M231.08,159.364c-.436-.619-2.528-.338-4.952-.656-2.431-.247-4.415-1-4.967-.5-.246.248,0,.842.82,1.487a8.039,8.039,0,0,0,3.893,1.467,7.893,7.893,0,0,0,4.1-.539C230.909,160.187,231.27,159.663,231.08,159.364Z" transform="translate(-221.07 -158.041)" fill="#263238"/>
                                                    </g>
                                                  </g>
                                                </g>
                                              </g>
                                            </g>
                                          </g>
                                        </g>
                                      </g>
                                    </g>
                                  </g>
                                </g>
                              </g>
                            </g>
                          </g>
                        </g>
                      </g>
                    </g>
                    <g id="Grupo_111800" data-name="Grupo 111800" transform="translate(54.844 35.907)">
                      <g id="Grupo_111786" data-name="Grupo 111786">
                        <g id="Grupo_111785" data-name="Grupo 111785">
                          <g id="Grupo_111784" data-name="Grupo 111784">
                            <g id="Grupo_111783" data-name="Grupo 111783">
                              <g id="Grupo_111782" data-name="Grupo 111782">
                                <g id="Grupo_111781" data-name="Grupo 111781">
                                  <g id="Grupo_111780" data-name="Grupo 111780">
                                    <g id="Grupo_111779" data-name="Grupo 111779">
                                      <g id="Grupo_111778" data-name="Grupo 111778">
                                        <g id="Grupo_111777" data-name="Grupo 111777">
                                          <g id="Grupo_111776" data-name="Grupo 111776">
                                            <g id="Grupo_111775" data-name="Grupo 111775">
                                              <path id="Trazado_102333" data-name="Trazado 102333" d="M272.5,159.263c.233-.18,9.738-5.806,12.08,4.761s-8.749,10.738-8.835,10.438S272.5,159.263,272.5,159.263Z" transform="translate(-272.504 -157.607)" fill="#ffbe9d"/>
                                            </g>
                                          </g>
                                        </g>
                                      </g>
                                    </g>
                                  </g>
                                </g>
                              </g>
                            </g>
                          </g>
                        </g>
                      </g>
                      <g id="Grupo_111799" data-name="Grupo 111799" transform="translate(3.739 3.526)">
                        <g id="Grupo_111798" data-name="Grupo 111798">
                          <g id="Grupo_111797" data-name="Grupo 111797">
                            <g id="Grupo_111796" data-name="Grupo 111796">
                              <g id="Grupo_111795" data-name="Grupo 111795">
                                <g id="Grupo_111794" data-name="Grupo 111794">
                                  <g id="Grupo_111793" data-name="Grupo 111793">
                                    <g id="Grupo_111792" data-name="Grupo 111792">
                                      <g id="Grupo_111791" data-name="Grupo 111791">
                                        <g id="Grupo_111790" data-name="Grupo 111790">
                                          <g id="Grupo_111789" data-name="Grupo 111789">
                                            <g id="Grupo_111788" data-name="Grupo 111788">
                                              <g id="Grupo_111787" data-name="Grupo 111787">
                                                <path id="Trazado_102334" data-name="Trazado 102334" d="M277.238,170.044c.039-.044.213.087.556.162a1.889,1.889,0,0,0,1.382-.278c1.026-.657,1.572-2.637,1.2-4.553a6.219,6.219,0,0,0-1.1-2.521,2.177,2.177,0,0,0-1.7-1.106.96.96,0,0,0-.975.746c-.077.326.037.522-.015.553-.024.033-.266-.127-.278-.582a1.2,1.2,0,0,1,.269-.754,1.421,1.421,0,0,1,.959-.495,2.648,2.648,0,0,1,2.286,1.212,6.4,6.4,0,0,1,1.291,2.8c.4,2.145-.244,4.379-1.673,5.158a2.022,2.022,0,0,1-1.746.094C277.313,170.3,277.205,170.072,277.238,170.044Z" transform="translate(-276.313 -161.2)" fill="#eb996e"/>
                                              </g>
                                            </g>
                                          </g>
                                        </g>
                                      </g>
                                    </g>
                                  </g>
                                </g>
                              </g>
                            </g>
                          </g>
                        </g>
                      </g>
                    </g>
                  </g>
                </g>
              </g>
              <g id="Grupo_111806" data-name="Grupo 111806" transform="translate(40.376 41.229)">
                <g id="Grupo_111805" data-name="Grupo 111805">
                  <g id="Grupo_111804" data-name="Grupo 111804">
                    <path id="Trazado_102335" data-name="Trazado 102335" d="M243.385,158.959c.011.059-.407.206-1.1.124a3.748,3.748,0,0,1-3.274-3.813c.024-.7.233-1.092.289-1.074.078.02,0,.427.072,1.059a3.915,3.915,0,0,0,2.983,3.473C242.963,158.892,243.378,158.88,243.385,158.959Z" transform="translate(-239.003 -154.195)" fill="#eb996e"/>
                  </g>
                </g>
              </g>
              <g id="Grupo_111811" data-name="Grupo 111811">
                <g id="Grupo_111810" data-name="Grupo 111810">
                  <g id="Grupo_111809" data-name="Grupo 111809">
                    <g id="Grupo_111808" data-name="Grupo 111808">
                      <g id="Grupo_111807" data-name="Grupo 111807">
                        <path id="Trazado_102336" data-name="Trazado 102336" d="M275.142,141.531c.048.212.117.415.161.629,1.885,9.108-.583,20.929-.583,20.929-6.72,1.631-7.993-11.44-7.993-11.44-9-1.322-8.73-14.422-11.225-15.834s-7.817-4.8-23.138,7.982c-5.95,4.965-14.921,6.884-20.056,6.883-.15,0-.3.013-.451.011-.031,0-.073,0-.1,0-.057,0-.1-.023-.157-.025a15.992,15.992,0,0,1-4.871-.878,9,9,0,0,1-4.586-3.242,4.93,4.93,0,0,1-.225-5.377,10.848,10.848,0,0,1-3.715-4.992,6.243,6.243,0,0,1,1.016-5.95,4.43,4.43,0,0,1,5.691-.85,5.167,5.167,0,0,1,2.947-7.093c2.651-.78,5.405.731,8.167.855a12.558,12.558,0,0,0,7.5-2.634c2.218-1.536,4.192-3.41,6.459-4.873a21.886,21.886,0,0,1,16.181-2.991c5.506,1.159,9.9,2.543,13,7.242,3.352-1.945,8.006-.272,11.1,2.065,0,0,4.258,2.418,4.608,10.888C275.173,140.339,275.142,141.531,275.142,141.531Z" transform="translate(-197.867 -112.19)" fill="#263238"/>
                      </g>
                    </g>
                  </g>
                </g>
              </g>
              <g id="Grupo_111814" data-name="Grupo 111814" transform="translate(7.695 11.995)">
                <g id="Grupo_111813" data-name="Grupo 111813">
                  <g id="Grupo_111812" data-name="Grupo 111812">
                    <path id="Trazado_102337" data-name="Trazado 102337" d="M205.708,126.992c.043-.046.567.517,1.7,1.288a15.34,15.34,0,0,0,5.308,2.2,23.573,23.573,0,0,0,8.528.143,59.48,59.48,0,0,0,10.147-2.847,66.455,66.455,0,0,1,10.209-2.956,24.55,24.55,0,0,1,8.684-.049,15.251,15.251,0,0,1,5.457,2.118,10.562,10.562,0,0,1,1.27.966,2.22,2.22,0,0,1,.4.386c-.04.048-.6-.479-1.775-1.183a15.939,15.939,0,0,0-5.417-1.932,24.871,24.871,0,0,0-8.537.158,69.323,69.323,0,0,0-10.123,2.976,57.5,57.5,0,0,1-10.244,2.83,23.335,23.335,0,0,1-8.679-.257,14.711,14.711,0,0,1-5.341-2.392,10.345,10.345,0,0,1-1.21-1.04A2.242,2.242,0,0,1,205.708,126.992Z" transform="translate(-205.707 -124.411)" fill="#455a64"/>
                  </g>
                </g>
              </g>
              <g id="Grupo_111817" data-name="Grupo 111817" transform="translate(6.757 16.376)">
                <g id="Grupo_111816" data-name="Grupo 111816">
                  <g id="Grupo_111815" data-name="Grupo 111815">
                    <path id="Trazado_102338" data-name="Trazado 102338" d="M256.766,131.5c-.033.049-.637-.438-1.879-1.029a14.245,14.245,0,0,0-5.637-1.224,23.862,23.862,0,0,0-8.445,1.515c-3.074,1.085-6.281,2.728-9.783,4.191a37.406,37.406,0,0,1-5.256,1.788,25.709,25.709,0,0,1-5.13.724,26.892,26.892,0,0,1-8.668-1.067,25.5,25.5,0,0,1-5.417-2.307,15.514,15.514,0,0,1-1.356-.852,2.28,2.28,0,0,1-.444-.338c.028-.046.666.384,1.894,1.015a28.173,28.173,0,0,0,5.421,2.134,27.389,27.389,0,0,0,8.547.944,25.822,25.822,0,0,0,5.03-.74,37.834,37.834,0,0,0,5.182-1.776c3.473-1.45,6.7-3.088,9.822-4.163a23.608,23.608,0,0,1,8.613-1.432,13.747,13.747,0,0,1,5.712,1.407,9.646,9.646,0,0,1,1.361.85A2.211,2.211,0,0,1,256.766,131.5Z" transform="translate(-204.752 -128.874)" fill="#455a64"/>
                  </g>
                </g>
              </g>
              <g id="Grupo_111820" data-name="Grupo 111820" transform="translate(62.551 18.99)">
                <g id="Grupo_111819" data-name="Grupo 111819">
                  <g id="Grupo_111818" data-name="Grupo 111818">
                    <path id="Trazado_102339" data-name="Trazado 102339" d="M276.226,132.295a5.047,5.047,0,0,1-1.918,1.241,10.093,10.093,0,0,1-5.462.728,19.12,19.12,0,0,1-5.137-1.953c-1.26-.567-2.12-.658-2.112-.739a4.426,4.426,0,0,1,2.247.4c1.343.456,3.011,1.5,5.077,1.783a10.873,10.873,0,0,0,5.253-.558C275.465,132.726,276.176,132.221,276.226,132.295Z" transform="translate(-261.596 -131.537)" fill="#455a64"/>
                  </g>
                </g>
              </g>
              <g id="Grupo_111823" data-name="Grupo 111823" transform="translate(62.894 22.234)">
                <g id="Grupo_111822" data-name="Grupo 111822">
                  <g id="Grupo_111821" data-name="Grupo 111821">
                    <path id="Trazado_102340" data-name="Trazado 102340" d="M276.478,135.127a6.2,6.2,0,0,1-1.987,1.014,14.836,14.836,0,0,1-10.6-.2,6.176,6.176,0,0,1-1.946-1.089,22.024,22.024,0,0,1,2.073.751,17,17,0,0,0,10.359.2A21.62,21.62,0,0,1,276.478,135.127Z" transform="translate(-261.945 -134.843)" fill="#455a64"/>
                  </g>
                </g>
              </g>
              <g id="Grupo_111826" data-name="Grupo 111826" transform="translate(34.628 43.032)">
                <g id="Grupo_111825" data-name="Grupo 111825">
                  <g id="Grupo_111824" data-name="Grupo 111824">
                    <path id="Trazado_102341" data-name="Trazado 102341" d="M235.381,156.033a2.867,2.867,0,0,1-.29,2.569c-.695,1.353-1.9,1.841-1.94,1.71-.078-.128.878-.748,1.486-1.945A16.306,16.306,0,0,0,235.381,156.033Z" transform="translate(-233.147 -156.032)" fill="#eb996e"/>
                  </g>
                </g>
              </g>
            </g>
            <g id="Grupo_111830" data-name="Grupo 111830" transform="translate(0.108 123.941)">
              <g id="Grupo_111829" data-name="Grupo 111829">
                <g id="Grupo_111828" data-name="Grupo 111828">
                  <path id="Trazado_102342" data-name="Trazado 102342" d="M203.585,278.276s.132-.226.351-.7.552-1.179.971-2.076l3.639-7.966c3.125-6.92,7.6-16.837,13.05-28.9l.077-.168.175.059,28.187,9.553.239.081-.093.236c-4.206,10.627-8.808,22.256-13.6,34.378-2.791,7.088-5.583,13.974-8.143,20.685a82.387,82.387,0,0,1-4.36,9.655,34.971,34.971,0,0,1-6.016,8.193,33.14,33.14,0,0,1-7.674,5.886,27.67,27.67,0,0,1-8.621,2.983,38.118,38.118,0,0,1-8.509.4,29.268,29.268,0,0,1-7.746-1.322,15.691,15.691,0,0,1-6.12-3.66,16.39,16.39,0,0,1-3.5-5.32,33.936,33.936,0,0,1-2.276-9.909,44.74,44.74,0,0,1-.1-6.43,21.278,21.278,0,0,1,.215-2.231s0,.193-.024.569-.065.933-.089,1.667a48.039,48.039,0,0,0,.2,6.406,34.19,34.19,0,0,0,2.34,9.816,16.167,16.167,0,0,0,3.464,5.2,15.368,15.368,0,0,0,6.006,3.548,29,29,0,0,0,7.652,1.272,37.8,37.8,0,0,0,8.417-.421,27.3,27.3,0,0,0,8.477-2.96,32.711,32.711,0,0,0,7.556-5.823,34.581,34.581,0,0,0,5.923-8.1,82.338,82.338,0,0,0,4.321-9.6c2.554-6.71,5.344-13.607,8.134-20.69,4.807-12.117,9.419-23.744,13.633-34.367l.146.316-28.163-9.624.25-.108c-5.48,12.066-10.017,21.962-13.211,28.83-1.6,3.434-2.861,6.11-3.74,7.921-.441.9-.781,1.595-1.025,2.052A2.9,2.9,0,0,1,203.585,278.276Z" transform="translate(-173.442 -238.465)" fill="#263238"/>
                </g>
              </g>
            </g>
            <g id="Grupo_111833" data-name="Grupo 111833" transform="translate(38.39 118.16)">
              <g id="Grupo_111832" data-name="Grupo 111832">
                <g id="Grupo_111831" data-name="Grupo 111831">
                  <path id="Trazado_102343" data-name="Trazado 102343" d="M212.454,261.22a5.091,5.091,0,0,1,.19-1.147l.7-3.082c.612-2.6,1.49-6.179,2.477-10.128,1.783-7.051,2.995-11.843,3.613-14.287.3.045-1.142,6.513-3.117,14.411-.987,3.951-1.921,7.518-2.623,10.093-.351,1.288-.645,2.327-.859,3.043A5.072,5.072,0,0,1,212.454,261.22Z" transform="translate(-212.445 -232.575)" fill="#263238"/>
                </g>
              </g>
            </g>
            <g id="Grupo_111867" data-name="Grupo 111867" transform="translate(42.014 64.491)">
              <g id="Grupo_111835" data-name="Grupo 111835" transform="translate(11.444)">
                <g id="Grupo_111834" data-name="Grupo 111834">
                  <path id="Trazado_102344" data-name="Trazado 102344" d="M235.112,179.781s-2.995-3.11-5.657,0-2.364,10.643,2.68,18.29,3.047,36.381,3.047,36.381l29.832-11.143,2.055,9.146a31.286,31.286,0,0,0,9.963-9.146c3.826-5.816-2-13.231-3.16-17.882s-11.978-12.038-15.138-16.9S247.755,173.755,235.112,179.781Z" transform="translate(-227.797 -177.895)" fill="#fafafa"/>
                </g>
              </g>
              <g id="Grupo_111851" data-name="Grupo 111851" transform="translate(22.484 9.27)">
                <g id="Grupo_111841" data-name="Grupo 111841">
                  <g id="Grupo_111837" data-name="Grupo 111837" transform="translate(0.224 0.245)">
                    <g id="Grupo_111836" data-name="Grupo 111836">
                      <path id="Trazado_102345" data-name="Trazado 102345" d="M255.2,247.715s-8.392-17.923-9.558-21.206-6.128-14.267-5.489-16.413c.6-2.024,3.523.02,3.523.02s-5.844-11.289-4.061-13.677a2.009,2.009,0,0,1,3.149-.232s-3.648-6.5-.555-8.452c1.595-1.007,4.309,2.9,4.309,2.9s2.56-2.831,4.885.73,12.018,19.476,12.018,19.476-.571-7.534.794-12.078c.921-3.062,5.38-4.806,5.647,4.5.173,6.021,7.191,34.338,7.191,34.338Z" transform="translate(-239.273 -187.589)" fill="#ffbe9d"/>
                    </g>
                  </g>
                  <g id="Grupo_111840" data-name="Grupo 111840">
                    <g id="Grupo_111839" data-name="Grupo 111839">
                      <g id="Grupo_111838" data-name="Grupo 111838">
                        <path id="Trazado_102346" data-name="Trazado 102346" d="M255.192,247.71s.134-.075.39-.2l1.127-.54,4.324-2.043,15.941-7.462-.093.2c-1.79-7.26-3.918-15.95-5.918-25.769-.472-2.462-.99-4.979-1.266-7.621-.127-1.343-.133-2.633-.362-3.95l-.221-.966c-.078-.321-.209-.622-.31-.935a3.492,3.492,0,0,0-1.089-1.537,1.566,1.566,0,0,0-1.7-.089,3.2,3.2,0,0,0-1.3,1.4,8.129,8.129,0,0,0-.589,1.946c-.148.68-.245,1.377-.327,2.078a50.408,50.408,0,0,0-.136,8.62.254.254,0,0,1-.236.272.257.257,0,0,1-.234-.121l-6.092-9.867-4.564-7.4q-.562-.914-1.123-1.821a5.34,5.34,0,0,0-1.292-1.557,2.154,2.154,0,0,0-1.776-.463,3.276,3.276,0,0,0-1.654.937.258.258,0,0,1-.364.008c-.009-.009-.022-.024-.029-.033a10.38,10.38,0,0,0-2.553-2.62c-.494-.3-1.071-.488-1.473-.166a2.48,2.48,0,0,0-.941,1.346,6.824,6.824,0,0,0,.274,3.469,17.7,17.7,0,0,0,1.356,3.261.242.242,0,0,1-.1.327.245.245,0,0,1-.28-.037,1.881,1.881,0,0,0-1.943-.5,2.113,2.113,0,0,0-.815.668,1.751,1.751,0,0,0-.31.978,13.3,13.3,0,0,0,.877,4.43,64.453,64.453,0,0,0,3.464,8.066.218.218,0,0,1-.1.292.227.227,0,0,1-.22-.015,4.715,4.715,0,0,0-2.179-.873.919.919,0,0,0-.869.409,1.1,1.1,0,0,0-.166.494l-.031.265.025.288a21.79,21.79,0,0,0,1.186,4.5c1.012,2.89,2.116,5.581,3.134,8.117,1.885,5.135,3.921,9.427,5.505,13.012l3.748,8.271.98,2.18.243.561a1.686,1.686,0,0,1,.073.2,1.262,1.262,0,0,1-.1-.18c-.071-.139-.16-.319-.275-.549l-1.038-2.152-3.857-8.223c-1.615-3.56-3.694-7.865-5.6-12.984-1.032-2.53-2.151-5.219-3.18-8.119a21.977,21.977,0,0,1-1.227-4.6,2.013,2.013,0,0,1,.011-.654,1.485,1.485,0,0,1,.222-.646,1.346,1.346,0,0,1,1.233-.61,5.08,5.08,0,0,1,2.418.942l-.317.278a64.681,64.681,0,0,1-3.514-8.12,13.615,13.615,0,0,1-.912-4.611,2.217,2.217,0,0,1,.405-1.233,2.6,2.6,0,0,1,1.005-.818,1.969,1.969,0,0,1,1.332-.06,3.029,3.029,0,0,1,1.134.661l-.379.289a18.16,18.16,0,0,1-1.4-3.357,7.263,7.263,0,0,1-.282-3.739A2.973,2.973,0,0,1,242,187.6a1.363,1.363,0,0,1,1.061-.229,2.7,2.7,0,0,1,.952.381,10.778,10.778,0,0,1,2.705,2.757l-.393-.026a3.759,3.759,0,0,1,1.933-1.1,2.665,2.665,0,0,1,2.174.555,5.8,5.8,0,0,1,1.413,1.683l1.125,1.822,4.569,7.4,6.092,9.877-.469.151a50.651,50.651,0,0,1,.145-8.717c.084-.713.184-1.422.337-2.121a8.569,8.569,0,0,1,.636-2.072,3.7,3.7,0,0,1,1.511-1.606,2.066,2.066,0,0,1,2.2.126,3.934,3.934,0,0,1,1.256,1.752c.108.332.247.658.328.993l.228,1.006c.234,1.339.239,2.718.36,3.994.264,2.593.775,5.121,1.239,7.574,1.968,9.808,4.06,18.508,5.8,25.775a.173.173,0,0,1-.094.2L261,245.112l-4.325,1.95-1.115.495A3.242,3.242,0,0,1,255.192,247.71Z" transform="translate(-239.045 -187.34)" fill="#eb996e"/>
                      </g>
                    </g>
                  </g>
                </g>
                <g id="Grupo_111844" data-name="Grupo 111844" transform="translate(7.461 3.31)">
                  <g id="Grupo_111843" data-name="Grupo 111843">
                    <g id="Grupo_111842" data-name="Grupo 111842">
                      <path id="Trazado_102347" data-name="Trazado 102347" d="M257.338,212.437c-.127.063-2.622-4.751-5.572-10.749s-5.241-10.913-5.115-10.975,2.622,4.75,5.573,10.75S257.464,212.375,257.338,212.437Z" transform="translate(-246.646 -190.712)" fill="#eb996e"/>
                    </g>
                  </g>
                </g>
                <g id="Grupo_111847" data-name="Grupo 111847" transform="translate(3.706 8.861)">
                  <g id="Grupo_111846" data-name="Grupo 111846">
                    <g id="Grupo_111845" data-name="Grupo 111845">
                      <path id="Trazado_102348" data-name="Trazado 102348" d="M252.3,217.047c-.129.059-2.354-4.523-4.969-10.232s-4.634-10.387-4.505-10.446,2.353,4.523,4.969,10.233S252.429,216.988,252.3,217.047Z" transform="translate(-242.82 -196.367)" fill="#eb996e"/>
                    </g>
                  </g>
                </g>
                <g id="Grupo_111850" data-name="Grupo 111850" transform="translate(4.517 22.814)">
                  <g id="Grupo_111849" data-name="Grupo 111849">
                    <g id="Grupo_111848" data-name="Grupo 111848">
                      <path id="Trazado_102349" data-name="Trazado 102349" d="M249.507,223.428a7.45,7.45,0,0,1-1.23-1.683,39.219,39.219,0,0,1-4.157-9.128,7.369,7.369,0,0,1-.459-2.033c.147-.044,1.088,2.981,2.71,6.519C247.977,220.647,249.636,223.346,249.507,223.428Z" transform="translate(-243.647 -210.584)" fill="#eb996e"/>
                    </g>
                  </g>
                </g>
              </g>
              <g id="Grupo_111863" data-name="Grupo 111863" transform="translate(0 16.687)">
                <g id="Grupo_111853" data-name="Grupo 111853">
                  <g id="Grupo_111852" data-name="Grupo 111852">
                    <path id="Trazado_102350" data-name="Trazado 102350" d="M234.351,196.235a2.64,2.64,0,0,0-3.005-1.242c-2.637.733-7.089,2.087-8.308,3.183-1.764,1.588-5.578,5.8-5.574,8.637,0,.869-.873,2.432-1.173,3.894a6,6,0,0,0,2.408,6.516c1.129,1,5.47,11.293,5.47,11.293l2.532,10.341,11.46,4.031,9.45,3.222-4.924-14.051-7.721,2.706.78-17.981,2.258-4.262-.613-2.7-1.858-.573a2.29,2.29,0,0,0,.319-3.135l-1.614-1.365c1.993-.733,2.836-2.035,1.8-4.267a3.474,3.474,0,0,0-2.888-.663A3.925,3.925,0,0,0,234.351,196.235Z" transform="translate(-216.137 -194.896)" fill="#ffbe9d"/>
                  </g>
                </g>
                <g id="Grupo_111856" data-name="Grupo 111856" transform="translate(6.561 14.212)">
                  <g id="Grupo_111855" data-name="Grupo 111855">
                    <g id="Grupo_111854" data-name="Grupo 111854">
                      <path id="Trazado_102351" data-name="Trazado 102351" d="M233.948,229.9a1.782,1.782,0,0,1-.334-.362c-.2-.248-.5-.621-.851-1.123a11.071,11.071,0,0,1-1.11-1.949,5.882,5.882,0,0,1-.487-2.951,7.4,7.4,0,0,1,1.38-3.351,32.9,32.9,0,0,1,2.658-3.141,10.466,10.466,0,0,0,2.336-3.708,3.562,3.562,0,0,0,.075-2.195,1.738,1.738,0,0,0-1.579-1.233,3.484,3.484,0,0,0-1.923,1.15l-1.787,1.59-3.385,3c-2.171,1.885-4.1,3.648-5.047,5.594a6.884,6.884,0,0,0-.582,4.912c.29,1.172.618,1.774.567,1.8a1.766,1.766,0,0,1-.248-.426,8.1,8.1,0,0,1-.511-1.318,7.106,7.106,0,0,1-.294-2.231,7.213,7.213,0,0,1,.745-2.893c.942-2.046,2.912-3.889,5.057-5.785l3.366-3.023,1.783-1.6a3.861,3.861,0,0,1,2.243-1.282,2.238,2.238,0,0,1,2.078,1.578,4.04,4.04,0,0,1-.078,2.508,10.8,10.8,0,0,1-2.462,3.874,34.3,34.3,0,0,0-2.664,3.071,7.122,7.122,0,0,0-1.368,3.151,5.671,5.671,0,0,0,.394,2.8,11.91,11.91,0,0,0,1.011,1.947C233.581,229.329,233.983,229.876,233.948,229.9Z" transform="translate(-222.821 -209.376)" fill="#eb996e"/>
                    </g>
                  </g>
                </g>
                <g id="Grupo_111859" data-name="Grupo 111859" transform="translate(1.623 9.994)">
                  <g id="Grupo_111858" data-name="Grupo 111858">
                    <g id="Grupo_111857" data-name="Grupo 111857">
                      <path id="Trazado_102352" data-name="Trazado 102352" d="M225.86,218.012c-.009,0-.048-.048-.116-.156a4.184,4.184,0,0,1-.27-.5,3.857,3.857,0,0,1-.279-.9,1.722,1.722,0,0,1,.242-1.314l.007-.01.022-.012c1.885-1.059,4.6-2.584,7.9-4.434a6.592,6.592,0,0,0,2.3-1.735,2.384,2.384,0,0,0,.464-1.348,1.767,1.767,0,0,0-.583-1.284,3.147,3.147,0,0,0-2.991-.6,21.93,21.93,0,0,0-3.276,1.333l-8.958,4.064a4.244,4.244,0,0,0-1.625,1.293,3.047,3.047,0,0,0-.482,1.852,11.537,11.537,0,0,0,.964,3.528,41.642,41.642,0,0,0,2.308,4.881c.618,1.118.992,1.72.959,1.741a1.984,1.984,0,0,1-.322-.4c-.193-.277-.473-.689-.809-1.237a35.1,35.1,0,0,1-2.47-4.845,11.613,11.613,0,0,1-1.053-3.647,3.476,3.476,0,0,1,.534-2.121,4.679,4.679,0,0,1,1.779-1.459c2.758-1.308,5.782-2.658,8.965-4.112a21.742,21.742,0,0,1,3.369-1.359,3.635,3.635,0,0,1,3.449.732,2.255,2.255,0,0,1,.723,1.638,2.832,2.832,0,0,1-.563,1.619,6.917,6.917,0,0,1-2.475,1.847l-8,4.26.028-.022a1.59,1.59,0,0,0-.232,1.126,4.147,4.147,0,0,0,.213.881A6.022,6.022,0,0,1,225.86,218.012Z" transform="translate(-217.791 -205.079)" fill="#eb996e"/>
                    </g>
                  </g>
                </g>
                <g id="Grupo_111862" data-name="Grupo 111862" transform="translate(1.337 4.689)">
                  <g id="Grupo_111861" data-name="Grupo 111861">
                    <g id="Grupo_111860" data-name="Grupo 111860">
                      <path id="Trazado_102353" data-name="Trazado 102353" d="M217.5,209.5a4.907,4.907,0,0,1,.481-1.076,16.846,16.846,0,0,1,1.706-2.732,9.863,9.863,0,0,1,3.8-2.92,38.324,38.324,0,0,1,5.547-1.824l2.9-.81a7.034,7.034,0,0,1,2.846-.427,2.512,2.512,0,0,1,1.3.567,2.2,2.2,0,0,1,.675,1.162,2.655,2.655,0,0,1-.52,2.244,4.212,4.212,0,0,1-2.867,1.482,3.29,3.29,0,0,1-1.183.008c0-.042.419-.06,1.15-.2a4.17,4.17,0,0,0,2.61-1.5,2.289,2.289,0,0,0,.4-1.928,1.806,1.806,0,0,0-1.627-1.363,6.752,6.752,0,0,0-2.645.444l-2.893.819a41.958,41.958,0,0,0-5.491,1.761,9.82,9.82,0,0,0-3.713,2.721,21.4,21.4,0,0,0-1.813,2.6A5.513,5.513,0,0,1,217.5,209.5Z" transform="translate(-217.5 -199.674)" fill="#eb996e"/>
                    </g>
                  </g>
                </g>
              </g>
              <g id="Grupo_111866" data-name="Grupo 111866" transform="translate(1.228 16.124)">
                <g id="Grupo_111865" data-name="Grupo 111865">
                  <g id="Grupo_111864" data-name="Grupo 111864">
                    <path id="Trazado_102354" data-name="Trazado 102354" d="M229.164,200.587a8.105,8.105,0,0,1,1.266-.326,6.043,6.043,0,0,0,3.05-1.554,2.724,2.724,0,0,0,.8-2.075,1.925,1.925,0,0,0-1.5-1.808,6.367,6.367,0,0,0-2.879.7c-1.027.365-2.1.7-3.18,1.069a28.347,28.347,0,0,0-3.092,1.193,7.345,7.345,0,0,0-2.164,2.06c-.6.778-1.127,1.565-1.658,2.28A11.959,11.959,0,0,0,218.4,204.1a9.006,9.006,0,0,0-.816,3.381c-.051.833,0,1.3-.044,1.3a3.829,3.829,0,0,1-.155-1.306,8.463,8.463,0,0,1,.688-3.532,5,5,0,0,1,.627-1.048c.261-.334.515-.646.768-1.013.509-.715,1.022-1.513,1.627-2.316a7.613,7.613,0,0,1,2.311-2.221,27.263,27.263,0,0,1,3.155-1.231l3.176-1.056a6.588,6.588,0,0,1,3.129-.7,2.1,2.1,0,0,1,1.34.851,2.68,2.68,0,0,1,.5,1.388,3.079,3.079,0,0,1-.966,2.359,5.921,5.921,0,0,1-3.269,1.5A5.359,5.359,0,0,1,229.164,200.587Z" transform="translate(-217.388 -194.323)" fill="#eb996e"/>
                  </g>
                </g>
              </g>
            </g>
            <g id="Grupo_111870" data-name="Grupo 111870" transform="translate(78.15 122.593)">
              <g id="Grupo_111869" data-name="Grupo 111869">
                <g id="Grupo_111868" data-name="Grupo 111868">
                  <path id="Trazado_102355" data-name="Trazado 102355" d="M292.813,258.091a2.618,2.618,0,0,1-.231-.351c-.155-.257-.365-.608-.634-1.057l-2.4-4.1-8.788-15.176.229.073-27.636,13.01.124-.293c3.141,9.026,6.951,18.813,11.519,28.793,4.895,10.741,10.13,20.7,15.14,29.621,2.515,4.452,4.914,8.686,7.263,12.573a34.212,34.212,0,0,0,8.016,9.609,16.815,16.815,0,0,0,4.8,2.56A17.5,17.5,0,0,0,305,334.2a17.845,17.845,0,0,0,7.641-1.39,12.274,12.274,0,0,0,4.08-2.751c.791-.811,1.116-1.323,1.148-1.3,0,0-.078.128-.251.363a7.655,7.655,0,0,1-.822,1.005A12.037,12.037,0,0,1,312.722,333a18,18,0,0,1-12.612.668,17.12,17.12,0,0,1-4.914-2.579c-3.146-2.348-5.772-5.8-8.159-9.676-2.374-3.893-4.784-8.113-7.313-12.565-5.036-8.912-10.292-18.882-15.195-29.641-4.575-9.995-8.38-19.8-11.5-28.848l-.071-.2.194-.09,27.688-12.9.149-.07.079.142,8.65,15.256,2.319,4.143c.251.46.448.819.592,1.082A2.689,2.689,0,0,1,292.813,258.091Z" transform="translate(-252.954 -237.091)" fill="#263238"/>
                </g>
              </g>
            </g>
            <g id="Grupo_111873" data-name="Grupo 111873" transform="translate(56.562 71.079)">
              <g id="Grupo_111872" data-name="Grupo 111872">
                <g id="Grupo_111871" data-name="Grupo 111871">
                  <path id="Trazado_102356" data-name="Trazado 102356" d="M237.223,191.615a2.753,2.753,0,0,1-1.548-.077,6.18,6.18,0,0,1-4.69-5.388,2.758,2.758,0,0,1,.137-1.544c.082.007.045.592.22,1.491a6.6,6.6,0,0,0,4.434,5.094C236.644,191.489,237.228,191.533,237.223,191.615Z" transform="translate(-230.96 -184.607)" fill="#e0e0e0"/>
                </g>
              </g>
            </g>
            <g id="Grupo_111876" data-name="Grupo 111876" transform="translate(79.556 72.82)">
              <g id="Grupo_111875" data-name="Grupo 111875">
                <g id="Grupo_111874" data-name="Grupo 111874">
                  <path id="Trazado_102357" data-name="Trazado 102357" d="M254.391,186.382a3.665,3.665,0,0,1,.6.782c.366.519.854,1.3,1.419,2.283A45.668,45.668,0,0,1,262,206.2c.139,1.127.216,2.043.235,2.678a3.681,3.681,0,0,1-.014.988c-.083.006-.212-1.389-.578-3.614a54.764,54.764,0,0,0-5.544-16.63C255.055,187.621,254.321,186.427,254.391,186.382Z" transform="translate(-254.386 -186.381)" fill="#e0e0e0"/>
                </g>
              </g>
            </g>
            <g id="Grupo_111879" data-name="Grupo 111879" transform="translate(55.715 76.093)">
              <g id="Grupo_111878" data-name="Grupo 111878">
                <g id="Grupo_111877" data-name="Grupo 111877">
                  <path id="Trazado_102358" data-name="Trazado 102358" d="M239.157,194.965a3.644,3.644,0,0,1-1.614-.01,10.492,10.492,0,0,1-6.631-3.842,3.619,3.619,0,0,1-.81-1.395,14.007,14.007,0,0,0,9.055,5.246Z" transform="translate(-230.096 -189.715)" fill="#e0e0e0"/>
                </g>
              </g>
            </g>
          </g>
          <g id="Grupo_111904" data-name="Grupo 111904" transform="translate(133.963 357.555)">
            <g id="Grupo_111882" data-name="Grupo 111882" transform="translate(130.094 64.334)">
              <g id="Grupo_111881" data-name="Grupo 111881">
                <path id="Trazado_102359" data-name="Trazado 102359" d="M267.143,438.729,300.8,453.987s9.307,3.437,11.738,2.876c2.734-.632,7.195-2.312,5.81-10.617S301,427.841,301,427.841Z" transform="translate(-267.143 -427.841)" fill="#449a90"/>
              </g>
            </g>
            <g id="Grupo_111894" data-name="Grupo 111894" transform="translate(71.946 49.302)">
              <g id="Grupo_111884" data-name="Grupo 111884">
                <g id="Grupo_111883" data-name="Grupo 111883">
                  <path id="Trazado_102360" data-name="Trazado 102360" d="M261.623,412.526l-48.26,15.716c-2.88.967-6.3,4.013-5.279,7.862l18.848,54.281s5.809,1.858,4.73-33.388l40.888-13.475Z" transform="translate(-207.899 -412.526)" fill="#449a90"/>
                </g>
              </g>
              <g id="Grupo_111887" data-name="Grupo 111887" transform="translate(13.306 59.641)">
                <g id="Grupo_111886" data-name="Grupo 111886">
                  <g id="Grupo_111885" data-name="Grupo 111885">
                    <path id="Trazado_102361" data-name="Trazado 102361" d="M231.849,474.851c-.064.188-2.253-1.107-5.2-1.046-2.945.111-5.119,1.4-5.187,1.212a4.019,4.019,0,0,1,1.381-.825,10.091,10.091,0,0,1,3.793-.9,9.332,9.332,0,0,1,3.828.747A3.865,3.865,0,0,1,231.849,474.851Z" transform="translate(-221.456 -473.29)" fill="#fff"/>
                  </g>
                </g>
              </g>
              <g id="Grupo_111890" data-name="Grupo 111890" transform="translate(4.346 15.049)">
                <g id="Grupo_111889" data-name="Grupo 111889">
                  <g id="Grupo_111888" data-name="Grupo 111888">
                    <path id="Trazado_102362" data-name="Trazado 102362" d="M216.981,427.865a1.637,1.637,0,0,1,.874.319,4.308,4.308,0,0,1,1.642,1.937,10.292,10.292,0,0,1,.727,3.679,18.3,18.3,0,0,1-.272,4.57,11.6,11.6,0,0,1-1.707,4.266,9.24,9.24,0,0,1-2.67,2.642,7.08,7.08,0,0,1-2.327.987,2.287,2.287,0,0,1-.921.086,10.635,10.635,0,0,0,3.047-1.374,9.412,9.412,0,0,0,2.478-2.6,11.65,11.65,0,0,0,1.6-4.107,19.212,19.212,0,0,0,.3-4.447,10.6,10.6,0,0,0-.59-3.559,4.441,4.441,0,0,0-1.42-1.914C217.283,428.006,216.967,427.907,216.981,427.865Z" transform="translate(-212.327 -427.858)" fill="#fff"/>
                  </g>
                </g>
              </g>
              <g id="Grupo_111893" data-name="Grupo 111893" transform="translate(24.203 10.781)">
                <g id="Grupo_111892" data-name="Grupo 111892">
                  <g id="Grupo_111891" data-name="Grupo 111891">
                    <path id="Trazado_102363" data-name="Trazado 102363" d="M246.368,452.857a6.132,6.132,0,0,1-.67-1.088c-.4-.716-.965-1.764-1.644-3.065-1.36-2.6-3.176-6.231-5.084-10.285s-3.545-7.77-4.683-10.477c-.569-1.354-1.018-2.455-1.312-3.221a6.139,6.139,0,0,1-.412-1.21,6.153,6.153,0,0,1,.595,1.132c.388.837.877,1.894,1.461,3.154,1.276,2.759,2.956,6.39,4.814,10.405l4.945,10.341,1.5,3.137A6.2,6.2,0,0,1,246.368,452.857Z" transform="translate(-232.558 -423.51)" fill="#fff"/>
                  </g>
                </g>
              </g>
            </g>
            <g id="Grupo_111903" data-name="Grupo 111903">
              <g id="Grupo_111896" data-name="Grupo 111896">
                <g id="Grupo_111895" data-name="Grupo 111895">
                  <path id="Trazado_102364" data-name="Trazado 102364" d="M371.316,371.9c-6.94-5.9-8.328-6.94-21.862-7.981s-35.792,1.878-35.792,1.878-42.285,13.043-62.412,10.614-38.56-13.694-38.56-13.694-47.846-1.227-54.439.508-19.086,6.245-21.515,13.88-4.165,16.657,2.776,25.332,41.9,24.642,41.9,24.642l32.892-.512,21.9-6.883,14.374,30.531s101.657-32.161,106.168-32.509,24.637-12.492,24.637-18.738S378.256,377.8,371.316,371.9Z" transform="translate(-134.599 -362.296)" fill="#263238"/>
                </g>
              </g>
              <g id="Grupo_111899" data-name="Grupo 111899" transform="translate(34.811 6.882)">
                <g id="Grupo_111898" data-name="Grupo 111898">
                  <g id="Grupo_111897" data-name="Grupo 111897">
                    <path id="Trazado_102365" data-name="Trazado 102365" d="M258.644,409a.994.994,0,0,1-.245-.057l-.7-.216-2.7-.875c-2.339-.763-5.7-1.926-9.845-3.414-8.28-2.977-19.624-7.371-31.884-12.858s-23.089-11.041-30.822-15.239c-3.867-2.1-6.975-3.837-9.1-5.076l-2.446-1.428-.63-.383a.978.978,0,0,1-.206-.145.868.868,0,0,1,.232.1l.655.338,2.493,1.345c2.155,1.185,5.288,2.873,9.173,4.93,7.772,4.114,18.617,9.6,30.861,15.091s23.556,9.923,31.8,12.985c4.122,1.53,7.467,2.744,9.786,3.565l2.664.966.688.263A.881.881,0,0,1,258.644,409Z" transform="translate(-170.066 -369.308)" fill="#455a64"/>
                  </g>
                </g>
              </g>
              <g id="Grupo_111902" data-name="Grupo 111902" transform="translate(100.45 12.746)">
                <g id="Grupo_111901" data-name="Grupo 111901">
                  <g id="Grupo_111900" data-name="Grupo 111900">
                    <path id="Trazado_102366" data-name="Trazado 102366" d="M336.391,375.282a1.576,1.576,0,0,1-.053.343l-.212,1c-.207.914-.5,2.208-.877,3.874l-.012.053-.054.022c-8.379,3.325-27.153,10.63-48.967,19.041s-40.638,15.6-49.08,18.765l.053-.154q1.3,2.21,2.012,3.426c.211.371.378.664.505.889a1.61,1.61,0,0,1,.155.31,1.654,1.654,0,0,1-.2-.282l-.552-.861-2.1-3.372-.066-.107.119-.047c8.379-3.325,27.152-10.63,48.973-19.043s40.632-15.6,49.075-18.763l-.066.074c.42-1.655.747-2.942.977-3.85l.265-.987A1.69,1.69,0,0,1,336.391,375.282Z" transform="translate(-236.94 -375.282)" fill="#455a64"/>
                  </g>
                </g>
              </g>
            </g>
          </g>
          <g id="Grupo_112017" data-name="Grupo 112017" transform="translate(100.157 168.498)">
            <g id="Grupo_111906" data-name="Grupo 111906" transform="translate(188.024 23.141)">
              <g id="Grupo_111905" data-name="Grupo 111905">
                <path id="Trazado_102367" data-name="Trazado 102367" d="M402.337,405.137l-7.43-43.574-20.274-38.241L349.4,299.672l-7.544-31.5-3.9-37.59-2.665-14.511A18.445,18.445,0,0,0,322.6,201.784l-27.528-8.527s.556,6.812-1.741,21.7-1.47,39.172-1.47,39.172,18.493,36.776,18.462,55.4c-.041,25.327,5.26,36.782,11.3,42.886,4.656,4.7,9.753,6.227,13.186,8.463,7.888,5.138,44.286-4.992,54.215,16.606a88.513,88.513,0,0,1,7.875,41.687l8.922-.162Z" transform="translate(-291.721 -193.257)" fill="#ffce26"/>
              </g>
            </g>
            <g id="Grupo_111908" data-name="Grupo 111908" transform="translate(0.637 6.452)">
              <g id="Grupo_111907" data-name="Grupo 111907">
                <path id="Trazado_102368" data-name="Trazado 102368" d="M218.435,176.254s-3.127,8.415-2.85,15.614c.131,3.4-1.857,6.228-3.78,8.761-2.325,3.061-6.2,7.287-10.214,14.2-1.326,2.284-1.345,5.427-2.537,8.529-4.921,12.8,10.54,36.992,10.049,38.487s-29.532,51.069-23.953,72.218-2.784,26.512-2.784,26.512-17.021,1.937-29.177.981-42.988,2.74-45.954,24.638S120.1,423.5,120.1,423.5h-3.056s-18.45-18.1-16.021-32.385,10.02-29.207,10.02-29.207l27.034-11.153,17.392-1.969L153.5,320.239l4.594-26.251,21.329-52.671,9.844-21.854,3.89-10.4,16.2-12.752,5.1-15.342Z" transform="translate(-100.806 -176.254)" fill="#ffce26"/>
              </g>
            </g>
            <g id="Grupo_111911" data-name="Grupo 111911" transform="translate(189.288 85.465)">
              <g id="Grupo_111910" data-name="Grupo 111910">
                <g id="Grupo_111909" data-name="Grupo 111909">
                  <path id="Trazado_102369" data-name="Trazado 102369" d="M331.487,312.783a4.43,4.43,0,0,1-.146-.747c-.08-.54-.188-1.255-.323-2.151-.273-1.871-.652-4.578-1.2-7.909s-1.283-7.285-2.439-11.588A64.934,64.934,0,0,0,322.2,276.9a43.414,43.414,0,0,0-8.79-11.385,34.7,34.7,0,0,0-9.827-6.422,27.567,27.567,0,0,0-7.66-2.059c-1.87-.2-2.92-.194-2.918-.254a4.24,4.24,0,0,1,.759-.026,17.934,17.934,0,0,1,2.18.082,26.294,26.294,0,0,1,7.778,1.924,34.337,34.337,0,0,1,10.006,6.407,43.186,43.186,0,0,1,8.925,11.493,63.834,63.834,0,0,1,5.178,13.607,110.681,110.681,0,0,1,2.341,11.654c.5,3.344.828,6.061,1.04,7.939q.143,1.352.228,2.164A4.2,4.2,0,0,1,331.487,312.783Z" transform="translate(-293.009 -256.754)" fill="#263238"/>
                </g>
              </g>
            </g>
            <g id="Grupo_111914" data-name="Grupo 111914" transform="translate(188.562 82.763)">
              <g id="Grupo_111913" data-name="Grupo 111913">
                <g id="Grupo_111912" data-name="Grupo 111912">
                  <path id="Trazado_102370" data-name="Trazado 102370" d="M335.39,274.932c-.041.017-.328-.656-.906-1.836a34.211,34.211,0,0,0-2.856-4.765,32.681,32.681,0,0,0-32.007-13.486,34.221,34.221,0,0,0-5.4,1.284c-1.248.411-1.93.675-1.946.634a2.122,2.122,0,0,1,.473-.24c.321-.133.782-.365,1.407-.581a29.966,29.966,0,0,1,5.411-1.453,32.236,32.236,0,0,1,32.363,13.635,29.949,29.949,0,0,1,2.739,4.888c.283.6.44,1.091.568,1.412A2.051,2.051,0,0,1,335.39,274.932Z" transform="translate(-292.27 -254.002)" fill="#263238"/>
                </g>
              </g>
            </g>
            <g id="Grupo_111917" data-name="Grupo 111917" transform="translate(227.484 136.406)">
              <g id="Grupo_111916" data-name="Grupo 111916">
                <g id="Grupo_111915" data-name="Grupo 111915">
                  <path id="Trazado_102371" data-name="Trazado 102371" d="M355.425,308.654a1.787,1.787,0,0,1,.014.49c-.01.319-.024.79-.063,1.395-.07,1.211-.2,2.963-.464,5.12a49.1,49.1,0,0,1-4.579,16.3,30.279,30.279,0,0,1-5.51,7.569,24.519,24.519,0,0,1-6.172,4.513,19.275,19.275,0,0,1-4.855,1.728,12.177,12.177,0,0,1-1.383.221,1.764,1.764,0,0,1-.488.031,25.663,25.663,0,0,0,6.559-2.3,25.056,25.056,0,0,0,6.006-4.525,30.676,30.676,0,0,0,5.389-7.469,51.68,51.68,0,0,0,4.675-16.111c.3-2.142.494-3.884.624-5.088.063-.553.116-1.011.159-1.386A1.75,1.75,0,0,1,355.425,308.654Z" transform="translate(-331.924 -308.654)" fill="#263238"/>
                </g>
              </g>
            </g>
            <g id="Grupo_111920" data-name="Grupo 111920" transform="translate(241.402 177.391)">
              <g id="Grupo_111919" data-name="Grupo 111919">
                <g id="Grupo_111918" data-name="Grupo 111918">
                  <path id="Trazado_102372" data-name="Trazado 102372" d="M399.694,379.592c-.056.009-.172-.923-.566-2.556a25.4,25.4,0,0,0-2.667-6.565,31.732,31.732,0,0,0-6.7-8.066,39.842,39.842,0,0,0-10.943-6.73,59.671,59.671,0,0,0-12.448-3.422c-3.926-.662-7.506-.985-10.514-1.2s-5.448-.331-7.135-.422l-1.941-.116a3.333,3.333,0,0,1-.675-.075,3.436,3.436,0,0,1,.679-.028l1.945.02c1.688.03,4.132.092,7.15.26a100.781,100.781,0,0,1,10.568,1.1A58.4,58.4,0,0,1,379.01,355.2a39.556,39.556,0,0,1,11.061,6.85,31.345,31.345,0,0,1,6.7,8.242,24.031,24.031,0,0,1,2.545,6.7,15.915,15.915,0,0,1,.314,1.925A3.419,3.419,0,0,1,399.694,379.592Z" transform="translate(-346.104 -350.411)" fill="#263238"/>
                </g>
              </g>
            </g>
            <g id="Grupo_111923" data-name="Grupo 111923" transform="translate(189.714 44.794)">
              <g id="Grupo_111922" data-name="Grupo 111922">
                <g id="Grupo_111921" data-name="Grupo 111921">
                  <path id="Trazado_102373" data-name="Trazado 102373" d="M293.448,256.675a10.716,10.716,0,0,1,.432-1.626c.336-1.119.78-2.6,1.318-4.386,1.111-3.7,2.594-8.835,4.075-14.544s2.673-10.917,3.5-14.694c.4-1.826.728-3.334.977-4.475a10.71,10.71,0,0,1,.413-1.631,10.553,10.553,0,0,1-.218,1.669c-.17,1.069-.449,2.611-.818,4.511-.738,3.8-1.88,9.028-3.36,14.749s-3.024,10.843-4.224,14.523c-.6,1.84-1.105,3.323-1.475,4.341A10.559,10.559,0,0,1,293.448,256.675Z" transform="translate(-293.443 -215.318)" fill="#263238"/>
                </g>
              </g>
            </g>
            <g id="Grupo_111926" data-name="Grupo 111926" transform="translate(71.917 96.965)">
              <g id="Grupo_111925" data-name="Grupo 111925">
                <g id="Grupo_111924" data-name="Grupo 111924">
                  <path id="Trazado_102374" data-name="Trazado 102374" d="M175.826,343.488a.73.73,0,0,1-.079-.212l-.18-.635c-.139-.562-.4-1.382-.615-2.463a62.992,62.992,0,0,1-1.344-9.238,66.672,66.672,0,0,1,.427-13.838A65.716,65.716,0,0,1,186.8,286a66.64,66.64,0,0,1,9.416-10.152,62.976,62.976,0,0,1,7.444-5.632c.914-.616,1.673-1.019,2.167-1.32l.573-.326a.72.72,0,0,1,.205-.1c0,.008-.056.055-.178.14l-.547.369c-.477.33-1.217.759-2.111,1.4a69.54,69.54,0,0,0-7.314,5.737,67.754,67.754,0,0,0-22.482,54.8,69.243,69.243,0,0,0,1.178,9.221c.186,1.084.412,1.908.52,2.478.052.258.094.47.131.647A.788.788,0,0,1,175.826,343.488Z" transform="translate(-173.428 -268.471)" fill="#263238"/>
                </g>
              </g>
            </g>
            <g id="Grupo_111929" data-name="Grupo 111929" transform="translate(56.437 94.798)">
              <g id="Grupo_111928" data-name="Grupo 111928">
                <g id="Grupo_111927" data-name="Grupo 111927">
                  <path id="Trazado_102375" data-name="Trazado 102375" d="M206.74,266.268a5.483,5.483,0,0,1-.827.2c-.542.123-1.353.246-2.38.49a76.088,76.088,0,0,0-8.6,2.384,65.158,65.158,0,0,0-12.019,5.466,55.626,55.626,0,0,0-12.613,10.03,48.189,48.189,0,0,0-8.745,13.5,43.97,43.97,0,0,0-3.364,12.719,39.307,39.307,0,0,0,.033,8.894c.082,1.051.286,1.848.349,2.4a5.408,5.408,0,0,1,.105.844,5.092,5.092,0,0,1-.206-.824c-.1-.547-.332-1.342-.446-2.395a37.067,37.067,0,0,1-.2-8.955,43.384,43.384,0,0,1,3.289-12.867,47.985,47.985,0,0,1,8.8-13.667,55.159,55.159,0,0,1,12.752-10.09,63.464,63.464,0,0,1,12.14-5.4,67.749,67.749,0,0,1,8.675-2.236c1.035-.213,1.854-.306,2.4-.4A5.219,5.219,0,0,1,206.74,266.268Z" transform="translate(-157.657 -266.263)" fill="#263238"/>
                </g>
              </g>
            </g>
            <g id="Grupo_111932" data-name="Grupo 111932" transform="translate(73.567 88.939)">
              <g id="Grupo_111931" data-name="Grupo 111931">
                <g id="Grupo_111930" data-name="Grupo 111930">
                  <path id="Trazado_102376" data-name="Trazado 102376" d="M180.165,273.095a5.368,5.368,0,0,1-1.649-1.321,12.525,12.525,0,0,1-3.372-9.412,5.39,5.39,0,0,1,.434-2.068c.085.018-.062.807-.073,2.083a14.119,14.119,0,0,0,3.281,9.157C179.6,272.512,180.22,273.027,180.165,273.095Z" transform="translate(-175.109 -260.294)" fill="#263238"/>
                </g>
              </g>
            </g>
            <g id="Grupo_111935" data-name="Grupo 111935" transform="translate(16.877 169.422)">
              <g id="Grupo_111934" data-name="Grupo 111934">
                <g id="Grupo_111933" data-name="Grupo 111933">
                  <path id="Trazado_102377" data-name="Trazado 102377" d="M117.353,359.976a2.607,2.607,0,0,1,.391-.449l1.194-1.218.872-.872c.329-.309.707-.621,1.1-.969.8-.68,1.679-1.5,2.762-2.271l1.666-1.249c.583-.43,1.231-.817,1.879-1.25,1.285-.889,2.756-1.676,4.284-2.539a58.515,58.515,0,0,1,21.722-6.584c1.751-.131,3.412-.292,4.973-.265.78,0,1.534-.037,2.258,0l2.079.114c1.326.038,2.513.237,3.559.356.521.07,1.009.119,1.454.193l1.209.241,1.669.35a2.721,2.721,0,0,1,.574.156,2.59,2.59,0,0,1-.595-.055l-1.681-.255-1.212-.2c-.445-.06-.931-.1-1.453-.151-1.043-.092-2.225-.264-3.544-.279l-2.067-.08c-.718-.024-1.466.024-2.241.032-1.55-.009-3.2.168-4.932.31a60.231,60.231,0,0,0-21.552,6.531c-1.521.845-2.989,1.613-4.275,2.48-.648.422-1.3.8-1.882,1.217s-1.14.826-1.673,1.214c-1.089.744-1.977,1.544-2.793,2.2-.4.336-.788.635-1.125.932l-.9.835c-.512.468-.929.847-1.257,1.146A2.622,2.622,0,0,1,117.353,359.976Z" transform="translate(-117.352 -342.292)" fill="#263238"/>
                </g>
              </g>
            </g>
            <g id="Grupo_111938" data-name="Grupo 111938" transform="translate(91.989 10.993)">
              <g id="Grupo_111937" data-name="Grupo 111937">
                <g id="Grupo_111936" data-name="Grupo 111936">
                  <path id="Trazado_102378" data-name="Trazado 102378" d="M194.344,236.281a2.759,2.759,0,0,1-.133-.6,17.254,17.254,0,0,1-.231-1.735,28.427,28.427,0,0,1,.185-6.436c.679-5.411,3.246-12.655,7.631-19.7,2.123-3.557,4.225-6.887,5.831-10.079a92.55,92.55,0,0,0,3.782-8.712c.971-2.529,1.75-4.583,2.327-5.985.288-.7.516-1.246.681-1.61a2.67,2.67,0,0,1,.272-.547,2.732,2.732,0,0,1-.177.585c-.153.427-.349.971-.591,1.642l-2.174,6.042a85.183,85.183,0,0,1-3.7,8.8c-1.6,3.23-3.7,6.582-5.813,10.129-4.365,7.016-6.946,14.144-7.713,19.49a31.076,31.076,0,0,0-.345,6.371C194.252,235.445,194.4,236.273,194.344,236.281Z" transform="translate(-193.878 -180.88)" fill="#263238"/>
                </g>
              </g>
            </g>
            <g id="Grupo_111941" data-name="Grupo 111941" transform="translate(181.072)">
              <g id="Grupo_111940" data-name="Grupo 111940">
                <g id="Grupo_111939" data-name="Grupo 111939">
                  <path id="Trazado_102379" data-name="Trazado 102379" d="M284.639,169.686a1.345,1.345,0,0,1,.42.058,8.721,8.721,0,0,1,1.182.293,15.347,15.347,0,0,1,4.033,1.944c3.2,2.057,6.776,6.09,9.434,11.216a45.153,45.153,0,0,1,4.365,14.043c.283,1.865.438,3.382.517,4.433a9.342,9.342,0,0,1,.063,1.635,10.736,10.736,0,0,1-.261-1.615c-.14-1.041-.349-2.547-.675-4.394a48.1,48.1,0,0,0-4.462-13.864c-2.628-5.067-6.093-9.06-9.184-11.154A20.28,20.28,0,0,0,284.639,169.686Z" transform="translate(-284.638 -169.68)" fill="#263238"/>
                </g>
              </g>
            </g>
            <g id="Grupo_111944" data-name="Grupo 111944" transform="translate(174.464 7.714)">
              <g id="Grupo_111943" data-name="Grupo 111943">
                <g id="Grupo_111942" data-name="Grupo 111942">
                  <path id="Trazado_102380" data-name="Trazado 102380" d="M291.945,226a2.493,2.493,0,0,1-.023-.58c0-.38.015-.939.047-1.66.066-1.441.211-3.524.454-6.09s.585-5.617,1.025-9c.219-1.689.461-3.462.733-5.3a26.44,26.44,0,0,0,.331-5.663,23.406,23.406,0,0,0-9.028-17.088,15.237,15.237,0,0,0-5.393-2.636c-1.388-.348-2.191-.389-2.185-.442a2.492,2.492,0,0,1,.581.009,10.67,10.67,0,0,1,1.65.24,14.693,14.693,0,0,1,5.561,2.538,23.411,23.411,0,0,1,9.324,17.351,26.475,26.475,0,0,1-.346,5.766c-.264,1.832-.518,3.6-.762,5.285-.463,3.372-.839,6.414-1.131,8.971s-.49,4.632-.615,6.066c-.059.672-.106,1.219-.143,1.652A2.461,2.461,0,0,1,291.945,226Z" transform="translate(-277.906 -177.54)" fill="#263238"/>
                </g>
              </g>
            </g>
            <g id="Grupo_111947" data-name="Grupo 111947" transform="translate(97.903 9.301)">
              <g id="Grupo_111946" data-name="Grupo 111946">
                <g id="Grupo_111945" data-name="Grupo 111945">
                  <path id="Trazado_102381" data-name="Trazado 102381" d="M212.585,263.187a.886.886,0,0,1-.141-.193l-.37-.594q-.5-.847-1.376-2.31c-1.173-2.017-2.877-4.939-4.732-8.686a61.879,61.879,0,0,1-5.067-13.772,36.114,36.114,0,0,1,.264-17.882,28.052,28.052,0,0,1,1.745-4.424,33.522,33.522,0,0,1,2.375-3.952c1.721-2.482,3.594-4.7,5.289-6.871a45.668,45.668,0,0,0,4.378-6.441,21.056,21.056,0,0,0,2.31-6.324,46.562,46.562,0,0,0,.344-5.6A13.567,13.567,0,0,1,218.625,182a7.153,7.153,0,0,1,1.4-2.307,1.994,1.994,0,0,1,.774-.533,4.576,4.576,0,0,0-.7.6,7.5,7.5,0,0,0-1.292,2.309,13.758,13.758,0,0,0-.923,4.094,44.331,44.331,0,0,1-.272,5.637,21.268,21.268,0,0,1-2.292,6.464,45.531,45.531,0,0,1-4.38,6.529c-1.693,2.185-3.553,4.406-5.249,6.866a28.386,28.386,0,0,0-4.043,8.236,35.954,35.954,0,0,0-.293,17.636,63.039,63.039,0,0,0,4.932,13.715c1.806,3.754,3.46,6.7,4.579,8.746l1.293,2.357.326.618A.808.808,0,0,1,212.585,263.187Z" transform="translate(-199.903 -179.156)" fill="#263238"/>
                </g>
              </g>
            </g>
            <g id="Grupo_111950" data-name="Grupo 111950" transform="translate(67.079 98.104)" opacity="0.3">
              <g id="Grupo_111949" data-name="Grupo 111949">
                <g id="Grupo_111948" data-name="Grupo 111948">
                  <path id="Trazado_102382" data-name="Trazado 102382" d="M203.7,269.631a51.816,51.816,0,0,0-23.915,18.191,62.682,62.682,0,0,0-11.193,28.037c-.246,1.7-.1,3.951,1.55,4.435a2.565,2.565,0,0,0,2.732-1.305,8.149,8.149,0,0,0,.869-3.114A65.691,65.691,0,0,1,204.1,270.024" transform="translate(-168.499 -269.631)"/>
                </g>
              </g>
            </g>
            <g id="Grupo_111953" data-name="Grupo 111953" transform="translate(185.154 8.077)">
              <g id="Grupo_111952" data-name="Grupo 111952">
                <g id="Grupo_111951" data-name="Grupo 111951">
                  <path id="Trazado_102383" data-name="Trazado 102383" d="M295.83,178.048a9.037,9.037,0,0,0-7.02,4.3c-.055-.022.06-.516.48-1.214a6.934,6.934,0,0,1,5.24-3.211A2.366,2.366,0,0,1,295.83,178.048Z" transform="translate(-288.797 -177.909)" fill="#fafafa"/>
                </g>
              </g>
            </g>
            <g id="Grupo_111956" data-name="Grupo 111956" transform="translate(189.032 49.658)">
              <g id="Grupo_111955" data-name="Grupo 111955">
                <g id="Grupo_111954" data-name="Grupo 111954">
                  <path id="Trazado_102384" data-name="Trazado 102384" d="M301.6,224.186a17.753,17.753,0,0,0-8.848-3.823,10.448,10.448,0,0,1,8.848,3.823Z" transform="translate(-292.748 -220.273)" fill="#fafafa"/>
                </g>
              </g>
            </g>
            <g id="Grupo_111959" data-name="Grupo 111959" transform="translate(200.692 39.474)">
              <g id="Grupo_111958" data-name="Grupo 111958">
                <g id="Grupo_111957" data-name="Grupo 111957">
                  <path id="Trazado_102385" data-name="Trazado 102385" d="M336.007,218.75c-.044.017-.2-.439-.638-1.169a9.172,9.172,0,0,0-2.439-2.61,13.325,13.325,0,0,0-4.844-2.146,48.364,48.364,0,0,0-6.527-.925c-4.684-.478-8.92-.939-11.983-1.3l-3.626-.452a6.74,6.74,0,0,1-1.322-.235,6.785,6.785,0,0,1,1.343.037l3.641.29c3.073.267,7.315.671,12,1.149a44.625,44.625,0,0,1,6.591.976,13.213,13.213,0,0,1,4.947,2.314,8.646,8.646,0,0,1,2.394,2.8,5.452,5.452,0,0,1,.39.925C336,218.628,336.024,218.745,336.007,218.75Z" transform="translate(-304.628 -209.898)" fill="#fafafa"/>
                </g>
              </g>
            </g>
            <g id="Grupo_111962" data-name="Grupo 111962" transform="translate(192.855 75.939)">
              <g id="Grupo_111961" data-name="Grupo 111961">
                <g id="Grupo_111960" data-name="Grupo 111960">
                  <path id="Trazado_102386" data-name="Trazado 102386" d="M341.369,267.784c-.046.015-.287-.695-.818-1.931a26.339,26.339,0,0,0-2.821-4.931,29.549,29.549,0,0,0-5.843-6.033A33.592,33.592,0,0,0,322.9,249.9a45.129,45.129,0,0,0-18.508-2.285c-2.4.173-4.339.438-5.672.647l-1.536.242a2.246,2.246,0,0,1-.543.054,2.155,2.155,0,0,1,.523-.155c.346-.081.856-.213,1.521-.337a52.815,52.815,0,0,1,5.678-.812,43.7,43.7,0,0,1,18.712,2.165,33.222,33.222,0,0,1,9.1,5.1,28.916,28.916,0,0,1,5.848,6.194,23.979,23.979,0,0,1,2.709,5.064c.267.624.387,1.141.5,1.478A2.228,2.228,0,0,1,341.369,267.784Z" transform="translate(-296.643 -247.049)" fill="#fafafa"/>
                </g>
              </g>
            </g>
            <g id="Grupo_111965" data-name="Grupo 111965" transform="translate(224.944 123.473)">
              <g id="Grupo_111964" data-name="Grupo 111964">
                <g id="Grupo_111963" data-name="Grupo 111963">
                  <path id="Trazado_102387" data-name="Trazado 102387" d="M336.358,345.045a1.906,1.906,0,0,1-.051-.509c-.014-.393-.029-.875-.048-1.46,0-.634-.05-1.408-.1-2.307s-.1-1.921-.2-3.05c-.332-4.518-1.135-10.731-2.268-17.553s-2.328-12.98-3.145-17.443c-.41-2.231-.732-4.039-.937-5.291-.089-.58-.164-1.057-.224-1.445a2.01,2.01,0,0,1-.044-.509,1.91,1.91,0,0,1,.145.491l.318,1.426c.275,1.316.646,3.1,1.1,5.26.908,4.445,2.15,10.592,3.295,17.427a169.214,169.214,0,0,1,2.124,17.613c.074,1.134.115,2.16.125,3.064s.037,1.679.011,2.314c-.019.587-.034,1.07-.048,1.462A1.874,1.874,0,0,1,336.358,345.045Z" transform="translate(-329.336 -295.478)" fill="#fafafa"/>
                </g>
              </g>
            </g>
            <g id="Grupo_111968" data-name="Grupo 111968" transform="translate(189.847 85.081)" opacity="0.3">
              <g id="Grupo_111967" data-name="Grupo 111967">
                <g id="Grupo_111966" data-name="Grupo 111966">
                  <path id="Trazado_102388" data-name="Trazado 102388" d="M331.334,308.4a67.562,67.562,0,0,0,1.264,7.782c.405,2.611,1.939,5.471,4.561,5.786,2.2.264,4.255-1.508,5-3.6a12.5,12.5,0,0,0,.058-6.572c-1.83-9.433-6.29-18.127-10.906-26.555-4.057-7.408-8.378-14.855-14.622-20.543s-14.787-9.442-23.116-8.047c0,0,12.426.384,20.275,8.095S331.171,304.026,331.334,308.4Z" transform="translate(-293.579 -256.364)"/>
                </g>
              </g>
            </g>
            <g id="Grupo_111971" data-name="Grupo 111971" transform="translate(189.847 22.732)" opacity="0.3">
              <g id="Grupo_111970" data-name="Grupo 111970">
                <g id="Grupo_111969" data-name="Grupo 111969">
                  <path id="Trazado_102389" data-name="Trazado 102389" d="M294.634,253.8c6.712-19.848,12.763-43.235,8.418-60.961,7.579,8.672,9.217,22.232,6.367,32.97s-9.809,20.342-15.841,29.671" transform="translate(-293.579 -192.84)"/>
                </g>
              </g>
            </g>
            <g id="Grupo_111974" data-name="Grupo 111974" transform="translate(254.314 178.209)">
              <g id="Grupo_111973" data-name="Grupo 111973">
                <g id="Grupo_111972" data-name="Grupo 111972">
                  <path id="Trazado_102390" data-name="Trazado 102390" d="M369.251,367.673c-.092,0-.141-1.121-.522-2.879a21.157,21.157,0,0,0-7.152-11.758c-1.385-1.147-2.363-1.708-2.315-1.787a2.411,2.411,0,0,1,.724.326,13.377,13.377,0,0,1,1.816,1.179,19.221,19.221,0,0,1,7.282,11.972,13.559,13.559,0,0,1,.212,2.153A2.392,2.392,0,0,1,369.251,367.673Z" transform="translate(-359.259 -351.244)" fill="#fafafa"/>
                </g>
              </g>
            </g>
            <g id="Grupo_111977" data-name="Grupo 111977" transform="translate(291.437 216.935)">
              <g id="Grupo_111976" data-name="Grupo 111976">
                <g id="Grupo_111975" data-name="Grupo 111975">
                  <path id="Trazado_102391" data-name="Trazado 102391" d="M404.443,390.7a4.1,4.1,0,0,1-.173,1.806,10.1,10.1,0,0,1-5.448,6.6,4.107,4.107,0,0,1-1.74.512,14.346,14.346,0,0,1,1.575-.834,11.464,11.464,0,0,0,5.266-6.383A14.43,14.43,0,0,1,404.443,390.7Z" transform="translate(-397.081 -390.7)" fill="#fafafa"/>
                </g>
              </g>
            </g>
            <g id="Grupo_111980" data-name="Grupo 111980" transform="translate(241.672 135.915)">
              <g id="Grupo_111979" data-name="Grupo 111979">
                <g id="Grupo_111978" data-name="Grupo 111978">
                  <path id="Trazado_102392" data-name="Trazado 102392" d="M365.989,308.154a1.963,1.963,0,0,1,.207.472c.111.318.308.777.481,1.395a29.488,29.488,0,0,1,1.1,5.314,31.762,31.762,0,0,1-14.69,30.752,29.449,29.449,0,0,1-4.827,2.481c-.589.253-1.07.389-1.387.5a1.975,1.975,0,0,1-.5.134c-.016-.041.644-.3,1.805-.82a33.9,33.9,0,0,0,4.709-2.6,32.237,32.237,0,0,0,14.526-30.41,33.763,33.763,0,0,0-.935-5.3C366.162,308.843,365.947,308.169,365.989,308.154Z" transform="translate(-346.38 -308.154)" fill="#fafafa"/>
                </g>
              </g>
            </g>
            <g id="Grupo_111983" data-name="Grupo 111983" transform="translate(226.373 144.162)" opacity="0.3">
              <g id="Grupo_111982" data-name="Grupo 111982">
                <g id="Grupo_111981" data-name="Grupo 111981">
                  <path id="Trazado_102393" data-name="Trazado 102393" d="M373.987,349.506a13.2,13.2,0,0,0-5.276-2.541,38.726,38.726,0,0,1-6.164-1.891,7.63,7.63,0,0,1-4.316-4.533c-.5-1.78-.051-3.665.248-5.488a33.986,33.986,0,0,0-1.776-17.513,1.58,1.58,0,0,0-.611-.885,1.108,1.108,0,0,0-1.357.443,3.344,3.344,0,0,0-.446,1.484c-.912,6.51-2.954,13.013-7,18.2s-9.568,9.493-16.141,9.384l-.36,1.071a21.979,21.979,0,0,0,10.859,2.871c3.784.146,7.569-.238,11.355-.243a57.054,57.054,0,0,1,23.122,4.876A5.907,5.907,0,0,0,373.987,349.506Z" transform="translate(-330.792 -316.557)"/>
                </g>
              </g>
            </g>
            <g id="Grupo_111986" data-name="Grupo 111986" transform="translate(44.347 171.612)">
              <g id="Grupo_111985" data-name="Grupo 111985">
                <g id="Grupo_111984" data-name="Grupo 111984">
                  <path id="Trazado_102394" data-name="Trazado 102394" d="M160.15,365.671c-.1.013-.253-1.491-.915-3.817a28.705,28.705,0,0,0-1.469-3.972,28.478,28.478,0,0,0-5.92-8.451,28.738,28.738,0,0,0-3.232-2.738c-1.959-1.416-3.319-2.076-3.274-2.164a4.256,4.256,0,0,1,.98.41,10.381,10.381,0,0,1,1.1.585c.417.249.907.512,1.4.873a25.36,25.36,0,0,1,3.353,2.7,26.7,26.7,0,0,1,6.021,8.6,25.423,25.423,0,0,1,1.39,4.072c.169.589.248,1.14.341,1.616a10.457,10.457,0,0,1,.174,1.234A4.183,4.183,0,0,1,160.15,365.671Z" transform="translate(-145.339 -344.524)" fill="#fafafa"/>
                </g>
              </g>
            </g>
            <g id="Grupo_111989" data-name="Grupo 111989" transform="translate(71.923 148.872)">
              <g id="Grupo_111988" data-name="Grupo 111988">
                <g id="Grupo_111987" data-name="Grupo 111987">
                  <path id="Trazado_102395" data-name="Trazado 102395" d="M186.249,325.815a5.57,5.57,0,0,1-2.056.328,13.9,13.9,0,0,1-9.347-3.249,5.514,5.514,0,0,1-1.408-1.533,17.306,17.306,0,0,0,12.812,4.454Z" transform="translate(-173.434 -321.355)" fill="#fafafa"/>
                </g>
              </g>
            </g>
            <g id="Grupo_111992" data-name="Grupo 111992" transform="translate(61.68 123.543)">
              <g id="Grupo_111991" data-name="Grupo 111991">
                <g id="Grupo_111990" data-name="Grupo 111990">
                  <path id="Trazado_102396" data-name="Trazado 102396" d="M177.5,301.734c-.083.049-.535-.783-1.56-1.869a12.328,12.328,0,0,0-1.991-1.685A12.743,12.743,0,0,0,168,296.042a12.252,12.252,0,0,0-2.608.034c-1.482.185-2.36.54-2.393.449-.013-.032.2-.14.592-.308a7.944,7.944,0,0,1,1.747-.5,10.961,10.961,0,0,1,2.7-.147,12.1,12.1,0,0,1,6.182,2.221,10.961,10.961,0,0,1,1.991,1.831,8.011,8.011,0,0,1,1.031,1.5C177.439,301.5,177.532,301.717,177.5,301.734Z" transform="translate(-162.998 -295.549)" fill="#fafafa"/>
                </g>
              </g>
            </g>
            <g id="Grupo_111995" data-name="Grupo 111995" transform="translate(46.472 143.861)">
              <g id="Grupo_111994" data-name="Grupo 111994">
                <g id="Grupo_111993" data-name="Grupo 111993">
                  <path id="Trazado_102397" data-name="Trazado 102397" d="M157.738,316.851a20.752,20.752,0,0,0-5.3.117,20.812,20.812,0,0,0-4.934,1.936c-.037-.047.393-.49,1.233-1.022a11.026,11.026,0,0,1,7.468-1.5A3.659,3.659,0,0,1,157.738,316.851Z" transform="translate(-147.504 -316.25)" fill="#fafafa"/>
                </g>
              </g>
            </g>
            <g id="Grupo_111998" data-name="Grupo 111998" transform="translate(66.055 99.705)">
              <g id="Grupo_111997" data-name="Grupo 111997">
                <g id="Grupo_111996" data-name="Grupo 111996">
                  <path id="Trazado_102398" data-name="Trazado 102398" d="M177.759,276.677a4.394,4.394,0,0,1-1.782,0,12.3,12.3,0,0,1-7.509-3.945,4.377,4.377,0,0,1-1.008-1.469,16.269,16.269,0,0,0,10.3,5.41Z" transform="translate(-167.455 -271.263)" fill="#fafafa"/>
                </g>
              </g>
            </g>
            <g id="Grupo_112001" data-name="Grupo 112001" transform="translate(91.598 98.354)">
              <g id="Grupo_112000" data-name="Grupo 112000">
                <g id="Grupo_111999" data-name="Grupo 111999">
                  <path id="Trazado_102399" data-name="Trazado 102399" d="M197.86,273.292c-.133.072-.77-1.032-1.985-1.949-1.2-.936-2.43-1.265-2.395-1.413a4.916,4.916,0,0,1,4.38,3.363Z" transform="translate(-193.479 -269.886)" fill="#fafafa"/>
                </g>
              </g>
            </g>
            <g id="Grupo_112004" data-name="Grupo 112004" transform="translate(82.014 62.212)">
              <g id="Grupo_112003" data-name="Grupo 112003">
                <g id="Grupo_112002" data-name="Grupo 112002">
                  <path id="Trazado_102400" data-name="Trazado 102400" d="M208.709,265.509a1.6,1.6,0,0,1-.463-.014c-.3-.035-.751-.055-1.318-.159a25.618,25.618,0,0,1-4.73-1.222,27.712,27.712,0,0,1-18.422-24.408,25.512,25.512,0,0,1,.121-4.883c.055-.574.159-1.012.208-1.31a1.6,1.6,0,0,1,.114-.451,16.169,16.169,0,0,1-.124,1.78,29.629,29.629,0,0,0,.041,4.835,28.133,28.133,0,0,0,18.189,24.1,29.741,29.741,0,0,0,4.64,1.364A16.127,16.127,0,0,1,208.709,265.509Z" transform="translate(-183.715 -233.063)" fill="#fafafa"/>
                </g>
              </g>
            </g>
            <g id="Grupo_112007" data-name="Grupo 112007" transform="translate(96.283 45.163)">
              <g id="Grupo_112006" data-name="Grupo 112006">
                <g id="Grupo_112005" data-name="Grupo 112005">
                  <path id="Trazado_102401" data-name="Trazado 102401" d="M200.345,221.178c-.036.051-.368-.092-.784-.492a4.526,4.526,0,0,1-1.2-4.158c.139-.56.344-.858.4-.833a6.53,6.53,0,0,0,1.581,5.483Z" transform="translate(-198.252 -215.694)" fill="#fafafa"/>
                </g>
              </g>
            </g>
            <g id="Grupo_112010" data-name="Grupo 112010" transform="translate(108.144 21.064)">
              <g id="Grupo_112009" data-name="Grupo 112009">
                <g id="Grupo_112008" data-name="Grupo 112008">
                  <path id="Trazado_102402" data-name="Trazado 102402" d="M216.013,195.339c.02.05-.4.28-1.16.306a4.621,4.621,0,0,1-4.408-3.3c-.186-.736-.084-1.2-.031-1.2.086,0,.119.446.374,1.086a5.017,5.017,0,0,0,4.078,3.057C215.552,195.35,215.992,195.256,216.013,195.339Z" transform="translate(-210.338 -191.141)" fill="#fafafa"/>
                </g>
              </g>
            </g>
            <g id="Grupo_112013" data-name="Grupo 112013" transform="translate(9.104 194.478)">
              <g id="Grupo_112012" data-name="Grupo 112012">
                <g id="Grupo_112011" data-name="Grupo 112011">
                  <path id="Trazado_102403" data-name="Trazado 102403" d="M114.392,376.588a3.184,3.184,0,0,1-1.439-.657,8.165,8.165,0,0,1-3.521-6.549,3.187,3.187,0,0,1,.245-1.563,10.418,10.418,0,0,1,.116,1.543,9.281,9.281,0,0,0,3.374,6.278C113.9,376.234,114.428,376.511,114.392,376.588Z" transform="translate(-109.432 -367.82)" fill="#fafafa"/>
                </g>
              </g>
            </g>
            <g id="Grupo_112016" data-name="Grupo 112016" transform="translate(0 226.548)">
              <g id="Grupo_112015" data-name="Grupo 112015">
                <g id="Grupo_112014" data-name="Grupo 112014">
                  <path id="Trazado_102404" data-name="Trazado 102404" d="M106.46,403.2a7.928,7.928,0,0,1-6.3-2.7c.1-.116,1.308.862,3.044,1.595C104.934,402.849,106.475,403.05,106.46,403.2Z" transform="translate(-100.157 -400.493)" fill="#fafafa"/>
                </g>
              </g>
            </g>
          </g>
          <g id="Grupo_112020" data-name="Grupo 112020" transform="translate(261.996 278.443)" opacity="0.3">
            <g id="Grupo_112019" data-name="Grupo 112019">
              <g id="Grupo_112018" data-name="Grupo 112018">
                <path id="Trazado_102405" data-name="Trazado 102405" d="M265.043,281.7" transform="translate(-265.043 -281.695)"/>
              </g>
            </g>
          </g>
          <g id="Grupo_112023" data-name="Grupo 112023" transform="translate(255.733 105.731)">
            <g id="Grupo_112022" data-name="Grupo 112022">
              <g id="Grupo_112021" data-name="Grupo 112021">
                <path id="Trazado_102406" data-name="Trazado 102406" d="M261.082,105.732a42.235,42.235,0,0,0-1.759,7.048,42.117,42.117,0,0,0,.007,7.265,6.715,6.715,0,0,1-.493-2.1,20.779,20.779,0,0,1,1.259-10.284A6.8,6.8,0,0,1,261.082,105.732Z" transform="translate(-258.662 -105.731)" fill="#263238"/>
              </g>
            </g>
          </g>
          <g id="Grupo_112026" data-name="Grupo 112026" transform="translate(255.754 111.398)">
            <g id="Grupo_112025" data-name="Grupo 112025">
              <g id="Grupo_112024" data-name="Grupo 112024">
                <path id="Trazado_102407" data-name="Trazado 102407" d="M268.89,111.514a33.014,33.014,0,0,0-5.753,3.813,33.178,33.178,0,0,0-4.447,5.278,5.983,5.983,0,0,1,.9-1.855,17.629,17.629,0,0,1,7.357-6.559A5.978,5.978,0,0,1,268.89,111.514Z" transform="translate(-258.683 -111.504)" fill="#263238"/>
              </g>
            </g>
          </g>
          <g id="Grupo_112029" data-name="Grupo 112029" transform="translate(213.649 108.366)">
            <g id="Grupo_112028" data-name="Grupo 112028">
              <g id="Grupo_112027" data-name="Grupo 112027">
                <path id="Trazado_102408" data-name="Trazado 102408" d="M222.341,109.245a3.739,3.739,0,0,0-2.164-.631,4.429,4.429,0,0,0-2.456.924,3.808,3.808,0,0,0-1.566,2.977,5.506,5.506,0,0,0,1.554,3.835,6.3,6.3,0,0,0,1.9,1.378,7.506,7.506,0,0,0,2.429.622,11.189,11.189,0,0,0,5.318-.959,29.892,29.892,0,0,0,5.114-3,41.173,41.173,0,0,1,5.116-3.176,13.242,13.242,0,0,1,5.446-1.448,18.171,18.171,0,0,1,5.061.588,21.594,21.594,0,0,1,4.187,1.452,8.247,8.247,0,0,1,2.9,2.251,5.723,5.723,0,0,1,1.133,2.529,4.148,4.148,0,0,1-.053,1.749,1.973,1.973,0,0,1-.218.568,5.108,5.108,0,0,0,.076-2.28,5.666,5.666,0,0,0-1.161-2.389,8.075,8.075,0,0,0-2.833-2.1,21.809,21.809,0,0,0-4.129-1.364,17.99,17.99,0,0,0-4.94-.53,12.865,12.865,0,0,0-5.246,1.427,41.637,41.637,0,0,0-5.048,3.149,29.86,29.86,0,0,1-5.207,3.036,11.592,11.592,0,0,1-5.557.967,7.935,7.935,0,0,1-2.574-.683,6.693,6.693,0,0,1-2.026-1.5,5.857,5.857,0,0,1-1.6-4.138,4.089,4.089,0,0,1,.559-1.9,4.452,4.452,0,0,1,1.2-1.289,4.563,4.563,0,0,1,2.623-.892,3.211,3.211,0,0,1,1.692.448,2.195,2.195,0,0,1,.367.271C222.309,109.2,222.345,109.239,222.341,109.245Z" transform="translate(-215.786 -108.416)" fill="#263238"/>
              </g>
            </g>
          </g>
          <g id="Grupo_112032" data-name="Grupo 112032" transform="translate(214.884 133.499)">
            <g id="Grupo_112031" data-name="Grupo 112031" transform="translate(0 0)">
              <g id="Grupo_112030" data-name="Grupo 112030">
                <path id="Trazado_102409" data-name="Trazado 102409" d="M217.044,152.626c.011-.055.611.089,1.712.139a14.149,14.149,0,0,0,4.589-.61,21.411,21.411,0,0,0,6.138-3.086,55.745,55.745,0,0,0,6.384-5.591,57.89,57.89,0,0,1,6.43-5.656,21.652,21.652,0,0,1,6.245-3.176,13.572,13.572,0,0,1,4.685-.6,9.159,9.159,0,0,1,1.276.164,1.478,1.478,0,0,1,.434.114,15.311,15.311,0,0,0-6.287.668,22.118,22.118,0,0,0-6.078,3.213,61.46,61.46,0,0,0-6.349,5.642,52.824,52.824,0,0,1-6.47,5.609,20.981,20.981,0,0,1-6.309,3.048,13.266,13.266,0,0,1-4.7.461,8.84,8.84,0,0,1-1.269-.209A1.5,1.5,0,0,1,217.044,152.626Z" transform="translate(-217.044 -134.022)" fill="#263238"/>
              </g>
            </g>
          </g>
          <g id="Grupo_112035" data-name="Grupo 112035" transform="translate(257.634 118.164)">
            <g id="Grupo_112034" data-name="Grupo 112034">
              <g id="Grupo_112033" data-name="Grupo 112033">
                <path id="Trazado_102410" data-name="Trazado 102410" d="M277.231,125.606a24.71,24.71,0,0,0-1.509-2.531,10.207,10.207,0,0,0-12.578-3.235,24.673,24.673,0,0,0-2.543,1.49c-.021-.022.163-.244.552-.591a8.812,8.812,0,0,1,1.835-1.225,10.1,10.1,0,0,1,13.028,3.35,8.883,8.883,0,0,1,1.017,1.958A2.183,2.183,0,0,1,277.231,125.606Z" transform="translate(-260.599 -118.398)" fill="#263238"/>
              </g>
            </g>
          </g>
          <g id="Grupo_112051" data-name="Grupo 112051" transform="translate(138.941 191.813)">
            <g id="Grupo_112038" data-name="Grupo 112038" transform="translate(183.6)">
              <g id="Grupo_112037" data-name="Grupo 112037">
                <g id="Grupo_112036" data-name="Grupo 112036">
                  <path id="Trazado_102411" data-name="Trazado 102411" d="M338.928,221.357a6.753,6.753,0,0,1-.11-1.333c-.028-.957-.065-2.174-.109-3.629-.027-1.566-.06-3.38-.1-5.378a17.447,17.447,0,0,0-.225-3.127,3.982,3.982,0,0,0-1.614-2.69,8.812,8.812,0,0,1-1.393-1.11,2.368,2.368,0,0,1-.593-1.723c.014-.582.122-1.114.1-1.606a1.642,1.642,0,0,0-.523-1.222,20.866,20.866,0,0,0-2.485-1.343,4.929,4.929,0,0,1-1.593-2.027,6.872,6.872,0,0,0-1.063-1.711,2.945,2.945,0,0,0-1.251-.793,1.862,1.862,0,0,0-1.249.105,1.289,1.289,0,0,1,1.3-.3,3.05,3.05,0,0,1,1.4.783A6.823,6.823,0,0,1,330.612,196a4.646,4.646,0,0,0,1.5,1.839,17.755,17.755,0,0,1,2.575,1.354,2.125,2.125,0,0,1,.692,1.548c.023.571-.085,1.113-.091,1.633a1.864,1.864,0,0,0,.471,1.376,8.644,8.644,0,0,0,1.317,1.036,4.016,4.016,0,0,1,1.229,1.349,5.552,5.552,0,0,1,.573,1.658,17.1,17.1,0,0,1,.2,3.208c0,2-.01,3.823-.014,5.392-.022,1.456-.039,2.675-.053,3.633A6.7,6.7,0,0,1,338.928,221.357Z" transform="translate(-326.728 -193.434)" fill="#263238"/>
                </g>
              </g>
            </g>
            <g id="Grupo_112041" data-name="Grupo 112041" transform="translate(194.738 8.26)">
              <g id="Grupo_112040" data-name="Grupo 112040">
                <g id="Grupo_112039" data-name="Grupo 112039">
                  <path id="Trazado_102412" data-name="Trazado 102412" d="M342.755,226.136a2.271,2.271,0,0,1-.444-.979,6.279,6.279,0,0,1,.036-2.928c.237-1.222.83-2.579,1.25-4.107.4-1.5.642-3.381-.465-4.825-.262-.368-.565-.725-.816-1.136a3.115,3.115,0,0,1-.464-1.362,13.625,13.625,0,0,1,.21-2.567,6.069,6.069,0,0,0-1.04-3.926A6.59,6.59,0,0,0,339,202.364c-.578-.343-.938-.466-.923-.51a2.685,2.685,0,0,1,1.019.336,6.208,6.208,0,0,1,2.223,1.91,6.3,6.3,0,0,1,1.214,4.173,14.254,14.254,0,0,0-.182,2.474,4.51,4.51,0,0,0,1.2,2.253,4.57,4.57,0,0,1,.884,2.68,8.674,8.674,0,0,1-.381,2.568c-.464,1.579-1.081,2.889-1.353,4.063a6.679,6.679,0,0,0-.194,2.8C342.624,225.774,342.8,226.116,342.755,226.136Z" transform="translate(-338.076 -201.85)" fill="#263238"/>
                </g>
              </g>
            </g>
            <g id="Grupo_112044" data-name="Grupo 112044" transform="translate(23.553 22.682)">
              <g id="Grupo_112043" data-name="Grupo 112043">
                <g id="Grupo_112042" data-name="Grupo 112042">
                  <path id="Trazado_102413" data-name="Trazado 102413" d="M163.686,250.142a1.215,1.215,0,0,1-.015-.395,9.5,9.5,0,0,1,.1-1.123,19.232,19.232,0,0,1,1.073-4c.617-1.644,1.476-3.527,2.494-5.608a10.791,10.791,0,0,1,2.126-3c.923-.871,2.061-1.589,2.452-2.78.387-1.175.207-2.576.735-3.805a18.1,18.1,0,0,1,1.836-3.163l3.385-5.1,2.32-3.411a8.482,8.482,0,0,1,.909-1.213,8.594,8.594,0,0,1-.743,1.321l-2.183,3.5-3.294,5.156a18.293,18.293,0,0,0-1.763,3.086c-.486,1.109-.293,2.424-.719,3.791-.482,1.409-1.731,2.156-2.592,2.98a10.514,10.514,0,0,0-2.052,2.851c-1.027,2.043-1.926,3.921-2.575,5.522a22.384,22.384,0,0,0-1.213,3.907C163.779,249.607,163.729,250.145,163.686,250.142Z" transform="translate(-163.668 -216.543)" fill="#263238"/>
                </g>
              </g>
            </g>
            <g id="Grupo_112047" data-name="Grupo 112047" transform="translate(0 105.623)">
              <g id="Grupo_112046" data-name="Grupo 112046">
                <g id="Grupo_112045" data-name="Grupo 112045">
                  <path id="Trazado_102414" data-name="Trazado 102414" d="M140.985,330.406a1.407,1.407,0,0,0,1.08-.538,2.1,2.1,0,0,0,.423-1.351,3.689,3.689,0,0,0-.749-1.768,13.175,13.175,0,0,1-1.333-2.1,8.083,8.083,0,0,1-.715-2.8,8.315,8.315,0,0,1,.384-3.172,9.035,9.035,0,0,1,1.7-2.963,7.352,7.352,0,0,0,.883-1.382,3.919,3.919,0,0,0,.333-1.5,15.683,15.683,0,0,0-.4-3.039,8.615,8.615,0,0,1-.1-2.882,8.332,8.332,0,0,1,.757-2.4,7.831,7.831,0,0,1,2.267-2.793,5.468,5.468,0,0,1,.823-.531c.2-.1.306-.149.315-.133.025.041-.385.272-1.012.818a8.261,8.261,0,0,0-2.066,2.8,7.863,7.863,0,0,0-.525,5.038,15.417,15.417,0,0,1,.44,3.137,4.39,4.39,0,0,1-.37,1.7,7.677,7.677,0,0,1-.94,1.482,8.663,8.663,0,0,0-1.629,2.81,7.966,7.966,0,0,0-.39,2.985,7.79,7.79,0,0,0,.631,2.657,13.518,13.518,0,0,0,1.248,2.08,3.882,3.882,0,0,1,.733,1.96,2.257,2.257,0,0,1-.557,1.487,1.319,1.319,0,0,1-.887.463A.61.61,0,0,1,140.985,330.406Z" transform="translate(-139.671 -301.046)" fill="#263238"/>
                </g>
              </g>
            </g>
            <g id="Grupo_112050" data-name="Grupo 112050" transform="translate(210.982 81.503)">
              <g id="Grupo_112049" data-name="Grupo 112049">
                <g id="Grupo_112048" data-name="Grupo 112048">
                  <path id="Trazado_102415" data-name="Trazado 102415" d="M375.629,301.521c-.053,0,.062-.536-.058-1.475a6.186,6.186,0,0,0-1.731-3.5,5.687,5.687,0,0,0-2.3-1.4,12.872,12.872,0,0,1-1.477-.589,2.943,2.943,0,0,1-1.3-1.2c-.594-1.148-.31-2.44-.3-3.621a3.743,3.743,0,0,0-.306-1.718,2.661,2.661,0,0,0-1.271-1.185c-2.3-1.057-4.988,0-7.236-1.044a3.373,3.373,0,0,1-1.362-1.111,4,4,0,0,1-.617-1.522,16.141,16.141,0,0,1-.157-2.833,5.6,5.6,0,0,0-.4-2.2,2.83,2.83,0,0,0-1.093-1.237,2.281,2.281,0,0,0-1.389-.3,1.569,1.569,0,0,1,1.486.124A2.965,2.965,0,0,1,357.366,278a5.731,5.731,0,0,1,.506,2.309,16.712,16.712,0,0,0,.211,2.76,3.027,3.027,0,0,0,1.76,2.292,8.2,8.2,0,0,0,3.4.449,8.6,8.6,0,0,1,3.862.562,3.172,3.172,0,0,1,1.506,1.419,4.211,4.211,0,0,1,.353,1.952c-.03,1.249-.267,2.461.218,3.392a4.228,4.228,0,0,0,2.507,1.615A5.991,5.991,0,0,1,374.1,296.3a6.15,6.15,0,0,1,1.67,3.726,5.1,5.1,0,0,1-.041,1.119A1.093,1.093,0,0,1,375.629,301.521Z" transform="translate(-354.626 -276.471)" fill="#263238"/>
                </g>
              </g>
            </g>
          </g>
          <g id="Grupo_112068" data-name="Grupo 112068" transform="translate(259.896 286.085)">
            <g id="Grupo_112053" data-name="Grupo 112053">
              <g id="Grupo_112052" data-name="Grupo 112052">
                <path id="Trazado_102416" data-name="Trazado 102416" d="M290.3,326.561c-7.847-9.481-12.76-21.492-21.345-37.08,0,0-16.224,70.487,4.472,72.145,9.6.769,15.224-5.293,12.14-22.265C283.509,328.05,290.3,326.561,290.3,326.561Z" transform="translate(-262.904 -289.481)" fill="#ffce26"/>
              </g>
            </g>
            <g id="Grupo_112056" data-name="Grupo 112056" transform="translate(11.311 16.674)">
              <g id="Grupo_112055" data-name="Grupo 112055">
                <g id="Grupo_112054" data-name="Grupo 112054">
                  <path id="Trazado_102417" data-name="Trazado 102417" d="M278.348,306.469a2.083,2.083,0,0,1-.04.531c-.056.4-.127.9-.211,1.507-.2,1.381-.458,3.255-.78,5.538-.625,4.679-1.413,11.156-1.947,18.337-.5,7.173-.789,13.732.119,18.357a22.721,22.721,0,0,0,1.612,5.305c.534,1.2.939,1.814.889,1.844a2.142,2.142,0,0,1-.311-.433,12.193,12.193,0,0,1-.758-1.326,20.929,20.929,0,0,1-1.787-5.322c-1.011-4.679-.776-11.28-.273-18.464.535-7.2,1.381-13.678,2.1-18.35.356-2.337.7-4.22.941-5.519.123-.6.225-1.093.306-1.491A2.045,2.045,0,0,1,278.348,306.469Z" transform="translate(-274.428 -306.469)" fill="#263238"/>
                </g>
              </g>
            </g>
            <g id="Grupo_112059" data-name="Grupo 112059" transform="translate(2.02 61.965)">
              <g id="Grupo_112058" data-name="Grupo 112058">
                <g id="Grupo_112057" data-name="Grupo 112057">
                  <path id="Trazado_102418" data-name="Trazado 102418" d="M275.352,352.628a12.708,12.708,0,0,1-10.389.921,39.384,39.384,0,0,0,5.248.145A39.5,39.5,0,0,0,275.352,352.628Z" transform="translate(-264.962 -352.612)" fill="#fafafa"/>
                </g>
              </g>
            </g>
            <g id="Grupo_112062" data-name="Grupo 112062" transform="translate(12.229 37.592)">
              <g id="Grupo_112061" data-name="Grupo 112061">
                <g id="Grupo_112060" data-name="Grupo 112060">
                  <path id="Trazado_102419" data-name="Trazado 102419" d="M286.108,330.142c-.061.142-2.344-.812-5.309-1.416-2.962-.624-5.437-.657-5.436-.811a18.755,18.755,0,0,1,10.745,2.227Z" transform="translate(-275.363 -327.781)" fill="#fafafa"/>
                </g>
              </g>
            </g>
            <g id="Grupo_112065" data-name="Grupo 112065" transform="translate(4.379 11.71)">
              <g id="Grupo_112064" data-name="Grupo 112064">
                <g id="Grupo_112063" data-name="Grupo 112063">
                  <path id="Trazado_102420" data-name="Trazado 102420" d="M277.209,306.2a34.714,34.714,0,0,0-4.618-3,34.489,34.489,0,0,0-5.225-1.743,12.951,12.951,0,0,1,9.843,4.743Z" transform="translate(-267.366 -301.412)" fill="#fafafa"/>
                </g>
              </g>
            </g>
            <g id="Grupo_112067" data-name="Grupo 112067" transform="translate(12.013 17.275)" opacity="0.3">
              <g id="Grupo_112066" data-name="Grupo 112066">
                <path id="Trazado_102421" data-name="Trazado 102421" d="M278.255,307.081s-8.156,50.824,1.939,52.094c0,0,3.047,1.011,4.754-4.751s-.488-12.511-1-16.319a12.093,12.093,0,0,1,2.579-9.073c1.929-2.2,4.04-2.5,4-2.42C290.352,326.953,278.361,307.285,278.255,307.081Z" transform="translate(-275.143 -307.081)"/>
              </g>
            </g>
          </g>
          <g id="Grupo_112071" data-name="Grupo 112071" transform="translate(220.837 170.926)">
            <g id="Grupo_112070" data-name="Grupo 112070">
              <g id="Grupo_112069" data-name="Grupo 112069">
                <path id="Trazado_102422" data-name="Trazado 102422" d="M230.65,173.581c.028.7-1.715,1.337-3.881,1.164s-3.789-1.07-3.652-1.757,1.849-.945,3.852-.791S230.624,172.871,230.65,173.581Z" transform="translate(-223.109 -172.153)" fill="#eb996e"/>
              </g>
            </g>
          </g>
          <g id="Grupo_112074" data-name="Grupo 112074" transform="translate(245.917 167.723)">
            <g id="Grupo_112073" data-name="Grupo 112073">
              <g id="Grupo_112072" data-name="Grupo 112072">
                <path id="Trazado_102423" data-name="Trazado 102423" d="M262.579,169.1c.315.617-2.454,2.644-6.421,3.9s-7.395,1.215-7.494.528c-.111-.709,2.968-1.76,6.719-2.963C259.138,169.38,262.259,168.458,262.579,169.1Z" transform="translate(-248.661 -168.89)" fill="#eb996e"/>
              </g>
            </g>
          </g>
        </g>
      </g>
    </g>
  </g>
</svg>
