<svg xmlns="http://www.w3.org/2000/svg" width="81.578" height="100" viewBox="0 0 81.578 100">
  <g id="Grupo_113306" data-name="Grupo 113306" transform="translate(621.805 -1788.431)">
    <path id="Trazado_102866" data-name="Trazado 102866" d="M-544.692,1797.574c1.844-.32,2.168-.173,3.091,1.895a2,2,0,0,0,1.716,1.346,6.067,6.067,0,0,1,4.761,4.276,18.4,18.4,0,0,1,.491,8.967c-.191,1.38-.5,2.747-.8,4.108a1.025,1.025,0,0,0,.283,1.034,7,7,0,0,1,1.828,4.9,18,18,0,0,1-.119,3.311,7.264,7.264,0,0,1-7.066,5.87c-1.576.071-1.576.071-2.034,1.62-.091.306-.178.613-.282.971a13.39,13.39,0,0,1,8.378,3.383,13.843,13.843,0,0,1,4.4,8.673c.84,5.756,1.7,11.51,2.633,17.251a11.942,11.942,0,0,1-9.9,13.887c-.969.155-1.167.5-1.129,1.394.073,1.722.028,3.449.019,5.174a2.466,2.466,0,0,1-2.742,2.79q-19.722.008-39.443,0a2.472,2.472,0,0,1-2.771-2.761c-.01-1.855-.035-3.711.015-5.564.018-.653-.163-.841-.813-.953a11.779,11.779,0,0,1-10-8.908c-.689-2.354-.277-4.706.09-7.055.832-5.33,1.622-10.667,2.494-15.99a13.074,13.074,0,0,1,11.853-11.242c.668-.074.837-.192.554-.841-.242-.557-.188-1.386-.58-1.694s-1.178-.11-1.79-.157a7.2,7.2,0,0,1-6.926-7.373c-.038-2.131-.12-4.306,1.353-6.036a2.721,2.721,0,0,0,.519-2.7c-.817-3.8-1.385-7.623-.282-11.478a1.292,1.292,0,0,0-.1-.757,9.472,9.472,0,0,1,2.392-9.889c2.856-3.052,6.551-4.6,10.508-5.613a30.5,30.5,0,0,1,4.607-.792c.154-.015.333.023.383-.2h6.641A22.865,22.865,0,0,0-559,1789a32.892,32.892,0,0,1,10.5,3.638c1.239.7,1.395,1.081,1.073,2.437a1.883,1.883,0,0,1-2.553.148,26.289,26.289,0,0,0-8.167-3.048,33.675,33.675,0,0,0-12.586-.425,21.979,21.979,0,0,0-10.637,4.263c-2.385,1.907-4.089,4.858-2.688,8.447a2.661,2.661,0,0,1,.063,1.731c-1.046,3.5-.429,6.949.241,10.4.083.427.252.512.667.4a7.276,7.276,0,0,1,2.513-.231c.638.056.759-.24.744-.8-.032-1.17.006-2.342-.013-3.513a7.326,7.326,0,0,1,1.071-3.9,3.46,3.46,0,0,1,4.177-1.654c.374.109.736.257,1.109.37,8.344,2.535,16.56,2.622,24.563-1.3a3.37,3.37,0,0,1,3.437.174,7.035,7.035,0,0,1,3.349,4.705,23.811,23.811,0,0,1,.144,4.96c0,.8.251,1.035,1,.95a5.548,5.548,0,0,1,2.124.185c.511.142.758.081.829-.528.1-.9.352-1.781.481-2.678a17.137,17.137,0,0,0-.119-6.963c-.385-1.439-1.044-2.9-2.661-3.023-2.114-.166-3.427-1-3.928-3.07a.907.907,0,0,0-.183-.342A2.191,2.191,0,0,1-544.692,1797.574Zm-22.32,72.833c-.333-1.216-.179-1.625.893-2.248,1.8-1.045,3.661-1.988,5.385-3.14a7.966,7.966,0,0,1,6.209-1.27,2.906,2.906,0,0,0,2.1-.117c1.348-.784,2.711-1.541,4.046-2.347a2.089,2.089,0,0,0,1.034-2.327c-.331-1.888-.629-3.782-.974-5.667a3.013,3.013,0,0,1,.347-2.159c.218-.37.488-.742.064-1.129s-.785-.1-1.151.112c-1.493.856-2.975,1.734-4.481,2.566a3.351,3.351,0,0,1-4.283-.576c-.306-.292-.606-.591-.889-.9a1.209,1.209,0,0,0-1.394-.427,1.2,1.2,0,0,0-.707,1.185,15.846,15.846,0,0,0-.158,2.724c.244,2.455-1.054,3.658-3.077,4.774-6.4,3.529-12.681,7.266-19.012,10.916-.987.569-1.843.419-2.295-.364a1.452,1.452,0,0,1,.834-2.143,1.736,1.736,0,0,0,1.148-2.045,5.245,5.245,0,0,1,0-1.267c.052-.552-.148-.729-.708-.719-1.789.032-3.579.012-5.368.012-1.724,0-1.751,0-2.008,1.645a8.8,8.8,0,0,0,3.659,9.153,8.569,8.569,0,0,0,9.732.411c1.79-.99,3.546-2.042,5.323-3.058a1.616,1.616,0,0,1,2.416.279,1.682,1.682,0,0,1-.943,2.258c-.833.438-1.63.944-2.453,1.4-2.036,1.134-3.947,2.532-6.292,3.017-.443.091-.441.373-.439.717.009,1.594.052,3.19-.016,4.781-.035.827.147,1.077,1.038,1.073,10.183-.038,20.365-.024,30.548-.024,2.277,0,4.555-.016,6.832.012.541.007.724-.133.712-.7-.035-1.723-.03-3.448,0-5.172a.613.613,0,0,0-.564-.728,13.723,13.723,0,0,1-4.088-1.776c-4.72-2.735-9.454-5.447-14.166-8.2a1.234,1.234,0,0,0-1.488,0c-.984.63-2.03,1.16-3.027,1.77A1.614,1.614,0,0,1-567.013,1870.407Zm26.376-31.187a8.972,8.972,0,0,0-2.682-.413,2.049,2.049,0,0,0-1.89.853,11.954,11.954,0,0,1-8.8,4.443c-4,.157-8,.06-12.006.11a13.191,13.191,0,0,1-10.958-4.958,1.03,1.03,0,0,0-.8-.447,10.23,10.23,0,0,0-10.885,8.577c-.724,4.294-1.325,8.61-2.023,12.909-.1.612.127.628.585.625,2.018-.013,4.036-.02,6.054,0,.5.006.688-.134.665-.657-.039-.91-.023-1.822-.007-2.733a1.462,1.462,0,0,1,1.428-1.629,1.486,1.486,0,0,1,1.491,1.589c.029.91.008,1.822.008,2.734,0,1.7,0,3.406,0,5.25,1.419-.814,2.673-1.552,3.946-2.254.417-.23.346-.4.1-.726a5.046,5.046,0,0,1-.937-4.144c.326-1.724.572-3.463.883-5.19a1.34,1.34,0,0,0-.128-.921,3.458,3.458,0,0,1,.645-4.357,3.494,3.494,0,0,1,4.4-.466c1.248.7,2.478,1.426,3.718,2.136,1.683.963,1.3.976,2.545-.328a4.284,4.284,0,0,1,3.955-1.408,1.661,1.661,0,0,0,.574.049,4.419,4.419,0,0,1,4.633,1.8,1.029,1.029,0,0,0,1.575.231c1.465-.9,2.961-1.76,4.472-2.585a3.449,3.449,0,0,1,4.149.517,3.3,3.3,0,0,1,.929,3.9,3.432,3.432,0,0,0-.217,2.324c.2,1.119.325,2.256.586,3.361a5.712,5.712,0,0,1-1.128,5.526l4.355,2.507c.019-.274.039-.423.039-.571,0-2.441-.011-4.882.009-7.323a1.489,1.489,0,0,1,1.527-1.648c.848.032,1.378.65,1.394,1.663.015.911.024,1.823,0,2.734-.015.46.126.631.6.619,1.431-.036,2.862-.033,4.293-.045.649.012,1.3.014,1.945.041.417.017.548-.089.474-.555-.708-4.453-1.324-8.921-2.1-13.362A9.852,9.852,0,0,0-540.636,1839.221Zm-4.277-17.23q0-4.736,0-9.472a4.314,4.314,0,0,0-1.829-3.691,1,1,0,0,0-1.162-.1c-8.637,4.2-17.5,4.08-26.489,1.338-1.747-.533-2.014-.42-2.4,1.412a3.788,3.788,0,0,0-.1.771c0,6.412-.083,12.825.031,19.235a9.864,9.864,0,0,0,9.478,9.7c4.191.172,8.4.185,12.591.027,5.836-.22,9.855-4.571,9.88-10.432C-544.9,1827.849-544.913,1824.92-544.914,1821.99Zm-12.895,44.84c.046.058.074.123.123.152,4.866,2.808,9.705,5.665,14.614,8.4a8,8,0,0,0,7.074.341c4.465-1.776,6.73-6.162,5.464-11.461-.111-.465-.419-.406-.739-.406q-2.635,0-5.271-.008c-1.882,0-1.813,0-1.908,1.867a1.882,1.882,0,0,0,1.249,2.184,1.375,1.375,0,0,1,.9,1.071,1.381,1.381,0,0,1-.536,1.471,1.568,1.568,0,0,1-1.829-.008c-3.037-1.755-6.081-3.5-9.1-5.279a1.086,1.086,0,0,0-1.391-.008,7.5,7.5,0,0,1-6.518,1.44,4.365,4.365,0,0,0-1.069-.066A1.26,1.26,0,0,0-557.808,1866.83Zm-6.037-14.812a3.7,3.7,0,0,1-4.935.389c-1.348-.841-2.746-1.6-4.122-2.4-.357-.206-.72-.336-1.058.03-.309.334-.152.664.043.977a3.18,3.18,0,0,1,.387,2.424c-.361,1.846-.632,3.709-.953,5.564a2.166,2.166,0,0,0,.611,1.96.709.709,0,0,0,1.018.14c2.769-1.625,5.556-3.221,8.337-4.824.254-.147.493-.269.5-.639A34.092,34.092,0,0,0-563.845,1852.018Zm-15.991-27.054c0-1.526.007-3.052-.007-4.578,0-.281.151-.62-.387-.711a4.494,4.494,0,0,0-5.318,4.323c-.013.519-.005,1.039,0,1.558.009,3.147,1.868,4.9,5.03,4.817.571-.016.706-.2.7-.734C-579.855,1828.081-579.835,1826.523-579.835,1824.964Zm37.861.049c0,1.558.005,3.116,0,4.675,0,.389.01.641.542.685a4.469,4.469,0,0,0,5.177-4.671c0-.39-.029-.782.005-1.168.237-2.678-1.707-5.075-5.083-4.862-.516.033-.656.167-.647.668C-541.956,1821.9-541.974,1823.455-541.975,1825.013Z" transform="translate(-20.138 0)" fill="#030303"/>
    <path id="Trazado_102867" data-name="Trazado 102867" d="M-516.414,1805.823a2.191,2.191,0,0,0,.239,2.767.906.906,0,0,1,.183.342c.5,2.065,1.814,2.9,3.928,3.07,1.617.127,2.277,1.584,2.661,3.022a17.139,17.139,0,0,1,.119,6.963c-.13.9-.378,1.779-.481,2.678-.07.609-.318.67-.829.528a5.546,5.546,0,0,0-2.124-.185c-.746.085-1-.153-1-.95a23.812,23.812,0,0,0-.144-4.96,7.035,7.035,0,0,0-3.349-4.705,3.37,3.37,0,0,0-3.437-.174c-8,3.922-16.219,3.835-24.563,1.3-.373-.113-.735-.261-1.109-.37a3.46,3.46,0,0,0-4.177,1.654,7.325,7.325,0,0,0-1.071,3.9c.019,1.171-.019,2.343.013,3.513.015.559-.106.855-.744.8a7.27,7.27,0,0,0-2.513.231c-.416.111-.584.026-.667-.4-.67-3.455-1.288-6.906-.241-10.4a2.66,2.66,0,0,0-.063-1.731c-1.4-3.589.3-6.539,2.688-8.447A21.977,21.977,0,0,1-542.456,1800a33.675,33.675,0,0,1,12.586.425,26.282,26.282,0,0,1,8.166,3.048,1.883,1.883,0,0,0,2.553-.149A9.076,9.076,0,0,1-516.414,1805.823Z" transform="translate(-48.417 -8.249)" fill="#675d67"/>
    <path id="Trazado_102868" data-name="Trazado 102868" d="M-345.069,1967.964a5.825,5.825,0,0,1-.94,2.28c-.32.6-.267.928.4,1.17a8.283,8.283,0,0,1,1.388.7,3.223,3.223,0,0,1,1.532,3.594,1.09,1.09,0,0,1-.093.277,3.106,3.106,0,0,0,.6,3.992,2.846,2.846,0,0,1,.121,3.631c-.774,1.2-1.622,2.356-2.48,3.5a1.422,1.422,0,0,1-2.056.39,1.48,1.48,0,0,1-.257-2.16c.679-.992,1.367-1.98,2.1-2.934a.73.73,0,0,0-.031-1.1c-.2-.213-.354-.467-.548-.685a3.749,3.749,0,0,1-.689-4.161c.642-1.677.586-1.7-.989-2.47-2.148-1.053-2.727-2.745-1.679-4.911.841-1.739.841-1.737-1.025-2.047-.673-.112-1.353-.2-2.013-.366a1.373,1.373,0,0,1-1.073-1.7,1.334,1.334,0,0,1,1.564-1.146,32.458,32.458,0,0,1,3.742.646A3.293,3.293,0,0,1-345.069,1967.964Z" transform="translate(-198.76 -129.599)" fill="#030303"/>
    <path id="Trazado_102869" data-name="Trazado 102869" d="M-621.8,1981.982a3.255,3.255,0,0,1,.97-2.428,2.211,2.211,0,0,0,.483-2.945,2.576,2.576,0,0,1-.159-.459,3.246,3.246,0,0,1,1.81-4.207c1.738-.883,1.738-.883.921-2.59-1.164-2.432-.008-4.586,2.682-5,.931-.145,1.858-.317,2.79-.457a1.449,1.449,0,0,1,1.786,1.089,1.418,1.418,0,0,1-1.239,1.759c-.985.207-1.979.383-2.976.519-.572.078-.644.341-.429.791.224.468.478.922.693,1.394a3.282,3.282,0,0,1-1.461,4.417c-.612.341-1.551.392-1.772,1.054-.213.636.33,1.349.548,2.023a3.573,3.573,0,0,1-.7,3.551c-1.111,1.4-1.087,1.417-.046,2.884.452.636.915,1.264,1.357,1.907a1.523,1.523,0,0,1-.167,2.245,1.48,1.48,0,0,1-2.182-.5c-.769-1.048-1.508-2.119-2.266-3.176A3.594,3.594,0,0,1-621.8,1981.982Z" transform="translate(0 -129.643)" fill="#030303"/>
    <path id="Trazado_102870" data-name="Trazado 102870" d="M-495,1879.068c0,2.929.01,5.859,0,8.788-.025,5.861-4.044,10.213-9.88,10.432-4.192.158-8.4.145-12.591-.027a9.864,9.864,0,0,1-9.478-9.7c-.114-6.41-.033-12.823-.031-19.235a3.793,3.793,0,0,1,.1-.771c.388-1.832.655-1.945,2.4-1.412,8.987,2.743,17.852,2.858,26.489-1.338a1,1,0,0,1,1.162.1,4.314,4.314,0,0,1,1.829,3.691Q-495,1874.332-495,1879.068Zm-15.936,8.443a23.757,23.757,0,0,0-5.971.787,1.439,1.439,0,0,0-1.1,1.789,1.435,1.435,0,0,0,1.729,1.056,19.993,19.993,0,0,1,10.494.031,1.456,1.456,0,0,0,1.944-1.12,1.516,1.516,0,0,0-1.322-1.743A25.238,25.238,0,0,0-510.94,1887.511Zm-9.832-9.78a9.472,9.472,0,0,0,6.073-2.846,1.444,1.444,0,0,0-.139-2.4,1.48,1.48,0,0,0-1.936.345,6.9,6.9,0,0,1-4.637,1.993c-1.148.045-1.754.628-1.7,1.565C-523.068,1877.3-522.421,1877.767-520.772,1877.731Zm19.518,0c1.7.042,2.365-.448,2.379-1.4.014-.923-.593-1.459-1.767-1.51a7.075,7.075,0,0,1-4.627-2.023,1.448,1.448,0,0,0-2.162-.095,1.46,1.46,0,0,0,.179,2.226A9.509,9.509,0,0,0-501.254,1877.729Zm-16.839,1.321a1.463,1.463,0,0,0-1.426,1.532,1.512,1.512,0,0,0,1.519,1.56,1.477,1.477,0,0,0,1.4-1.652A1.4,1.4,0,0,0-518.093,1879.05Zm14.107,3.093a1.5,1.5,0,0,0,1.508-1.471,1.469,1.469,0,0,0-1.431-1.621,1.4,1.4,0,0,0-1.483,1.448A1.475,1.475,0,0,0-503.986,1882.142Z" transform="translate(-70.047 -57.077)" fill="#fca58e"/>
    <path id="Trazado_102871" data-name="Trazado 102871" d="M-522.63,2003.435c-1.431.012-2.863.009-4.293.045-.476.012-.617-.158-.6-.619.029-.91.02-1.823.005-2.734-.016-1.012-.546-1.63-1.394-1.663a1.489,1.489,0,0,0-1.527,1.648c-.02,2.441-.007,4.882-.009,7.323,0,.149-.02.3-.039.571l-4.355-2.507a5.712,5.712,0,0,0,1.128-5.526c-.261-1.1-.384-2.241-.587-3.361a3.432,3.432,0,0,1,.217-2.324,3.3,3.3,0,0,0-.929-3.9,3.449,3.449,0,0,0-4.149-.517c-1.511.825-3.007,1.681-4.472,2.585a1.029,1.029,0,0,1-1.575-.231,4.419,4.419,0,0,0-4.633-1.8,1.661,1.661,0,0,1-.574-.049,4.284,4.284,0,0,0-3.955,1.408c-1.248,1.3-.862,1.291-2.545.328-1.241-.71-2.47-1.44-3.718-2.136a3.494,3.494,0,0,0-4.4.466,3.458,3.458,0,0,0-.645,4.357,1.34,1.34,0,0,1,.128.921c-.311,1.727-.557,3.466-.883,5.19a5.046,5.046,0,0,0,.937,4.144c.244.325.315.5-.1.726-1.273.7-2.527,1.44-3.946,2.254,0-1.844,0-3.547,0-5.25,0-.911.022-1.823-.008-2.734a1.486,1.486,0,0,0-1.491-1.589,1.462,1.462,0,0,0-1.428,1.629c-.017.911-.032,1.824.007,2.733.022.522-.162.663-.665.657-2.018-.024-4.036-.018-6.054,0-.458,0-.684-.013-.585-.625.7-4.3,1.3-8.614,2.023-12.909a10.23,10.23,0,0,1,10.885-8.577,1.03,1.03,0,0,1,.8.447,13.191,13.191,0,0,0,10.958,4.958c4-.05,8.009.047,12.006-.11a11.954,11.954,0,0,0,8.8-4.443,2.049,2.049,0,0,1,1.89-.853,8.977,8.977,0,0,1,2.682.413,3.663,3.663,0,0,0,.406.417,11.432,11.432,0,0,1,4.588,7.327c.314,1.718.565,3.447.823,5.174C-523.474,1997.608-523.055,2000.522-522.63,2003.435Z" transform="translate(-31.047 -142.558)" fill="#67cbc0"/>
    <path id="Trazado_102872" data-name="Trazado 102872" d="M-527.161,2097.642a1.614,1.614,0,0,0,2.335.306c1-.611,2.043-1.14,3.027-1.77a1.234,1.234,0,0,1,1.488,0c4.711,2.751,9.445,5.462,14.166,8.2a13.726,13.726,0,0,0,4.088,1.776.613.613,0,0,1,.564.728c-.029,1.724-.034,3.448,0,5.172.012.563-.171.7-.712.7-2.277-.028-4.554-.012-6.832-.012-10.183,0-20.365-.014-30.548.024-.891,0-1.073-.246-1.038-1.073.068-1.591.025-3.187.016-4.781,0-.344,0-.625.439-.717,2.345-.484,4.256-1.883,6.292-3.017.823-.458,1.62-.964,2.453-1.4a1.682,1.682,0,0,0,.943-2.258Z" transform="translate(-59.99 -227.234)" fill="#67cbc0"/>
    <path id="Trazado_102873" data-name="Trazado 102873" d="M-558.685,2044.2l-3.318,1.868a1.616,1.616,0,0,0-2.416-.279c-1.776,1.016-3.533,2.068-5.323,3.058a8.569,8.569,0,0,1-9.732-.411,8.8,8.8,0,0,1-3.659-9.153c.258-1.649.284-1.645,2.008-1.645,1.789,0,3.579.02,5.368-.012.56-.01.76.167.708.719a5.243,5.243,0,0,0,0,1.267,1.736,1.736,0,0,1-1.148,2.045,1.452,1.452,0,0,0-.834,2.144c.452.782,1.307.933,2.295.364,6.331-3.65,12.614-7.386,19.012-10.916,2.023-1.116,3.321-2.319,3.077-4.774a15.856,15.856,0,0,1,.158-2.724,1.2,1.2,0,0,1,.707-1.185,1.209,1.209,0,0,1,1.394.427c.283.314.583.613.889.905a3.351,3.351,0,0,0,4.283.576c1.506-.833,2.988-1.71,4.481-2.566.366-.21.742-.487,1.151-.112s.154.759-.064,1.129a3.013,3.013,0,0,0-.347,2.159c.344,1.886.642,3.78.974,5.667a2.089,2.089,0,0,1-1.034,2.328c-1.335.805-2.7,1.563-4.046,2.346a2.9,2.9,0,0,1-2.1.117,7.966,7.966,0,0,0-6.209,1.27c-1.724,1.152-3.588,2.1-5.385,3.14C-558.863,2042.578-559.018,2042.988-558.685,2044.2Z" transform="translate(-28.466 -173.795)" fill="#fca58e"/>
    <path id="Trazado_102874" data-name="Trazado 102874" d="M-453.775,2080.34a1.261,1.261,0,0,1,1.063-.315,4.371,4.371,0,0,1,1.069.065,7.5,7.5,0,0,0,6.518-1.439,1.085,1.085,0,0,1,1.391.008c3.022,1.781,6.067,3.524,9.1,5.279a1.568,1.568,0,0,0,1.829.008,1.382,1.382,0,0,0,.536-1.471,1.375,1.375,0,0,0-.9-1.071,1.882,1.882,0,0,1-1.249-2.184c.1-1.863.027-1.868,1.908-1.866q2.635,0,5.271.008c.32,0,.628-.059.739.406,1.266,5.3-1,9.685-5.464,11.461a8,8,0,0,1-7.074-.341c-4.908-2.732-9.748-5.589-14.614-8.4C-453.7,2080.464-453.729,2080.4-453.775,2080.34Z" transform="translate(-124.171 -213.51)" fill="#fca58e"/>
    <path id="Trazado_102875" data-name="Trazado 102875" d="M-507.129,2025.793a34.077,34.077,0,0,1-.17,3.625c-.009.37-.248.492-.5.639-2.782,1.6-5.568,3.2-8.337,4.824a.709.709,0,0,1-1.018-.14,2.166,2.166,0,0,1-.611-1.96c.322-1.854.592-3.718.953-5.564a3.18,3.18,0,0,0-.387-2.423c-.2-.312-.352-.642-.043-.977.338-.366.7-.236,1.058-.03,1.377.794,2.775,1.554,4.122,2.4A3.7,3.7,0,0,0-507.129,2025.793Z" transform="translate(-76.854 -173.775)" fill="#fca58e"/>
    <path id="Trazado_102876" data-name="Trazado 102876" d="M-554.355,1913.23c0,1.558-.019,3.117.011,4.675.01.533-.125.718-.7.734-3.163.088-5.021-1.669-5.03-4.817,0-.519-.009-1.039,0-1.558a4.494,4.494,0,0,1,5.318-4.322c.538.091.385.43.387.711C-554.348,1910.178-554.355,1911.7-554.355,1913.23Z" transform="translate(-45.618 -88.266)" fill="#fca58e"/>
    <path id="Trazado_102877" data-name="Trazado 102877" d="M-393.145,1913.423c0-1.558.018-3.117-.01-4.674-.009-.5.132-.635.647-.668,3.376-.213,5.32,2.184,5.083,4.862-.034.387,0,.779-.005,1.168a4.47,4.47,0,0,1-5.177,4.671c-.531-.044-.544-.3-.542-.685C-393.14,1916.539-393.145,1914.981-393.145,1913.423Z" transform="translate(-168.968 -88.409)" fill="#fca58e"/>
    <path id="Trazado_102878" data-name="Trazado 102878" d="M-380.889,2004.67c-.426-2.913-.844-5.827-1.28-8.738-.258-1.727-.509-3.456-.824-5.174a11.431,11.431,0,0,0-4.588-7.327,3.66,3.66,0,0,1-.406-.417,9.852,9.852,0,0,1,7.421,7.78c.771,4.441,1.387,8.909,2.1,13.362.074.466-.057.572-.474.555C-379.591,2004.685-380.24,2004.682-380.889,2004.67Z" transform="translate(-172.788 -143.793)" fill="#67cbc0"/>
    <path id="Trazado_102879" data-name="Trazado 102879" d="M-485.576,1949.348a25.279,25.279,0,0,1,5.776.8,1.516,1.516,0,0,1,1.322,1.743,1.456,1.456,0,0,1-1.944,1.12,19.993,19.993,0,0,0-10.494-.031,1.435,1.435,0,0,1-1.73-1.056,1.439,1.439,0,0,1,1.1-1.789A23.792,23.792,0,0,1-485.576,1949.348Z" transform="translate(-95.411 -118.915)" fill="#030303"/>
    <path id="Trazado_102880" data-name="Trazado 102880" d="M-509.737,1896.387c-1.649.036-2.3-.431-2.344-1.344-.05-.937.557-1.52,1.7-1.565a6.9,6.9,0,0,0,4.637-1.993,1.48,1.48,0,0,1,1.936-.345,1.444,1.444,0,0,1,.139,2.4A9.473,9.473,0,0,1-509.737,1896.387Z" transform="translate(-81.082 -75.733)" fill="#030303"/>
    <path id="Trazado_102881" data-name="Trazado 102881" d="M-447.041,1896.392a9.509,9.509,0,0,1-6-2.8,1.46,1.46,0,0,1-.179-2.226,1.448,1.448,0,0,1,2.162.095,7.075,7.075,0,0,0,4.627,2.023c1.173.052,1.78.587,1.767,1.51C-444.676,1895.944-445.341,1896.433-447.041,1896.392Z" transform="translate(-124.26 -75.74)" fill="#030303"/>
    <path id="Trazado_102882" data-name="Trazado 102882" d="M-496.866,1916.933a1.4,1.4,0,0,1,1.492,1.44,1.477,1.477,0,0,1-1.4,1.652,1.512,1.512,0,0,1-1.519-1.56A1.463,1.463,0,0,1-496.866,1916.933Z" transform="translate(-91.274 -94.96)" fill="#030303"/>
    <path id="Trazado_102883" data-name="Trazado 102883" d="M-442.768,1920.026a1.475,1.475,0,0,1-1.406-1.644,1.4,1.4,0,0,1,1.483-1.448,1.469,1.469,0,0,1,1.431,1.621A1.5,1.5,0,0,1-442.768,1920.026Z" transform="translate(-131.265 -94.961)" fill="#030303"/>
  </g>
</svg>
