<svg xmlns="http://www.w3.org/2000/svg" width="81.256" height="100" viewBox="0 0 81.256 100">
  <g id="Grupo_113303" data-name="Grupo 113303" transform="translate(596.919 -1576.628)">
    <path id="Trazado_102812" data-name="Trazado 102812" d="M-583.421,1689a2.178,2.178,0,0,1-.986-2.147,45.132,45.132,0,0,1,6.751-22,43.527,43.527,0,0,1,5.246-7.134,1.853,1.853,0,0,0,.52-1.39c-.032-1.886-.04-3.774,0-5.66.014-.609-.151-.754-.751-.747-3.024.033-6.049.021-9.074.014a7.042,7.042,0,0,1-7.374-7.344c-.005-1.659-.041-3.32.019-4.977a1.35,1.35,0,0,0-.783-1.376c-1.177-.686-2.345-1.393-3.474-2.156-1.049-.709-1.179-1.246-.436-2.273,1.353-1.867,2.782-3.68,4.208-5.494a2.114,2.114,0,0,0,.475-1.421c-.023-2.733-.009-5.465-.013-8.2,0-.344.067-.677-.3-.958-3.824-2.962-5.649-7.092-6.735-11.642a32.282,32.282,0,0,1-.77-8.812,1.726,1.726,0,0,1,1.154-1.827c.888-.3,1.424.174,1.864.844a4.393,4.393,0,0,0,3.637,1.933,27.825,27.825,0,0,0,8.28-1.057c1.35-.315,1.717-.168,2.372,1.012.02,1.219-.276,1.65-1.421,1.975-.717.2-1.442.386-2.172.534a22.234,22.234,0,0,1-7.713.663c-.917-.134-1.76-.536-2.742-.709a25.5,25.5,0,0,0,1.558,8.066c2.214,5.991,6.3,8.836,12.669,8.837h17.744c.26,0,.522-.015.78.008a1.5,1.5,0,0,1,1.467,1.519,1.51,1.51,0,0,1-1.392,1.591c-.257.033-.518.032-.777.046-3.187-.019-6.374-.026-9.561-.059-3.771-.039-7.545.217-11.312-.152a27.828,27.828,0,0,1-3.5-.8c0,2.627-.041,5.164.02,7.7a3.556,3.556,0,0,1-.882,2.485c-1.174,1.428-2.293,2.9-3.485,4.422,1.128.7,2.187,1.384,3.282,2.009a1.969,1.969,0,0,1,1.078,1.909q-.041,3.172-.012,6.345a3.926,3.926,0,0,0,4.276,4.228c3.611,0,7.222,0,10.833,0,1.578,0,2.071.511,2.074,2.118,0,2.408-.044,4.818.039,7.223a4.19,4.19,0,0,1-1.346,3.679,1.313,1.313,0,0,0-.592.919c1.163-.091,2.293-.16,3.419-.272a46.356,46.356,0,0,0,12.955-2.993c2.021-.82,3.81-2.1,5.837-2.895a1.39,1.39,0,0,1,1.177.573c4.3,5.751,8.062,11.791,9.889,18.838a53.353,53.353,0,0,1,1.44,13.244,2.288,2.288,0,0,1-.99,1.753h-1.172a2.176,2.176,0,0,1-1-2.069,56.474,56.474,0,0,0-.653-9.228c-1.349-7-4.623-13.112-8.682-18.867-.326-.462-.57-.439-1.011-.189a34.647,34.647,0,0,1-7.466,3.028,63.7,63.7,0,0,1-15.575,2.293c-.454.017-.842.012-1.158.49-4.523,6.857-7.45,14.25-7.585,22.573a1.9,1.9,0,0,1-1.2,1.969Z" transform="translate(0 -12.373)" fill="#030303"/>
    <path id="Trazado_102813" data-name="Trazado 102813" d="M-541.453,1873.367a1.9,1.9,0,0,0,1.2-1.969c.135-8.324,3.062-15.716,7.585-22.573.315-.478.7-.473,1.158-.49a63.7,63.7,0,0,0,15.575-2.293,34.645,34.645,0,0,0,7.466-3.028c.441-.251.685-.273,1.011.189,4.059,5.755,7.334,11.863,8.683,18.867a56.471,56.471,0,0,1,.653,9.228,2.176,2.176,0,0,0,1,2.069h-8.4a1.688,1.688,0,0,0,1.178-1.679c-.017-4.329.077-8.661-.046-12.986a10.89,10.89,0,0,0-10.317-10.318,10.935,10.935,0,0,0-11.507,10.917c-.037,3.971.011,7.942-.024,11.913a2.223,2.223,0,0,0,.994,2.153Z" transform="translate(-40.992 -196.739)" fill="#ffce26"/>
    <path id="Trazado_102814" data-name="Trazado 102814" d="M-457.833,1897.8H-475.6a1.936,1.936,0,0,0,1.181-2.072c-.038-3.9-.01-7.8-.02-11.707a8.6,8.6,0,0,1,.3-2.408,7.844,7.844,0,0,1,8.4-5.655,7.812,7.812,0,0,1,6.923,7.687q.058,6,0,12A2.267,2.267,0,0,0-457.833,1897.8Zm-10.376-20.3a3.089,3.089,0,0,0-3.09,3.094,3.089,3.089,0,0,0,3.141,3.14,3.089,3.089,0,0,0,3.09-3.094A3.089,3.089,0,0,0-468.209,1877.5Zm4.72,6.251a1.517,1.517,0,0,0-1.559,1.522,1.52,1.52,0,0,0,1.5,1.584,1.524,1.524,0,0,0,1.608-1.57A1.519,1.519,0,0,0-463.489,1883.751Z" transform="translate(-89.657 -221.176)" fill="#ffce26"/>
    <path id="Trazado_102815" data-name="Trazado 102815" d="M-463.413,1889.043a2.267,2.267,0,0,1-.986-2.156q.052-6,0-12a7.812,7.812,0,0,0-6.923-7.687,7.844,7.844,0,0,0-8.4,5.655,8.6,8.6,0,0,0-.3,2.408c.009,3.9-.018,7.805.02,11.707a1.936,1.936,0,0,1-1.181,2.072h-.977a2.223,2.223,0,0,1-.994-2.153c.035-3.971-.013-7.942.024-11.913a10.935,10.935,0,0,1,11.507-10.917,10.89,10.89,0,0,1,10.317,10.318c.123,4.326.029,8.657.046,12.986a1.688,1.688,0,0,1-1.178,1.679Z" transform="translate(-84.077 -212.414)" fill="#030303"/>
    <path id="Trazado_102816" data-name="Trazado 102816" d="M-552.265,1615.223c.259-.015.52-.014.777-.046a1.51,1.51,0,0,0,1.393-1.591,1.5,1.5,0,0,0-1.467-1.519c-.258-.023-.52-.008-.78-.008h-17.744c-6.371,0-10.455-2.846-12.669-8.837a25.5,25.5,0,0,1-1.558-8.066c.982.174,1.825.575,2.742.709a22.233,22.233,0,0,0,7.713-.663c.73-.148,1.455-.33,2.172-.534,1.146-.326,1.441-.756,1.421-1.975l2.953-.781a2.291,2.291,0,0,0,2.557.86c.84-.306.557-1.111.583-1.757a11.221,11.221,0,0,1,2.767-.828,1.963,1.963,0,0,0,2.591.838c.4-.141.813-.224,1.221-.329,4.245-1.094,8.5-2.153,12.929-2.057,3.718.081,6.918,1.164,8.589,4.9a1.709,1.709,0,0,0,1.594.941,6.511,6.511,0,0,1,4.785,2.65,13.755,13.755,0,0,1,2.454,5.562c.3,1.242.688,1.545,1.957,1.559a26.88,26.88,0,0,1,.132,5.5,7.7,7.7,0,0,1-1.782-1.616c-1.351-1.284-2.6-.973-3.077.8-1.039,3.88-2.085,7.758-3.094,11.645a.94.94,0,0,1-1.113.857c-2.337-.052-4.678.051-7.012-.049a2.338,2.338,0,0,0-2.558,1.44,10.444,10.444,0,0,0-1.094-4.416c2.5-.2,5-.04,7.5-.087,1.295-.024,1.789-.366,2.108-1.565q.948-3.574,1.875-7.154a1.623,1.623,0,0,0-1.005-2.2c-.934-.269-1.726.279-2.037,1.419-.5,1.846-1.041,3.685-1.479,5.547a.882.882,0,0,1-1.053.814c-2.406-.034-4.812-.039-7.217-.029-1.442.006-1.717.233-2.16,1.609-1.845.019-2.532,1.383-3.265,3.046C-551.688,1618.077-551.539,1616.578-552.265,1615.223Zm20.932-12.584a1.523,1.523,0,0,0-1.565-1.528,1.532,1.532,0,0,0-1.571,1.621,1.534,1.534,0,0,0,1.663,1.527A1.53,1.53,0,0,0-531.333,1602.639Z" transform="translate(-9.317 -8.871)" fill="#67666a"/>
    <path id="Trazado_102817" data-name="Trazado 102817" d="M-542.853,1687.662c.726,1.356.577,2.854.644,4.591.733-1.663,1.42-3.026,3.265-3.046q-2.488,8.227-4.973,16.454c-.338,1.124.026,1.892.976,2.195.912.291,1.654-.19,2.035-1.282.186-.534.169-1.15.62-1.581a9.6,9.6,0,0,0,1.894,3.733c.132.3-.021.57-.108.846-.71,2.259-1.424,4.516-2.123,6.779a2.333,2.333,0,0,0-.194,1.33,1.587,1.587,0,0,0,2.775.591c1.546-1.529,3.064-3.086,4.593-4.631a7.7,7.7,0,0,0,2.695,1.335c.057.525-.417.7-.692.978-.634.645-.965,1.339-.424,2.166a1.57,1.57,0,0,0,2.129.574q0,2.419.007,4.837c-2.027.8-3.816,2.075-5.837,2.895a46.356,46.356,0,0,1-12.955,2.993c-1.126.112-2.255.181-3.419.272a1.313,1.313,0,0,1,.592-.919,4.19,4.19,0,0,0,1.346-3.679c-.083-2.405-.034-4.815-.039-7.223,0-1.607-.5-2.117-2.074-2.118-3.611,0-7.222,0-10.833,0a3.926,3.926,0,0,1-4.276-4.228q-.026-3.172.012-6.345a1.969,1.969,0,0,0-1.078-1.909c-1.1-.625-2.154-1.314-3.282-2.009,1.193-1.52,2.312-2.993,3.485-4.422a3.556,3.556,0,0,0,.882-2.485c-.061-2.536-.02-5.073-.02-7.7a27.847,27.847,0,0,0,3.5.8c3.767.369,7.541.113,11.312.152C-549.227,1687.636-546.039,1687.643-542.853,1687.662Zm2.223,37.358a6.552,6.552,0,0,0,5.475-2.628,1.506,1.506,0,0,0-.1-2.32c-.788-.65-1.592-.517-2.345.388a3.426,3.426,0,0,1-4.674.853,3.4,3.4,0,0,1-1.022-4.56c.545-1.064.383-1.865-.478-2.355s-1.66-.215-2.254.823a6.178,6.178,0,0,0,0,6.486A6.156,6.156,0,0,0-540.629,1725.02Z" transform="translate(-18.729 -81.31)" fill="#fddec4"/>
    <path id="Trazado_102818" data-name="Trazado 102818" d="M-446.454,1694.211c-1.53,1.545-3.048,3.1-4.593,4.631a1.587,1.587,0,0,1-2.775-.591,2.333,2.333,0,0,1,.194-1.33c.7-2.262,1.414-4.52,2.123-6.779.086-.276.24-.542.108-.846a2.911,2.911,0,0,0,.539-1.4,50.525,50.525,0,0,0,1.683-6.209h0c.136-.023.167-.113.148-.234l1.643-5.607a2.338,2.338,0,0,1,2.558-1.44c2.333.1,4.675,0,7.012.048a.94.94,0,0,0,1.113-.857c1.009-3.887,2.055-7.766,3.094-11.646.476-1.776,1.727-2.087,3.077-.8a7.7,7.7,0,0,0,1.782,1.616c.058.394.39.586.636.832q3.918,3.934,7.847,7.858c.97.973,1.034,1.509.3,2.65-2.522,3.927-5.065,7.842-7.566,11.782a2.11,2.11,0,0,1-2.009,1.078c-1.98-.04-3.961-.038-5.941-.041-.386,0-.772.054-1.158.083-.78-.014-1.559-.02-2.338-.047a1.059,1.059,0,0,0-.86.36Q-443.138,1690.77-446.454,1694.211Zm-2.142-3.112c2.015-1.854,4.5-4.1,6.926-6.4a2.845,2.845,0,0,1,2.149-.895c2.958.036,5.916.006,8.874.034a1.12,1.12,0,0,0,1.092-.595c2-3.152,4.017-6.3,6.074-9.416.394-.6.288-.909-.183-1.371-2.3-2.252-4.559-4.544-6.841-6.814-.193-.192-.328-.488-.705-.5-.971,3.635-1.933,7.273-2.919,10.9-.33,1.217-.764,1.52-2.019,1.522-2.471,0-4.942.024-7.412-.014-.681-.01-1.054.131-1.21.865-.195.917-.533,1.8-.806,2.7C-446.655,1684.688-447.734,1688.253-448.6,1691.1Z" transform="translate(-105.722 -61.881)" fill="#030303"/>
    <path id="Trazado_102819" data-name="Trazado 102819" d="M-460.413,1595.376c-1.269-.014-1.66-.317-1.957-1.559a13.755,13.755,0,0,0-2.454-5.562,6.511,6.511,0,0,0-4.785-2.65,1.709,1.709,0,0,1-1.594-.941c-1.671-3.734-4.871-4.817-8.589-4.9-4.426-.1-8.684.963-12.929,2.057-.408.105-.825.188-1.221.329a1.963,1.963,0,0,1-2.591-.838c.046-1.444.327-1.781,1.716-2.168a64.205,64.205,0,0,1,12.193-2.426,18.594,18.594,0,0,1,8.618,1.043,9.888,9.888,0,0,1,4.824,4.073,1.33,1.33,0,0,0,.912.768c3.426.663,5.664,2.84,7.271,5.794a18.573,18.573,0,0,1,1.691,4.645C-459,1594.326-459.218,1594.764-460.413,1595.376Z" transform="translate(-74.19)" fill="#030303"/>
    <path id="Trazado_102820" data-name="Trazado 102820" d="M-418.057,1771.493a1.57,1.57,0,0,1-2.129-.574c-.541-.827-.21-1.52.424-2.166.275-.28.748-.453.692-.978.117-.033.272-.03.345-.105q2.49-2.562,4.963-5.139a4.534,4.534,0,0,1,1.723-.241c3.09.01,6.181-.012,9.27.033a1.44,1.44,0,0,0,1.463-.827c.491-.877,1.06-1.711,1.622-2.546a1.521,1.521,0,0,1,2.25-.565,1.5,1.5,0,0,1,.394,2.216c-.84,1.351-1.731,2.671-2.577,4.019a1.84,1.84,0,0,1-1.759.812c-3.285-.009-6.571,0-9.856-.024a1.872,1.872,0,0,0-1.524.628C-414.5,1767.879-416.285,1769.678-418.057,1771.493Z" transform="translate(-130.411 -134.11)" fill="#030303"/>
    <path id="Trazado_102821" data-name="Trazado 102821" d="M-307.735,1691.378a2.167,2.167,0,0,1-.424,1.207q-2.183,3.4-4.376,6.785c-.664,1.02-1.429,1.25-2.278.73-.871-.534-1-1.392-.328-2.442q2.227-3.484,4.479-6.952a1.436,1.436,0,0,1,1.841-.666A1.573,1.573,0,0,1-307.735,1691.378Z" transform="translate(-207.929 -83.732)" fill="#030303"/>
    <path id="Trazado_102822" data-name="Trazado 102822" d="M-417.464,1765.615q-2.479,2.572-4.963,5.139c-.073.075-.228.072-.345.105a7.7,7.7,0,0,1-2.695-1.334q3.311-3.446,6.619-6.9a1.059,1.059,0,0,1,.86-.36c.779.028,1.559.033,2.338.047C-416.084,1763.509-417.036,1764.418-417.464,1765.615Z" transform="translate(-126.71 -137.194)" fill="#67666a"/>
    <path id="Trazado_102823" data-name="Trazado 102823" d="M-324.982,1739.861a1.492,1.492,0,0,1-1.519,1.556,1.533,1.533,0,0,1-1.579-1.609,1.523,1.523,0,0,1,1.584-1.508A1.492,1.492,0,0,1-324.982,1739.861Z" transform="translate(-198.681 -119.482)" fill="#030303"/>
    <path id="Trazado_102824" data-name="Trazado 102824" d="M-516.026,1595.42c-.025.646.258,1.452-.582,1.757a2.291,2.291,0,0,1-2.557-.86,1.636,1.636,0,0,1,1.1-1.637C-517.181,1594.389-516.6,1594.882-516.026,1595.42Z" transform="translate(-57.463 -13.277)" fill="#030303"/>
    <path id="Trazado_102825" data-name="Trazado 102825" d="M-456.018,1882.019a3.089,3.089,0,0,1,3.142,3.139,3.089,3.089,0,0,1-3.09,3.094,3.089,3.089,0,0,1-3.141-3.14A3.089,3.089,0,0,1-456.018,1882.019Z" transform="translate(-101.848 -225.695)" fill="#ffce26"/>
    <path id="Trazado_102826" data-name="Trazado 102826" d="M-433.6,1905.973a1.519,1.519,0,0,1,1.546,1.535,1.524,1.524,0,0,1-1.608,1.57,1.52,1.52,0,0,1-1.5-1.584A1.517,1.517,0,0,1-433.6,1905.973Z" transform="translate(-119.547 -243.398)" fill="#ffce26"/>
    <path id="Trazado_102827" data-name="Trazado 102827" d="M-462.3,1685.54c-.45.431-.433,1.047-.619,1.581-.381,1.093-1.122,1.573-2.035,1.282-.95-.3-1.314-1.071-.976-2.195q2.475-8.231,4.973-16.454c.443-1.376.718-1.6,2.16-1.609,2.406-.01,4.812,0,7.217.029a.882.882,0,0,0,1.053-.814c.438-1.862.976-3.7,1.479-5.547.311-1.14,1.1-1.688,2.037-1.419a1.623,1.623,0,0,1,1.005,2.2q-.926,3.58-1.875,7.154c-.318,1.2-.813,1.541-2.108,1.565-2.5.046-5-.117-7.5.087-.38-.178-.656-.185-.786.324-.176.687-.419,1.356-.621,2.036q-1.428,4.823-2.849,9.649A5.6,5.6,0,0,0-462.3,1685.54Z" transform="translate(-96.714 -61.857)" fill="#030303"/>
    <path id="Trazado_102828" data-name="Trazado 102828" d="M-449.533,1714.46q1.424-4.825,2.849-9.649c.2-.68.445-1.349.621-2.036.13-.509.407-.5.786-.324a10.448,10.448,0,0,1,1.094,4.416l-1.643,5.607a.188.188,0,0,0-.148.234h0A6.062,6.062,0,0,1-449.533,1714.46Z" transform="translate(-108.924 -92.906)" fill="#fddec4"/>
    <path id="Trazado_102829" data-name="Trazado 102829" d="M-390.179,1637.98a1.53,1.53,0,0,1-1.473,1.62,1.534,1.534,0,0,1-1.663-1.527,1.531,1.531,0,0,1,1.571-1.62A1.523,1.523,0,0,1-390.179,1637.98Z" transform="translate(-150.471 -44.212)" fill="#030303"/>
    <path id="Trazado_102830" data-name="Trazado 102830" d="M-470.9,1802.937a6.156,6.156,0,0,1-5.406-3.313,6.178,6.178,0,0,1,0-6.486c.594-1.038,1.394-1.312,2.254-.823s1.023,1.291.478,2.355a3.4,3.4,0,0,0,1.022,4.56,3.426,3.426,0,0,0,4.674-.853c.753-.9,1.557-1.038,2.345-.388a1.506,1.506,0,0,1,.1,2.32A6.552,6.552,0,0,1-470.9,1802.937Z" transform="translate(-88.462 -159.227)" fill="#030303"/>
    <path id="Trazado_102831" data-name="Trazado 102831" d="M-451.112,1743.819a6.062,6.062,0,0,0,3.558-1.751,50.521,50.521,0,0,1-1.683,6.209,2.912,2.912,0,0,1-.539,1.4,9.6,9.6,0,0,1-1.894-3.733A5.6,5.6,0,0,1-451.112,1743.819Z" transform="translate(-107.345 -122.266)" fill="#67666a"/>
    <path id="Trazado_102832" data-name="Trazado 102832" d="M-433.675,1704.646c.862-2.847,1.941-6.411,3.021-9.975.273-.9.611-1.787.806-2.7.156-.734.529-.875,1.21-.865,2.47.038,4.941.018,7.412.014,1.255,0,1.688-.305,2.019-1.522.986-3.631,1.948-7.269,2.919-10.9.377.009.512.3.705.5,2.282,2.27,4.542,4.562,6.841,6.814.471.462.577.774.183,1.371-2.057,3.117-4.071,6.263-6.074,9.416a1.12,1.12,0,0,1-1.092.595c-2.958-.028-5.916,0-8.874-.034a2.845,2.845,0,0,0-2.149.895C-429.172,1700.551-431.66,1702.793-433.675,1704.646Z" transform="translate(-120.644 -75.427)" fill="#d919d9"/>
    <path id="Trazado_102833" data-name="Trazado 102833" d="M-435.911,1741.406a.188.188,0,0,1,.148-.234C-435.744,1741.293-435.775,1741.383-435.911,1741.406Z" transform="translate(-118.988 -121.604)" fill="#67666a"/>
  </g>
</svg>
