<svg xmlns="http://www.w3.org/2000/svg" width="295" height="225.356" viewBox="0 0 295 225.356">
  <g id="Grupo_115200" data-name="Grupo 115200" transform="translate(-1019.527 -7253.115)">
    <rect id="Rectángulo_37123" data-name="Rectángulo 37123" width="295" height="147" rx="20" transform="translate(1019.527 7313.115)" fill="#c7beff"/>
    <g id="Grupo_53806" data-name="Grupo 53806" transform="translate(3513.629 7046.34)">
      <g id="Grupo_53805" data-name="Grupo 53805" transform="translate(-2427.6 206.776)">
        <g id="Grupo_53774" data-name="Grupo 53774" transform="translate(56.627)">
          <g id="Grupo_53770" data-name="Grupo 53770" transform="translate(2.028)">
            <path id="Trazado_100475" data-name="Trazado 100475" d="M-2313.37,338.938c19.641,12.475,54.973,29.967,68.42,31.107,14.948,1.266,36.281-38.557,50.615-63.164,2.85-4.893-33.76-29.386-36.535-24.006-7.249,14.054-21.183,45.26-24.638,46.138-2.827.717-32.077-3.709-48.559-6.394C-2330.3,318.344-2327.191,330.16-2313.37,338.938Z" transform="translate(2323.831 -239.526)" fill="#f5a8a0"/>
            <g id="Grupo_53769" data-name="Grupo 53769" transform="translate(76.664)">
              <g id="Grupo_53766" data-name="Grupo 53766" transform="translate(0 3.722)">
                <path id="Trazado_100476" data-name="Trazado 100476" d="M-2142.337,287.157c-4.587,2.83-33.5-17.708-33.724-23.235a21.78,21.78,0,0,1,1.007-5.446l-.014-.01s-1.1-12.286-5.657-22.18c-3.809-8.318-10.419-20.231-6.022-22.447,6.4-3.25,16.569,10.811,21.913,19.238,2.566-4.78,5.223-8.654,7.6-10.343,7.888-5.609,37.406,26.421,34.711,35.888C-2125.123,267.75-2137.75,284.326-2142.337,287.157Z" transform="translate(2188.202 -213.359)" fill="#f5a8a0"/>
              </g>
              <g id="Grupo_53768" data-name="Grupo 53768" transform="translate(19.703)">
                <path id="Trazado_100477" data-name="Trazado 100477" d="M-2152.05,230.939c1.322,4.853,6.284.518,6.284.518s-5.639,7.962-2.342,12.439c3.19,4.306,9-1.143,9.422-1.528-.294.424-5.286,7.876-1.509,12.034,3.928,4.317,8.823-2.154,9.137-2.574-.153.488-2.062,6.968,1.525,9.474,6.167,4.3,11.505-12.133,17.042-14.668,0,0,5.366,8.891,5.577,9.117,0,0,5.4-15.534,1.562-22.81a5.251,5.251,0,0,0-6-2.708s2.294-4.816-.576-8.183c-1.478-1.725-5.551-.894-5.551-.894s1.676-3.933-1.064-6.769c-2.179-2.27-5.926-1.084-5.926-1.084s-.143-4.523-3.123-6.118C-2133.592,203.954-2154.871,220.545-2152.05,230.939Z" transform="translate(2152.894 -206.776)" fill="#f5a8a0"/>
                <g id="Grupo_53767" data-name="Grupo 53767" transform="translate(6.8 6.491)">
                  <path id="Trazado_100478" data-name="Trazado 100478" d="M-2120.31,218.394a.071.071,0,0,0-.064-.127c-8.329,3.748-16.332,10.419-20.907,18.388-.15.261.209.618.429.362C-2134.565,229.706-2128.4,223.717-2120.31,218.394Z" transform="translate(2141.316 -218.26)" fill="#263239"/>
                  <path id="Trazado_100479" data-name="Trazado 100479" d="M-2107.261,231.869c.088-.057-.006-.2-.108-.157-8.562,3.908-17.37,11.67-21.561,21.476-.144.337.064.783.259.408C-2125.39,247.287-2114.573,236.624-2107.261,231.869Z" transform="translate(2135.952 -224.104)" fill="#263239"/>
                  <path id="Trazado_100480" data-name="Trazado 100480" d="M-2115.067,270.62c4.383-9.247,11.288-16.161,19.4-22.24.106-.079-.017-.22-.124-.179-4.779,1.893-9.547,6.308-12.967,10.056a26.985,26.985,0,0,0-6.635,12.209C-2115.434,270.65-2115.161,270.817-2115.067,270.62Z" transform="translate(2130.047 -231.273)" fill="#263239"/>
                </g>
                <path id="Trazado_100481" data-name="Trazado 100481" d="M-2144.109,250.471c-.18.314.477.231.307.551-.715,1.344-4.319,9.8-1.819,11.925,2.008,1.7,5.68.175,6.862-.962l2.97-2.86-1.8,3.72a16.885,16.885,0,0,0-1.594,5.229,6.034,6.034,0,0,0,1.135,4.8,3.448,3.448,0,0,0,4.228.975,10.433,10.433,0,0,0,3.9-3.475l2.855-3.966-1.4,4.66a15.882,15.882,0,0,0-.661,3.992,6.53,6.53,0,0,0,.811,3.681,3.106,3.106,0,0,0,2.93,1.461,6.873,6.873,0,0,0,3.327-1.922,54.079,54.079,0,0,0,5.456-6.48c.874-1.133,1.75-2.271,2.681-3.368a10.2,10.2,0,0,1,3.245-2.8,11,11,0,0,0-2.935,3.048c-.836,1.153-1.617,2.346-2.4,3.542a46.037,46.037,0,0,1-5.229,6.911,8.021,8.021,0,0,1-3.917,2.432,4.406,4.406,0,0,1-4.405-1.988,7.989,7.989,0,0,1-1.13-4.541,17.375,17.375,0,0,1,.672-4.456l1.46.695a11.969,11.969,0,0,1-4.571,4.151,5,5,0,0,1-3.364.348,5.642,5.642,0,0,1-2.807-1.812,7.611,7.611,0,0,1-1.439-6.08,18.331,18.331,0,0,1,1.843-5.724l1.175.86c-1.551,1.4-5.47,3.543-8.915,1.3C-2150.681,260.731-2145.22,252-2144.109,250.471Z" transform="translate(2151.067 -225.772)" fill="#263239"/>
                <path id="Trazado_100482" data-name="Trazado 100482" d="M-2146.218,246.368a10.1,10.1,0,0,1-2.877,1.118,2.333,2.333,0,0,1-2.269-.673,4.753,4.753,0,0,1-.857-2.562c-.087-1.01-.127-2.075-.124-3.178a8.029,8.029,0,0,0-.976,3.181,4.707,4.707,0,0,0,.9,3.487,3.352,3.352,0,0,0,1.737,1,3.482,3.482,0,0,0,1.887-.2A5.4,5.4,0,0,0-2146.218,246.368Z" transform="translate(2153.346 -221.686)" fill="#263239"/>
              </g>
            </g>
          </g>
          <g id="Grupo_53773" data-name="Grupo 53773" transform="translate(0 79.614)">
            <path id="Trazado_100483" data-name="Trazado 100483" d="M-2282.976,388.633l26.448-33.451s-46.084-8.694-60.358-7.426c-16.065,1.427-11.822,9.329-.15,19.267S-2282.976,388.633-2282.976,388.633Z" transform="translate(2327.419 -347.626)" fill="#fdc629"/>
            <path id="Trazado_100484" data-name="Trazado 100484" d="M-2256.53,355.181l-26.448,33.452s-22.385-11.676-34.058-21.613-15.917-17.839.147-19.271c.813-.068,1.731-.107,2.737-.123.4-.005.819,0,1.247,0,0,.006.01,0,.015.007a197.329,197.329,0,0,1,21.624,1.945c.148.023.291.04.445.057,6.4.86,12.912,1.868,18.519,2.788q1.211.2,2.359.4C-2262.088,354.132-2256.53,355.181-2256.53,355.181Z" transform="translate(2327.42 -347.623)" fill="#d919d9"/>
            <path id="Trazado_100485" data-name="Trazado 100485" d="M-2278.827,360.112a2.18,2.18,0,0,1-.9.458,1.812,1.812,0,0,1-1.7-.526,2.39,2.39,0,0,0-2.634-.452,2.318,2.318,0,0,0-.978.859c-.22.322-.463.639-.661.984.356-.2.661-.435.995-.661a2.3,2.3,0,0,1,.9-.48,1.8,1.8,0,0,1,1.707.452,2.42,2.42,0,0,0,2.612.531,2.253,2.253,0,0,0,1.006-.825c.215-.339.452-.644.65-1C-2278.183,359.659-2278.5,359.9-2278.827,360.112Zm-.627,19.976c-.079-.384-.13-.78-.237-1.164-.113.384-.158.78-.238,1.164a2.4,2.4,0,0,1-.3.989,1.783,1.783,0,0,1-1.52.876,2.422,2.422,0,0,0-2.222,1.464,2.268,2.268,0,0,0-.125,1.3c.079.4.125.78.232,1.17.113-.39.158-.774.238-1.17a2.225,2.225,0,0,1,.328-.955,1.827,1.827,0,0,1,1.571-.842,2.39,2.39,0,0,0,2.182-1.538A2.388,2.388,0,0,0-2279.455,380.088Zm-40.506-21.078a2.282,2.282,0,0,1-.911.5,1.783,1.783,0,0,1-1.7-.458,2.429,2.429,0,0,0-2.606-.543,2.34,2.34,0,0,0-1.012.842c-.175.26-.367.514-.537.786a.728.728,0,0,0,.04.1c.288-.17.548-.367.836-.554a2.028,2.028,0,0,1,.91-.452,1.817,1.817,0,0,1,1.7.514,2.394,2.394,0,0,0,2.634.464,2.44,2.44,0,0,0,.978-.859c.22-.339.458-.644.656-.989C-2319.316,358.557-2319.627,358.795-2319.96,359.009Zm59.8,4.776a2.385,2.385,0,0,0-1.537-2.193,2.332,2.332,0,0,0-1.294-.079c-.385.079-.78.119-1.165.226.384.107.78.158,1.165.237a2.486,2.486,0,0,1,.989.294,1.835,1.835,0,0,1,.888,1.521,2.391,2.391,0,0,0,.548,1.549l.588-.746A1.711,1.711,0,0,1-2260.163,363.786Zm-38.7,11.1a2.249,2.249,0,0,1-.967-.328,1.883,1.883,0,0,1-.843-1.571,2.359,2.359,0,0,0-1.526-2.182,2.435,2.435,0,0,0-1.306-.09c-.384.079-.769.13-1.164.237.4.113.78.158,1.164.237a2.106,2.106,0,0,1,.989.3,1.8,1.8,0,0,1,.887,1.521,2.4,2.4,0,0,0,1.464,2.221,2.266,2.266,0,0,0,1.3.124c.384-.079.769-.124,1.164-.232C-2298.091,375.006-2298.475,374.961-2298.86,374.882Z" transform="translate(2327.115 -352.279)" fill="#fff"/>
            <path id="Trazado_100486" data-name="Trazado 100486" d="M-2267.732,371.28l-15.247,19.276s-22.384-11.674-34.055-21.609c-8.61-7.335-13.18-13.559-8.532-16.892Z" transform="translate(2327.419 -349.55)" fill="#af10af"/>
            <g id="Grupo_53772" data-name="Grupo 53772" transform="translate(39.153 7.539)">
              <g id="Grupo_53771" data-name="Grupo 53771">
                <path id="Trazado_100487" data-name="Trazado 100487" d="M-2236.075,360.987c-1.094,1.015-9.5,11.311-11.279,13.587s-9.139,11.516-10.778,14.021a.105.105,0,0,0,.159.138c2.072-2.141,9.521-11.437,11.38-13.72s9.951-12.653,10.683-13.916C-2235.848,360.99-2236,360.919-2236.075,360.987Z" transform="translate(2258.152 -360.96)" fill="#263239"/>
              </g>
            </g>
          </g>
        </g>
        <g id="Grupo_53776" data-name="Grupo 53776" transform="translate(9.026 77.9)">
          <g id="Grupo_53775" data-name="Grupo 53775">
            <path id="Trazado_100488" data-name="Trazado 100488" d="M-2306.186,473.59h-105.445s8.44-85.794,47.686-124.241c4.85-4.751,17.746-6.946,24.332-1.8,3.512,2.743,9.887,15.023,13.262,27.555C-2323,387.62-2305.906,473.2-2306.186,473.59Z" transform="translate(2411.631 -344.591)" fill="#d919d9"/>
          </g>
          <path id="Trazado_100489" data-name="Trazado 100489" d="M-2332.97,374.882a2.251,2.251,0,0,1-.967-.328,1.882,1.882,0,0,1-.842-1.571,2.36,2.36,0,0,0-1.526-2.182,2.434,2.434,0,0,0-1.306-.09c-.384.079-.769.13-1.164.237.4.113.78.158,1.164.237a2.1,2.1,0,0,1,.989.3,1.805,1.805,0,0,1,.888,1.521,2.4,2.4,0,0,0,1.464,2.221,2.266,2.266,0,0,0,1.3.124c.384-.079.768-.124,1.164-.232C-2332.2,375.006-2332.586,374.961-2332.97,374.882Zm18.257,77.078a2.151,2.151,0,0,1-.967-.317,1.843,1.843,0,0,1-.831-1.571,2.409,2.409,0,0,0-1.538-2.193,2.5,2.5,0,0,0-1.294-.079c-.4.079-.78.119-1.165.232a11.479,11.479,0,0,0,1.165.237,2.264,2.264,0,0,1,.978.294,1.784,1.784,0,0,1,.887,1.521,2.429,2.429,0,0,0,1.464,2.233,2.214,2.214,0,0,0,1.3.119c.385-.079.78-.13,1.165-.237C-2313.933,452.089-2314.328,452.05-2314.713,451.959Zm-52.116-44.83a1.979,1.979,0,0,1-.955-.328,1.811,1.811,0,0,1-.843-1.566,2.406,2.406,0,0,0-1.538-2.188,2.389,2.389,0,0,0-1.294-.085c-.384.079-.78.124-1.164.237.384.107.78.158,1.164.237a2.265,2.265,0,0,1,.984.294,1.777,1.777,0,0,1,.882,1.521,2.416,2.416,0,0,0,1.458,2.221,2.352,2.352,0,0,0,1.306.13c.4-.079.78-.13,1.165-.237C-2366.049,407.259-2366.433,407.208-2366.829,407.129Zm44.237,68.735a2.386,2.386,0,0,0-1.538-2.182,2.393,2.393,0,0,0-1.294-.09c-.4.079-.78.13-1.165.237.385.107.769.158,1.165.237a2.346,2.346,0,0,1,.978.3,1.77,1.77,0,0,1,.887,1.521,2.4,2.4,0,0,0,.487,1.447h1.192A1.76,1.76,0,0,1-2322.592,475.864Zm-76.784.011a2.18,2.18,0,0,1-.967-.328,1.834,1.834,0,0,1-.836-1.571,2.365,2.365,0,0,0-1.532-2.182,2.376,2.376,0,0,0-1.306-.085c-.385.079-.769.124-1.165.237.4.107.78.153,1.165.232a2.219,2.219,0,0,1,.989.3,1.819,1.819,0,0,1,.887,1.521,2.387,2.387,0,0,0,1.464,2.221,2.319,2.319,0,0,0,1.3.13c.384-.079.774-.13,1.164-.237C-2398.6,476.005-2398.991,475.954-2399.376,475.875Zm55.92-36.063a2.245,2.245,0,0,1-.966-.322,1.817,1.817,0,0,1-.831-1.571,2.372,2.372,0,0,0-1.543-2.182,2.326,2.326,0,0,0-1.289-.09c-.4.079-.78.13-1.176.237.4.107.78.147,1.176.226a2.318,2.318,0,0,1,.978.305,1.794,1.794,0,0,1,.887,1.521,2.406,2.406,0,0,0,1.458,2.221,2.238,2.238,0,0,0,1.306.119c.384-.079.78-.119,1.164-.226C-2342.676,439.931-2343.071,439.891-2343.456,439.812Zm-41.925,6.89a2.2,2.2,0,0,1-.972-.322,1.834,1.834,0,0,1-.836-1.571,2.357,2.357,0,0,0-1.532-2.182,2.418,2.418,0,0,0-1.3-.09c-.39.079-.774.13-1.17.237.4.107.78.158,1.17.237a2.191,2.191,0,0,1,.984.3,1.82,1.82,0,0,1,.888,1.521,2.4,2.4,0,0,0,1.464,2.221,2.281,2.281,0,0,0,1.306.124c.384-.079.769-.124,1.164-.237C-2384.612,446.832-2385,446.782-2385.38,446.7Zm61.216-38.646a1.941,1.941,0,0,1-.955-.322,1.828,1.828,0,0,1-.842-1.56,2.372,2.372,0,0,0-1.537-2.193,2.328,2.328,0,0,0-1.294-.079c-.385.079-.78.119-1.165.226.385.107.78.158,1.165.237a2.487,2.487,0,0,1,.989.294,1.835,1.835,0,0,1,.888,1.521,2.368,2.368,0,0,0,1.453,2.221,2.335,2.335,0,0,0,1.3.13c.4-.079.78-.13,1.176-.237C-2323.384,408.186-2323.768,408.135-2324.164,408.056Zm-29.907-49.047a2.281,2.281,0,0,1-.91.5,1.783,1.783,0,0,1-1.7-.458,2.429,2.429,0,0,0-2.605-.543,2.338,2.338,0,0,0-1.012.842c-.215.322-.463.639-.661.983.356-.192.661-.43,1-.65a2.03,2.03,0,0,1,.91-.452,1.818,1.818,0,0,1,1.7.514,2.394,2.394,0,0,0,2.634.464,2.441,2.441,0,0,0,.978-.859c.22-.339.458-.644.655-.989C-2353.427,358.557-2353.737,358.795-2354.071,359.009Zm10.5,54.569c-.079-.4-.13-.78-.238-1.164-.107.384-.158.769-.237,1.164a2.263,2.263,0,0,1-.294.978,1.784,1.784,0,0,1-1.521.887,2.4,2.4,0,0,0-2.221,1.458,2.291,2.291,0,0,0-.13,1.306c.079.384.13.78.237,1.164.107-.384.158-.78.237-1.164a2.22,2.22,0,0,1,.323-.967,1.843,1.843,0,0,1,1.571-.831,2.386,2.386,0,0,0,2.182-1.537A2.345,2.345,0,0,0-2343.574,413.579Zm-43.779,2.51c-.079-.384-.13-.78-.237-1.164-.113.384-.158.78-.238,1.164a2.4,2.4,0,0,1-.3.989,1.784,1.784,0,0,1-1.521.876,2.413,2.413,0,0,0-2.222,1.464,2.266,2.266,0,0,0-.124,1.3c.079.4.124.78.232,1.164.113-.384.158-.769.238-1.164a2.2,2.2,0,0,1,.328-.955,1.827,1.827,0,0,1,1.572-.842,2.39,2.39,0,0,0,2.182-1.537A2.392,2.392,0,0,0-2387.353,416.088Zm22.537-40.387c-.079-.4-.125-.78-.238-1.17-.108.39-.153.774-.232,1.17a2.346,2.346,0,0,1-.3.978,1.782,1.782,0,0,1-1.521.887,2.417,2.417,0,0,0-2.221,1.458,2.338,2.338,0,0,0-.13,1.306c.079.384.13.78.237,1.164.107-.384.158-.78.237-1.164a2.2,2.2,0,0,1,.328-.967,1.792,1.792,0,0,1,1.571-.831,2.384,2.384,0,0,0,2.182-1.543A2.325,2.325,0,0,0-2364.816,375.7Zm4.092,77.671c-.079-.4-.119-.78-.232-1.176-.108.4-.158.78-.232,1.176a2.4,2.4,0,0,1-.3.978,1.781,1.781,0,0,1-1.521.887,2.433,2.433,0,0,0-2.233,1.458,2.237,2.237,0,0,0-.119,1.306c.079.384.13.78.238,1.164.107-.384.158-.78.238-1.164a2.1,2.1,0,0,1,.316-.967A1.83,1.83,0,0,1-2363,456.2a2.4,2.4,0,0,0,2.193-1.543A2.367,2.367,0,0,0-2360.724,453.372Zm-21.677-62.325a2.163,2.163,0,0,1-.91.458,1.806,1.806,0,0,1-1.7-.526.875.875,0,0,0-.107-.1c-.147.305-.288.61-.43.921a2.4,2.4,0,0,0,2.47.413,2.28,2.28,0,0,0,1.012-.831c.215-.339.452-.644.65-1C-2381.757,390.6-2382.073,390.833-2382.4,391.048Zm41.421.4a2.127,2.127,0,0,1-.9.452,1.8,1.8,0,0,1-1.7-.52,2.4,2.4,0,0,0-2.634-.458,2.4,2.4,0,0,0-.978.859c-.22.328-.463.644-.661.989.356-.2.661-.435.995-.661a2.39,2.39,0,0,1,.9-.486,1.811,1.811,0,0,1,1.707.458,2.42,2.42,0,0,0,2.611.531,2.228,2.228,0,0,0,1.006-.831c.215-.333.452-.639.65-.995C-2340.335,391-2340.652,391.229-2340.98,391.449Zm-25.295,41.088a2.063,2.063,0,0,1-.91.441,1.8,1.8,0,0,1-1.7-.514,2.4,2.4,0,0,0-2.64-.464,2.516,2.516,0,0,0-.978.859c-.215.339-.464.644-.662,1,.356-.209.662-.447,1-.661a2.159,2.159,0,0,1,.9-.486,1.8,1.8,0,0,1,1.7.447,2.414,2.414,0,0,0,2.606.543,2.289,2.289,0,0,0,1.006-.842c.22-.322.464-.627.662-.984C-2365.636,432.074-2365.941,432.311-2366.275,432.537Zm9.231,43.711a2.1,2.1,0,0,1-.91.458,1.829,1.829,0,0,1-1.7-.526,2.39,2.39,0,0,0-2.634-.452,2.3,2.3,0,0,0-.978.848c-.153.237-.317.452-.463.69h.266c.175-.107.356-.237.531-.356a2.3,2.3,0,0,1,.91-.48,1.8,1.8,0,0,1,1.7.441,2.366,2.366,0,0,0,.537.407h2.346a2.474,2.474,0,0,0,.735-.69c.215-.339.463-.644.661-1C-2356.4,475.785-2356.7,476.033-2357.044,476.248Zm41.336-48.035a2.182,2.182,0,0,1-.91.441,1.792,1.792,0,0,1-1.7-.514,2.4,2.4,0,0,0-2.639-.464,2.516,2.516,0,0,0-.978.859c-.215.339-.464.644-.661,1,.356-.209.661-.447,1-.661a2.051,2.051,0,0,1,.9-.486,1.779,1.779,0,0,1,1.707.447,2.425,2.425,0,0,0,2.606.543,2.291,2.291,0,0,0,1.006-.842c.22-.322.452-.633.661-.984A10.524,10.524,0,0,0-2315.708,428.213Zm-19.4,30.62a2.217,2.217,0,0,1-.91.452,1.829,1.829,0,0,1-1.707-.514,2.37,2.37,0,0,0-2.628-.464,2.386,2.386,0,0,0-.972.859c-.22.334-.469.644-.667.989.356-.2.667-.435.989-.656a2.333,2.333,0,0,1,.91-.492,1.823,1.823,0,0,1,1.707.452,2.407,2.407,0,0,0,2.6.548,2.337,2.337,0,0,0,1.012-.842c.221-.328.458-.639.656-.989C-2334.468,458.375-2334.785,458.612-2335.112,458.833Zm-44.039,5a2.133,2.133,0,0,1-.91.447,1.814,1.814,0,0,1-1.7-.514,2.393,2.393,0,0,0-2.64-.464,2.475,2.475,0,0,0-.978.859c-.215.333-.463.644-.661.995.356-.2.661-.441,1-.661a2.261,2.261,0,0,1,.9-.48,1.8,1.8,0,0,1,1.707.441,2.384,2.384,0,0,0,2.606.543,2.3,2.3,0,0,0,1.006-.825c.22-.339.458-.644.661-1C-2378.512,463.372-2378.818,463.62-2379.151,463.835Z" transform="translate(2408.827 -350.565)" fill="#fff"/>
        </g>
        <g id="Grupo_53783" data-name="Grupo 53783" transform="translate(0 82.221)">
          <g id="Grupo_53779" data-name="Grupo 53779" transform="translate(0 0.636)">
            <path id="Trazado_100490" data-name="Trazado 100490" d="M-2385.151,366.117c-29.824,35.138-50.2,90.683-39.617,98.844,12.013,9.262,51.5,16.382,69.131,17.912,5.469.475,19.747-38.612,13.93-39.393-6.816-.916-42.311-10.014-43.023-10.025-1.526-.022,12.959-45.984,17.146-64C-2361.751,344.353-2373.951,352.922-2385.151,366.117Z" transform="translate(2427.6 -353.359)" fill="#f5a8a0"/>
            <g id="Grupo_53778" data-name="Grupo 53778" transform="translate(66.867 89.771)">
              <path id="Trazado_100491" data-name="Trazado 100491" d="M-2294.629,512.175s16.16,1.236,26.69,2.541c5.875.728,15.835,2.874,19.907,5.383,6.09,3.753,29.161,23.338,24.533,29.034-4.189,5.156-21.875-14.187-21.875-14.187s19.572,17.94,13.386,23.222-23.262-19.23-23.262-19.23,19.7,18.884,12.455,23.321c-5.471,3.353-22.188-17.976-22.188-17.976s16.816,16.348,11.337,20.039c-6.054,4.078-22.719-14.642-22.719-14.642-15.505,7.037-25.766,4.045-32.813,1.048C-2310.883,550-2294.629,512.175-2294.629,512.175Z" transform="translate(2309.303 -512.175)" fill="#f5a8a0"/>
              <g id="Grupo_53777" data-name="Grupo 53777" transform="translate(40.98 16.117)">
                <path id="Trazado_100492" data-name="Trazado 100492" d="M-2207.556,540.7c2.375,2.024,4.793,4.057,6.98,6.286s4.3,4.535,6.268,6.957a53.274,53.274,0,0,1,6.768,10.154c-3.774-6.2-11.48-14.3-13.668-16.531s-4.253-4.558-6.436-6.784C-2207.7,540.728-2207.613,540.656-2207.556,540.7Z" transform="translate(2224.134 -540.688)" fill="#263239"/>
                <path id="Trazado_100493" data-name="Trazado 100493" d="M-2222.029,554.419c2.921,2.716,5.921,5.3,8.722,8.151s5.186,5.763,7.772,8.779c.2.232.009.263-.2.038-2.7-2.911-5.429-5.393-8.167-8.272s-5.366-5.865-8.2-8.631C-2222.143,554.44-2222.073,554.377-2222.029,554.419Z" transform="translate(2230.417 -546.652)" fill="#263239"/>
                <path id="Trazado_100494" data-name="Trazado 100494" d="M-2236.641,563.945a89.139,89.139,0,0,1,12.384,13.484c.188.238-.062.25-.268.018-4.033-4.56-7.163-8.166-12.253-13.34C-2236.857,564.027-2236.74,563.862-2236.641,563.945Z" transform="translate(2236.804 -550.789)" fill="#263239"/>
              </g>
            </g>
          </g>
          <g id="Grupo_53782" data-name="Grupo 53782" transform="translate(10.807)">
            <path id="Trazado_100495" data-name="Trazado 100495" d="M-2366.282,409.522l-42.2-6.145s27.521-37.972,38.766-46.855c12.656-10,15-1.34,13.343,13.9S-2366.282,409.522-2366.282,409.522Z" transform="translate(2408.48 -352.234)" fill="#d919d9"/>
            <path id="Trazado_100496" data-name="Trazado 100496" d="M-2382.992,391.048a2.161,2.161,0,0,1-.91.458,1.807,1.807,0,0,1-1.7-.526,2.39,2.39,0,0,0-2.634-.452,2.324,2.324,0,0,0-.978.859c-.22.322-.469.639-.661.984a11.221,11.221,0,0,0,.995-.661,2.334,2.334,0,0,1,.9-.48,1.809,1.809,0,0,1,1.707.452,2.415,2.415,0,0,0,2.606.537,2.28,2.28,0,0,0,1.012-.831c.215-.339.452-.644.65-1C-2382.347,390.6-2382.664,390.833-2382.992,391.048Zm17.585-15.347c-.079-.4-.124-.78-.237-1.17-.108.39-.153.774-.232,1.17a2.339,2.339,0,0,1-.3.978,1.781,1.781,0,0,1-1.52.887,2.417,2.417,0,0,0-2.221,1.458,2.34,2.34,0,0,0-.13,1.306c.079.384.13.78.237,1.164.107-.384.158-.78.237-1.164a2.2,2.2,0,0,1,.328-.967,1.791,1.791,0,0,1,1.571-.831,2.384,2.384,0,0,0,2.182-1.543A2.319,2.319,0,0,0-2365.407,375.7Zm-36.453,25.063c-.079-.39-.13-.78-.237-1.164-.107.384-.158.774-.238,1.164a2.215,2.215,0,0,1-.294.978,1.8,1.8,0,0,1-1.521.893,2.406,2.406,0,0,0-1.261.356c-.006,0-.006.006-.011.011-.4.548-.758,1.029-1.063,1.441a2.485,2.485,0,0,0-.017.955c.056.266.1.543.153.814l.164.023c.062-.283.1-.56.158-.837a2.251,2.251,0,0,1,.328-.972,1.79,1.79,0,0,1,1.566-.825,2.378,2.378,0,0,0,2.182-1.543A2.342,2.342,0,0,0-2401.86,400.764Zm46.221-41.246a1.764,1.764,0,0,1-1.628-.469,2.43,2.43,0,0,0-2.606-.543,2.34,2.34,0,0,0-1.012.842c-.215.322-.464.639-.661.983.356-.192.661-.43,1-.65a2.027,2.027,0,0,1,.91-.452,1.817,1.817,0,0,1,1.7.514,2.4,2.4,0,0,0,2.465.531C-2355.526,360.016-2355.583,359.761-2355.639,359.518Zm-11.78,47.611a1.982,1.982,0,0,1-.955-.328,1.811,1.811,0,0,1-.842-1.566,2.407,2.407,0,0,0-1.538-2.188,2.39,2.39,0,0,0-1.294-.085c-.384.079-.78.124-1.165.237.385.107.78.158,1.165.237a2.266,2.266,0,0,1,.983.294,1.776,1.776,0,0,1,.882,1.521,2.417,2.417,0,0,0,1.458,2.221,2.351,2.351,0,0,0,1.306.13c.4-.079.78-.13,1.165-.237C-2366.639,407.259-2367.023,407.208-2367.419,407.129Z" transform="translate(2407.636 -354.885)" fill="#fff"/>
            <g id="Grupo_53781" data-name="Grupo 53781" transform="translate(6.917 21.901)">
              <g id="Grupo_53780" data-name="Grupo 53780" transform="translate(0 22.308)">
                <path id="Trazado_100497" data-name="Trazado 100497" d="M-2396.133,430.446c1.493-.014,14.673,1.695,17.53,2.128s14.551,2.093,17.463,2.787a.105.105,0,0,1-.021.21c-2.976-.133-14.776-1.773-17.695-2.155s-15.922-2.362-17.323-2.777C-2396.3,430.6-2396.234,430.447-2396.133,430.446Z" transform="translate(2396.242 -430.446)" fill="#263239"/>
              </g>
              <path id="Trazado_100498" data-name="Trazado 100498" d="M-2339.872,425.551c1.282.093,3.277.315,3.277.315,1.263-5.823,3.146-11.56,4.662-17.32,1.543-5.865,3.261-11.67,4.874-17.514a.073.073,0,0,1,.141.038c-.7,3.366-1.417,6.719-2.162,10.064.167-.4.336-.8.5-1.2.587-1.43,1.214-2.84,1.753-4.289.045-.121.234-.075.2.054a36.075,36.075,0,0,1-1.478,4.432c-.429,1.011-.924,1.983-1.432,2.951-.439,1.917-.863,3.836-1.353,5.748-1.5,5.856-2.714,12.469-4.665,18.194,0,0-2.948-.687-4.393-1.192C-2340.126,425.771-2340.06,425.537-2339.872,425.551Z" transform="translate(2371.814 -390.98)" fill="#263239"/>
            </g>
          </g>
        </g>
        <g id="Grupo_53804" data-name="Grupo 53804" transform="translate(40.15 7.406)">
          <g id="Grupo_53803" data-name="Grupo 53803">
            <g id="Grupo_53802" data-name="Grupo 53802">
              <g id="Grupo_53785" data-name="Grupo 53785" transform="translate(19.045 54.12)">
                <g id="Grupo_53784" data-name="Grupo 53784">
                  <path id="Trazado_100499" data-name="Trazado 100499" d="M-2301.1,353.063c-5.706,1.939-16.583-6.022-21.233-12.874-.317-.471-.057-5.769-.046-12.221-.009-3.916-.112-8.275-.492-12.247-.082-.815,25.489,3.665,25.489,3.665s-1.651,8.56-.946,15.48a8.99,8.99,0,0,0,.328,1.613c.015.074.046.163.062.267C-2297.141,339.794-2295.591,351.185-2301.1,353.063Z" transform="translate(2322.875 -315.623)" fill="#f5a8a0"/>
                </g>
                <path id="Trazado_100500" data-name="Trazado 100500" d="M-2299.965,337.125a15.036,15.036,0,0,0,2.542-.38c-.017-.1-.044-.189-.061-.268a8.415,8.415,0,0,1-.323-1.613c-.7-6.914.941-15.474.941-15.474s-20.755-3.639-24.808-3.765C-2320.464,320.14-2314.686,338.207-2299.965,337.125Z" transform="translate(2322.353 -315.624)" fill="#263239"/>
              </g>
              <g id="Grupo_53801" data-name="Grupo 53801">
                <g id="Grupo_53786" data-name="Grupo 53786" transform="translate(11.637 7.109)">
                  <path id="Trazado_100501" data-name="Trazado 100501" d="M-2335.623,248.512c-2,9.059,4.7,34.24,11.439,39.438,9.774,7.536,24.768,7.144,30.917-4.376,5.96-11.165-3.345-43.827-10.783-48.448C-2315,228.322-2332.671,235.131-2335.623,248.512Z" transform="translate(2335.982 -232.453)" fill="#f5a8a0"/>
                </g>
                <g id="Grupo_53792" data-name="Grupo 53792" transform="translate(28.609 24.85)">
                  <g id="Grupo_53787" data-name="Grupo 53787" transform="translate(2.883 11.548)">
                    <path id="Trazado_100502" data-name="Trazado 100502" d="M-2295.148,286.779c-.029-.062-.114.112-.094.182.467,1.686.718,3.7-.682,4.633-.043.029-.018.113.037.092C-2294.075,290.965-2294.436,288.3-2295.148,286.779Z" transform="translate(2298.721 -285.355)" fill="#263239"/>
                    <path id="Trazado_100503" data-name="Trazado 100503" d="M-2299.231,284.288c-2.783.457-1.664,5.989.914,5.566C-2295.78,289.437-2296.9,283.905-2299.231,284.288Z" transform="translate(2300.855 -284.269)" fill="#263239"/>
                  </g>
                  <g id="Grupo_53788" data-name="Grupo 53788" transform="translate(16.558 8.354)">
                    <path id="Trazado_100504" data-name="Trazado 100504" d="M-2276.66,282.427c0-.068.15.055.161.126.282,1.726.894,3.657,2.558,3.922.052.008.063.1,0,.1C-2275.883,286.678-2276.671,284.108-2276.66,282.427Z" transform="translate(2276.661 -280.265)" fill="#263239"/>
                    <path id="Trazado_100505" data-name="Trazado 100505" d="M-2275.479,278.688c2.719-.75,4.017,4.744,1.5,5.438C-2276.459,284.809-2277.758,279.316-2275.479,278.688Z" transform="translate(2276.661 -278.618)" fill="#263239"/>
                  </g>
                  <path id="Trazado_100506" data-name="Trazado 100506" d="M-2300.706,272.054a22.021,22.021,0,0,1-2,1.166,3.749,3.749,0,0,1-2.27.8,1.2,1.2,0,0,1-.976-1.083,2.959,2.959,0,0,1,1.7-2.469,4.344,4.344,0,0,1,3.055-.69A1.273,1.273,0,0,1-2300.706,272.054Z" transform="translate(2305.955 -266.402)" fill="#263239"/>
                  <path id="Trazado_100507" data-name="Trazado 100507" d="M-2276.14,267.116a21.788,21.788,0,0,1-2.314-.125,3.742,3.742,0,0,1-2.335-.578,1.193,1.193,0,0,1-.221-1.441,2.959,2.959,0,0,1,2.777-1.13,4.348,4.348,0,0,1,2.932,1.1A1.273,1.273,0,0,1-2276.14,267.116Z" transform="translate(2295.174 -263.839)" fill="#263239"/>
                  <path id="Trazado_100508" data-name="Trazado 100508" d="M-2292.422,314.47c.49.309,1.013.768,1.638.687a4.572,4.572,0,0,0,1.729-.817.06.06,0,0,1,.091.071,2.33,2.33,0,0,1-1.951,1.381,1.843,1.843,0,0,1-1.653-1.211C-2292.615,314.49-2292.493,314.425-2292.422,314.47Z" transform="translate(2300.14 -285.79)" fill="#263239"/>
                  <g id="Grupo_53790" data-name="Grupo 53790" transform="translate(8.683 3.277)">
                    <g id="Grupo_53789" data-name="Grupo 53789">
                      <path id="Trazado_100509" data-name="Trazado 100509" d="M-2290.536,289.445a5.849,5.849,0,0,0,4.363,1.731,7.343,7.343,0,0,0,2.079-.345,2.048,2.048,0,0,0,.384-.129c.119-.041.227-.079.356-.135a.428.428,0,0,0,.257-.448l0-.012a.791.791,0,0,0-.053-.168l0-.012-.034-.147c-.241-1.3-.787-3.243-.787-3.243.523.136,3.166.706,2.983.038-1.529-5.526-3.229-11.671-5.917-16.847a.159.159,0,0,0-.3.109c1.259,5.369,3.453,10.48,4.8,15.854a10.235,10.235,0,0,0-2.877-.244c-.173.092,1.121,3.733,1.182,4.326a.221.221,0,0,1,0,.064c-2.115.742-3.894.435-6.316-.575C-2290.557,289.192-2290.666,289.333-2290.536,289.445Z" transform="translate(2290.594 -269.636)" fill="#263239"/>
                    </g>
                  </g>
                  <g id="Grupo_53791" data-name="Grupo 53791" transform="translate(8.452 23.007)">
                    <path id="Trazado_100510" data-name="Trazado 100510" d="M-2285.168,305.728a6.944,6.944,0,0,1-2.387,2.583,3.12,3.12,0,0,1-1.852.43c-1.414-.129-1.655-1.366-1.584-2.471a7.453,7.453,0,0,1,.334-1.729A8.993,8.993,0,0,0-2285.168,305.728Z" transform="translate(2291.001 -304.542)" fill="#263239"/>
                    <path id="Trazado_100511" data-name="Trazado 100511" d="M-2287.555,309.635a3.12,3.12,0,0,1-1.852.43c-1.414-.129-1.655-1.366-1.584-2.471A3.228,3.228,0,0,1-2287.555,309.635Z" transform="translate(2291.001 -305.865)" fill="#f095b8"/>
                  </g>
                </g>
                <g id="Grupo_53793" data-name="Grupo 53793">
                  <path id="Trazado_100512" data-name="Trazado 100512" d="M-2336.225,259.137c.523-5.316-4.222-12.9-2.278-15.69,4.209-6.028,17.249.609,24.744-1.09,7.264-1.647,8.6-6.876,5.919-12.457s-8.6-8.37-17.028-7.687c-8.715.705-15.6,5.889-19.149,9.536,0,0,1.146-3.365.248-4.119s-3.792,2.9-4.6,4.358a11.227,11.227,0,0,0-.96,3.91,12.009,12.009,0,0,0-3.391.43c-1.833.477-3.821,2.464-3.852,2.928s2.689.185,4.561-.153c0,0-2.381,5.387-1.393,9.292s11.434,21.11,12.948,20.969C-2338.508,269.182-2336.437,261.3-2336.225,259.137Z" transform="translate(2356.569 -220.849)" fill="#263239"/>
                  <path id="Trazado_100513" data-name="Trazado 100513" d="M-2349.739,251.019c.056-.054.165.016.115.085a12.741,12.741,0,0,0-2.629,6.461,15.825,15.825,0,0,0,1.8,8.1c2.349,4.883,5.954,8.969,9.251,13.213.1.124-.112.291-.216.173-3.78-4.271-7.7-8.954-9.982-14.23C-2353.339,260.322-2353.509,254.667-2349.739,251.019Z" transform="translate(2354.907 -233.408)" fill="#263239"/>
                  <path id="Trazado_100514" data-name="Trazado 100514" d="M-2326.008,255.757a18.2,18.2,0,0,1,6.68-1.1c2.171.04,4.222.907,6.292,1.477,4.642,1.279,9.566,1.96,14.26.558.06-.018.085.072.026.093-4.226,1.561-8.784,1.258-13.1.234-2.176-.517-4.341-1.477-6.565-1.727a23.6,23.6,0,0,0-7.486.855A.2.2,0,0,1-2326.008,255.757Z" transform="translate(2343.343 -234.995)" fill="#263239"/>
                  <path id="Trazado_100515" data-name="Trazado 100515" d="M-2327.307,227.674a35.415,35.415,0,0,1,8.59-5.244,27.9,27.9,0,0,1,9.307-2.513c5.577-.376,11.317,1.894,13.863,7.119a12.055,12.055,0,0,1,.858,8.634.155.155,0,0,1-.3-.077,12.445,12.445,0,0,0-6.08-13.61c-5.3-2.8-11.554-1.649-16.848.511a51,51,0,0,0-9.364,5.213C-2327.3,227.719-2327.325,227.689-2327.307,227.674Z" transform="translate(2343.85 -219.877)" fill="#263239"/>
                </g>
                <g id="Grupo_53794" data-name="Grupo 53794" transform="translate(15.461 41.108)">
                  <path id="Trazado_100516" data-name="Trazado 100516" d="M-2319.673,299.621s-6.833-4.9-9.543-7.018" transform="translate(2329.216 -292.603)" fill="none" stroke="#fff" stroke-miterlimit="10" stroke-width="1"/>
                  <path id="Trazado_100517" data-name="Trazado 100517" d="M-2324.865,316.92s4.467,6.664,8.859,9.57" transform="translate(2327.325 -303.175)" fill="none" stroke="#fff" stroke-miterlimit="10" stroke-width="1"/>
                </g>
                <g id="Grupo_53795" data-name="Grupo 53795" transform="translate(7.904 39.006)">
                  <path id="Trazado_100518" data-name="Trazado 100518" d="M-2331.207,294.138s-6.994-7.305-10.395-4.688,2.743,13.825,7.357,14.774a4.49,4.49,0,0,0,5.577-3.305Z" transform="translate(2342.586 -288.884)" fill="#f5a8a0"/>
                  <path id="Trazado_100519" data-name="Trazado 100519" d="M-2337.629,295.484a.061.061,0,0,0-.005.121c3.251.766,5.3,3.354,6.884,6.121-1.084-.991-2.42-1.42-3.769-.1-.071.069.025.183.108.15a2.763,2.763,0,0,1,3.152.488,13.308,13.308,0,0,1,1.814,2.207c.186.252.657.028.5-.27-.011-.022-.024-.045-.036-.067C-2329.5,300.219-2333.38,295.229-2337.629,295.484Z" transform="translate(2340.454 -291.749)" fill="#263239"/>
                </g>
                <g id="Grupo_53800" data-name="Grupo 53800" transform="translate(24.442 38.762)">
                  <path id="Trazado_100520" data-name="Trazado 100520" d="M-2312.765,297.816c1.367-1.76,19.016-9.2,19.526-9.357s10.98,2.009,11.721,2.526,2.072,14.881-1.076,18.922a53.991,53.991,0,0,1-8.05,8.177c-.357.157-13.061,1.347-20.345-3.971C-2312.258,313.187-2314.332,299.832-2312.765,297.816Z" transform="translate(2313.327 -288.451)" fill="#ebebeb"/>
                  <path id="Trazado_100521" data-name="Trazado 100521" d="M-2289.283,310.245l-1.249,7.772a.7.7,0,0,1-.113.073c-.356.153-13.057,1.345-20.343-3.974-1.272-.927-3.341-14.278-1.775-16.3,1.368-1.758,19.015-9.2,19.524-9.355a.254.254,0,0,1,.073-.006l2.544,8.9Z" transform="translate(2313.327 -288.455)" fill="#fff"/>
                  <path id="Trazado_100522" data-name="Trazado 100522" d="M-2289.085,294s5.8-2.979,6.825-3.079a49.852,49.852,0,0,1,5.074.7l.156,1.037s-4.429-.7-4.922-.6c-.694.149-6.795,2.882-6.795,2.882Z" transform="translate(2302.788 -289.522)" fill="#dbdbdb"/>
                  <g id="Grupo_53796" data-name="Grupo 53796" transform="translate(1.466 11.055)">
                    <rect id="Rectángulo_5141" data-name="Rectángulo 5141" width="2.451" height="0.636" transform="matrix(0.993, 0.121, -0.121, 0.993, 0.077, 0)" fill="#dbdbdb"/>
                    <rect id="Rectángulo_5142" data-name="Rectángulo 5142" width="2.451" height="0.636" transform="matrix(0.993, 0.121, -0.121, 0.993, 1.321, 12.359)" fill="#dbdbdb"/>
                  </g>
                  <g id="Grupo_53797" data-name="Grupo 53797" transform="translate(0.402 0.366)">
                    <path id="Trazado_100523" data-name="Trazado 100523" d="M-2311.479,298.588c1.306-1.68,18.155-8.782,18.641-8.933s10.483,1.918,11.19,2.412,1.978,14.206-1.028,18.065a51.522,51.522,0,0,1-7.686,7.806c-.34.15-12.469,1.287-19.424-3.791C-2311,313.263-2312.975,300.513-2311.479,298.588Z" transform="translate(2312.356 -289.338)" fill="none" stroke="#dbdbdb" stroke-miterlimit="10" stroke-width="0.25" stroke-dasharray="1"/>
                    <path id="Trazado_100524" data-name="Trazado 100524" d="M-2312.069,298.235c1.334-1.717,18.549-8.973,19.047-9.127s10.71,1.96,11.433,2.464,2.021,14.516-1.05,18.458a52.684,52.684,0,0,1-7.852,7.976c-.348.153-12.74,1.314-19.846-3.874C-2311.574,313.228-2313.6,300.2-2312.069,298.235Z" transform="translate(2312.617 -289.1)" fill="none" stroke="#dbdbdb" stroke-miterlimit="10" stroke-width="0.25" stroke-dasharray="1"/>
                  </g>
                  <g id="Grupo_53798" data-name="Grupo 53798" transform="translate(4.662 8.142)">
                    <path id="Trazado_100525" data-name="Trazado 100525" d="M-2305.079,309.229s13.133.752,17.8.564" transform="translate(2305.079 -305.626)" fill="none" stroke="#dbdbdb" stroke-miterlimit="10" stroke-width="0.5" stroke-dasharray="2"/>
                    <path id="Trazado_100526" data-name="Trazado 100526" d="M-2303.186,330.8s12.063.693,16.728.5" transform="translate(2304.256 -315.004)" fill="none" stroke="#dbdbdb" stroke-miterlimit="10" stroke-width="0.5" stroke-dasharray="2"/>
                    <path id="Trazado_100527" data-name="Trazado 100527" d="M-2271.548,306.775s6.7-2.6,8.647-3.92" transform="translate(2290.502 -302.855)" fill="none" stroke="#dbdbdb" stroke-miterlimit="10" stroke-width="0.5" stroke-dasharray="2"/>
                    <path id="Trazado_100528" data-name="Trazado 100528" d="M-2271.246,327.353s5.782-3.22,7.787-5.1" transform="translate(2290.37 -311.289)" fill="none" stroke="#dbdbdb" stroke-miterlimit="10" stroke-width="0.5" stroke-dasharray="2"/>
                  </g>
                  <path id="Trazado_100529" data-name="Trazado 100529" d="M-2277.789,288.466l2.593,9.087,1.3,12.471-1.3,8.067" transform="translate(2297.877 -288.458)" fill="none" stroke="#c8c7c7" stroke-miterlimit="10" stroke-width="1"/>
                  <g id="Grupo_53799" data-name="Grupo 53799" transform="translate(5.708 21.204)">
                    <path id="Trazado_100530" data-name="Trazado 100530" d="M-2303.228,327.24l.052-1.172a.109.109,0,0,1,.114-.1h.006l.643.028a.111.111,0,0,1,.1.114.111.111,0,0,1-.114.106l-.538-.024-.016.363.463.02a.111.111,0,0,1,.1.114.11.11,0,0,1-.114.106l-.463-.02-.021.477a.111.111,0,0,1-.116.1A.108.108,0,0,1-2303.228,327.24Z" transform="translate(2303.228 -325.964)" fill="#dbdbdb"/>
                    <path id="Trazado_100531" data-name="Trazado 100531" d="M-2301.1,327.335l.052-1.172a.108.108,0,0,1,.114-.1h.006l.643.028a.113.113,0,0,1,.1.114.112.112,0,0,1-.115.106l-.538-.024-.017.363.463.02a.112.112,0,0,1,.1.114.11.11,0,0,1-.114.106l-.463-.02-.021.477a.111.111,0,0,1-.116.1A.108.108,0,0,1-2301.1,327.335Z" transform="translate(2302.304 -326.005)" fill="#dbdbdb"/>
                    <path id="Trazado_100532" data-name="Trazado 100532" d="M-2298.493,327.018l-.244-.011-.019.431a.111.111,0,0,1-.116.1.111.111,0,0,1-.1-.114l.052-1.172a.11.11,0,0,1,.115-.1h0l.354.016a.426.426,0,0,1,.408.445A.426.426,0,0,1-2298.493,327.018Zm-.234-.231.244.011a.206.206,0,0,0,.216-.193.207.207,0,0,0-.2-.215l-.244-.011Z" transform="translate(2301.38 -326.046)" fill="#dbdbdb"/>
                    <path id="Trazado_100533" data-name="Trazado 100533" d="M-2296.189,327.563a.108.108,0,0,1-.114.1l-.7-.031h0a.108.108,0,0,1-.08-.039.11.11,0,0,1,.013-.155l.612-.506a.251.251,0,0,0,.092-.187.261.261,0,0,0-.058-.176.251.251,0,0,0-.187-.092.263.263,0,0,0-.176.058l-.064.053a.108.108,0,0,1-.154-.015.11.11,0,0,1,.015-.155l.064-.053a.468.468,0,0,1,.325-.109.477.477,0,0,1,.346.172.469.469,0,0,1,.109.325.477.477,0,0,1-.173.346l-.39.323.423.019A.109.109,0,0,1-2296.189,327.563Z" transform="translate(2300.571 -326.093)" fill="#dbdbdb"/>
                  </g>
                </g>
              </g>
            </g>
          </g>
          <path id="Trazado_100534" data-name="Trazado 100534" d="M-2327.659,361.5a35.049,35.049,0,0,0,13.216,12.2,18.275,18.275,0,0,0,8.526,2.31,7.663,7.663,0,0,0,4.412-1.221,8.989,8.989,0,0,0,2.694-3.674,17.666,17.666,0,0,0,1.3-5.077,42.587,42.587,0,0,0,.257-5.94c0-.075.108-.066.11.009.056,1.877.26,3.749.177,5.625a19.094,19.094,0,0,1-.779,4.9,11.088,11.088,0,0,1-2.267,4.112,6.888,6.888,0,0,1-4.218,2.138,16.4,16.4,0,0,1-9.194-1.616,30.259,30.259,0,0,1-7.789-5.212,33.006,33.006,0,0,1-6.6-8.465A.091.091,0,1,1-2327.659,361.5Z" transform="translate(2344.076 -280.815)" fill="#263239"/>
        </g>
      </g>
    </g>
  </g>
</svg>
